<svg width="66" height="66" viewBox="0 0 66 66" fill="none" xmlns="http://www.w3.org/2000/svg">
<path d="M30.5443 0.0383682C30.2988 0.0641632 29.5497 0.154465 28.8909 0.231873C24.0731 0.786575 18.829 2.73451 14.7474 5.46936C9.78747 8.81051 5.93835 13.1966 3.34214 18.4728C1.71466 21.801 0.720094 25.0648 0.164685 28.922C-0.0548951 30.4442 -0.0548951 35.5269 0.164685 37.0491C0.707177 40.8547 1.71466 44.1829 3.29047 47.3693C5.06003 50.9813 6.80376 53.4066 9.67122 56.2833C13.0424 59.6374 16.5945 61.9981 20.8181 63.6751C27.2893 66.2423 34.3159 66.6938 41.1358 64.9781C44.4424 64.1524 48.3819 62.4109 51.146 60.5662C58.5472 55.6254 63.7009 48.0143 65.4058 39.5001C65.8967 37.0749 66 35.9268 66 32.9855C66 28.9607 65.5608 26.2 64.3725 22.6008C62.8225 17.9439 60.2134 13.6739 56.713 10.0618C53.9748 7.22379 51.2752 5.25005 47.6586 3.43112C44.4553 1.8315 41.1874 0.799477 37.5967 0.270569C36.3567 0.0899658 31.5001 -0.0777359 30.5443 0.0383682ZM37.5837 4.46314C45.7728 5.84346 52.7089 10.3585 57.2555 17.2989C59.4513 20.6271 60.9497 24.5617 61.6342 28.793C61.9442 30.7667 61.9442 35.2044 61.6342 37.1781C60.2392 45.7954 55.5118 52.9422 48.1753 57.5604C45.0365 59.5342 41.2391 60.9274 37.1962 61.5853C35.2071 61.8949 30.7768 61.8949 28.8005 61.5724C22.381 60.5275 17.0982 57.87 12.5774 53.3679C8.13416 48.9689 5.40878 43.5766 4.36254 37.1781C4.05255 35.2044 4.05255 30.7796 4.36254 28.793C4.65962 27.0256 5.37003 24.265 5.8996 22.8847C9.25789 14.0738 16.6461 7.40439 25.636 5.06945C27.2376 4.65664 29.2268 4.29544 30.6734 4.16644C32.0684 4.03743 36.0725 4.21804 37.5837 4.46314Z" fill="white"/>
<path d="M21.8249 22.8457C21.2953 23.0779 20.7528 23.7358 20.6624 24.2518C20.6237 24.484 20.5978 27.1673 20.6237 30.2375C20.6624 35.6298 20.6753 35.8104 20.9337 36.1587C21.4374 36.8424 21.8507 37.0488 22.6645 37.0488C23.4782 37.0488 23.8915 36.8424 24.3953 36.1587C24.6665 35.8104 24.6665 35.6685 24.6665 29.8892C24.6665 24.1099 24.6665 23.968 24.3953 23.6197C24.2532 23.4262 23.982 23.1424 23.8011 23.0134C23.3749 22.6909 22.3416 22.6006 21.8249 22.8457Z" fill="white"/>
<path d="M42.4919 22.8457C41.9623 23.0779 41.4198 23.7358 41.3294 24.2518C41.2907 24.484 41.2648 27.1673 41.2907 30.2375C41.3294 35.6298 41.3423 35.8104 41.6007 36.1587C42.1044 36.8424 42.5177 37.0488 43.3315 37.0488C44.1452 37.0488 44.5585 36.8424 45.0623 36.1587C45.3335 35.8104 45.3335 35.6685 45.3335 29.8892C45.3335 24.1099 45.3335 23.968 45.0623 23.6197C44.9202 23.4262 44.649 23.1424 44.4681 23.0134C44.0419 22.6909 43.0086 22.6006 42.4919 22.8457Z" fill="white"/>
<path d="M30.2217 41.383C28 41.641 25.6105 42.4279 23.8538 43.4599C22.898 44.0146 21.2447 45.6658 20.883 46.414C20.5343 47.1236 20.5343 47.588 20.8572 48.2975C21.4643 49.652 23.2209 49.8455 24.2155 48.6845C25.7396 46.9172 27.238 46.1044 29.8988 45.6142C31.3325 45.3433 35.0912 45.382 36.4862 45.6787C38.6949 46.1431 40.6065 47.1623 41.4461 48.3362C42.0015 49.0973 42.3761 49.3682 43.0477 49.4585C44.4685 49.652 45.6181 48.4136 45.3469 46.9946C45.2952 46.7495 44.9981 46.1947 44.6881 45.769C43.1898 43.7308 40.2965 42.1699 36.8995 41.5507C35.5433 41.3056 31.6683 41.2024 30.2217 41.383Z" fill="white"/>
</svg>
