<svg width="40" height="40" viewBox="0 0 40 40" fill="none" xmlns="http://www.w3.org/2000/svg">
<path d="M35.625 5H32.5V3.75C32.5 3.08696 32.2366 2.45107 31.7678 1.98223C31.2989 1.51339 30.663 1.25 30 1.25C29.337 1.25 28.7011 1.51339 28.2322 1.98223C27.7634 2.45107 27.5 3.08696 27.5 3.75V5H22.5V3.75C22.5 3.08696 22.2366 2.45107 21.7678 1.98223C21.2989 1.51339 20.663 1.25 20 1.25C19.337 1.25 18.7011 1.51339 18.2322 1.98223C17.7634 2.45107 17.5 3.08696 17.5 3.75V5H12.5V3.75C12.5 3.08696 12.2366 2.45107 11.7678 1.98223C11.2989 1.51339 10.663 1.25 10 1.25C9.33696 1.25 8.70107 1.51339 8.23223 1.98223C7.76339 2.45107 7.5 3.08696 7.5 3.75V5H4.375C3.5462 5 2.75134 5.32924 2.16529 5.91529C1.57924 6.50134 1.25 7.2962 1.25 8.125V33.125C1.25 33.9538 1.57924 34.7487 2.16529 35.3347C2.75134 35.9208 3.5462 36.25 4.375 36.25H21.875C22.0408 36.25 22.1997 36.1842 22.3169 36.0669C22.4342 35.9497 22.5 35.7908 22.5 35.625C22.5 35.4592 22.4342 35.3003 22.3169 35.1831C22.1997 35.0658 22.0408 35 21.875 35H4.375C3.87818 34.9985 3.40212 34.8005 3.05081 34.4492C2.6995 34.0979 2.50148 33.6218 2.5 33.125V13.75H37.5V24.375C37.5 24.5408 37.5658 24.6997 37.6831 24.8169C37.8003 24.9342 37.9592 25 38.125 25C38.2908 25 38.4497 24.9342 38.5669 24.8169C38.6842 24.6997 38.75 24.5408 38.75 24.375V8.125C38.75 7.2962 38.4208 6.50134 37.8347 5.91529C37.2487 5.32924 36.4538 5 35.625 5ZM28.75 3.75C28.75 3.41848 28.8817 3.10054 29.1161 2.86612C29.3505 2.6317 29.6685 2.5 30 2.5C30.3315 2.5 30.6495 2.6317 30.8839 2.86612C31.1183 3.10054 31.25 3.41848 31.25 3.75V7.5C31.25 7.83152 31.1183 8.14946 30.8839 8.38388C30.6495 8.6183 30.3315 8.75 30 8.75C29.6685 8.75 29.3505 8.6183 29.1161 8.38388C28.8817 8.14946 28.75 7.83152 28.75 7.5V3.75ZM18.75 3.75C18.75 3.41848 18.8817 3.10054 19.1161 2.86612C19.3505 2.6317 19.6685 2.5 20 2.5C20.3315 2.5 20.6495 2.6317 20.8839 2.86612C21.1183 3.10054 21.25 3.41848 21.25 3.75V7.5C21.25 7.83152 21.1183 8.14946 20.8839 8.38388C20.6495 8.6183 20.3315 8.75 20 8.75C19.6685 8.75 19.3505 8.6183 19.1161 8.38388C18.8817 8.14946 18.75 7.83152 18.75 7.5V3.75ZM8.75 3.75C8.75 3.41848 8.8817 3.10054 9.11612 2.86612C9.35054 2.6317 9.66848 2.5 10 2.5C10.3315 2.5 10.6495 2.6317 10.8839 2.86612C11.1183 3.10054 11.25 3.41848 11.25 3.75V7.5C11.25 7.83152 11.1183 8.14946 10.8839 8.38388C10.6495 8.6183 10.3315 8.75 10 8.75C9.66848 8.75 9.35054 8.6183 9.11612 8.38388C8.8817 8.14946 8.75 7.83152 8.75 7.5V3.75ZM37.5 12.5H2.5V8.125C2.50148 7.62818 2.6995 7.15212 3.05081 6.80081C3.40212 6.4495 3.87818 6.25148 4.375 6.25H7.5V7.5C7.5 8.16304 7.76339 8.79893 8.23223 9.26777C8.70107 9.73661 9.33696 10 10 10C10.663 10 11.2989 9.73661 11.7678 9.26777C12.2366 8.79893 12.5 8.16304 12.5 7.5V6.25H17.5V7.5C17.5 8.16304 17.7634 8.79893 18.2322 9.26777C18.7011 9.73661 19.337 10 20 10C20.663 10 21.2989 9.73661 21.7678 9.26777C22.2366 8.79893 22.5 8.16304 22.5 7.5V6.25H27.5V7.5C27.5 8.16304 27.7634 8.79893 28.2322 9.26777C28.7011 9.73661 29.337 10 30 10C30.663 10 31.2989 9.73661 31.7678 9.26777C32.2366 8.79893 32.5 8.16304 32.5 7.5V6.25H35.625C36.1218 6.25148 36.5979 6.4495 36.9492 6.80081C37.3005 7.15212 37.4985 7.62818 37.5 8.125V12.5Z" fill="#F98600"/>
<path d="M18.75 18.125C18.75 17.7935 18.6183 17.4755 18.3839 17.2411C18.1495 17.0067 17.8315 16.875 17.5 16.875H15C14.6685 16.875 14.3505 17.0067 14.1161 17.2411C13.8817 17.4755 13.75 17.7935 13.75 18.125V20C13.75 20.3315 13.8817 20.6495 14.1161 20.8839C14.3505 21.1183 14.6685 21.25 15 21.25H17.5C17.8315 21.25 18.1495 21.1183 18.3839 20.8839C18.6183 20.6495 18.75 20.3315 18.75 20V18.125ZM15 20V18.125H17.5V20H15Z" fill="#F98600"/>
<path d="M11.25 18.125C11.25 17.7935 11.1183 17.4755 10.8839 17.2411C10.6495 17.0067 10.3315 16.875 10 16.875H7.5C7.16848 16.875 6.85054 17.0067 6.61612 17.2411C6.3817 17.4755 6.25 17.7935 6.25 18.125V20C6.25 20.3315 6.3817 20.6495 6.61612 20.8839C6.85054 21.1183 7.16848 21.25 7.5 21.25H10C10.3315 21.25 10.6495 21.1183 10.8839 20.8839C11.1183 20.6495 11.25 20.3315 11.25 20V18.125ZM7.5 20V18.125H10V20H7.5Z" fill="#F98600"/>
<path d="M32.5 21.25C32.8315 21.25 33.1495 21.1183 33.3839 20.8839C33.6183 20.6495 33.75 20.3315 33.75 20V18.125C33.75 17.7935 33.6183 17.4755 33.3839 17.2411C33.1495 17.0067 32.8315 16.875 32.5 16.875H30C29.6685 16.875 29.3505 17.0067 29.1161 17.2411C28.8817 17.4755 28.75 17.7935 28.75 18.125V20C28.75 20.3315 28.8817 20.6495 29.1161 20.8839C29.3505 21.1183 29.6685 21.25 30 21.25H32.5ZM30 18.125H32.5V20H30V18.125Z" fill="#F98600"/>
<path d="M18.75 23.75C18.75 23.4185 18.6183 23.1005 18.3839 22.8661C18.1495 22.6317 17.8315 22.5 17.5 22.5H15C14.6685 22.5 14.3505 22.6317 14.1161 22.8661C13.8817 23.1005 13.75 23.4185 13.75 23.75V25.625C13.75 25.9565 13.8817 26.2745 14.1161 26.5089C14.3505 26.7433 14.6685 26.875 15 26.875H17.5C17.8315 26.875 18.1495 26.7433 18.3839 26.5089C18.6183 26.2745 18.75 25.9565 18.75 25.625V23.75ZM15 25.625V23.75H17.5V25.625H15Z" fill="#F98600"/>
<path d="M11.25 23.75C11.25 23.4185 11.1183 23.1005 10.8839 22.8661C10.6495 22.6317 10.3315 22.5 10 22.5H7.5C7.16848 22.5 6.85054 22.6317 6.61612 22.8661C6.3817 23.1005 6.25 23.4185 6.25 23.75V25.625C6.25 25.9565 6.3817 26.2745 6.61612 26.5089C6.85054 26.7433 7.16848 26.875 7.5 26.875H10C10.3315 26.875 10.6495 26.7433 10.8839 26.5089C11.1183 26.2745 11.25 25.9565 11.25 25.625V23.75ZM7.5 25.625V23.75H10V25.625H7.5Z" fill="#F98600"/>
<path d="M17.5 28.125H15C14.6685 28.125 14.3505 28.2567 14.1161 28.4911C13.8817 28.7255 13.75 29.0435 13.75 29.375V31.25C13.75 31.5815 13.8817 31.8995 14.1161 32.1339C14.3505 32.3683 14.6685 32.5 15 32.5H17.5C17.8315 32.5 18.1495 32.3683 18.3839 32.1339C18.6183 31.8995 18.75 31.5815 18.75 31.25V29.375C18.75 29.0435 18.6183 28.7255 18.3839 28.4911C18.1495 28.2567 17.8315 28.125 17.5 28.125ZM15 31.25V29.375H17.5V31.25H15Z" fill="#F98600"/>
<path d="M22.5 21.25H25C25.3315 21.25 25.6495 21.1183 25.8839 20.8839C26.1183 20.6495 26.25 20.3315 26.25 20V18.125C26.25 17.7935 26.1183 17.4755 25.8839 17.2411C25.6495 17.0067 25.3315 16.875 25 16.875H22.5C22.1685 16.875 21.8505 17.0067 21.6161 17.2411C21.3817 17.4755 21.25 17.7935 21.25 18.125V20C21.25 20.3315 21.3817 20.6495 21.6161 20.8839C21.8505 21.1183 22.1685 21.25 22.5 21.25ZM22.5 18.125H25V20H22.5V18.125Z" fill="#F98600"/>
<path d="M21.25 25.625C21.25 25.9565 21.3817 26.2745 21.6161 26.5089C21.8505 26.7433 22.1685 26.875 22.5 26.875C22.6658 26.875 22.8247 26.8092 22.9419 26.6919C23.0592 26.5747 23.125 26.4158 23.125 26.25C23.125 26.0842 23.0592 25.9253 22.9419 25.8081C22.8247 25.6908 22.6658 25.625 22.5 25.625V23.75H25C25.1658 23.75 25.3247 23.6842 25.4419 23.5669C25.5592 23.4497 25.625 23.2908 25.625 23.125C25.625 22.9592 25.5592 22.8003 25.4419 22.6831C25.3247 22.5658 25.1658 22.5 25 22.5H22.5C22.1685 22.5 21.8505 22.6317 21.6161 22.8661C21.3817 23.1005 21.25 23.4185 21.25 23.75V25.625Z" fill="#F98600"/>
<path d="M10 28.125H7.5C7.16848 28.125 6.85054 28.2567 6.61612 28.4911C6.3817 28.7255 6.25 29.0435 6.25 29.375V31.25C6.25 31.5815 6.3817 31.8995 6.61612 32.1339C6.85054 32.3683 7.16848 32.5 7.5 32.5H10C10.3315 32.5 10.6495 32.3683 10.8839 32.1339C11.1183 31.8995 11.25 31.5815 11.25 31.25V29.375C11.25 29.0435 11.1183 28.7255 10.8839 28.4911C10.6495 28.2567 10.3315 28.125 10 28.125ZM7.5 31.25V29.375H10V31.25H7.5Z" fill="#F98600"/>
<path d="M30.625 22.5C29.018 22.5 27.4471 22.9765 26.111 23.8693C24.7748 24.7621 23.7334 26.031 23.1185 27.5157C22.5035 29.0003 22.3426 30.634 22.6561 32.2101C22.9696 33.7862 23.7435 35.2339 24.8798 36.3702C26.0161 37.5065 27.4638 38.2804 29.0399 38.5939C30.616 38.9074 32.2496 38.7465 33.7343 38.1315C35.2189 37.5166 36.4879 36.4752 37.3807 35.139C38.2735 33.8029 38.75 32.232 38.75 30.625C38.7475 28.4709 37.8907 26.4057 36.3675 24.8825C34.8443 23.3593 32.7791 22.5025 30.625 22.5ZM30.625 37.5C29.2653 37.5 27.936 37.0968 26.8055 36.3414C25.6749 35.5859 24.7937 34.5122 24.2733 33.2559C23.753 31.9997 23.6168 30.6174 23.8821 29.2838C24.1474 27.9501 24.8022 26.7251 25.7636 25.7636C26.7251 24.8022 27.9501 24.1474 29.2838 23.8821C30.6174 23.6168 31.9997 23.753 33.2559 24.2733C34.5122 24.7937 35.5859 25.6749 36.3413 26.8055C37.0968 27.936 37.5 29.2653 37.5 30.625C37.4978 32.4477 36.7728 34.1951 35.484 35.484C34.1951 36.7728 32.4477 37.4978 30.625 37.5Z" fill="#F98600"/>
<path d="M34.2363 28.0036L29.375 32.8648L27.1656 30.6548C27.0478 30.541 26.8899 30.478 26.726 30.4794C26.5621 30.4808 26.4054 30.5466 26.2895 30.6624C26.1736 30.7783 26.1079 30.9351 26.1065 31.0989C26.105 31.2628 26.168 31.4207 26.2819 31.5386L28.9331 34.1904C29.0503 34.3076 29.2093 34.3734 29.375 34.3734C29.5407 34.3734 29.6997 34.3076 29.8169 34.1904L35.12 28.8873C35.2339 28.7694 35.2969 28.6116 35.2954 28.4477C35.294 28.2838 35.2283 28.1271 35.1124 28.0112C34.9965 27.8953 34.8398 27.8296 34.6759 27.8281C34.512 27.8267 34.3541 27.8897 34.2363 28.0036Z" fill="#F98600"/>
</svg>
