<svg width="40" height="40" viewBox="0 0 40 40" fill="none" xmlns="http://www.w3.org/2000/svg">
<path d="M39.992 21.5288C39.9442 20.421 38.8603 19.5363 36.7643 18.8987C35.1385 18.4126 33.0743 18.1177 30.8428 18.0699V9.56621C30.8348 9.42276 30.795 9.28727 30.7233 9.16773C30.5001 8.20339 29.4242 7.42236 27.5194 6.84854C25.7262 6.3066 23.3831 6.01172 20.9205 6.01172C18.4658 6.01172 16.1466 6.3066 14.3853 6.84854C12.9428 7.29484 11.2134 8.12369 11.2134 9.55027C11.2134 9.63794 11.2214 9.72561 11.2373 9.81327L11.325 13.4475C6.14465 12.4592 1.14764 15.8623 0.167364 21.0346C0.055788 21.6244 0 22.2142 0 22.8119C0 28.0719 4.27974 32.3516 9.53975 32.3516C11.7314 32.3516 13.8514 31.6025 15.5489 30.2157C17.0393 30.5664 18.7926 30.7577 20.6495 30.7736C21.056 32.9812 25.8378 33.9934 30.2929 33.9934C32.7476 33.9934 35.0667 33.6905 36.8281 33.1406C38.2706 32.6943 40 31.8575 40 30.4309V21.6802C40 21.6324 40 21.5766 39.992 21.5288ZM29.1771 13.9735C29.1771 14.0771 28.7946 14.627 27.0652 15.153C25.4473 15.6391 23.2078 15.926 20.9285 15.926C18.96 15.926 17.0313 15.7188 15.5011 15.3283C15.4772 15.3203 15.4612 15.3203 15.4373 15.3124C14.6802 14.7146 13.8434 14.2365 12.9428 13.9017L12.887 11.6543C13.4369 11.9332 14.0108 12.1564 14.6085 12.3158C16.3379 12.8179 18.5774 13.0888 20.9285 13.0888C23.3831 13.0888 25.7342 12.7939 27.5274 12.252C28.1251 12.0767 28.7069 11.8456 29.2568 11.5586V13.6467C29.1692 13.7583 29.1771 13.8619 29.1771 13.9735ZM14.8635 8.38669C16.4734 7.89257 18.6252 7.61363 20.9205 7.61363C23.1998 7.61363 25.4393 7.89257 27.0572 8.38669C28.7866 8.91269 29.1692 9.45464 29.1692 9.55824C29.1692 9.66982 28.7786 10.2197 27.0492 10.7378C25.4314 11.2239 23.1998 11.5029 20.9205 11.5029C18.7209 11.5029 16.6328 11.2478 15.0468 10.7856C13.3333 10.2915 12.8552 9.74952 12.8153 9.57418C12.8153 9.55824 12.8073 9.55824 12.8073 9.55824C12.8153 9.40682 13.1819 8.89676 14.8635 8.38669ZM14.8874 28.6935C11.6438 31.6423 6.61486 31.4112 3.66607 28.1675C0.717274 24.9239 0.948396 19.895 4.19207 16.9462C5.65053 15.6152 7.56326 14.882 9.53975 14.882C10.3367 14.882 11.1257 15.0016 11.8908 15.2327C14.6563 16.0934 16.7364 18.3887 17.3262 21.2179C17.4298 21.7439 17.4856 22.2859 17.4856 22.8198C17.4935 25.0593 16.5451 27.1873 14.8874 28.6935ZM16.9117 28.8689C17.5573 28.0799 18.0753 27.1952 18.4419 26.2468C19.1193 26.3026 19.8207 26.3425 20.5539 26.3504V26.4939L20.6017 29.1956C19.3664 29.1797 18.1311 29.0681 16.9117 28.8689ZM19.0396 21.8715C19.5019 21.9033 19.988 21.9193 20.4822 21.9272L20.53 24.7485C19.9721 24.7406 19.4222 24.7166 18.8962 24.6768C19.0157 24.0631 19.0795 23.4335 19.0795 22.8119C19.0795 22.5011 19.0636 22.1902 19.0396 21.8715ZM21.0002 20.3413C20.9763 20.3413 20.9444 20.3413 20.9205 20.3413C20.1554 20.3413 19.4142 20.3094 18.7288 20.2616C18.426 19.1936 17.9478 18.1894 17.3023 17.2968C18.4977 17.4483 19.7011 17.528 20.9125 17.528C23.3752 17.528 25.7262 17.2331 27.5194 16.6911C28.1172 16.5158 28.691 16.2847 29.2409 16.0057V18.0938C25.8219 18.1894 22.3072 18.9067 21.0002 20.3413ZM22.0522 21.6085C22.0522 21.6005 22.0522 21.5925 22.0602 21.5766C22.1319 21.3614 22.6978 20.8354 24.3475 20.3731C25.8936 19.9348 27.9099 19.6957 30.0299 19.6957H30.1654C32.4447 19.6957 34.6762 19.9587 36.3021 20.4528C37.9996 20.9629 38.3981 21.4889 38.4061 21.6085V21.6164C38.3981 21.736 37.9996 22.2859 36.2303 22.8119C34.5965 23.298 32.4447 23.561 30.1733 23.561C27.9737 23.561 25.8856 23.306 24.2997 22.8517C22.5862 22.3576 22.116 21.8077 22.0681 21.6403C22.0522 21.6085 22.0522 21.6085 22.0522 21.6085ZM36.3658 31.6264C34.7559 32.1285 32.5961 32.4074 30.3009 32.4074C27.9976 32.4074 25.8458 32.1364 24.2518 31.6503C22.5702 31.1323 22.2196 30.5983 22.2196 30.4787C22.2196 30.4708 22.2196 30.4708 22.2196 30.4628L22.1797 28.1516C22.8173 28.4624 23.4788 28.7015 24.1642 28.8768C25.8378 29.3152 27.9657 29.5622 30.1494 29.5622C32.6121 29.5622 34.9472 29.2673 36.7324 28.7254C37.3142 28.5501 37.8721 28.319 38.4061 28.048V30.4389H38.414C38.414 30.5505 38.0474 31.1004 36.3658 31.6264ZM38.422 25.7607H38.414C38.414 25.8404 38.3662 25.936 38.3662 26.0237C38.3662 26.1353 37.9916 26.6772 36.2702 27.2032C34.6364 27.6973 32.4607 27.9683 30.1574 27.9683C25.7422 27.9683 22.7695 26.9721 22.1478 26.199L22.1399 25.5296L22.108 23.6965C22.6659 23.9755 23.2477 24.1986 23.8454 24.366C25.5748 24.8681 27.8143 25.139 30.1654 25.139C32.5882 25.139 34.8994 24.8521 36.6766 24.3261C37.2823 24.1588 37.8641 23.9276 38.422 23.6407V25.7607Z" fill="#F98600"/>
<path d="M12.4407 23.9401C12.0741 22.6411 10.8866 21.7485 9.53974 21.7485C8.75871 21.7485 8.12113 21.1189 8.12113 20.3378C8.1291 19.5488 8.75871 18.9192 9.53974 18.9192C10.3208 18.9192 10.9584 19.5568 10.9584 20.3378C10.9584 20.7762 11.317 21.1348 11.7553 21.1348C12.1937 21.1348 12.5523 20.7762 12.5523 20.3378C12.5523 18.9909 11.6597 17.8035 10.3606 17.4369V17.0782C10.3606 16.6399 10.002 16.2812 9.56365 16.2812C9.12532 16.2812 8.76668 16.6399 8.76668 17.0782V17.4209C7.16476 17.8513 6.2084 19.501 6.63876 21.1029C6.98943 22.4179 8.17692 23.3344 9.53974 23.3344C10.3208 23.3344 10.9584 23.964 10.9584 24.7451C10.9584 25.5261 10.3287 26.1637 9.54771 26.1637C8.76668 26.1637 8.1291 25.5341 8.1291 24.753C8.1291 24.3147 7.77046 23.9561 7.33213 23.9561C6.89379 23.9561 6.53516 24.3147 6.53516 24.753C6.54313 26.1159 7.45167 27.3034 8.76668 27.662V28.3554C8.76668 28.7937 9.12532 29.1523 9.56365 29.1523C10.002 29.1523 10.3606 28.7937 10.3606 28.3554V27.654C11.9625 27.1997 12.895 25.542 12.4407 23.9401Z" fill="#F98600"/>
</svg>
