<svg width="36" height="36" viewBox="0 0 36 36" fill="none" xmlns="http://www.w3.org/2000/svg">
<path d="M19.1935 23.6995H28.7905C29.1504 23.6995 29.3903 23.4596 29.3903 23.0997V17.7014C29.3903 17.3415 29.1504 17.1016 28.7905 17.1016H19.1935C18.8337 17.1016 18.5938 17.3415 18.5938 17.7014V23.0997C18.5937 23.4595 18.8337 23.6995 19.1935 23.6995ZM19.7933 18.3011H28.1907V22.4998H19.7933V18.3011Z" fill="#D5D5D5"/>
<path d="M2.9992 15.8988H7.79773C8.15762 15.8988 8.39752 15.6589 8.39752 15.299C8.39752 14.9391 8.15762 14.6992 7.79773 14.6992H2.9992C2.63932 14.6992 2.39941 14.9391 2.39941 15.299C2.39941 15.6589 2.63932 15.8988 2.9992 15.8988Z" fill="#D5D5D5"/>
<path d="M10.1965 15.8988H14.995C15.3549 15.8988 15.5948 15.6589 15.5948 15.299C15.5948 14.9391 15.3549 14.6992 14.995 14.6992H10.1965C9.83658 14.6992 9.59668 14.9391 9.59668 15.299C9.59668 15.6589 9.83658 15.8988 10.1965 15.8988Z" fill="#D5D5D5"/>
<path d="M2.9992 18.3011H10.7967C11.1566 18.3011 11.3965 18.0612 11.3965 17.7014C11.3965 17.3415 11.1566 17.1016 10.7967 17.1016H2.9992C2.63932 17.1016 2.39941 17.3415 2.39941 17.7014C2.39941 18.0612 2.63932 18.3011 2.9992 18.3011Z" fill="#D5D5D5"/>
<path d="M14.9949 17.1016H13.1955C12.8356 17.1016 12.5957 17.3415 12.5957 17.7014C12.5957 18.0612 12.8356 18.3011 13.1955 18.3011H14.9949C15.3548 18.3011 15.5947 18.0612 15.5947 17.7014C15.5947 17.3415 15.3548 17.1016 14.9949 17.1016Z" fill="#D5D5D5"/>
<path d="M35.4489 9.66268C35.0291 9.12285 34.4892 8.82292 33.8294 8.76296L32.3899 8.5885V6.90349V5.70391C32.3899 4.38435 31.3102 3.30469 29.9907 3.30469H2.39923C1.07966 3.30462 0 4.38428 0 5.70391V6.90356V11.7021V24.8979C0 25.9813 0.727999 26.9025 1.71881 27.1977C1.68859 28.4111 2.60665 29.4644 3.83885 29.5765L31.5502 32.6955C31.6101 32.6955 31.7301 32.6955 31.7901 32.6955C32.9897 32.6955 34.0694 31.7958 34.1893 30.6561L35.9888 11.4022C36.0487 10.8023 35.8688 10.1425 35.4489 9.66268ZM1.19965 7.50335H31.1903V9.06289V11.1022H1.19965V7.50335ZM2.39923 4.50427H29.9906C30.6504 4.50427 31.1902 5.0441 31.1902 5.70391V6.3037H1.19965V5.70391C1.19965 5.0441 1.73948 4.50427 2.39923 4.50427ZM1.19965 24.8979V12.3018H31.1903V24.8979C31.1903 25.5577 30.6505 26.0975 29.9907 26.0975H2.45925H2.3993C1.73948 26.0975 1.19965 25.5577 1.19965 24.8979ZM34.7891 11.1622L32.9897 30.4162C32.9297 31.076 32.3298 31.5558 31.6701 31.4958L4.01872 28.3768C3.41893 28.3169 2.99902 27.837 2.93906 27.2972H29.9906C31.3101 27.2972 32.3898 26.2175 32.3898 24.8979V11.702V9.72264L33.7694 9.84262C34.0693 9.84262 34.3692 10.0226 34.5491 10.2625C34.7291 10.5024 34.8491 10.8623 34.7891 11.1622Z" fill="#D5D5D5"/>
</svg>
