<svg width="80" height="80" viewBox="0 0 80 80" fill="none" xmlns="http://www.w3.org/2000/svg">
<path d="M36.4257 0.0969772C26.7879 1.03518 18.0263 5.24142 11.3142 12.1528C1.12886 22.645 -2.48531 37.4997 1.7234 51.6196C2.28665 53.4803 3.06893 55.4349 4.21107 57.8117L5.32192 60.079L2.63085 68.6009C-0.263611 77.764 -0.247965 77.7171 0.456093 78.8429C0.831591 79.4527 1.78598 79.9844 2.50569 80C3.11587 80 21.2493 74.2614 21.7187 73.9174C23.2207 72.8228 23.1894 70.6337 21.6561 69.6955C20.7017 69.1013 20.1228 69.2107 13.1604 71.4155C9.59321 72.5257 6.63616 73.417 6.58922 73.3857C6.55793 73.3388 7.44974 70.3991 8.56059 66.834C10 62.2994 10.6102 60.1259 10.6102 59.5942C10.6102 58.9844 10.4694 58.5935 9.82789 57.4833C6.87085 52.3076 5.3845 47.085 5.18111 41.1431C4.97771 35.2011 6.08856 29.9785 8.65446 24.7246C10.4537 21.0344 12.3938 18.3293 15.3821 15.3427C18.3705 12.3561 21.0772 10.4171 24.7696 8.61893C34.2978 3.97485 45.4063 3.91231 54.9659 8.44692C58.6739 10.2139 61.631 12.3092 64.6662 15.3427C67.6389 18.298 69.5946 21.0344 71.3939 24.7246C73.772 29.5876 74.9142 34.5444 74.9142 39.9703C74.9142 47.6791 72.5673 54.6687 67.811 61.0797C66.4029 62.9717 63.0704 66.3023 61.1303 67.7565C54.5278 72.6821 46.9709 75.0901 38.929 74.793C35.0175 74.6366 31.9979 74.0894 28.462 72.8853C27.5545 72.5883 26.5845 72.3381 26.2872 72.3381C25.5675 72.3381 24.5975 72.901 24.1907 73.5577C23.5649 74.5897 23.8621 76.169 24.8478 76.8883C25.7396 77.5607 30.3238 78.9367 33.3747 79.4371C37.3488 80.1095 42.1207 80.1407 46.0478 79.5309C58.9712 77.5294 70.0953 69.3827 75.8529 57.7178C77.8243 53.7305 78.9195 50.2905 79.6392 45.9122C80.0929 43.0664 80.1242 37.2339 79.7018 34.4975C78.5596 27.1327 75.9625 21.05 71.5034 15.2645C70.1892 13.5601 66.4498 9.82294 64.7445 8.50947C59.0807 4.14686 52.9632 1.50427 46.0478 0.409714C43.7479 0.0500717 38.6161 -0.121933 36.4257 0.0969772Z" fill="white"/>
<path d="M12.3316 28.1338C12.0344 28.3214 11.6589 28.728 11.4868 29.0251C11.1582 29.5567 11.1582 29.76 11.1582 39.9707C11.1582 50.0876 11.1738 50.3847 11.4711 50.9007C12.4724 52.6051 14.6159 52.652 15.8363 51.0101C16.1492 50.6036 16.1648 50.3378 16.2118 46.5224L16.2587 42.4726H17.8859H19.4974L19.56 46.413C19.6069 50.8381 19.6695 51.0727 20.796 51.8232C21.2341 52.136 21.4844 52.1829 22.2667 52.136C23.3462 52.0734 23.8782 51.7607 24.3632 50.9007C24.6918 50.3378 24.6918 50.1501 24.6918 39.9707C24.6918 29.7913 24.6918 29.6036 24.3632 29.0407C23.8782 28.1807 23.3462 27.868 22.2667 27.8054C21.4844 27.7585 21.2341 27.8054 20.796 28.1182C19.6695 28.8687 19.6069 29.1033 19.56 33.5128L19.4974 37.4688H17.8859H16.2587L16.2118 33.419C16.1648 29.588 16.1492 29.3378 15.8363 28.9156C14.9758 27.7585 13.4112 27.3989 12.3316 28.1338Z" fill="white"/>
<path d="M43.1529 28.1169C42.8713 28.3202 42.4801 28.6798 42.308 28.9144C41.9795 29.3522 41.9795 29.4929 41.9325 39.5473C41.9012 45.1608 41.9325 49.9612 41.9795 50.2427C42.1672 51.306 43.3093 52.1973 44.4828 52.1973C45.3276 52.1973 45.9848 51.8533 46.548 51.1183L46.9861 50.5554V39.9538C46.9861 29.446 46.9861 29.3522 46.6575 28.9144C46.0786 28.1482 45.3746 27.7729 44.4828 27.7729C43.8882 27.7729 43.5284 27.8667 43.1529 28.1169Z" fill="white"/>
<path d="M50.5378 28.0397C50.2562 28.1805 49.8494 28.587 49.646 28.9466L49.2549 29.6034V39.9704V50.3375L49.646 50.9942C50.0998 51.7917 50.8195 52.167 51.8677 52.167C52.7908 52.167 53.4636 51.7917 53.9643 50.9786L54.3397 50.3688V39.9704V29.5721L53.9643 28.9623C53.7609 28.6339 53.3697 28.2274 53.1037 28.071C52.4936 27.6957 51.2575 27.6801 50.5378 28.0397Z" fill="white"/>
<path d="M31.0282 32.4335C28.697 33.2466 27.0698 35.0135 26.5848 37.2808C26.3188 38.5317 26.3657 46.0529 26.6317 47.2413C26.929 48.4922 27.5079 49.4773 28.4466 50.353C31.1377 52.8549 35.5185 52.8392 38.1001 50.2905C39.1953 49.2272 39.7741 48.0231 39.6646 47.0693C39.5238 45.7402 38.4756 44.8176 37.1457 44.8176C36.16 44.8176 35.4872 45.1929 34.9396 46.0686C34.2199 47.21 32.7961 47.4602 31.9513 46.6158C31.6384 46.3031 31.5758 46.0842 31.5758 45.2242V44.2078L35.0022 44.1609C38.1939 44.114 38.4756 44.0827 38.8667 43.7856C39.868 43.0351 39.9463 42.8162 39.9932 40.1892C40.0401 38.2972 39.9932 37.5935 39.7898 36.8899C39.164 34.732 37.6307 33.1684 35.409 32.4022C34.3764 32.0582 32.0764 32.0738 31.0282 32.4335ZM34.392 37.5935C34.658 37.7968 34.7988 38.0626 34.8301 38.4535L34.877 39.0321H33.2342H31.5758V38.6255C31.5758 37.359 33.2499 36.7492 34.392 37.5935Z" fill="white"/>
<path d="M60.5197 32.4331C58.2667 33.2931 56.9212 34.6691 56.264 36.7331C56.0137 37.5306 55.9824 38.2343 55.9824 42.159C55.9824 46.2246 56.0137 46.7562 56.2953 47.6788C56.9212 49.6802 58.5014 51.2283 60.6449 51.9319C61.6305 52.2446 63.8209 52.2916 64.6971 52.0101C67.1848 51.197 68.9215 49.3832 69.4221 47.0377C69.7037 45.7085 69.6568 38.2186 69.3595 37.0771C68.8276 35.0913 67.6072 33.6215 65.7141 32.7302C64.7597 32.2767 64.5094 32.2298 62.9448 32.1985C61.6149 32.1673 61.0673 32.2142 60.5197 32.4331ZM63.5706 37.3742C63.8522 37.4993 64.1651 37.7339 64.259 37.9059C64.3685 38.1092 64.4311 39.6572 64.4311 42.1903C64.4311 46.5998 64.4155 46.678 63.4142 47.0064C62.757 47.2253 62.0843 47.1002 61.5367 46.678L61.1455 46.3653V42.1747C61.1455 37.5932 61.1299 37.7182 62.0843 37.3273C62.6319 37.1084 62.9604 37.1241 63.5706 37.3742Z" fill="white"/>
</svg>
