<svg width="27" height="27" viewBox="0 0 27 27" fill="none" xmlns="http://www.w3.org/2000/svg">
<g clip-path="url(#clip0_1104_8337)">
<path d="M23.2484 16.6097L19.8057 19.1523C19.47 19.3921 19.1019 19.5744 18.7168 19.6977C18.9214 19.1056 18.8866 18.4709 18.6157 17.9031C18.3356 17.316 17.8416 16.8794 17.2227 16.6731L10.3508 14.3994C8.28251 13.7099 5.5003 14.0081 3.64289 15.6635H0.791016C0.354164 15.6635 0 16.0177 0 16.4545V24.3647C0 24.8015 0.354164 25.1557 0.791016 25.1557H3.95508C4.39193 25.1557 4.74609 24.8015 4.74609 24.3647V23.7736L10.9503 25.1834C12.0817 25.4425 13.2413 25.5784 14.3143 25.5784C14.3634 25.5784 14.4123 25.5782 14.4609 25.5776C17.4632 25.5424 20.3629 24.5863 22.8464 22.8124L26.0069 20.4716C27.1133 19.6813 27.3302 18.1201 26.4807 17.0582C25.6936 16.0743 24.2737 15.8773 23.2484 16.6097ZM3.16406 23.5737H1.58203V17.2455H3.16406V23.5737ZM25.0874 19.1843L21.9268 21.5251C19.7078 23.11 17.1197 23.9643 14.4424 23.9956C13.4523 24.0072 12.3665 23.8847 11.3021 23.6411L4.74609 22.1513V16.7997C6.45047 15.3204 8.80342 15.5512 9.8521 15.9008L16.7241 18.1745C16.9298 18.243 17.0945 18.3886 17.1878 18.5843C17.2812 18.78 17.2907 18.9995 17.2146 19.2025C17.0645 19.6027 16.6292 19.8103 16.2238 19.6752C16.223 19.6749 16.2223 19.6748 16.2215 19.6745L11.3749 18.0764C10.9599 17.9396 10.5128 18.1651 10.3759 18.5799C10.2391 18.9948 10.4646 19.4421 10.8794 19.5789L15.7559 21.1868C17.4308 21.7452 19.2885 21.4658 20.7252 20.4396L24.168 17.897C24.5097 17.6529 24.9829 17.7186 25.2453 18.0465C25.528 18.3998 25.4584 18.9192 25.0874 19.1843Z" fill="#F98600"/>
<path d="M21.4063 8.16932C20.984 7.94399 20.4968 7.8536 20.0256 7.76617C19.6727 7.70067 19.3078 7.63301 19.1014 7.52285C18.9961 7.46664 18.9961 7.45208 18.9961 7.35737C18.9961 7.30131 19.0873 7.19901 19.2618 7.11179C19.6937 6.89589 20.3027 6.91356 20.6196 7.15123C20.9692 7.41337 21.4649 7.3425 21.727 6.99303C21.9892 6.64356 21.9184 6.14775 21.5688 5.88561C21.3087 5.69049 21.0017 5.55106 20.6724 5.46811V5.27441C20.6724 4.83756 20.3182 4.4834 19.8813 4.4834C19.4445 4.4834 19.0903 4.83756 19.0903 5.27441V5.49184C18.9061 5.54294 18.726 5.61091 18.5543 5.69682C17.8297 6.0591 17.4141 6.66439 17.4141 7.35742C17.4141 8.04967 17.74 8.58951 18.3565 8.91857C18.7787 9.1439 19.2659 9.23429 19.7371 9.32172C20.09 9.38722 20.4549 9.45488 20.6613 9.56504C20.7666 9.6212 20.7666 9.63581 20.7666 9.73047C20.7666 9.78468 20.673 9.88904 20.4996 9.97579C20.068 10.1916 19.4595 10.174 19.1431 9.93666C18.7936 9.67452 18.2978 9.74545 18.0356 10.0949C17.7735 10.4444 17.8444 10.9402 18.1938 11.2023C18.454 11.3974 18.7611 11.5367 19.0903 11.6196V11.8135C19.0903 12.2503 19.4445 12.6045 19.8813 12.6045C20.3182 12.6045 20.6724 12.2503 20.6724 11.8135V11.5949C20.8561 11.5438 21.0358 11.4765 21.2071 11.3908C21.9326 11.028 22.3486 10.4229 22.3486 9.73042C22.3486 9.03817 22.0227 8.49838 21.4063 8.16932Z" fill="#F4B74B"/>
<path d="M19.8809 15.6621C23.8064 15.6621 27 12.4685 27 8.54297C27 4.61747 23.8064 1.42383 19.8809 1.42383C15.9554 1.42383 12.7617 4.61747 12.7617 8.54297C12.7617 12.4685 15.9554 15.6621 19.8809 15.6621ZM19.8809 3.00586C22.934 3.00586 25.418 5.48981 25.418 8.54297C25.418 11.5961 22.934 14.0801 19.8809 14.0801C16.8277 14.0801 14.3438 11.5961 14.3438 8.54297C14.3438 5.48981 16.8277 3.00586 19.8809 3.00586Z" fill="#F4B74B"/>
</g>
<defs>
<clipPath id="clip0_1104_8337">
<rect width="27" height="27" fill="white"/>
</clipPath>
</defs>
</svg>
