<svg width="15" height="15" viewBox="0 0 15 15" fill="none" xmlns="http://www.w3.org/2000/svg">
<path d="M10.7812 7.5H8.90625C8.64735 7.5 8.4375 7.70985 8.4375 7.96875V11.7188C8.4375 11.9776 8.64735 12.1875 8.90625 12.1875H10.7812C11.299 12.1875 11.7188 11.7678 11.7188 11.25V8.4375C11.7188 7.91974 11.299 7.5 10.7812 7.5ZM10.7812 11.25H9.375V8.4375H10.7812V11.25Z" fill="#F98600"/>
<path d="M15 8.4375V7.5H12.6562C12.3974 7.5 12.1875 7.70985 12.1875 7.96875V12.1875H13.125V10.3125H15V9.375H13.125V8.4375H15Z" fill="#F98600"/>
<path d="M0.9375 13.5938V1.40626C0.9375 1.14736 1.14735 0.937508 1.40625 0.937508H8.4375V2.81251C8.4375 3.33027 8.85724 3.75001 9.375 3.75001H11.25V5.15626H12.1875V3.28126C12.1882 3.15666 12.1393 3.03689 12.0516 2.94845L9.23906 0.135945C9.15062 0.0482008 9.03085 -0.000695646 8.90625 7.47947e-06H1.40625C0.62959 7.47947e-06 0 0.629627 0 1.40626V13.5938C0 14.3704 0.62959 15 1.40625 15H4.6875V14.0625H1.40625C1.14738 14.0625 0.9375 13.8527 0.9375 13.5938Z" fill="#F98600"/>
<path d="M7.03125 7.5H5.15625C4.89735 7.5 4.6875 7.70985 4.6875 7.96875V12.1875H5.625V10.7812H7.03125C7.54901 10.7812 7.96875 10.3615 7.96875 9.84375V8.4375C7.96875 7.91974 7.54901 7.5 7.03125 7.5ZM7.03125 9.84375H5.625V8.4375H7.03125V9.84375Z" fill="#F98600"/>
</svg>
