<svg width="53" height="53" viewBox="0 0 53 53" fill="none" xmlns="http://www.w3.org/2000/svg">
<circle cx="26.5" cy="26.5" r="26.5" fill="white"/>
<path fill-rule="evenodd" clip-rule="evenodd" d="M28 19C29.1046 19 30 18.1046 30 17C30 15.8954 29.1046 15 28 15C26.8954 15 26 15.8954 26 17C26 18.1046 26.8954 19 28 19ZM28 21C30.2091 21 32 19.2091 32 17C32 14.7909 30.2091 13 28 13C25.7909 13 24 14.7909 24 17C24 19.2091 25.7909 21 28 21Z" fill="#F98600"/>
<path d="M13 17C13 16.4477 13.4477 16 14 16H24C24.5523 16 25 16.4477 25 17C25 17.5523 24.5523 18 24 18H14C13.4477 18 13 17.5523 13 17Z" fill="#F98600"/>
<path d="M34 17C34 16.4477 34.4477 16 35 16H39C39.5523 16 40 16.4477 40 17C40 17.5523 39.5523 18 39 18H35C34.4477 18 34 17.5523 34 17Z" fill="#F98600"/>
<path fill-rule="evenodd" clip-rule="evenodd" d="M25 38C26.1046 38 27 37.1046 27 36C27 34.8954 26.1046 34 25 34C23.8954 34 23 34.8954 23 36C23 37.1046 23.8954 38 25 38ZM25 40C27.2091 40 29 38.2091 29 36C29 33.7909 27.2091 32 25 32C22.7909 32 21 33.7909 21 36C21 38.2091 22.7909 40 25 40Z" fill="#F98600"/>
<path d="M13 36C13 35.4477 13.4477 35 14 35H22C22.5523 35 23 35.4477 23 36C23 36.5523 22.5523 37 22 37H14C13.4477 37 13 36.5523 13 36Z" fill="#F98600"/>
<path d="M32 36C32 35.4477 32.4477 35 33 35H39C39.5523 35 40 35.4477 40 36C40 36.5523 39.5523 37 39 37H33C32.4477 37 32 36.5523 32 36Z" fill="#F98600"/>
<path fill-rule="evenodd" clip-rule="evenodd" d="M22 24C20.8954 24 20 24.8954 20 26C20 27.1046 20.8954 28 22 28C23.1046 28 24 27.1046 24 26C24 24.8954 23.1046 24 22 24ZM22 22C19.7909 22 18 23.7909 18 26C18 28.2091 19.7909 30 22 30C24.2091 30 26 28.2091 26 26C26 23.7909 24.2091 22 22 22Z" fill="#F98600"/>
<path d="M40 26C40 26.5523 39.5523 27 39 27L29 27C28.4477 27 28 26.5523 28 26C28 25.4477 28.4477 25 29 25L39 25C39.5523 25 40 25.4477 40 26Z" fill="#F98600"/>
<path d="M20 26C20 26.5523 19.5523 27 19 27L14 27C13.4477 27 13 26.5523 13 26C13 25.4477 13.4477 25 14 25L19 25C19.5523 25 20 25.4477 20 26Z" fill="#F98600"/>
</svg>
