<svg width="80" height="70" viewBox="0 0 80 70" fill="none" xmlns="http://www.w3.org/2000/svg">
<path d="M78.7247 56.2389L48.1466 4.58702C46.4463 1.71491 43.4009 0 39.9999 0C36.5992 0 33.5535 1.71491 31.8532 4.58702L1.27535 56.2388C-0.425116 59.1112 -0.425116 62.5407 1.27535 65.413C2.97581 68.2852 6.02112 70 9.42204 70H70.5778C73.9786 70 77.024 68.2851 78.7247 65.4131C80.4251 62.5407 80.4251 59.1112 78.7247 56.2389ZM74.6656 63.1277C73.8123 64.5689 72.2842 65.4293 70.5778 65.4293H9.42204C7.71549 65.4293 6.18737 64.5689 5.33424 63.1277C4.48112 61.6865 4.48112 59.9658 5.33424 58.5245L35.9124 6.87261C36.7656 5.43137 38.2937 4.57102 40.0001 4.57102C41.7063 4.57102 43.2346 5.43137 44.0877 6.87261L74.6658 58.5245C75.5187 59.9658 75.5187 61.6865 74.6656 63.1277Z" fill="white"/>
<path d="M42.3431 22.8125H37.6562V45.6672H42.3431V22.8125Z" fill="white"/>
<path d="M39.9997 50.2383C38.2767 50.2383 36.875 51.6053 36.875 53.2856C36.875 54.966 38.2767 56.333 39.9997 56.333C41.7225 56.333 43.1244 54.966 43.1244 53.2856C43.1244 51.6053 41.7226 50.2383 39.9997 50.2383Z" fill="white"/>
</svg>
