<svg width="80" height="80" viewBox="0 0 80 80" fill="none" xmlns="http://www.w3.org/2000/svg">
<path d="M77.7127 10.9383C76.5358 9.7594 74.6263 9.75736 73.4494 10.9333L37.2786 47.0086L24.2283 32.8347C23.1006 31.6106 21.1941 31.5313 19.968 32.6588C18.7428 33.7864 18.6644 35.6939 19.792 36.9191L34.968 53.4005C35.5238 54.0046 36.3016 54.3553 37.1217 54.3724C37.1437 54.3733 37.165 54.3733 37.1861 54.3733C37.9831 54.3733 38.7498 54.0567 39.3147 53.4939L77.7067 15.2025C78.8866 14.0267 78.8886 12.1172 77.7127 10.9383Z" fill="white"/>
<path d="M76.9848 36.9848C75.3195 36.9848 73.9698 38.3345 73.9698 40C73.9698 58.7317 58.7317 73.9698 40 73.9698C21.2694 73.9698 6.03016 58.7317 6.03016 40C6.03016 21.2694 21.2694 6.03016 40 6.03016C41.6653 6.03016 43.0152 4.68047 43.0152 3.01516C43.0152 1.34969 41.6653 0 40 0C17.9437 0 0 17.9437 0 40C0 62.0553 17.9437 80 40 80C62.0553 80 80 62.0553 80 40C80 38.3347 78.6503 36.9848 76.9848 36.9848Z" fill="white"/>
<path d="M76.9848 36.9848C75.3195 36.9848 73.9698 38.3345 73.9698 40C73.9698 58.7317 58.7317 73.9698 40 73.9698C21.2694 73.9698 6.03016 58.7317 6.03016 40C6.03016 21.2694 21.2694 6.03016 40 6.03016C41.6653 6.03016 43.0152 4.68047 43.0152 3.01516C43.0152 1.34969 41.6653 0 40 0C17.9437 0 0 17.9437 0 40C0 62.0553 17.9437 80 40 80C62.0553 80 80 62.0553 80 40C80 38.3347 78.6503 36.9848 76.9848 36.9848Z" fill="white"/>
</svg>
