<svg width="81" height="81" viewBox="0 0 81 81" fill="none" xmlns="http://www.w3.org/2000/svg">
<path d="M40.5 0C39.5898 0 38.8517 0.738182 38.8517 1.64834C38.8517 2.5585 39.5898 3.29668 40.5 3.29668C61.0139 3.29668 77.7033 19.9861 77.7033 40.5C77.7033 61.0139 61.0139 77.7033 40.5 77.7033C19.9861 77.7033 3.29668 61.0141 3.29668 40.5C3.29668 26.543 11.0005 13.8788 23.4018 7.4494C24.21 7.03045 24.5254 6.03567 24.1064 5.22744C23.6875 4.4192 22.6924 4.10382 21.8845 4.52277C8.38566 11.5211 0 25.307 0 40.5C0 62.832 18.1683 81 40.5 81C62.8317 81 81 62.8317 81 40.5C81 18.1683 62.832 0 40.5 0Z" fill="white"/>
<path d="M56.3759 19.6379C51.7809 16.136 46.2908 14.2852 40.4991 14.2852C26.0431 14.2852 14.2822 26.0461 14.2822 40.502C14.2822 54.958 26.0431 66.7189 40.4991 66.7189C47.5018 66.7189 54.0855 63.992 59.0371 59.0401C59.6808 58.3964 59.6808 57.3527 59.0371 56.709C58.3935 56.0654 57.3495 56.0654 56.7061 56.709C52.377 61.0381 46.6213 63.4222 40.4991 63.4222C27.861 63.4222 17.5789 53.1404 17.5789 40.502C17.5789 27.8636 27.8607 17.5818 40.4991 17.5818C50.6347 17.5818 59.6866 24.3716 62.5116 34.0938C62.7654 34.968 63.68 35.4705 64.5544 35.2166C65.4286 34.9625 65.9313 34.0479 65.6772 33.1738C64.1256 27.8334 60.8223 23.026 56.3759 19.6379Z" fill="white"/>
<path d="M59.8284 35.5111C59.1845 34.8674 58.1408 34.8674 57.4974 35.5111C56.8537 36.1548 56.8537 37.1984 57.4974 37.8421L63.6979 44.0429C64.007 44.352 64.4262 44.5256 64.8636 44.5256C65.3009 44.5256 65.7202 44.352 66.0292 44.0429L72.2297 37.8421C72.8734 37.1984 72.8734 36.1548 72.2297 35.5111C71.5858 34.8674 70.5421 34.8674 69.8987 35.5111L64.8636 40.5462L59.8284 35.5111Z" fill="white"/>
</svg>
