<svg width="41" height="33" viewBox="0 0 41 33" fill="none" xmlns="http://www.w3.org/2000/svg">
<path d="M23.0168 33H17.9846C17.0587 33 16.3072 32.1768 16.3072 31.1667V22.0002H12.1137C11.7749 22.0002 11.4679 21.7766 11.3388 21.4337C11.2096 21.0909 11.2817 20.6968 11.5199 20.4346L19.9069 11.2681C20.234 10.9106 20.7657 10.9106 21.0928 11.2681L29.4797 20.4346C29.7196 20.6968 29.7917 21.0909 29.6609 21.4337C29.5301 21.7766 29.2265 22.0002 28.8876 22.0002H24.6941V31.1667C24.6941 32.1768 23.9427 33 23.0168 33ZM14.1383 20.1669H17.1459C17.6089 20.1669 17.9846 20.5776 17.9846 21.0836V31.1667H23.0168V21.0836C23.0168 20.5776 23.3925 20.1669 23.8555 20.1669H26.863L20.5007 13.2132L14.1383 20.1669Z" fill="white"/>
<path d="M7.68921 29.0364C7.65675 29.0364 7.626 29.0345 7.59183 29.0309C3.26462 28.52 0 24.6364 0 20C0 15.1964 3.51746 11.2527 7.954 10.9309C9.13617 4.64727 14.4064 0 20.5 0C25.285 0 29.6925 2.86909 31.8655 7.35273C37.0281 7.92909 41 12.5855 41 18.1818C41 23.0545 37.9318 27.3636 33.5414 28.6582C33.0836 28.7909 32.6155 28.5073 32.4908 28.0236C32.3644 27.54 32.6309 27.0382 33.0853 26.9055C36.7394 25.8291 39.2917 22.24 39.2917 18.1818C39.2917 13.3691 35.7674 9.39091 31.2676 9.12545C30.9516 9.10727 30.6731 8.90545 30.5399 8.60182C28.7325 4.48182 24.793 1.81818 20.5 1.81818C15.0077 1.81818 10.2893 6.17273 9.52396 11.9455C9.46417 12.3927 9.10371 12.7273 8.67833 12.7273C4.77308 12.7273 1.70833 15.9891 1.70833 20C1.70833 23.7091 4.31867 26.8145 7.78317 27.2236C8.25125 27.28 8.5895 27.7291 8.53654 28.2273C8.48871 28.6927 8.118 29.0364 7.68921 29.0364Z" fill="white"/>
</svg>
