<svg width="80" height="80" viewBox="0 0 80 80" fill="none" xmlns="http://www.w3.org/2000/svg">
<path d="M79.887 30.3807C79.6564 29.6371 79.0974 29.0557 78.3858 28.8208L55.6927 21.324L41.8789 1.0146C41.4458 0.37806 40.7459 0 40 0C39.2541 0 38.5542 0.37806 38.1211 1.0146L24.3072 21.324L1.61421 28.821C0.902643 29.0561 0.34358 29.6372 0.112955 30.3809C-0.117513 31.1244 0.00904911 31.9392 0.452799 32.5677L14.6086 52.6165L14.3972 77.5593C14.3906 78.3411 14.7448 79.0782 15.3484 79.5378C15.952 79.9976 16.7303 80.1231 17.4375 79.8748L40 71.9562L62.5627 79.8746C62.8019 79.9587 63.0491 79.9998 63.2952 79.9998C63.7764 79.9998 64.2523 79.8419 64.6517 79.5377C65.2552 79.078 65.6095 78.3409 65.603 77.5591L65.3916 52.6163L79.5473 32.5675C79.9909 31.9392 80.1175 31.1244 79.887 30.3807ZM61.2222 50.3886C60.9241 50.811 60.765 51.3239 60.7694 51.8494L60.9588 74.2093L40.7327 67.1108C40.495 67.0273 40.2477 66.9857 40 66.9857C39.7525 66.9857 39.505 67.0275 39.2673 67.1108L19.0412 74.2093L19.2308 51.8494C19.2353 51.3239 19.0762 50.811 18.778 50.3886L6.08796 32.416L26.4312 25.6953C26.9094 25.5374 27.3256 25.2204 27.6166 24.7924L40 6.58623L52.3834 24.7926C52.6745 25.2204 53.0905 25.5374 53.5688 25.6955L73.912 32.4162L61.2222 50.3886Z" fill="#F4F7FD"/>
<path d="M40 34.3535C38.7255 34.3535 37.6924 35.4368 37.6924 36.7727V49.6754C37.6924 51.0116 38.7257 52.0946 40 52.0946C41.2746 52.0946 42.3077 51.0114 42.3077 49.6754V36.7727C42.3077 35.4366 41.2746 34.3535 40 34.3535Z" fill="#F4F7FD"/>
<path d="M53.8454 34.3535H47.6914C46.4169 34.3535 45.3838 35.4368 45.3838 36.7727V49.6754C45.3838 51.0116 46.4171 52.0946 47.6914 52.0946C48.9658 52.0946 49.9993 51.0116 49.9993 49.6754V45.6434H53.8454C56.8144 45.6434 59.23 43.1111 59.23 39.9984C59.23 36.8856 56.8146 34.3535 53.8454 34.3535ZM53.8454 40.8048H49.9993V39.192H53.8454C54.2696 39.192 54.6146 39.5536 54.6146 39.9984C54.6147 40.4431 54.2696 40.8048 53.8454 40.8048Z" fill="#F4F7FD"/>
<path d="M33.1181 34.5082C31.9245 34.0394 30.5945 34.6729 30.147 35.924L27.6924 42.7861L25.2377 35.924C24.7902 34.6727 23.4602 34.0391 22.2666 34.5082C21.0733 34.9774 20.4686 36.3718 20.9161 37.623L25.5314 50.5257C25.8692 51.4698 26.7303 52.0954 27.6922 52.0954C28.6541 52.0954 29.5153 51.4698 29.853 50.5257L34.4683 37.623C34.9163 36.3718 34.3116 34.9774 33.1181 34.5082Z" fill="#F4F7FD"/>
</svg>
