<svg width="70" height="66" viewBox="0 0 70 66" fill="none" xmlns="http://www.w3.org/2000/svg">
<mask id="path-1-inside-1_1104_17562" fill="white">
<path d="M68.6328 32.3604H67.8125V22.5167V13.7667C67.8125 10.8592 65.5316 8.47523 62.6653 8.30823L61.2608 2.50654C60.8355 0.750107 59.0604 -0.332973 57.3044 0.0924867L23.2518 8.33623C23.1614 8.31203 23.0668 8.29793 22.9688 8.29793H5.46875C2.45328 8.29793 0 10.7512 0 13.7667V59.7042C0 62.7196 2.45328 65.1729 5.46875 65.1729H62.3438C65.3592 65.1729 67.8125 62.7196 67.8125 59.7042V49.8604H68.6328C69.3867 49.8604 70 49.2471 70 48.4932V33.7276C70 32.9737 69.3867 32.3604 68.6328 32.3604ZM65.625 13.7667V13.769C65.0765 13.3562 64.448 13.0451 63.7675 12.8614L63.2215 10.6056C64.6058 10.9905 65.625 12.2614 65.625 13.7667ZM5.46875 10.4854H14.3741L5.25068 12.6941C5.24494 12.6952 5.23947 12.697 5.23387 12.6982L5.21131 12.7037C5.20844 12.7044 5.20557 12.7055 5.2027 12.7063C5.17125 12.7141 5.14049 12.7232 5.11014 12.7336C5.10467 12.7355 5.09947 12.7376 5.09414 12.7395C5.06611 12.7497 5.03863 12.7608 5.01156 12.7733C5.00391 12.7768 4.99652 12.7805 4.989 12.7841C4.96522 12.7957 4.94184 12.808 4.91914 12.8213C4.90971 12.8267 4.90041 12.8325 4.89111 12.8383C4.87102 12.8509 4.85119 12.864 4.83191 12.8779C4.82166 12.8852 4.81168 12.8928 4.8017 12.9004C4.78393 12.9141 4.7667 12.9282 4.74988 12.9429C4.74004 12.9515 4.73047 12.9603 4.72104 12.9692C4.70477 12.9845 4.68904 13.0001 4.67373 13.0162C4.66512 13.0252 4.65678 13.0345 4.64857 13.044C4.6334 13.0612 4.61863 13.079 4.60455 13.0972C4.59744 13.1062 4.59061 13.1155 4.58391 13.1246C4.56982 13.144 4.55643 13.1639 4.54357 13.1841C4.53783 13.1931 4.53236 13.2023 4.52689 13.2116C4.51445 13.2325 4.50283 13.2538 4.49189 13.2756C4.48697 13.2854 4.48232 13.2953 4.47768 13.3051C4.4677 13.3266 4.4584 13.3482 4.44979 13.3703C4.44527 13.3819 4.44104 13.3937 4.43693 13.4055C4.42982 13.426 4.42312 13.4466 4.41711 13.4678C4.41287 13.4826 4.40918 13.4976 4.40562 13.5126C4.40125 13.531 4.39715 13.5493 4.39373 13.5679C4.39018 13.5867 4.38758 13.6059 4.38498 13.6249C4.38293 13.6405 4.38102 13.6559 4.37965 13.6716C4.37773 13.6938 4.37678 13.7162 4.37623 13.7386C4.37596 13.7477 4.37486 13.7565 4.37486 13.7657C4.37486 13.7709 4.37555 13.7758 4.37568 13.781C4.37596 13.8028 4.37732 13.8245 4.37896 13.8465C4.3802 13.8625 4.38129 13.8785 4.38307 13.8944C4.38525 13.9125 4.38826 13.9307 4.39141 13.949C4.39469 13.9682 4.39797 13.9873 4.40221 14.0062C4.40357 14.0121 4.40412 14.018 4.40549 14.0238C4.40809 14.0342 4.41178 14.0441 4.41451 14.0543C4.41971 14.0736 4.42518 14.0927 4.43146 14.1116C4.43721 14.1288 4.4435 14.1456 4.45006 14.1623C4.45621 14.1782 4.46236 14.1938 4.46934 14.2092C4.47795 14.2286 4.48725 14.2475 4.49682 14.2662C4.50283 14.2779 4.50885 14.2896 4.51527 14.301C4.52717 14.3222 4.53975 14.3427 4.55287 14.3629C4.55834 14.3712 4.56381 14.3796 4.56941 14.3878C4.58445 14.4095 4.60031 14.4306 4.61686 14.4511C4.62178 14.4572 4.62684 14.4635 4.63203 14.4695C4.64981 14.4906 4.66826 14.511 4.68754 14.5306C4.6926 14.5358 4.69766 14.541 4.70299 14.5461C4.72281 14.5655 4.74318 14.5841 4.76437 14.6019C4.77012 14.6067 4.77586 14.6114 4.78174 14.6162C4.80293 14.6333 4.82467 14.6497 4.84723 14.6652C4.85379 14.6698 4.86049 14.6743 4.86719 14.6787C4.88975 14.6936 4.91285 14.7076 4.93637 14.7208C4.94348 14.7248 4.95059 14.7286 4.9577 14.7324C4.98203 14.7453 5.00691 14.7572 5.03221 14.7683C5.03891 14.7711 5.04561 14.7741 5.05244 14.7769C5.07938 14.7881 5.10672 14.7979 5.13461 14.807C5.13994 14.8086 5.14527 14.8104 5.15061 14.812C5.18109 14.8213 5.21186 14.8292 5.24316 14.8358C5.24617 14.8364 5.24904 14.8372 5.25205 14.8377C5.28623 14.8447 5.32082 14.8499 5.35568 14.8536L5.35773 14.8539C5.3941 14.8575 5.43074 14.8595 5.46779 14.8595H5.47148C5.48516 14.8595 5.49855 14.86 5.51223 14.8595H56.875C57.479 14.8595 57.9688 14.3697 57.9688 13.7657C57.9688 13.1617 57.479 12.672 56.875 12.672H14.6378L57.819 2.21847C58.4032 2.07669 58.9933 2.43722 59.1347 3.02128L61.4711 12.6722H61.2505C60.6465 12.6722 60.1568 13.162 60.1568 13.766C60.1568 14.37 60.6465 14.8597 61.2505 14.8597H62.3438C62.4538 14.8597 62.5626 14.8655 62.67 14.876C62.7123 14.8839 62.7554 14.8891 62.7989 14.892C64.3934 15.1143 65.625 16.4861 65.625 18.141V18.1447C64.7104 17.4564 63.5739 17.0479 62.3438 17.0479H5.46875C3.65941 17.0479 2.1875 15.5759 2.1875 13.7667C2.1875 11.9575 3.65955 10.4854 5.46875 10.4854ZM65.625 59.7042C65.625 61.5134 64.1531 62.9854 62.3438 62.9854H5.46875C3.65941 62.9854 2.1875 61.5134 2.1875 59.7042V18.1387C3.10215 18.8269 4.23855 19.2354 5.46875 19.2354H62.3438C64.1529 19.2354 65.625 20.7075 65.625 22.5167V32.3604H49.6292C48.7998 32.3604 48.125 33.0353 48.125 33.8646V48.3562C48.125 49.1856 48.7998 49.8604 49.6292 49.8604H65.625V59.7042ZM67.8125 47.6729H50.3125V34.5479H66.7029C66.7082 34.5479 66.7134 34.5487 66.7188 34.5487C66.7241 34.5487 66.7293 34.548 66.7346 34.5479H67.8125V47.6729Z"/>
</mask>
<path d="M68.6328 32.3604H67.8125V22.5167V13.7667C67.8125 10.8592 65.5316 8.47523 62.6653 8.30823L61.2608 2.50654C60.8355 0.750107 59.0604 -0.332973 57.3044 0.0924867L23.2518 8.33623C23.1614 8.31203 23.0668 8.29793 22.9688 8.29793H5.46875C2.45328 8.29793 0 10.7512 0 13.7667V59.7042C0 62.7196 2.45328 65.1729 5.46875 65.1729H62.3438C65.3592 65.1729 67.8125 62.7196 67.8125 59.7042V49.8604H68.6328C69.3867 49.8604 70 49.2471 70 48.4932V33.7276C70 32.9737 69.3867 32.3604 68.6328 32.3604ZM65.625 13.7667V13.769C65.0765 13.3562 64.448 13.0451 63.7675 12.8614L63.2215 10.6056C64.6058 10.9905 65.625 12.2614 65.625 13.7667ZM5.46875 10.4854H14.3741L5.25068 12.6941C5.24494 12.6952 5.23947 12.697 5.23387 12.6982L5.21131 12.7037C5.20844 12.7044 5.20557 12.7055 5.2027 12.7063C5.17125 12.7141 5.14049 12.7232 5.11014 12.7336C5.10467 12.7355 5.09947 12.7376 5.09414 12.7395C5.06611 12.7497 5.03863 12.7608 5.01156 12.7733C5.00391 12.7768 4.99652 12.7805 4.989 12.7841C4.96522 12.7957 4.94184 12.808 4.91914 12.8213C4.90971 12.8267 4.90041 12.8325 4.89111 12.8383C4.87102 12.8509 4.85119 12.864 4.83191 12.8779C4.82166 12.8852 4.81168 12.8928 4.8017 12.9004C4.78393 12.9141 4.7667 12.9282 4.74988 12.9429C4.74004 12.9515 4.73047 12.9603 4.72104 12.9692C4.70477 12.9845 4.68904 13.0001 4.67373 13.0162C4.66512 13.0252 4.65678 13.0345 4.64857 13.044C4.6334 13.0612 4.61863 13.079 4.60455 13.0972C4.59744 13.1062 4.59061 13.1155 4.58391 13.1246C4.56982 13.144 4.55643 13.1639 4.54357 13.1841C4.53783 13.1931 4.53236 13.2023 4.52689 13.2116C4.51445 13.2325 4.50283 13.2538 4.49189 13.2756C4.48697 13.2854 4.48232 13.2953 4.47768 13.3051C4.4677 13.3266 4.4584 13.3482 4.44979 13.3703C4.44527 13.3819 4.44104 13.3937 4.43693 13.4055C4.42982 13.426 4.42312 13.4466 4.41711 13.4678C4.41287 13.4826 4.40918 13.4976 4.40562 13.5126C4.40125 13.531 4.39715 13.5493 4.39373 13.5679C4.39018 13.5867 4.38758 13.6059 4.38498 13.6249C4.38293 13.6405 4.38102 13.6559 4.37965 13.6716C4.37773 13.6938 4.37678 13.7162 4.37623 13.7386C4.37596 13.7477 4.37486 13.7565 4.37486 13.7657C4.37486 13.7709 4.37555 13.7758 4.37568 13.781C4.37596 13.8028 4.37732 13.8245 4.37896 13.8465C4.3802 13.8625 4.38129 13.8785 4.38307 13.8944C4.38525 13.9125 4.38826 13.9307 4.39141 13.949C4.39469 13.9682 4.39797 13.9873 4.40221 14.0062C4.40357 14.0121 4.40412 14.018 4.40549 14.0238C4.40809 14.0342 4.41178 14.0441 4.41451 14.0543C4.41971 14.0736 4.42518 14.0927 4.43146 14.1116C4.43721 14.1288 4.4435 14.1456 4.45006 14.1623C4.45621 14.1782 4.46236 14.1938 4.46934 14.2092C4.47795 14.2286 4.48725 14.2475 4.49682 14.2662C4.50283 14.2779 4.50885 14.2896 4.51527 14.301C4.52717 14.3222 4.53975 14.3427 4.55287 14.3629C4.55834 14.3712 4.56381 14.3796 4.56941 14.3878C4.58445 14.4095 4.60031 14.4306 4.61686 14.4511C4.62178 14.4572 4.62684 14.4635 4.63203 14.4695C4.64981 14.4906 4.66826 14.511 4.68754 14.5306C4.6926 14.5358 4.69766 14.541 4.70299 14.5461C4.72281 14.5655 4.74318 14.5841 4.76437 14.6019C4.77012 14.6067 4.77586 14.6114 4.78174 14.6162C4.80293 14.6333 4.82467 14.6497 4.84723 14.6652C4.85379 14.6698 4.86049 14.6743 4.86719 14.6787C4.88975 14.6936 4.91285 14.7076 4.93637 14.7208C4.94348 14.7248 4.95059 14.7286 4.9577 14.7324C4.98203 14.7453 5.00691 14.7572 5.03221 14.7683C5.03891 14.7711 5.04561 14.7741 5.05244 14.7769C5.07938 14.7881 5.10672 14.7979 5.13461 14.807C5.13994 14.8086 5.14527 14.8104 5.15061 14.812C5.18109 14.8213 5.21186 14.8292 5.24316 14.8358C5.24617 14.8364 5.24904 14.8372 5.25205 14.8377C5.28623 14.8447 5.32082 14.8499 5.35568 14.8536L5.35773 14.8539C5.3941 14.8575 5.43074 14.8595 5.46779 14.8595H5.47148C5.48516 14.8595 5.49855 14.86 5.51223 14.8595H56.875C57.479 14.8595 57.9688 14.3697 57.9688 13.7657C57.9688 13.1617 57.479 12.672 56.875 12.672H14.6378L57.819 2.21847C58.4032 2.07669 58.9933 2.43722 59.1347 3.02128L61.4711 12.6722H61.2505C60.6465 12.6722 60.1568 13.162 60.1568 13.766C60.1568 14.37 60.6465 14.8597 61.2505 14.8597H62.3438C62.4538 14.8597 62.5626 14.8655 62.67 14.876C62.7123 14.8839 62.7554 14.8891 62.7989 14.892C64.3934 15.1143 65.625 16.4861 65.625 18.141V18.1447C64.7104 17.4564 63.5739 17.0479 62.3438 17.0479H5.46875C3.65941 17.0479 2.1875 15.5759 2.1875 13.7667C2.1875 11.9575 3.65955 10.4854 5.46875 10.4854ZM65.625 59.7042C65.625 61.5134 64.1531 62.9854 62.3438 62.9854H5.46875C3.65941 62.9854 2.1875 61.5134 2.1875 59.7042V18.1387C3.10215 18.8269 4.23855 19.2354 5.46875 19.2354H62.3438C64.1529 19.2354 65.625 20.7075 65.625 22.5167V32.3604H49.6292C48.7998 32.3604 48.125 33.0353 48.125 33.8646V48.3562C48.125 49.1856 48.7998 49.8604 49.6292 49.8604H65.625V59.7042ZM67.8125 47.6729H50.3125V34.5479H66.7029C66.7082 34.5479 66.7134 34.5487 66.7188 34.5487C66.7241 34.5487 66.7293 34.548 66.7346 34.5479H67.8125V47.6729Z" fill="#313131"/>
<path d="M67.8125 32.3604H67.5125V32.6604H67.8125V32.3604ZM62.6653 8.30823L62.3737 8.37881L62.426 8.59479L62.6479 8.60772L62.6653 8.30823ZM61.2608 2.50654L61.5524 2.43595L61.5524 2.43594L61.2608 2.50654ZM57.3044 0.0924867L57.375 0.384064L57.375 0.384051L57.3044 0.0924867ZM23.2518 8.33623L23.1742 8.62602L23.2481 8.64579L23.3224 8.6278L23.2518 8.33623ZM67.8125 49.8604V49.5604H67.5125V49.8604H67.8125ZM65.625 13.769L65.4446 14.0087L65.925 14.3703V13.769H65.625ZM63.7675 12.8614L63.4759 12.932L63.5177 13.1047L63.6893 13.1511L63.7675 12.8614ZM63.2215 10.6056L63.3019 10.3166L62.8098 10.1798L62.9299 10.6762L63.2215 10.6056ZM14.3741 10.4854L14.4447 10.777L14.3741 10.1854V10.4854ZM5.25068 12.6941L5.30714 12.9888L5.31424 12.9874L5.32127 12.9857L5.25068 12.6941ZM5.23387 12.6982L5.17099 12.4048L5.16282 12.4068L5.23387 12.6982ZM5.21131 12.7037L5.14025 12.4123L5.14022 12.4123L5.21131 12.7037ZM5.2027 12.7063L5.27495 12.9976L5.28325 12.9953L5.2027 12.7063ZM5.11014 12.7336L5.01289 12.4498L5.0117 12.4502L5.11014 12.7336ZM5.09414 12.7395L4.9934 12.4569L4.99155 12.4576L5.09414 12.7395ZM5.01156 12.7733L5.13637 13.0461L5.13733 13.0457L5.01156 12.7733ZM4.989 12.7841L4.85946 12.5135L4.85747 12.5145L4.989 12.7841ZM4.91914 12.8213L5.06823 13.0817L5.0708 13.0802L4.91914 12.8213ZM4.89111 12.8383L4.73236 12.5838L4.73171 12.5842L4.89111 12.8383ZM4.83191 12.8779L5.00595 13.1223L5.00735 13.1213L4.83191 12.8779ZM4.8017 12.9004L4.61994 12.6617L4.61853 12.6628L4.8017 12.9004ZM4.74988 12.9429L4.55246 12.717L4.55246 12.717L4.74988 12.9429ZM4.72104 12.9692L4.92656 13.1878L4.92695 13.1874L4.72104 12.9692ZM4.67373 13.0162L4.89051 13.2236L4.89113 13.223L4.67373 13.0162ZM4.64857 13.044L4.87357 13.2425L4.87555 13.2402L4.64857 13.044ZM4.60455 13.0972L4.83997 13.2832L4.84183 13.2808L4.60455 13.0972ZM4.58391 13.1246L4.34232 12.9468L4.34118 12.9483L4.58391 13.1246ZM4.54357 13.1841L4.79651 13.3454L4.79664 13.3452L4.54357 13.1841ZM4.52689 13.2116L4.78468 13.3651L4.78548 13.3637L4.52689 13.2116ZM4.49189 13.2756L4.76 13.4102L4.76002 13.4102L4.49189 13.2756ZM4.47768 13.3051L4.20653 13.1767L4.20557 13.1788L4.47768 13.3051ZM4.44979 13.3703L4.72932 13.4792L4.72932 13.4792L4.44979 13.3703ZM4.43693 13.4055L4.15362 13.3068L4.15349 13.3072L4.43693 13.4055ZM4.41711 13.4678L4.70551 13.5504L4.70574 13.5496L4.41711 13.4678ZM4.40562 13.5126L4.6975 13.5819L4.69751 13.5819L4.40562 13.5126ZM4.39373 13.5679L4.68852 13.6236L4.68878 13.6222L4.39373 13.5679ZM4.38498 13.6249L4.08775 13.5843L4.08754 13.5858L4.38498 13.6249ZM4.37965 13.6716L4.08079 13.6455L4.08077 13.6458L4.37965 13.6716ZM4.37623 13.7386L4.6761 13.7475L4.67614 13.746L4.37623 13.7386ZM4.37568 13.781L4.67568 13.7772L4.67559 13.7735L4.37568 13.781ZM4.37896 13.8465L4.07979 13.8688L4.07986 13.8697L4.37896 13.8465ZM4.38307 13.8944L4.08492 13.9278L4.08522 13.9303L4.38307 13.8944ZM4.39141 13.949L4.68713 13.8985L4.68706 13.8981L4.39141 13.949ZM4.40221 14.0062L4.10948 14.0719L4.10988 14.0736L4.40221 14.0062ZM4.40549 14.0238L4.1135 14.0928L4.11445 14.0966L4.40549 14.0238ZM4.41451 14.0543L4.12471 14.1319L4.12484 14.1324L4.41451 14.0543ZM4.43146 14.1116L4.14676 14.2062L4.14694 14.2067L4.43146 14.1116ZM4.45006 14.1623L4.72986 14.0541L4.72929 14.0526L4.45006 14.1623ZM4.46934 14.2092L4.74356 14.0875L4.74258 14.0854L4.46934 14.2092ZM4.49682 14.2662L4.22976 14.4029L4.22997 14.4033L4.49682 14.2662ZM4.51527 14.301L4.77688 14.1542L4.77667 14.1538L4.51527 14.301ZM4.55287 14.3629L4.30127 14.5263L4.30238 14.528L4.55287 14.3629ZM4.56941 14.3878L4.32166 14.557L4.32284 14.5587L4.56941 14.3878ZM4.61686 14.4511L4.85037 14.2628L4.85029 14.2627L4.61686 14.4511ZM4.63203 14.4695L4.86146 14.2762L4.85892 14.2733L4.63203 14.4695ZM4.68754 14.5306L4.90255 14.3214L4.90141 14.3202L4.68754 14.5306ZM4.70299 14.5461L4.91285 14.3317L4.91039 14.3294L4.70299 14.5461ZM4.76437 14.6019L4.57141 14.8316L4.57212 14.8322L4.76437 14.6019ZM4.78174 14.6162L4.59202 14.8486L4.59334 14.8497L4.78174 14.6162ZM4.84723 14.6652L5.01948 14.4196L5.01711 14.418L4.84723 14.6652ZM4.86719 14.6787L5.03252 14.4284L5.03187 14.428L4.86719 14.6787ZM4.93637 14.7208L5.08347 14.4594L5.08319 14.4592L4.93637 14.7208ZM4.9577 14.7324L4.81629 14.997L4.81717 14.9975L4.9577 14.7324ZM5.03221 14.7683L4.91166 15.0431L4.91653 15.0451L5.03221 14.7683ZM5.05244 14.7769L5.16761 14.4999L5.16624 14.4993L5.05244 14.7769ZM5.13461 14.807L5.04153 15.0923L5.04836 15.0944L5.13461 14.807ZM5.15061 14.812L5.23816 14.5251L5.23672 14.5246L5.15061 14.812ZM5.24316 14.8358L5.18126 15.1294L5.18451 15.13L5.24316 14.8358ZM5.25205 14.8377L5.31228 14.5436L5.30121 14.5418L5.25205 14.8377ZM5.35568 14.8536L5.39908 14.5565L5.38734 14.5553L5.35568 14.8536ZM5.35773 14.8539L5.31432 15.1511L5.32818 15.1525L5.35773 14.8539ZM5.51223 14.8595V14.5593L5.50127 14.5597L5.51223 14.8595ZM14.6378 12.672L14.5672 12.3804L14.6378 12.972V12.672ZM57.819 2.21847L57.8896 2.51004L57.8898 2.51L57.819 2.21847ZM59.1347 3.02128L59.4263 2.95069V2.95069L59.1347 3.02128ZM61.4711 12.6722V12.9722H61.8524L61.7627 12.6016L61.4711 12.6722ZM62.67 14.876L62.7251 14.5811L62.7122 14.5787L62.6992 14.5775L62.67 14.876ZM62.7989 14.892L62.8403 14.5949L62.8296 14.5934L62.8189 14.5927L62.7989 14.892ZM65.625 18.1447L65.4446 18.3844L65.925 18.746V18.1447H65.625ZM2.1875 18.1387L2.36787 17.899L1.8875 17.5376V18.1387H2.1875ZM65.625 32.3604V32.6604H65.925V32.3604H65.625ZM65.625 49.8604H65.925V49.5604H65.625V49.8604ZM67.8125 47.6729V47.9729H68.1125V47.6729H67.8125ZM50.3125 47.6729H50.0125V47.9729H50.3125V47.6729ZM50.3125 34.5479V34.2479H50.0125V34.5479H50.3125ZM66.7346 34.5479V34.2479L66.7289 34.248L66.7346 34.5479ZM67.8125 34.5479H68.1125V34.2479H67.8125V34.5479ZM68.6328 32.0604H67.8125V32.6604H68.6328V32.0604ZM68.1125 32.3604V22.5167H67.5125V32.3604H68.1125ZM68.1125 22.5167V13.7667H67.5125V22.5167H68.1125ZM68.1125 13.7667C68.1125 10.6992 65.7066 8.18491 62.6827 8.00873L62.6479 8.60772C65.3566 8.76554 67.5125 11.0192 67.5125 13.7667H68.1125ZM62.9569 8.23764L61.5524 2.43595L60.9692 2.57712L62.3737 8.37881L62.9569 8.23764ZM61.5524 2.43594C61.0881 0.51851 59.1509 -0.663569 57.2338 -0.199077L57.375 0.384051C58.9699 -0.00237756 60.5829 0.981704 60.9692 2.57714L61.5524 2.43594ZM57.2338 -0.199091L23.1812 8.04465L23.3224 8.6278L57.375 0.384064L57.2338 -0.199091ZM23.3294 8.04643C23.2165 8.01622 23.0958 7.99793 22.9688 7.99793V8.59793C23.0378 8.59793 23.1063 8.60783 23.1742 8.62602L23.3294 8.04643ZM22.9688 7.99793H5.46875V8.59793H22.9688V7.99793ZM5.46875 7.99793C2.28759 7.99793 -0.3 10.5855 -0.3 13.7667H0.3C0.3 10.9169 2.61897 8.59793 5.46875 8.59793V7.99793ZM-0.3 13.7667V59.7042H0.3V13.7667H-0.3ZM-0.3 59.7042C-0.3 62.8853 2.2876 65.4729 5.46875 65.4729V64.8729C2.61896 64.8729 0.3 62.5539 0.3 59.7042H-0.3ZM5.46875 65.4729H62.3438V64.8729H5.46875V65.4729ZM62.3438 65.4729C65.5249 65.4729 68.1125 62.8853 68.1125 59.7042H67.5125C67.5125 62.5539 65.1935 64.8729 62.3438 64.8729V65.4729ZM68.1125 59.7042V49.8604H67.5125V59.7042H68.1125ZM67.8125 50.1604H68.6328V49.5604H67.8125V50.1604ZM68.6328 50.1604C69.5524 50.1604 70.3 49.4128 70.3 48.4932H69.7C69.7 49.0814 69.221 49.5604 68.6328 49.5604V50.1604ZM70.3 48.4932V33.7276H69.7V48.4932H70.3ZM70.3 33.7276C70.3 32.808 69.5524 32.0604 68.6328 32.0604V32.6604C69.221 32.6604 69.7 33.1394 69.7 33.7276H70.3ZM65.325 13.7667V13.769H65.925V13.7667H65.325ZM65.8054 13.5293C65.2268 13.0939 64.5637 12.7656 63.8457 12.5718L63.6893 13.1511C64.3323 13.3246 64.9262 13.6186 65.4446 14.0087L65.8054 13.5293ZM64.0591 12.7909L63.5131 10.5351L62.9299 10.6762L63.4759 12.932L64.0591 12.7909ZM63.1411 10.8947C64.3994 11.2445 65.325 12.4001 65.325 13.7667H65.925C65.925 12.1228 64.8122 10.7365 63.3019 10.3166L63.1411 10.8947ZM5.46875 10.7854H14.3741V10.1854H5.46875V10.7854ZM14.3035 10.1938L5.18009 12.4025L5.32127 12.9857L14.4447 10.777L14.3035 10.1938ZM5.19422 12.3995C5.18667 12.4009 5.18026 12.4024 5.17555 12.4036C5.171 12.4047 5.16713 12.4057 5.16543 12.4061C5.16289 12.4068 5.16355 12.4066 5.16388 12.4065C5.16466 12.4063 5.16731 12.4057 5.17101 12.4049L5.29673 12.9916C5.30323 12.9902 5.30866 12.9888 5.31222 12.9879C5.31533 12.9871 5.31877 12.9862 5.31902 12.9861C5.3201 12.9859 5.31902 12.9862 5.31729 12.9866C5.31539 12.987 5.31182 12.9879 5.30714 12.9888L5.19422 12.3995ZM5.16282 12.4068L5.14025 12.4123L5.28236 12.9952L5.30492 12.9897L5.16282 12.4068ZM5.14022 12.4123C5.13324 12.414 5.12744 12.4156 5.1234 12.4168C5.11946 12.418 5.11623 12.419 5.11499 12.4194C5.11463 12.4196 5.11432 12.4197 5.11413 12.4197C5.1139 12.4198 5.11384 12.4198 5.11377 12.4198C5.11365 12.4199 5.11399 12.4198 5.11453 12.4196C5.11554 12.4193 5.11836 12.4184 5.12215 12.4173L5.28325 12.9953C5.28848 12.9939 5.29273 12.9925 5.29518 12.9918C5.29644 12.9914 5.29749 12.991 5.29809 12.9908C5.29838 12.9907 5.29868 12.9906 5.2988 12.9906C5.29888 12.9906 5.29893 12.9906 5.29897 12.9905C5.29901 12.9905 5.29903 12.9905 5.29902 12.9905C5.29902 12.9905 5.29892 12.9906 5.29875 12.9906C5.29858 12.9907 5.29832 12.9908 5.29798 12.9909C5.29732 12.9911 5.29626 12.9914 5.29492 12.9918C5.29231 12.9926 5.28794 12.9938 5.2824 12.9952L5.14022 12.4123ZM5.13048 12.4151C5.09043 12.4251 5.05132 12.4367 5.01289 12.4498L5.20739 13.0174C5.22966 13.0098 5.25207 13.0032 5.27492 12.9975L5.13048 12.4151ZM5.0117 12.4502C5.00482 12.4526 4.99883 12.4549 4.99616 12.4559C4.99245 12.4573 4.99285 12.4571 4.99341 12.4569L5.19487 13.0221C5.20076 13.02 5.20643 13.0179 5.20802 13.0173C5.21065 13.0163 5.20999 13.0165 5.20858 13.017L5.0117 12.4502ZM4.99155 12.4576C4.95702 12.4702 4.92165 12.4844 4.88579 12.501L5.13733 13.0457C5.15561 13.0373 5.1752 13.0293 5.19673 13.0214L4.99155 12.4576ZM4.88675 12.5005C4.87633 12.5053 4.8603 12.5131 4.85946 12.5135L5.11854 13.0547C5.13274 13.0479 5.13149 13.0484 5.13637 13.0461L4.88675 12.5005ZM4.85747 12.5145C4.8283 12.5287 4.79802 12.5446 4.76748 12.5625L5.0708 13.0802C5.08566 13.0715 5.10214 13.0627 5.12053 13.0538L4.85747 12.5145ZM4.77006 12.561C4.75492 12.5697 4.74084 12.5785 4.73236 12.5838L5.04986 13.0929C5.05998 13.0866 5.0645 13.0838 5.06822 13.0817L4.77006 12.561ZM4.73171 12.5842C4.70771 12.5992 4.68227 12.616 4.65647 12.6346L5.00735 13.1213C5.02011 13.1121 5.03433 13.1026 5.05051 13.0925L4.73171 12.5842ZM4.65788 12.6336C4.64307 12.6441 4.6293 12.6546 4.61994 12.6618L4.98346 13.1391C4.99406 13.131 5.00025 13.1263 5.00594 13.1223L4.65788 12.6336ZM4.61853 12.6628C4.59618 12.6801 4.57417 12.6981 4.55246 12.717L4.9473 13.1688C4.95923 13.1584 4.97168 13.1482 4.98487 13.138L4.61853 12.6628ZM4.55246 12.717C4.5389 12.7289 4.52638 12.7404 4.51513 12.7511L4.92695 13.1874C4.93456 13.1802 4.94118 13.1742 4.9473 13.1688L4.55246 12.717ZM4.51552 12.7507C4.49539 12.7696 4.47569 12.7891 4.45633 12.8095L4.89113 13.223C4.90239 13.2111 4.91415 13.1994 4.92656 13.1878L4.51552 12.7507ZM4.45695 12.8088C4.44394 12.8224 4.43212 12.8357 4.42159 12.8479L4.87555 13.2402C4.88144 13.2334 4.8863 13.228 4.89051 13.2236L4.45695 12.8088ZM4.42358 12.8456C4.40442 12.8673 4.38552 12.8901 4.36727 12.9137L4.84183 13.2808C4.85174 13.268 4.86238 13.2551 4.87356 13.2425L4.42358 12.8456ZM4.36915 12.9113C4.35828 12.925 4.34831 12.9386 4.34233 12.9468L4.82549 13.3025C4.83291 13.2924 4.8366 13.2874 4.83995 13.2832L4.36915 12.9113ZM4.34118 12.9483C4.3229 12.9735 4.30606 12.9986 4.2905 13.023L4.79664 13.3452C4.8068 13.3293 4.81674 13.3146 4.82664 13.3009L4.34118 12.9483ZM4.29063 13.0228C4.28178 13.0367 4.27399 13.0499 4.2683 13.0595L4.78548 13.3637C4.79072 13.3548 4.79388 13.3496 4.79651 13.3454L4.29063 13.0228ZM4.2691 13.0582C4.25282 13.0855 4.23777 13.1132 4.22376 13.1411L4.76002 13.4102C4.76789 13.3945 4.77608 13.3795 4.78468 13.3651L4.2691 13.0582ZM4.22378 13.141C4.21693 13.1547 4.21052 13.1683 4.20654 13.1767L4.74882 13.4335C4.75412 13.4223 4.75701 13.4162 4.76 13.4102L4.22378 13.141ZM4.20557 13.1788C4.19323 13.2054 4.1814 13.2328 4.17026 13.2614L4.72932 13.4792C4.7354 13.4636 4.74217 13.4479 4.74979 13.4314L4.20557 13.1788ZM4.17026 13.2614C4.16383 13.2779 4.15825 13.2936 4.15362 13.3068L4.72024 13.5042C4.72383 13.4939 4.72671 13.486 4.72932 13.4792L4.17026 13.2614ZM4.15349 13.3072C4.14514 13.3313 4.13653 13.3576 4.12848 13.386L4.70574 13.5496C4.70971 13.5356 4.7145 13.5208 4.72037 13.5038L4.15349 13.3072ZM4.12871 13.3852C4.12252 13.4068 4.11755 13.4272 4.11373 13.4434L4.69751 13.5819C4.70081 13.568 4.70322 13.5584 4.70551 13.5504L4.12871 13.3852ZM4.11374 13.4433C4.10885 13.4639 4.10343 13.4878 4.09868 13.5137L4.68878 13.6222C4.69087 13.6108 4.69365 13.5982 4.6975 13.5819L4.11374 13.4433ZM4.09894 13.5123C4.09372 13.5399 4.09011 13.567 4.08775 13.5843L4.68221 13.6656C4.68505 13.6449 4.68664 13.6335 4.68852 13.6236L4.09894 13.5123ZM4.08754 13.5858C4.08536 13.6024 4.08274 13.6231 4.08079 13.6455L4.67851 13.6977C4.6793 13.6888 4.6805 13.6786 4.68242 13.664L4.08754 13.5858ZM4.08077 13.6458C4.07811 13.6765 4.07695 13.7056 4.07632 13.7313L4.67614 13.746C4.67661 13.7269 4.67735 13.7112 4.67853 13.6975L4.08077 13.6458ZM4.07636 13.7297C4.07643 13.7275 4.07652 13.7262 4.07649 13.7266C4.07642 13.7277 4.07641 13.7278 4.07615 13.7315C4.0758 13.7367 4.07486 13.75 4.07486 13.7657H4.67486C4.67486 13.7693 4.67475 13.772 4.6747 13.7731C4.67465 13.7741 4.67462 13.7744 4.67474 13.7727C4.67478 13.772 4.6751 13.7676 4.67531 13.7642C4.67557 13.7601 4.6759 13.7543 4.6761 13.7475L4.07636 13.7297ZM4.07486 13.7657C4.07486 13.7736 4.07512 13.7803 4.07538 13.7853C4.07563 13.7901 4.07593 13.7941 4.07606 13.7957C4.07625 13.7983 4.07617 13.7973 4.07613 13.7967C4.07606 13.7956 4.07587 13.7926 4.07577 13.7885L4.67559 13.7735C4.67542 13.7669 4.6751 13.7613 4.67486 13.7576C4.67474 13.7558 4.67462 13.7542 4.67455 13.7531C4.67451 13.7526 4.67447 13.7521 4.67444 13.7518C4.67441 13.7514 4.6744 13.7512 4.67439 13.751C4.67432 13.7501 4.67444 13.7516 4.67456 13.7539C4.67469 13.7563 4.67486 13.7604 4.67486 13.7657H4.07486ZM4.0757 13.7849C4.07611 13.8161 4.07802 13.8451 4.07979 13.8688L4.67813 13.8242C4.67662 13.804 4.67581 13.7896 4.67566 13.7772L4.0757 13.7849ZM4.07986 13.8697C4.08079 13.8818 4.08241 13.9053 4.08493 13.9278L4.68121 13.8611C4.68017 13.8518 4.67961 13.8433 4.67806 13.8233L4.07986 13.8697ZM4.08522 13.9303C4.08838 13.9565 4.09251 13.9811 4.09576 13.9999L4.68706 13.8981C4.684 13.8804 4.68212 13.8686 4.68092 13.8586L4.08522 13.9303ZM4.09569 13.9995C4.0988 14.0177 4.10329 14.0443 4.10949 14.0719L4.69493 13.9406C4.69265 13.9304 4.69058 13.9187 4.68713 13.8985L4.09569 13.9995ZM4.10988 14.0736C4.10878 14.0688 4.1081 14.0652 4.10781 14.0636C4.10758 14.0623 4.10742 14.0613 4.10775 14.0633C4.10794 14.0645 4.1086 14.0685 4.10942 14.0731C4.1103 14.0779 4.11163 14.0848 4.11352 14.0928L4.69746 13.9549C4.69867 13.96 4.69942 13.9639 4.69976 13.9658C4.70005 13.9675 4.70023 13.9686 4.69994 13.9668C4.69979 13.9659 4.69916 13.962 4.6984 13.9577C4.69757 13.9531 4.69632 13.9466 4.69454 13.9388L4.10988 14.0736ZM4.11445 14.0966C4.11817 14.1115 4.12224 14.1243 4.12378 14.1292C4.12485 14.1326 4.12509 14.1334 4.12538 14.1343C4.12555 14.1348 4.12523 14.1338 4.12471 14.1319L4.70431 13.9768C4.70243 13.9697 4.70062 13.9636 4.69925 13.9592C4.69799 13.955 4.69664 13.9508 4.69612 13.9491C4.69448 13.9439 4.69541 13.9466 4.69653 13.9511L4.11445 14.0966ZM4.12484 14.1324C4.13078 14.1544 4.13794 14.1797 4.14676 14.2062L4.71616 14.017C4.71242 14.0058 4.70864 13.9928 4.70418 13.9763L4.12484 14.1324ZM4.14694 14.2067C4.15488 14.2305 4.16315 14.2525 4.17083 14.272L4.72929 14.0526C4.72385 14.0388 4.71954 14.0272 4.71598 14.0165L4.14694 14.2067ZM4.17026 14.2705C4.17657 14.2869 4.18533 14.3093 4.1961 14.3331L4.74258 14.0854C4.73939 14.0783 4.73585 14.0696 4.72986 14.0541L4.17026 14.2705ZM4.19513 14.3309C4.20684 14.3573 4.21886 14.3816 4.22976 14.4029L4.76388 14.1296C4.75564 14.1135 4.74906 14.0999 4.74355 14.0875L4.19513 14.3309ZM4.22997 14.4033C4.23562 14.4143 4.24419 14.431 4.25387 14.4482L4.77667 14.1538C4.77351 14.1482 4.77004 14.1415 4.76367 14.1292L4.22997 14.4033ZM4.25367 14.4479C4.26932 14.4758 4.28538 14.5019 4.30128 14.5263L4.80446 14.1995C4.79412 14.1836 4.78502 14.1687 4.77687 14.1542L4.25367 14.4479ZM4.30238 14.528C4.30662 14.5344 4.31424 14.5461 4.32167 14.557L4.81715 14.2186C4.81338 14.2131 4.81006 14.208 4.80336 14.1978L4.30238 14.528ZM4.32284 14.5587C4.34226 14.5867 4.36253 14.6137 4.38343 14.6396L4.85029 14.2627C4.83809 14.2476 4.82664 14.2323 4.81598 14.2169L4.32284 14.5587ZM4.38335 14.6395C4.38731 14.6444 4.39587 14.6551 4.40514 14.6658L4.85892 14.2733C4.85781 14.272 4.85625 14.2701 4.85037 14.2628L4.38335 14.6395ZM4.40262 14.6628C4.42489 14.6893 4.44851 14.7154 4.47367 14.741L4.90141 14.3202C4.88801 14.3066 4.87472 14.292 4.86144 14.2762L4.40262 14.6628ZM4.47253 14.7398C4.47704 14.7445 4.48577 14.7535 4.49559 14.7629L4.91039 14.3294C4.90955 14.3286 4.90817 14.3272 4.90255 14.3214L4.47253 14.7398ZM4.49314 14.7605C4.5179 14.7848 4.5439 14.8085 4.57141 14.8316L4.95733 14.3722C4.94246 14.3597 4.92772 14.3463 4.91284 14.3317L4.49314 14.7605ZM4.57212 14.8322C4.5792 14.8381 4.58601 14.8437 4.59203 14.8486L4.97145 14.3838C4.96571 14.3791 4.96104 14.3753 4.95662 14.3716L4.57212 14.8322ZM4.59334 14.8497C4.6196 14.8709 4.64753 14.892 4.67735 14.9125L5.01711 14.418C5.00181 14.4074 4.98626 14.3958 4.97014 14.3828L4.59334 14.8497ZM4.67499 14.9109C4.68478 14.9177 4.69414 14.924 4.70251 14.9295L5.03187 14.428C5.02684 14.4247 5.0228 14.4219 5.01947 14.4196L4.67499 14.9109ZM4.70186 14.9291C4.73089 14.9482 4.7602 14.966 4.78955 14.9824L5.08319 14.4592C5.0655 14.4493 5.04861 14.439 5.03252 14.4284L4.70186 14.9291ZM4.78927 14.9823C4.79967 14.9881 4.80962 14.9934 4.81629 14.997L5.09911 14.4678C5.09156 14.4638 5.08729 14.4615 5.08347 14.4594L4.78927 14.9823ZM4.81717 14.9975C4.8488 15.0142 4.88043 15.0293 4.91168 15.043L5.15274 14.4936C5.13339 14.4851 5.11526 14.4764 5.09823 14.4674L4.81717 14.9975ZM4.91653 15.0451C4.91799 15.0457 4.91946 15.0464 4.92359 15.0482C4.92703 15.0496 4.93255 15.052 4.93864 15.0545L5.16624 14.4993C5.15421 14.4944 5.17031 14.5009 5.14789 14.4915L4.91653 15.0451ZM4.93727 15.0539C4.9733 15.0689 5.00834 15.0814 5.04155 15.0922L5.22767 14.5218C5.2051 14.5145 5.18546 14.5073 5.16761 14.4999L4.93727 15.0539ZM5.04836 15.0944C5.04817 15.0943 5.04839 15.0944 5.0515 15.0954C5.05379 15.0961 5.05892 15.0977 5.0645 15.0994L5.23672 14.5246C5.23696 14.5247 5.23676 14.5247 5.23371 14.5237C5.23149 14.523 5.22638 14.5213 5.22086 14.5197L5.04836 15.0944ZM5.06306 15.099C5.10213 15.1109 5.14147 15.121 5.18126 15.1294L5.30506 14.5423C5.28225 14.5375 5.26005 14.5318 5.23816 14.5251L5.06306 15.099ZM5.18451 15.13C5.18177 15.1295 5.17977 15.129 5.17917 15.1289C5.17887 15.1288 5.17871 15.1288 5.17895 15.1289C5.17899 15.1289 5.17981 15.1291 5.1804 15.1292C5.1827 15.1297 5.19173 15.1318 5.20289 15.1337L5.30121 14.5418C5.30558 14.5425 5.30908 14.5432 5.31131 14.5437C5.31243 14.5439 5.31332 14.5441 5.31389 14.5442C5.31418 14.5443 5.31441 14.5443 5.31456 14.5444C5.31471 14.5444 5.3148 14.5444 5.31481 14.5444C5.31481 14.5444 5.31478 14.5444 5.31464 14.5444C5.31461 14.5444 5.31422 14.5443 5.31405 14.5443C5.31356 14.5441 5.31266 14.5439 5.31162 14.5437C5.30954 14.5432 5.30605 14.5425 5.30181 14.5416L5.18451 15.13ZM5.19186 15.1316C5.23639 15.1407 5.28056 15.1473 5.32402 15.152L5.38734 14.5553C5.36108 14.5525 5.33607 14.5487 5.31224 14.5438L5.19186 15.1316ZM5.31232 15.1505L5.31437 15.1508L5.40109 14.5571L5.39904 14.5568L5.31232 15.1505ZM5.32818 15.1525C5.37338 15.1569 5.41992 15.1595 5.46779 15.1595V14.5595C5.44156 14.5595 5.41482 14.5581 5.38728 14.5554L5.32818 15.1525ZM5.46779 15.1595H5.47148V14.5595H5.46779V15.1595ZM5.47148 15.1595C5.4767 15.1595 5.47842 15.1596 5.48908 15.1597C5.49733 15.1598 5.50948 15.1598 5.52319 15.1593L5.50127 14.5597C5.5013 14.5597 5.49991 14.5598 5.49463 14.5597C5.49163 14.5597 5.48954 14.5597 5.48515 14.5596C5.48139 14.5596 5.47663 14.5595 5.47148 14.5595V15.1595ZM5.51223 15.1595H56.875V14.5595H5.51223V15.1595ZM56.875 15.1595C57.6447 15.1595 58.2688 14.5354 58.2688 13.7657H57.6688C57.6688 14.204 57.3133 14.5595 56.875 14.5595V15.1595ZM58.2688 13.7657C58.2688 12.996 57.6446 12.372 56.875 12.372V12.972C57.3134 12.972 57.6688 13.3274 57.6688 13.7657H58.2688ZM56.875 12.372H14.6378V12.972H56.875V12.372ZM14.7084 12.9636L57.8896 2.51004L57.7484 1.92689L14.5672 12.3804L14.7084 12.9636ZM57.8898 2.51C58.3126 2.40738 58.7407 2.66865 58.8431 3.09187L59.4263 2.95069C59.2459 2.20578 58.4938 1.746 57.7482 1.92693L57.8898 2.51ZM58.8431 3.09186L61.1795 12.7428L61.7627 12.6016L59.4263 2.95069L58.8431 3.09186ZM61.4711 12.3722H61.2505V12.9722H61.4711V12.3722ZM61.2505 12.3722C60.4808 12.3722 59.8568 12.9964 59.8568 13.766H60.4568C60.4568 13.3277 60.8122 12.9722 61.2505 12.9722V12.3722ZM59.8568 13.766C59.8568 14.5357 60.4808 15.1597 61.2505 15.1597V14.5597C60.8122 14.5597 60.4568 14.2043 60.4568 13.766H59.8568ZM61.2505 15.1597H62.3438V14.5597H61.2505V15.1597ZM62.3438 15.1597C62.4433 15.1597 62.5423 15.165 62.6408 15.1746L62.6992 14.5775C62.5829 14.5661 62.4643 14.5597 62.3438 14.5597V15.1597ZM62.6149 15.1709C62.67 15.1812 62.7249 15.1878 62.7789 15.1914L62.8189 14.5927C62.7859 14.5905 62.7546 14.5866 62.7251 14.5811L62.6149 15.1709ZM62.7575 15.1892C64.2061 15.3911 65.325 16.6382 65.325 18.141H65.925C65.925 16.3341 64.5807 14.8375 62.8403 14.5949L62.7575 15.1892ZM65.325 18.141V18.1447H65.925V18.141H65.325ZM65.8054 17.905C64.8408 17.1791 63.6414 16.7479 62.3438 16.7479V17.3479C63.5064 17.3479 64.58 17.7338 65.4446 18.3844L65.8054 17.905ZM62.3438 16.7479H5.46875V17.3479H62.3438V16.7479ZM5.46875 16.7479C3.8251 16.7479 2.4875 15.4102 2.4875 13.7667H1.8875C1.8875 15.7416 3.49372 17.3479 5.46875 17.3479V16.7479ZM2.4875 13.7667C2.4875 12.1232 3.82524 10.7854 5.46875 10.7854V10.1854C3.49386 10.1854 1.8875 11.7918 1.8875 13.7667H2.4875ZM65.325 59.7042C65.325 61.3477 63.9874 62.6854 62.3438 62.6854V63.2854C64.3188 63.2854 65.925 61.6791 65.925 59.7042H65.325ZM62.3438 62.6854H5.46875V63.2854H62.3438V62.6854ZM5.46875 62.6854C3.8251 62.6854 2.4875 61.3477 2.4875 59.7042H1.8875C1.8875 61.6791 3.49372 63.2854 5.46875 63.2854V62.6854ZM2.4875 59.7042V18.1387H1.8875V59.7042H2.4875ZM2.00713 18.3784C2.97178 19.1043 4.17103 19.5354 5.46875 19.5354V18.9354C4.30607 18.9354 3.23252 18.5496 2.36787 17.899L2.00713 18.3784ZM5.46875 19.5354H62.3438V18.9354H5.46875V19.5354ZM62.3438 19.5354C63.9872 19.5354 65.325 20.8732 65.325 22.5167H65.925C65.925 20.5418 64.3186 18.9354 62.3438 18.9354V19.5354ZM65.325 22.5167V32.3604H65.925V22.5167H65.325ZM65.625 32.0604H49.6292V32.6604H65.625V32.0604ZM49.6292 32.0604C48.6341 32.0604 47.825 32.8697 47.825 33.8646H48.425C48.425 33.201 48.9655 32.6604 49.6292 32.6604V32.0604ZM47.825 33.8646V48.3562H48.425V33.8646H47.825ZM47.825 48.3562C47.825 49.3513 48.6341 50.1604 49.6292 50.1604V49.5604C48.9655 49.5604 48.425 49.0199 48.425 48.3562H47.825ZM49.6292 50.1604H65.625V49.5604H49.6292V50.1604ZM65.325 49.8604V59.7042H65.925V49.8604H65.325ZM67.8125 47.3729H50.3125V47.9729H67.8125V47.3729ZM50.6125 47.6729V34.5479H50.0125V47.6729H50.6125ZM50.3125 34.8479H66.7029V34.2479H50.3125V34.8479ZM66.7029 34.8479C66.6968 34.8479 66.6921 34.8477 66.6898 34.8476C66.6878 34.8475 66.6863 34.8473 66.6881 34.8475C66.689 34.8475 66.6932 34.8479 66.6979 34.8481C66.7029 34.8484 66.7102 34.8487 66.7188 34.8487V34.2487C66.7248 34.2487 66.7293 34.2489 66.7317 34.2491C66.7337 34.2492 66.7353 34.2493 66.7335 34.2492C66.7327 34.2491 66.7286 34.2488 66.7239 34.2485C66.719 34.2483 66.7116 34.2479 66.7029 34.2479V34.8479ZM66.7188 34.8487C66.7266 34.8487 66.7333 34.8485 66.7381 34.8482C66.7427 34.848 66.7466 34.8477 66.7481 34.8476C66.7505 34.8474 66.7496 34.8475 66.7488 34.8475C66.7476 34.8476 66.7445 34.8478 66.7403 34.8479L66.7289 34.248C66.7221 34.2481 66.7163 34.2484 66.7125 34.2486C66.7091 34.2488 66.7056 34.2491 66.7053 34.2491C66.7041 34.2492 66.7055 34.2491 66.7074 34.249C66.7096 34.2489 66.7136 34.2487 66.7188 34.2487V34.8487ZM66.7346 34.8479H67.8125V34.2479H66.7346V34.8479ZM67.5125 34.5479V47.6729H68.1125V34.5479H67.5125Z" fill="white" mask="url(#path-1-inside-1_1104_17562)"/>
</svg>
