<svg width="278" height="202" viewBox="0 0 278 202" fill="none" xmlns="http://www.w3.org/2000/svg">
<path d="M245.971 98.4854C234.587 88.7756 220.865 30.2189 173.854 60.7172C149.566 76.4743 108.61 47.1896 74.7113 57.3047C43.5804 66.5939 40.5792 97.1989 43.592 107.172C49.6764 127.317 30.7407 130.315 13.1753 138.969C-14.3784 152.547 5.88293 200.26 31.9138 200.488C57.9434 200.717 215.637 200.034 215.637 200.034C215.637 200.034 253.453 200.129 269.177 179.259C286.099 156.8 275.373 123.565 245.971 98.4854Z" fill="#19B57C"/>
<path d="M268.153 199.471H9.87669C9.42535 199.471 9.03091 199.811 9.00183 200.262C8.96987 200.756 9.36089 201.166 9.84779 201.166H268.153C268.619 201.166 269 200.788 269 200.318C269 199.851 268.619 199.471 268.153 199.471Z" fill="#0C7851"/>
<path d="M104.929 36.7695C97.8495 39.7366 89.6761 36.391 86.709 29.3108C83.742 22.232 87.0876 14.0588 94.1669 11.0917C101.246 8.12456 109.42 11.4702 112.387 18.5489C115.354 25.6291 112.008 33.8023 104.929 36.7695Z" fill="#92B5F9"/>
<path d="M104.789 36.4344C97.8935 39.3243 89.933 36.0651 87.0431 29.171C84.1534 22.2755 87.4118 14.3157 94.3069 11.4258C101.202 8.53585 109.163 11.7936 112.052 18.6892C114.942 25.5847 111.684 33.5445 104.789 36.4344Z" fill="#92B5F9"/>
<path d="M109.784 19.7088C112.147 25.3479 109.492 31.8362 103.852 34.1993C98.2129 36.5624 91.7252 33.9071 89.3615 28.268C86.9979 22.6275 89.6536 16.1407 95.2931 13.7776C100.933 11.4129 107.42 14.0682 109.784 19.7088Z" fill="white"/>
<path d="M103.606 33.6164C98.2694 35.8523 92.1073 33.3303 89.8705 27.9925C87.6336 22.6562 90.1558 16.4933 95.4932 14.2574C100.83 12.0199 106.992 14.542 109.229 19.8798C111.466 25.2161 108.944 31.3789 103.606 33.6164Z" fill="white"/>
<path d="M90.9574 26.9304L89.2244 27.6555C88.9396 27.7751 88.8051 28.1036 88.9244 28.3882C89.0438 28.6743 89.3724 28.8075 89.6574 28.6894L91.3902 27.9628C91.6752 27.8432 91.8097 27.5147 91.6904 27.2301C91.571 26.9455 91.2423 26.8108 90.9574 26.9304Z" fill="#92B5F9"/>
<path d="M102.844 31.798C102.56 31.9176 102.425 32.2461 102.545 32.5307L103.271 34.264C103.39 34.5486 103.719 34.6834 104.004 34.5638C104.289 34.4442 104.423 34.1157 104.304 33.8311L103.577 32.0977C103.458 31.8131 103.129 31.6784 102.844 31.798Z" fill="#92B5F9"/>
<path d="M109.444 19.1823L107.711 19.9074C107.426 20.027 107.291 20.3555 107.411 20.6401C107.53 20.9263 107.859 21.0595 108.144 20.9414L109.877 20.2147C110.161 20.0952 110.296 19.7667 110.177 19.4821C110.057 19.1975 109.729 19.0627 109.444 19.1823Z" fill="#92B5F9"/>
<path d="M95.0965 13.3097C94.8117 13.4293 94.6771 13.7578 94.7964 14.0424L95.5228 15.7758C95.6422 16.0604 95.9709 16.1951 96.2556 16.0755C96.5404 15.9574 96.6749 15.6274 96.5555 15.3428L95.8292 13.611C95.7099 13.3248 95.3812 13.1916 95.0965 13.3097Z" fill="#92B5F9"/>
<path d="M98.9911 8.59744L99.1456 6.39934C99.1582 6.21919 99.3147 6.08295 99.495 6.09506L102.016 6.27218C102.197 6.28581 102.333 6.44173 102.32 6.62188L102.165 8.81998C102.153 9.00012 101.996 9.13636 101.816 9.12425L99.295 8.94714C99.1144 8.93352 98.9783 8.77758 98.9911 8.59744Z" fill="#92B5F9"/>
<path d="M89.1557 12.7775L87.4803 11.3469C87.3429 11.2288 87.1362 11.2455 87.0187 11.3832L85.3773 13.3043C85.2598 13.442 85.2762 13.6494 85.4136 13.766L87.089 15.1966C87.2264 15.3147 87.4334 15.298 87.5508 15.1603L89.192 13.2392C89.3095 13.1014 89.2933 12.894 89.1557 12.7775Z" fill="#92B5F9"/>
<path d="M91.8567 9.17638C91.6946 9.2445 91.5076 9.1673 91.4395 9.00532L90.8266 7.54295C90.7586 7.37946 90.8352 7.19325 90.9972 7.12512L93.9823 5.8747C94.1444 5.80658 94.3314 5.88227 94.3994 6.04425L95.0125 7.50814C95.0804 7.67012 95.0038 7.85632 94.8419 7.92444L91.8567 9.17638Z" fill="#92B5F9"/>
<path d="M92.6408 9.70338C91.1852 9.81389 89.7587 8.99793 89.1635 7.57644C88.4197 5.80222 89.2554 3.76004 91.0302 3.01674C92.8049 2.27345 94.8466 3.10909 95.5905 4.88331C96.1859 6.30329 95.7688 7.89434 94.6687 8.85563L95.0012 9.64888C96.5148 8.48473 97.1233 6.40624 96.3516 4.56389C95.433 2.37337 92.9028 1.33638 90.7111 2.25529C88.5196 3.17419 87.4839 5.70381 88.4023 7.89585C89.1741 9.73668 91.0833 10.7616 92.9738 10.4981L92.6408 9.70338Z" fill="#92B5F9"/>
<path d="M94.0599 10.8365C94.4082 10.6911 94.759 10.5594 95.1117 10.4429L94.2271 8.33255L92.5781 9.02438L93.4518 11.1074C93.6513 11.0136 93.854 10.9227 94.0599 10.8365Z" fill="#92B5F9"/>
<path d="M100.491 23.5192C100.709 24.04 100.464 24.638 99.9444 24.8559C99.4242 25.0739 98.8259 24.8287 98.608 24.3094C98.39 23.7887 98.6349 23.1907 99.1549 22.9727C99.6751 22.7547 100.273 23 100.491 23.5192Z" fill="#92B5F9"/>
<path d="M100.636 15.5678L99.9067 23.9575C99.8882 24.1694 99.702 24.3253 99.4906 24.3072C99.2793 24.289 99.1228 24.1028 99.1411 23.8908C99.1441 23.8575 99.0796 24.2284 100.636 15.5678Z" fill="#92B5F9"/>
<path d="M106.928 28.0684L99.4022 24.2883C99.2127 24.1929 99.1362 23.9628 99.2313 23.7721C99.3265 23.5829 99.5575 23.5072 99.7471 23.6025C99.7769 23.6162 99.457 23.4209 106.928 28.0684Z" fill="#92B5F9"/>
<path d="M99.9338 23.7528C100.023 23.9663 99.9229 24.21 99.7104 24.2993C99.4978 24.3887 99.2534 24.2887 99.1643 24.0753C99.0753 23.8634 99.1754 23.6196 99.3878 23.5303C99.6003 23.441 99.8448 23.5409 99.9338 23.7528Z" fill="#92B5F9"/>
<path d="M211.36 85.5726C214.53 84.9322 216.581 81.844 215.941 78.674C215.301 75.504 212.212 73.4528 209.042 74.0931C205.872 74.7335 203.821 77.8217 204.461 80.9917C205.1 84.1617 208.19 86.2129 211.36 85.5726ZM210.907 83.3306C212.839 82.94 214.088 81.0583 213.699 79.1266C213.308 77.195 211.427 75.9461 209.495 76.3351C207.563 76.7257 206.314 78.6074 206.703 80.5391C207.094 82.4707 208.976 83.7196 210.907 83.3306ZM203.096 84.201C202.993 84.0845 202.833 84.036 202.683 84.0769C201.948 84.2767 200.616 83.98 199.958 83.7484L199.24 80.1984C199.758 79.7307 200.871 78.9404 201.626 78.8375C201.779 78.8178 201.909 78.7103 201.958 78.5635L202.866 75.8643C202.914 75.7175 202.876 75.554 202.766 75.445C202.227 74.9076 201.817 73.6057 201.688 72.9199L204.404 70.5235C205.069 70.7369 206.308 71.3061 206.775 71.9087C206.87 72.0313 207.026 72.0903 207.179 72.0585L209.97 71.4954C210.122 71.4651 210.244 71.35 210.284 71.2002C210.479 70.4645 211.402 69.4577 211.931 69.0036L215.366 70.1571C215.511 70.8399 215.64 72.1978 215.351 72.9032C215.291 73.0471 215.319 73.2121 215.422 73.3286L217.306 75.4647C217.408 75.5812 217.568 75.6282 217.718 75.5888C218.454 75.389 219.786 75.6857 220.445 75.9158L221.162 79.4673C220.644 79.935 219.532 80.7253 218.776 80.8282C218.623 80.8479 218.493 80.9554 218.445 81.1022L217.537 83.8014C217.487 83.9482 217.526 84.1117 217.635 84.2207C218.175 84.7581 218.584 86.06 218.714 86.7458L215.998 89.1422C215.334 88.9288 214.093 88.3596 213.628 87.7571C213.532 87.6344 213.375 87.5754 213.224 87.6057L210.432 88.1703C210.279 88.2006 210.158 88.3157 210.117 88.4655C209.922 89.2028 209 90.208 208.47 90.6621L205.037 89.5086C204.891 88.8258 204.763 87.4664 205.052 86.7625C205.111 86.6186 205.082 86.4536 204.981 86.3371L203.096 84.201Z" fill="#FA7167"/>
<path d="M226.921 93.5248C225.021 93.9088 223.167 92.678 222.782 90.7754C222.398 88.8729 223.63 87.0187 225.532 86.6349C227.434 86.251 229.288 87.4819 229.673 89.3842C230.056 91.2868 228.825 93.1407 226.921 93.5248ZM226.162 96.9149C226.192 96.7969 226.289 96.706 226.411 96.6818L228.62 96.2349C228.741 96.2105 228.864 96.257 228.941 96.3542C229.31 96.8316 230.292 97.2813 230.817 97.4509L232.968 95.5538C232.865 95.0111 232.541 93.9802 232.115 93.5545C232.027 93.4677 231.997 93.3388 232.035 93.2222L232.755 91.085C232.793 90.9684 232.896 90.8839 233.017 90.8674C233.615 90.7866 234.495 90.1609 234.906 89.7905L234.338 86.9791C233.818 86.7967 232.763 86.5619 232.18 86.7189C232.062 86.7507 231.934 86.7126 231.853 86.6206L230.362 84.9298C230.279 84.8378 230.259 84.7061 230.305 84.5935C230.535 84.0352 230.433 82.9582 230.316 82.4189L227.597 81.5052C227.178 81.8653 226.449 82.6616 226.292 83.2437C226.262 83.3626 226.165 83.4531 226.044 83.4784L223.833 83.9241C223.714 83.9495 223.589 83.9019 223.514 83.8052C223.145 83.3277 222.163 82.8773 221.638 82.7075L219.486 84.6062C219.589 85.1486 219.914 86.1796 220.34 86.6047C220.428 86.692 220.458 86.8205 220.418 86.9378L219.7 89.0744C219.66 89.1918 219.558 89.2755 219.436 89.292C218.84 89.3727 217.958 89.9986 217.549 90.369L218.117 93.181C218.637 93.3632 219.692 93.5981 220.275 93.4406C220.393 93.4086 220.52 93.4466 220.602 93.5388L222.093 95.2298C222.174 95.3221 222.196 95.4528 222.15 95.5665C221.92 96.1249 222.022 97.2011 222.138 97.74L224.858 98.6543C225.275 98.2941 226.006 97.4978 226.162 96.9149Z" fill="#FA7167"/>
<path d="M70.724 52.2216L68.2677 51.2951L66.1124 52.7938C65.8669 52.9649 65.5322 52.7802 65.5461 52.4805L65.6675 49.8585L63.5764 48.272C63.3383 48.0919 63.4107 47.7164 63.6989 47.6377L66.2303 46.9429L67.0932 44.4632C67.1915 44.1801 67.571 44.1332 67.7353 44.383L69.1783 46.5765L71.8028 46.631C72.1016 46.6371 72.2638 46.9837 72.077 47.2169L70.4373 49.2666L71.1965 51.7796C71.2829 52.0657 71.0036 52.3276 70.724 52.2216Z" fill="#92B5F9"/>
<path d="M74.4811 36.5291L73.1458 32.9443L69.7302 33.9662L68.259 30.4919L64.8745 31.0656L63.3487 28.6465L62.124 29.4201L64.1647 32.6552L67.3722 32.1117L68.9025 35.7252L72.2621 34.7201L73.4718 37.9688L74.4811 36.5291Z" fill="#7C9AF2"/>
<path d="M218.02 53.0321L214.664 51.1959L212.749 54.2023L209.364 52.5371L207.179 55.1863L204.442 54.3537L204.021 55.7404L207.682 56.8516L209.753 54.3416L213.274 56.0734L215.157 53.1169L218.199 54.7821L218.02 53.0321Z" fill="#BED1F9"/>
<path d="M129.586 7.86054L128.15 11.406L131.36 12.9576L130.1 16.5137L132.984 18.3757L132.475 21.1899L133.901 21.4473L134.58 17.6824L131.847 15.9187L133.158 12.2189L130.002 10.6929L131.302 7.47907L129.586 7.86054Z" fill="#92B5F9"/>
<path d="M214.177 99.2695L213.472 97.8798L211.882 97.9343L211.203 96.3206L209.528 96.8989L208.677 95.108L207.07 95.4516L205.971 93.8606L206.572 93.4443L207.394 94.6341L209.091 94.2708L209.908 95.9936L211.61 95.4047L212.362 97.185L213.912 97.1335L214.568 98.4218L215.579 98.1735L215.753 98.885L214.177 99.2695Z" fill="#FA7167"/>
<path d="M184.81 34.8916L184.069 32.6829L187.49 31.0949L186.803 27.7311L189.169 26.125L188.356 24.9275L185.19 27.0756L185.843 30.2638L182.282 31.9139L183.399 35.2383L184.81 34.8916Z" fill="#FA7167"/>
<path d="M212.225 29.7969C215.999 35.5631 210.867 43.5653 204.147 42.3754C202.941 42.1619 201.683 42.439 200.603 43.1051L196.887 45.3955C195.863 46.0268 194.577 45.7528 193.932 44.7673L192.501 42.5828C191.856 41.5958 192.068 40.2288 192.99 39.4401C196.349 36.5622 197.778 35.7463 198.231 33.3332C199.551 26.2742 208.451 24.0292 212.225 29.7969Z" fill="#BED1F9"/>
<path d="M206.436 37.0124C206.887 37.4832 207.571 37.9071 208.03 37.3999C208.619 36.749 207.777 36.26 206.436 37.0124ZM204.854 30.515C204.581 30.4105 203.853 30.7133 204.145 32.2847C204.964 31.5671 205.214 31.2522 204.854 30.515ZM203.364 32.9704C203.29 32.6571 203.217 32.3043 203.189 31.9546C203.016 29.9397 204.574 29.2418 205.396 29.7626C205.921 30.0941 206.134 30.8662 205.832 31.5989C205.561 32.2559 204.972 32.7297 204.375 33.252C204.696 34.3707 205.199 35.4016 205.87 36.3205C207.707 35.2139 209.02 35.8195 209.106 36.8216C209.161 37.4635 208.747 38.1281 208.125 38.3975C207.753 38.5595 206.791 38.7821 205.653 37.5225C202.551 39.71 198.503 42.9421 198.491 42.9512L197.976 42.2382C197.99 42.2276 202.014 39.0167 205.104 36.8322C204.465 35.9466 203.968 34.9657 203.624 33.909C200.09 36.9957 196.974 39.4345 196.865 39.5223L196.354 38.8063C196.579 38.6231 199.598 36.2736 203.364 32.9704Z" fill="white"/>
<path d="M200.697 43.0521C200.665 43.0703 200.634 43.0854 200.603 43.1051L196.887 45.3955C195.863 46.0268 194.577 45.7528 193.932 44.7673L192.501 42.5828C191.856 41.5958 192.068 40.2288 192.99 39.4401C194.484 38.1593 195.595 37.2874 196.411 36.5017L200.697 43.0521Z" fill="#92B5F9"/>
<path d="M33.9062 151.299C33.9062 151.299 33.7857 150.708 33.7607 150.508C33.7315 150.275 33.6982 149.568 33.6982 149.568C33.6982 149.568 33.6974 147.099 33.88 147.114C34.0626 147.128 34.2989 147.552 34.3525 147.705C34.4058 147.856 34.4831 148.03 34.5367 148.182C34.5902 148.334 34.7474 148.421 34.9417 148.368C35.1357 148.315 35.0544 147.661 34.9815 147.44C34.7535 146.754 33.7748 145.042 33.6791 144.856C33.5659 144.636 34.3529 140.355 34.5058 138.867H34.5066C34.8296 136.437 35.2836 133.956 35.3191 133.7L39.6446 124.139L36.7572 121.19C36.7572 121.19 31.8076 131.734 31.6203 132.289C31.5311 132.553 31.2185 138.24 31.2206 138.242C31.2432 141.051 31.2701 143.528 31.2617 144.003C31.2617 144.003 30.854 145.42 30.5414 146.306C30.2286 147.193 30.2969 148.135 30.2474 148.397C30.24 148.436 30.02 149.331 30.1709 150.452C30.3011 151.418 30.6239 150.437 30.6239 150.437C30.6239 150.437 30.707 148.599 30.8516 148.63C30.963 148.652 30.8581 149.653 30.9907 150.725C31.0248 151 31.0594 151.271 31.0933 151.521C31.1822 152.175 31.6124 152.302 31.6294 151.601C31.6354 151.355 31.6353 150.943 31.5934 150.651C31.5481 150.334 31.6096 150.028 31.6124 149.756C31.6183 149.217 31.6158 148.823 31.638 148.836C31.6671 148.851 31.7443 148.743 31.7895 149.035C31.844 149.385 31.7941 150.156 31.9146 150.663C31.9829 150.952 32.0885 151.562 32.0885 151.562C32.0885 151.562 32.3689 152.532 32.4281 152.529C32.749 152.516 32.7483 151.763 32.604 151.385C32.6371 151.094 32.5076 150.455 32.5076 150.455C32.5076 150.455 32.5383 149.1 32.7313 149.1C32.89 149.099 33.4463 152.351 33.7672 152.314C34.0293 152.284 33.9062 151.299 33.9062 151.299Z" fill="#FB9390"/>
<path d="M37.8868 129.678C37.8868 129.678 36.092 129.367 35.1392 129.013C33.8697 128.541 33.0342 128.128 33.0342 128.128C33.0342 128.128 34.4283 122.162 36.1677 118.539C36.8865 117.04 37.6134 116.318 38.6272 116.146C38.6334 116.144 40.7646 117.549 40.68 120.931C40.66 121.726 37.8868 129.678 37.8868 129.678Z" fill="#E8605D"/>
<path d="M43.4062 149.727L45.733 171.132C45.733 171.132 44.5958 175.659 44.733 176.946C44.87 178.231 47.2619 195.101 47.2619 195.101L47.1609 196.047L47.1583 198.842H56.0362C56.0362 198.842 54.1519 197.973 51.516 196.256C51.3212 196.129 50.8721 195.723 50.7628 194.916C50.059 189.716 51.4516 172.372 51.4516 172.372L52.5483 149.796L43.4062 149.727Z" fill="#FB9390"/>
<path d="M36.2718 154.229C35.7705 154.361 34.9986 172.766 34.5835 173.58C31.9511 178.753 31.3254 194.476 31.3254 194.476L30.5605 196.715L29.7412 199.459C29.7412 199.459 32.3701 200.18 33.7485 199.396L33.5956 196.689L33.4557 194.214L40.0972 174.626L43.7312 154.645L36.2718 154.229Z" fill="#FB9390"/>
<path d="M49.4805 118.576C48.4092 117.069 43.9889 112.703 43.498 112.712C42.0663 112.738 37.3677 112.739 36.4492 113.219L36.4547 114.248C36.4792 118.846 37.0663 123.425 38.2227 127.874C39.029 130.976 39.7927 134.289 39.6985 135.478L39.7209 135.5C42.4396 138.203 46.7273 137.99 49.2138 135.03C49.2138 135.03 49.203 131.733 49.5859 128.725C50.1857 124.014 52.1418 122.322 49.4805 118.576Z" fill="#FA7167"/>
<path d="M42.0578 108.033C42.0578 108.033 42.1816 111.1 41.914 112.263C41.6463 113.426 41.2895 113.513 43.5868 113.866C44.4892 114.005 45.3595 114.213 45.3595 114.213C45.3595 114.213 45.1236 112.505 45.0881 111.785C45.0293 110.598 45.3536 106.933 45.3536 106.933L42.0578 108.033Z" fill="#FB9390"/>
<path d="M43.8068 109.558C44.2796 109.82 44.7211 109.976 45.1283 110.041C45.2062 108.592 45.3532 106.932 45.3532 106.932L42.209 107.981C42.574 108.607 43.0926 109.16 43.8068 109.558Z" fill="#EF7F7F"/>
<path d="M42.7867 99.4437C42.7867 99.4437 41.474 99.9054 40.7494 101.353C40.0247 102.797 39.7542 106.861 42.6103 108.451C44.024 109.237 45.655 109.387 46.4225 108.695C47.2057 107.988 47.1104 106.419 47.032 105.116C46.8765 102.532 46.3082 98.6217 42.7867 99.4437Z" fill="#FB9390"/>
<path d="M40.6817 104.544C40.8438 105.222 40.6275 105.878 40.1985 106.007C39.7695 106.137 39.2902 105.692 39.128 105.014C38.9659 104.334 39.1824 103.68 39.6114 103.55C40.0404 103.421 40.5197 103.866 40.6817 104.544Z" fill="#F7A491"/>
<path d="M33.5954 196.68C32.383 197.236 31.0856 196.894 30.5606 196.715L29.7188 199.472C29.7188 199.472 32.366 200.256 33.7444 199.472L33.5954 196.68Z" fill="#FA7167"/>
<path d="M47.067 199.539H56.2965C56.6378 199.507 56.7211 199.22 56.6026 199.043C56.359 198.678 55.2823 198.411 54.072 197.83C51.9492 198.06 47.4947 196.552 47.1597 196.045C46.9664 197.059 46.8773 199.495 47.067 199.539Z" fill="#FA7167"/>
<path d="M65.6045 125.55C65.7835 125.301 66.3819 124.086 66.3819 124.086C66.3819 124.086 67.0024 122.003 66.8738 122.03C66.7973 122.047 66.5421 122.342 66.239 122.972C66.0539 123.358 65.8515 124.031 65.6597 124.364C65.3236 124.949 64.9477 125.192 65.0408 124.967C65.1088 124.803 65.339 124.667 65.5416 124.317C66.0349 123.465 66.4708 122.071 66.2811 122.1C66.1141 122.124 65.6372 123.085 65.1089 123.831C64.8785 124.158 64.2245 124.566 63.814 124.825C63.819 124.64 63.8692 124.455 63.8974 124.367C63.9496 124.204 64.6825 123.232 64.3959 123.109C64.109 122.987 62.3643 125.092 62.3643 125.092L61.6477 126.314L61.5842 126.361H61.5817C61.5817 126.361 52.8772 129.773 52.5854 129.681C51.9007 129.464 49.5613 122.684 49.5613 122.684L44.6911 123.562C44.6209 123.524 49.8109 133.653 50.7789 134.151C51.6288 134.587 60.677 129.873 62.3766 128.865C64.7176 127.963 65.6313 126.892 66.011 126.343C66.2151 126.048 66.9995 124.767 66.9995 124.767C66.9995 124.767 67.1679 122.991 67.0403 122.976C66.611 122.923 66.4923 124.597 66.4923 124.597C66.4923 124.597 65.9116 125.386 65.8106 125.491C65.5602 125.748 65.6045 125.55 65.6045 125.55Z" fill="#FB9390"/>
<path d="M41.5479 116.775C40.8831 119.592 44.4282 125.873 44.4282 125.873C44.4282 125.873 49.4789 123.421 50.3666 122.364C50.3666 122.364 46.8829 116.614 46.6669 116.239C46.2005 115.428 44.5642 113.752 43.4617 114.059C42.7595 114.256 41.5479 116.775 41.5479 116.775Z" fill="#E8605D"/>
<path d="M42.3505 109.831C42.728 107.245 47.0145 101.98 45.3591 99.779C44.0195 97.9987 41.6839 98.5316 40.1958 99.0432C33.4471 101.364 33.835 109.848 31.7047 111.175C27.8424 113.581 25.4666 115.078 25.1881 120.497C24.8578 126.924 30.3164 130.206 36.8805 128.634C40.41 127.788 41.3454 126.633 42.7607 123.301C43.399 121.798 44.6857 117.111 44.3335 114.822C44.0181 112.772 42.0467 111.912 42.3505 109.831Z" fill="#0B0754"/>
<path d="M44.9155 105.091C44.9155 105.857 44.6378 106.477 44.2952 106.477C43.9526 106.477 43.6748 105.857 43.6748 105.091C43.6748 104.327 43.9526 103.706 44.2952 103.706C44.6378 103.706 44.9155 104.327 44.9155 105.091Z" fill="#FB9390"/>
<path d="M53.3777 163.651L53.6935 150.951C53.7481 147.363 53.0377 143.806 51.6136 140.538L49.2137 135.03C48.2429 135.348 47.3278 135.619 46.3076 135.737C44.0882 135.993 41.9054 135.739 39.6985 135.478C39.6917 135.565 39.6817 135.639 39.6682 135.702C39.2677 137.572 37.037 141.743 36.0972 147.441C35.0306 153.909 34.6317 163.584 34.765 164.344C44.9641 164.807 47.395 165.175 53.3777 163.651Z" fill="#92B5F9"/>
<path d="M180.425 100.078L188.106 107.76C188.106 107.76 202.735 113.48 204.369 116.995C206.003 120.508 202.898 120.345 199.466 119.854C196.033 119.364 186.308 113.316 186.308 113.316L177.4 103.021L180.425 100.078Z" fill="#4951EC"/>
<path d="M214.973 191.895C214.973 191.895 216.323 192.765 216.434 193.165C216.546 193.566 217.536 197.897 217.165 198.4C216.794 198.901 215.436 198.659 215.964 199.024C216.362 199.301 218.93 199.511 220.571 199.069C221.051 198.939 220.831 194.891 220.902 194.273C221.004 193.379 221.624 191.344 221.248 190.814C221.064 190.557 220.011 190.103 219.063 189.733C218.065 189.344 216.959 188.244 216.959 188.244L214.973 191.895Z" fill="#FB9390"/>
<path d="M218.978 189.699C218.978 189.699 218.18 197.384 217.248 197.951C217 198.101 215.686 198.215 215.566 198.841C215.563 198.857 215.534 199.485 215.934 199.5L220.913 199.485C220.913 199.485 220.966 195.708 220.934 194.227C220.934 194.227 221.621 190.449 221.397 190.167C221.172 189.884 218.978 189.699 218.978 189.699Z" fill="#0B0754"/>
<path d="M234.463 191.895C234.463 191.895 235.813 192.765 235.923 193.165C236.035 193.566 237.026 197.897 236.654 198.4C236.284 198.901 234.926 198.659 235.454 199.024C235.852 199.301 238.42 199.511 240.06 199.069C240.541 198.939 240.322 194.891 240.391 194.273C240.494 193.379 241.114 191.344 240.737 190.814C240.554 190.557 239.5 190.103 238.553 189.733C237.555 189.344 236.449 188.244 236.449 188.244L234.463 191.895Z" fill="#FB9390"/>
<path d="M210 141.96C210 141.96 214.554 151.002 215.487 153.43L222.427 171.036L237.731 189.041C237.731 189.041 236.61 191.932 234.917 192.707C234.917 192.707 216.464 177.808 214.945 175.461C212.633 171.884 202.098 149.968 202.098 149.968L200.139 145.752L210 141.96Z" fill="#E8605D"/>
<path d="M198.995 141.861L199.068 149.572C199.068 149.572 195.774 174.758 196.411 176.254C197.969 179.905 215.086 192.271 215.086 192.271L217.414 188.267L205.116 174.538L209.774 161.176C211.077 158.072 213.849 152.074 213.778 148.709C213.719 145.825 208.001 139.137 208.001 139.137L198.995 141.861Z" fill="#FA7167"/>
<path d="M205.983 153.257C210.519 152.226 214.188 150.624 214.565 149.359C214.735 148.786 212.207 143.034 210.345 135.353C209.738 132.844 209.847 130.489 208.875 121.705C208.667 119.842 207.895 115.936 205.011 114.929C203.997 114.577 203.432 114.621 203.432 114.621C203.408 114.625 199.761 114.649 198.093 115.576C197.681 116.134 196.146 119.192 195.738 127.528C195.559 131.167 194.832 142.852 194.982 144.751C195.003 145.032 195.032 145.305 195.065 145.568C195.719 150.612 201.024 154.383 205.983 153.257Z" fill="#4951EC"/>
<path d="M197.967 121.275H197.98C199.829 121.071 204.478 114.979 204.478 114.979L204.469 114.963L201.599 110.418C201.599 110.418 197.373 111.187 198.2 112.474C199.026 113.759 199.49 116.847 199.49 116.847C199.476 116.882 199.458 116.926 199.432 116.976C199.142 117.607 198.195 119.475 197.967 121.275Z" fill="#FB9390"/>
<path d="M198.2 112.473C197.373 111.187 201.6 110.417 201.6 110.417L201.839 110.795C201.845 111.115 201.809 111.407 201.721 111.658C201.264 112.947 200.166 114.08 199.026 114.627C198.818 113.831 198.539 113 198.2 112.473Z" fill="#EF7F7F"/>
<path d="M199.215 103.233C199.306 103.145 202.51 108.418 201.741 110.589C200.971 112.76 198.382 114.49 196.844 113.717C195.143 112.86 192.571 106.813 194.122 104.249C195.672 101.685 199.215 103.233 199.215 103.233Z" fill="#FB9390"/>
<path d="M194.574 100.868C196.46 100.462 199.83 101.019 201.726 102.354C204.059 103.995 204.136 106.908 203.084 108.811C202.034 110.715 202.667 112.117 202.667 112.117C202.667 112.117 199.388 111.911 198.725 109.68C198.446 108.744 198.793 108.11 198.163 107.582C197.677 107.175 197.27 105.992 196.788 105.04C196.788 105.04 194.673 103.917 193.868 104.842C193.593 105.158 192.153 101.387 194.574 100.868Z" fill="#0B0754"/>
<path d="M197.831 107.989C198.119 108.678 198.676 109.102 199.076 108.934C199.477 108.767 199.569 108.074 199.282 107.387C198.995 106.698 198.438 106.274 198.037 106.441C197.638 106.607 197.545 107.301 197.831 107.989Z" fill="#FB9390"/>
<path d="M238.491 189.709C238.491 189.709 237.67 197.384 236.738 197.952C236.49 198.102 235.176 198.215 235.057 198.842C235.054 198.857 235.016 199.505 235.422 199.496L240.399 199.485C240.399 199.485 240.454 195.708 240.425 194.228C240.425 194.228 241.112 190.449 240.888 190.168C240.662 189.885 238.491 189.709 238.491 189.709Z" fill="#0B0754"/>
<path d="M148.413 199.473C121.434 201.594 118.31 165.349 145.564 163.207C172.409 161.099 175.288 197.361 148.413 199.473ZM128.485 154.239C124.53 145.969 123.444 133.625 127.753 123.835C135.018 107.31 155.007 100.566 153.536 81.8369C153.165 77.1198 151.065 73.3261 147.974 70.8843C139.838 64.4596 126.748 67.8596 117.405 72.3467C111.437 75.2139 105.895 79.2785 100.781 84.5422L98.1816 51.4647C109.397 43.5065 122.967 39.3449 136.511 38.2807C164.267 36.0993 185.7 46.5099 187.882 74.2723C189.871 99.5928 172.76 110.81 161.282 123.468C154.91 130.493 153.471 135.907 153.964 142.176C154.218 145.417 155.434 149.418 157.387 151.969L128.485 154.239Z" fill="#FFB800"/>
<path d="M176.311 101.75C176.261 101.522 176.446 101.702 176.103 99.9141C176.004 99.3979 175.682 98.8544 175.443 98.5653C175.314 98.4093 175.016 98.1414 174.831 98.0309C174.522 97.8462 174.28 98.1459 174.342 98.3155C174.404 98.4865 174.722 99.0724 174.784 99.2435C174.846 99.413 174.873 99.8293 174.733 99.9686C174.592 100.106 172.357 97.5449 172.218 97.3194C172.1 97.1286 171.835 96.296 171.835 96.296C171.835 96.296 171.641 95.689 171.404 95.8434C171.248 95.9448 171.077 96.4444 171.525 97.4284C171.915 98.2882 172.457 98.9755 172.395 99.0255C172.235 99.1572 171.264 97.996 171.264 97.996C171.264 97.996 170.927 97.3481 170.697 97.118C170.553 96.6881 170.289 96.1537 170.014 96.3626C169.962 96.4005 170.146 97.3179 170.146 97.3179C170.146 97.3179 170.485 97.9249 170.628 98.2231C170.883 98.7499 171.463 99.3888 171.661 99.7309C171.826 100.017 171.665 99.9504 171.652 99.9837C171.643 100.009 171.391 99.69 171.01 99.2238C170.818 98.9876 170.554 98.7621 170.371 98.4547C170.202 98.1717 169.915 97.8114 169.738 97.5994C169.234 96.9999 168.968 97.4072 169.351 98.04C169.496 98.2807 169.657 98.5425 169.82 98.806C170.457 99.8323 171.243 100.635 171.166 100.732C171.068 100.857 169.717 99.3101 169.717 99.3101C169.717 99.3101 168.765 98.6758 169.331 99.6098C169.988 100.692 170.7 101.386 170.731 101.414C170.957 101.61 171.553 102.528 172.431 103.087C173.309 103.646 174.733 104.489 174.733 104.489C174.896 104.686 175.312 105.328 175.889 106.234L178.018 103.674C177.268 102.895 176.346 101.909 176.311 101.75Z" fill="#FB9390"/>
<path d="M174.633 105.36L177.574 102.787L187.678 112.756C187.678 112.756 203.317 114.127 203.358 114.139L203.985 114.334C209.659 116.293 207.323 120.924 206.23 121.64C203.683 123.309 189.541 122.309 185.012 119.498C181.282 117.185 174.633 105.36 174.633 105.36Z" fill="#7C9AF2"/>
<path d="M69.3486 119.656C69.4613 120.071 69.5262 120.208 69.6694 120.487C70.5936 122.282 72.738 124.844 72.738 124.844L74.3967 120.855C74.3967 120.855 74.1263 119.603 73.6573 117.812C72.0552 118.259 70.5294 118.517 69.3486 119.656Z" fill="#FB9390"/>
<path d="M78.8587 116.195C78.8587 116.195 69.6072 120.448 69.308 120.366C69.1153 120.313 65.5131 113.879 65.4747 107.827C65.4568 105.032 68.1765 101.67 71.2108 102.336C72.7386 102.671 72.7149 103.123 74.9751 106.629C77.2353 110.134 78.8587 116.195 78.8587 116.195Z" fill="#4951EC"/>
<path d="M86.7559 192.429L86.5352 196.315C86.4545 196.807 86.1367 198.023 86.1367 198.471C86.1367 200.153 93.6178 197.043 91.9411 196.299C91.7894 196.23 90.9943 195.72 90.9445 195.148C90.8676 194.267 90.6725 192.484 90.6725 192.484L86.7559 192.429Z" fill="#FB9390"/>
<path d="M91.9229 196.282C91.9229 196.282 90.1665 196.796 89.2668 196.925C88.3673 197.054 87.1814 195.971 86.5451 196.264C85.8448 196.586 85.8722 199.483 85.8722 199.483C85.8722 199.483 95.291 200.309 97.9396 199.455C98.9889 199.117 95.5137 197.481 91.9229 196.282Z" fill="#0B0754"/>
<path d="M71.4522 192.429L71.2313 196.315C71.1506 196.807 70.833 198.023 70.833 198.471C70.833 200.153 78.314 197.043 76.6374 196.299C76.4855 196.23 75.4549 195.34 75.405 194.768C75.3281 193.885 75.3686 192.484 75.3686 192.484L71.4522 192.429Z" fill="#FB9390"/>
<path d="M76.6196 196.282C76.6196 196.282 74.8632 196.796 73.9637 196.925C73.0642 197.054 71.8783 195.971 71.242 196.264C70.5415 196.586 70.5137 199.484 70.5137 199.484C70.5137 199.484 79.9752 200.445 82.6364 199.455C83.6696 199.07 80.2104 197.481 76.6196 196.282Z" fill="#0B0754"/>
<path d="M73.7393 121.806L80.3279 111.954C80.3557 111.867 80.4154 111.692 80.507 111.422C80.8389 110.444 81.5293 108.411 82.1308 106.387L82.1373 106.366C82.3262 105.658 82.7268 104.425 83.1143 103.231C83.5453 101.903 84.0795 100.258 84.0982 99.9777C84.0817 99.9292 84.0505 99.8429 84.0093 99.7294C83.7678 99.0587 83.4412 97.4662 83.3257 96.7728C83.2521 96.3308 83.1787 95.259 83.6702 95.259C84.443 95.259 84.0747 96.3293 84.4311 96.9984C84.5622 96.5518 84.8268 95.6647 84.9667 94.767L85.0958 92.6718C85.1206 92.5144 84.9633 91.3594 85.5053 91.3594H85.5313C86.0182 91.3972 86.0073 92.6264 86.2098 94.7034C86.2737 94.4642 86.3377 94.1766 86.386 93.9117C86.3804 93.7694 86.4779 93.1442 86.5509 92.8157C86.4531 92.2359 86.5099 91.323 87.0876 91.4093C87.3771 91.4532 87.3532 92.7264 87.3532 92.7264C87.3502 92.902 87.3331 94.2493 87.342 94.5157C87.4015 94.0631 87.6328 92.1344 88.0862 92.1344C88.462 92.1344 88.4921 92.6537 88.4842 93.0639C88.4797 93.3077 88.2435 95.3968 88.2305 95.639C88.4073 95.3226 88.6173 93.4818 88.7926 93.4818C89.5254 93.4818 89.2604 96.0992 88.9914 96.7804C88.9659 96.8501 88.939 96.9878 88.9079 97.1452C88.8164 97.6115 88.6632 98.3927 88.2794 99.0936C87.8193 99.9337 87.1847 101.269 87.0879 101.473C87.017 101.891 86.7966 103.391 86.5191 105.279C86.4004 106.086 86.2704 106.972 86.1347 107.889H86.1276C86.1028 108.087 85.9653 108.719 85.4443 111.086C84.7311 114.327 84.6571 114.467 84.6253 114.527C84.3157 115.112 77.2117 125.407 76.9094 125.846L76.7311 126.104L73.7393 121.806Z" fill="#FB9390"/>
<path d="M85.9936 98.8301C85.9936 98.8301 85.4589 97.3707 84.5068 97.3677C84.5068 97.3677 85.0388 97.1633 85.4949 97.5479C85.951 97.9339 85.9936 98.8301 85.9936 98.8301Z" fill="#EF7F7F"/>
<path d="M72.147 96.0092L71.2988 101.735C71.2988 101.735 74.5307 104.503 76.4147 103.919C77.9955 103.43 76.9114 101.224 76.9114 101.224C76.9114 101.224 76.0694 98.1679 76.3277 96.5663C76.5861 94.9646 72.147 96.0092 72.147 96.0092Z" fill="#FB9390"/>
<path d="M72.7563 97.7412C73.5665 98.15 75.168 98.7071 76.4143 98.8418C76.2949 98.041 76.2271 97.1932 76.328 96.568C76.4473 95.8278 75.5658 95.6537 74.5823 95.6794C73.2949 95.796 72.1474 96.0109 72.1474 96.0109L71.9844 97.1115C72.2292 97.387 72.4865 97.6065 72.7563 97.7412Z" fill="#EF7F7F"/>
<path d="M68.0683 89.4062C67.9349 89.4077 69.3458 95.8021 71.5292 96.9027C73.7128 98.0017 76.9692 97.4295 77.58 95.7068C78.256 93.8008 75.7907 87.2762 72.7197 86.4481C69.6487 85.6185 68.0683 89.4062 68.0683 89.4062Z" fill="#FB9390"/>
<path d="M70.5958 83.5316C68.8517 84.605 68.0512 86.196 67.7819 86.8485C66.9632 87.2633 65.9727 88.161 65.4974 90.5755C64.9127 93.5472 66.9912 95.8377 69.1948 96.5265C71.3983 97.2153 71.7706 98.7715 71.7706 98.7715L71.9886 97.0957C71.9886 97.0957 71.4984 95.6378 70.7613 94.9082C70.0242 94.1785 71.1104 93.1143 71.2061 92.2468C71.2795 91.5792 70.8187 90.2819 70.9184 89.1858C70.9184 89.1858 72.143 87.2057 73.3498 86.7168C75.4076 85.8826 72.8334 82.154 70.5958 83.5316Z" fill="#0B0754"/>
<path d="M71.5233 93.3595C71.8087 94.0982 71.6919 94.8309 71.2626 94.9974C70.8334 95.164 70.2541 94.6992 69.9686 93.9605C69.6834 93.2217 69.7999 92.489 70.2293 92.3225C70.6586 92.156 71.2378 92.6207 71.5233 93.3595Z" fill="#FB9390"/>
<path d="M79.6572 121.963L92.3665 119.751C92.3665 119.751 90.9205 115.867 90.4038 115.867C89.8872 115.867 80.7938 120.104 80.7938 120.104L80.0705 121.653L79.6572 121.963Z" fill="#FB9390"/>
<path d="M73.1459 131.262C73.1459 131.262 71.878 137.805 72.3947 142.764C72.9114 147.723 72.9519 165.343 72.9519 165.343L70.9805 193.534L75.6585 193.643C75.6585 193.643 81.2059 165.465 81.1025 166.189C80.9992 166.913 82.9625 146.349 82.9625 146.349L76.3492 130.643L73.1459 131.262Z" fill="#0B0754"/>
<path d="M74.3863 130.954C74.3863 130.954 73.5596 136.842 74.593 139.427C75.6263 142.009 83.456 167.357 83.5593 169.423C83.6627 171.49 86.2663 194.332 86.2663 194.332L91.706 194.17L92.8829 168.772L90.4187 136.853L88.0263 128.783L74.3863 130.954Z" fill="#0B0754"/>
<path d="M71.2988 101.735C71.2988 101.735 72.6402 102.673 73.8913 102.566C75.1426 102.457 76.9114 101.224 76.9114 101.224L76.6657 100.334C76.6657 100.334 73.4291 99.8316 73.3474 99.8861C73.2659 99.9406 71.2988 101.735 71.2988 101.735Z" fill="#FB9390"/>
<path d="M85.5957 115.674C85.5957 115.674 90.4031 120.517 92.573 119.69C94.7429 118.862 95.6409 116.037 90.3463 111.903C85.6077 108.203 85.5957 115.674 85.5957 115.674Z" fill="#FB9390"/>
<path d="M88.8537 121.652C88.1396 117.506 82.9638 104.603 82.5503 102.226C82.3495 101.07 79.5576 101.044 76.8984 101.196C74.0896 101.354 71.2993 101.734 71.2993 101.734C71.2993 101.734 68.8128 102.17 67.7188 103.263C66.6249 104.358 66.3342 107.384 67.9068 113.128C69.1483 117.662 70.6873 120.15 71.4489 123.454C71.6032 124.562 71.7353 125.655 71.9105 126.931C72.1904 131.869 71.9071 138.392 71.9071 138.392C71.9071 138.392 85.4437 141.39 90.5069 136.842C90.5069 136.842 89.5853 125.901 88.8537 121.652Z" fill="#7C9AF2"/>
<path d="M92.3045 112.737C92.3045 112.737 86.9929 117.416 86.683 117.416C86.4833 117.416 79.1032 111.623 77.3997 106.862C76.4581 104.23 78.4333 101.286 80.6897 101.297C82.2536 101.303 82.9488 101.733 86.0488 104.523C89.1489 107.313 92.3045 112.737 92.3045 112.737Z" fill="#4951EC"/>
<path d="M173.443 19.9694L161.925 27.7596C160.757 28.5514 159.167 28.2441 158.377 27.0754L150.585 15.5596C149.795 14.3894 150.101 12.8014 151.271 12.0096L162.787 4.2179C163.957 3.42768 165.545 3.73347 166.337 4.90367L174.127 16.4195C174.919 17.5897 174.611 19.1777 173.443 19.9694Z" fill="#FA7167"/>
<path d="M167.653 11.8027C169.669 14.7834 168.888 18.8345 165.907 20.8509C162.927 22.8673 158.875 22.0862 156.859 19.1054C154.843 16.1247 155.624 12.0737 158.605 10.0572C161.585 8.04078 165.636 8.82192 167.653 11.8027Z" fill="white"/>
<path d="M160.109 12.7772L162.783 15.6914C162.98 15.9048 162.964 16.2364 162.751 16.4332C162.538 16.6284 162.206 16.6133 162.011 16.3998C161.979 16.3665 161.952 16.3272 161.931 16.2878L160.109 12.7772Z" fill="#FA7167"/>
<path d="M162.145 15.7125L166.178 13.4554L162.66 16.4513C162.469 16.6148 162.183 16.5921 162.021 16.4013C161.859 16.2106 161.882 15.9245 162.073 15.7625C162.095 15.7443 162.121 15.7262 162.145 15.7125Z" fill="#FA7167"/>
<path d="M59.9228 83.0488H36.5959C32.3927 83.0488 28.9854 79.6412 28.9854 75.4372V70.6066C28.9854 66.4041 32.3927 62.9965 36.5959 62.9965H59.9228C64.126 62.9965 67.5333 66.4041 67.5333 70.6066V75.4372C67.5333 79.6412 64.126 83.0488 59.9228 83.0488Z" fill="#0C7851"/>
<path d="M62.958 75.479L72.4519 79.7344L66.0956 70.8375L62.958 75.479Z" fill="#0C7851"/>
<path d="M41.8207 72.3725C41.8207 73.19 41.0762 73.8516 40.1579 73.8516C39.2396 73.8516 38.4951 73.19 38.4951 72.3725C38.4951 71.5566 39.2396 70.895 40.1579 70.895C41.0762 70.895 41.8207 71.5566 41.8207 72.3725Z" fill="white"/>
<path d="M49.5571 72.3725C49.5571 73.19 48.8125 73.8516 47.8941 73.8516C46.976 73.8516 46.2314 73.19 46.2314 72.3725C46.2314 71.5566 46.976 70.895 47.8941 70.895C48.8125 70.895 49.5571 71.5566 49.5571 72.3725Z" fill="white"/>
<path d="M57.2932 72.3725C57.2932 73.19 56.5489 73.8516 55.6304 73.8516C54.7121 73.8516 53.9678 73.19 53.9678 72.3725C53.9678 71.5566 54.7121 70.895 55.6304 70.895C56.5489 70.895 57.2932 71.5566 57.2932 72.3725Z" fill="white"/>
<path d="M146.896 4.5293L145.33 1.19365L146.632 0.583849L147.519 2.47543L149.685 1.16482L150.428 2.39351L146.896 4.5293Z" fill="#FA7167"/>
<path d="M58.3307 52.5156L54.8604 53.7539L54.3779 52.4005L56.3453 51.6996L55.2485 49.4168L56.5427 48.7946L58.3307 52.5156Z" fill="#FA7167"/>
<path d="M202.142 18.9149C202.399 19.7369 202.658 20.5589 202.915 21.3809C203.117 22.0228 203.266 23.0674 203.895 23.4322C204.049 23.523 204.306 23.4806 204.387 23.302C204.699 22.6177 204.25 21.7412 204.037 21.0706C203.775 20.2501 203.512 19.4296 203.25 18.6091C203.026 17.9082 201.919 18.2064 202.142 18.9149Z" fill="#92B5F9"/>
<path d="M210.841 18.025C209.508 22.568 209.496 22.4302 209.595 22.895C209.672 23.2553 210.165 23.3628 210.411 23.11C210.721 22.789 210.644 22.8829 211.929 18.3247C212.127 17.6238 211.045 17.3271 210.841 18.025Z" fill="#92B5F9"/>
<path d="M215.916 28.136C216.701 27.7591 217.485 27.3836 218.269 27.0067C218.967 26.6721 219.866 26.4072 220.344 25.7729C220.553 25.4944 220.266 25.1265 219.967 25.1174C219.194 25.0947 218.367 25.6881 217.691 26.0166C216.908 26.3966 216.127 26.7766 215.344 27.1565C214.687 27.4745 215.261 28.4494 215.916 28.136Z" fill="#92B5F9"/>
<path d="M213.349 41.7828C214.154 42.8213 214.959 43.8825 215.871 44.8317C216.361 45.3419 217.074 44.5925 216.635 44.0657C215.79 43.053 214.923 42.0644 214.107 41.0244C213.68 40.4809 212.932 41.2454 213.349 41.7828Z" fill="#92B5F9"/>
<path d="M216.308 36.4833C217.035 36.8028 217.769 37.098 218.508 37.3871C219.183 37.6505 219.982 38.1228 220.712 38.0184C221.099 37.9639 221.145 37.4461 220.927 37.207C220.654 36.9072 220.507 36.9299 218.904 36.3123C218.181 36.0337 217.463 35.74 216.736 35.4691C216.154 35.2511 215.731 36.2305 216.308 36.4833Z" fill="#92B5F9"/>
</svg>
