<svg width="248" height="201" viewBox="0 0 248 201" fill="none" xmlns="http://www.w3.org/2000/svg">
<path d="M69.6825 178.557C65.6805 177.543 61.7057 176.403 57.7745 175.138C44.4215 170.853 30.9214 165.509 19.7603 156.873C8.93182 148.492 -3.54873 133.166 0.938596 118.695C2.43801 113.853 6.10748 109.611 10.8184 107.594C17.1268 104.889 23.2226 108.444 29.6673 108.973C39.7325 109.802 49.983 103.706 53.9741 94.5244C64.9498 69.2798 30.0108 58.8602 27.012 36.9361C25.06 22.6563 35.665 6.70252 49.1488 1.87715C59.0394 -1.66692 70.544 -0.0802686 79.2897 5.68838C90.6143 13.1636 93.8149 28.2722 102.986 37.8957C115.695 51.2323 134.332 58.4622 152.646 58.3913C161.506 58.3586 170.459 56.6084 178.545 52.9335C190.437 47.5247 201.805 38.1029 215.425 37.9175C240.534 37.5795 253.38 64.0018 244.912 85.5661C240.147 97.7032 230.681 107.354 220.845 115.914C211.287 124.229 200.497 131.961 192.825 142.178C185.677 151.704 181.713 163.334 172.635 171.425C162.706 180.269 148.753 183.022 135.444 184.102C113.422 185.885 91.0996 183.987 69.6825 178.557Z" fill="#595D85"/>
<path opacity="0.5" d="M123.155 201C188.063 201 240.681 196.413 240.681 190.755C240.681 185.097 188.063 180.51 123.155 180.51C58.2464 180.51 5.62793 185.097 5.62793 190.755C5.62793 196.413 58.2464 201 123.155 201Z" fill="black"/>
<path d="M209.548 178.87C209.597 179.687 209.444 180.462 209.128 181.16C208.675 182.157 207.885 182.997 206.882 183.564C205.966 184.087 204.853 184.393 203.659 184.393H42.508C41.3193 184.393 40.218 184.093 39.302 183.575C38.2878 183.002 37.4972 182.163 37.0392 181.16C36.723 180.462 36.5703 179.687 36.6194 178.87L41.7555 93.0269C41.9137 90.3443 44.6453 88.1797 47.8513 88.1797H198.31C201.522 88.1797 204.254 90.3443 204.412 93.0269L209.548 178.87Z" fill="#2996CC"/>
<path d="M203.708 175.991C203.758 176.803 203.207 177.458 202.482 177.458H43.6804C42.9607 177.458 42.41 176.803 42.4536 175.991L43.6422 155.517L44.76 136.27V136.265L47.2244 93.7469C47.2681 93.0272 47.8515 92.4492 48.5276 92.4492H197.64C197.694 92.4492 197.749 92.4547 197.793 92.4601C198.398 92.5365 198.905 93.0926 198.943 93.7469L198.959 94.1068L199.712 107.029L199.75 107.77L199.897 110.311L200.906 127.645L201.538 138.495L201.942 145.458L203.708 175.991Z" fill="#A1CFE6"/>
<path d="M198.965 94.1059H49.8522C49.1761 94.1059 48.5926 94.6893 48.5436 95.4036C47.7857 108.648 47.0114 121.968 46.2427 135.375C45.7029 144.704 45.1685 154.066 44.6233 163.477C44.4106 167.239 43.6964 171.465 44.6124 175.074C44.8196 175.887 45.0486 176.683 45.2776 177.457H43.68C42.9549 177.457 42.4042 176.797 42.4532 175.985L47.2186 93.7352C47.2623 93.0209 47.8511 92.4375 48.5272 92.4375H197.634C197.689 92.4375 197.743 92.4429 197.792 92.4484C198.403 92.5302 198.899 93.0754 198.943 93.7352L198.965 94.1059Z" fill="black"/>
<path d="M225.703 181.16C226.319 181.16 226.755 182.147 226.532 183.079C225.577 187.049 223.822 190.751 221.554 190.751H24.6126C22.3444 190.751 20.5888 187.049 19.6346 183.079C19.411 182.147 19.8472 181.16 20.4634 181.16C20.4688 181.16 20.4743 181.16 20.4743 181.16H225.686C225.692 181.16 225.697 181.16 225.703 181.16Z" fill="#0F6B99"/>
<path opacity="0.5" d="M196.358 154.852L196.135 151.013L195.791 145.032L195.235 135.468L195.153 134.067L195.126 133.658L194.99 131.237L194.717 126.532L194.706 126.335C194.684 125.976 194.406 125.67 194.074 125.627C194.046 125.621 194.014 125.616 193.992 125.616H154.075H151.3L150.727 115.72L150.64 114.22L150.613 113.784L150.465 111.194L150.171 106.167L150.16 105.954C150.138 105.567 149.844 105.24 149.484 105.196C149.451 105.191 149.424 105.186 149.391 105.186H61.493C61.095 105.186 60.746 105.529 60.7242 105.954L60.4189 111.194L59.2739 131.019L58.6141 142.365L57.9108 154.437C57.8835 154.917 58.2052 155.304 58.636 155.304H109.36L109.174 158.532L109.065 160.402L108.411 171.689C108.384 172.136 108.689 172.501 109.082 172.501H196.664C197.062 172.501 197.367 172.141 197.334 171.689L196.358 154.852Z" fill="black"/>
<path d="M195.224 169.798C195.251 170.245 194.946 170.61 194.553 170.61H106.971C106.573 170.61 106.273 170.25 106.301 169.798L106.955 158.511L107.064 156.641L107.571 147.896L108.645 129.346L108.929 124.445C108.956 124.047 109.272 123.73 109.648 123.73H191.887C191.914 123.73 191.941 123.736 191.969 123.741C192.301 123.78 192.579 124.085 192.601 124.45L192.612 124.646L192.885 129.352L193.021 131.773L193.048 132.182L193.13 133.583L193.686 143.146L194.03 149.128L194.253 152.966L195.224 169.798Z" fill="#E6E6E6"/>
<path d="M192.841 167.307C192.868 167.623 192.579 167.874 192.209 167.874H109.523C109.147 167.874 108.863 167.618 108.885 167.307L109.507 159.401L110.09 151.969L111.104 138.982L111.371 135.547C111.393 135.268 111.698 135.045 112.053 135.045H189.69C189.717 135.045 189.744 135.05 189.771 135.05C190.088 135.078 190.349 135.29 190.366 135.547L190.377 135.688L190.633 138.982L190.764 140.677L190.786 140.961L190.862 141.942L191.385 148.638L191.712 152.825L191.925 155.513L192.841 167.307Z" fill="#FFB062"/>
<path d="M191.303 130.335H110.22C110.013 130.335 109.85 130.172 109.85 129.965C109.85 129.757 110.013 129.594 110.22 129.594H191.303C191.51 129.594 191.674 129.757 191.674 129.965C191.674 130.172 191.505 130.335 191.303 130.335Z" fill="#FAFAFA"/>
<path d="M191.734 132.324H109.79C109.583 132.324 109.419 132.16 109.419 131.953C109.419 131.746 109.583 131.582 109.79 131.582H191.734C191.941 131.582 192.105 131.746 192.105 131.953C192.105 132.155 191.936 132.324 191.734 132.324Z" fill="#FAFAFA"/>
<path d="M186.882 127.962H112.222C111.551 127.962 111.006 127.417 111.006 126.746V126.73C111.006 126.059 111.551 125.514 112.222 125.514H186.882C187.552 125.514 188.097 126.059 188.097 126.73V126.746C188.097 127.417 187.552 127.962 186.882 127.962Z" fill="#FAFAFA"/>
<path opacity="0.5" d="M153.824 155.769C153.851 156.249 153.529 156.641 153.104 156.641H107.059L107.566 147.896L108.64 129.346L108.923 124.445C108.951 124.047 109.267 123.73 109.643 123.73H151.965L152.068 125.524L152.172 127.28L152.21 127.972L152.324 129.973L152.439 131.958L152.537 133.676L152.619 135.055L152.782 137.781L153.824 155.769Z" fill="black"/>
<path d="M150.864 152.546C150.896 153.026 150.569 153.413 150.144 153.413H56.526C56.1007 153.413 55.779 153.026 55.8009 152.546L56.5042 140.475L57.164 129.128L58.309 109.303L58.6143 104.064C58.6416 103.644 58.9851 103.295 59.3831 103.295H147.287C147.319 103.295 147.347 103.3 147.379 103.306C147.739 103.349 148.034 103.677 148.056 104.064L148.066 104.276L148.361 109.303L148.508 111.893L148.535 112.33L148.623 113.829L149.217 124.047L149.588 130.442L149.828 134.548L150.864 152.546Z" fill="#E6E6E6"/>
<path d="M148.312 149.885C148.339 150.223 148.034 150.491 147.636 150.491H59.2526C58.8491 150.491 58.5438 150.218 58.571 149.885L59.2308 141.434L59.8523 133.49L60.9319 119.608L61.2209 115.939C61.2482 115.644 61.5699 115.404 61.9461 115.404H144.932C144.959 115.404 144.992 115.41 145.019 115.41C145.357 115.442 145.635 115.671 145.657 115.939L145.668 116.086L145.946 119.608L146.088 121.424L146.115 121.729L146.197 122.776L146.758 129.93L147.107 134.406L147.331 137.279L148.312 149.885Z" fill="#FFB062"/>
<path d="M146.666 110.339H59.9997C59.7925 110.339 59.6289 110.176 59.6289 109.968C59.6289 109.761 59.7925 109.598 59.9997 109.598H146.666C146.873 109.598 147.036 109.761 147.036 109.968C147.036 110.17 146.873 110.339 146.666 110.339Z" fill="#FAFAFA"/>
<path d="M147.129 112.464H59.5358C59.3286 112.464 59.165 112.301 59.165 112.093C59.165 111.886 59.3286 111.723 59.5358 111.723H147.129C147.336 111.723 147.499 111.886 147.499 112.093C147.499 112.295 147.33 112.464 147.129 112.464Z" fill="#FAFAFA"/>
<path d="M141.943 107.824H62.1365C61.4223 107.824 60.8389 107.241 60.8389 106.527V106.505C60.8389 105.79 61.4168 105.207 62.1365 105.207H141.943C142.658 105.207 143.241 105.79 143.241 106.505V106.527C143.241 107.246 142.658 107.824 141.943 107.824Z" fill="#FAFAFA"/>
<path d="M193.403 92.4473L156.572 177.456H116.753L154.369 92.4473H193.403Z" fill="url(#paint0_linear_1104_3990)"/>
<path d="M201.941 145.455L188.304 177.455H171.031L199.902 110.309L200.905 127.642L201.537 138.492L201.941 145.455Z" fill="url(#paint1_linear_1104_3990)"/>
<path d="M104.905 94.2461L66.2422 177.706H45.7684C45.0923 177.706 44.5852 177.074 44.6398 176.294L46.0574 156.48L47.4041 137.68V137.675L67.5235 94.2461H104.905Z" fill="url(#paint2_linear_1104_3990)"/>
<path d="M134.834 94.2461L96.0451 177.706H79.8242L118.596 94.2461H134.834Z" fill="url(#paint3_linear_1104_3990)"/>
<path opacity="0.5" d="M174.941 88.1855V143.827C174.941 144.389 174.903 144.94 174.827 145.479C174.211 149.945 171.114 153.707 166.828 155.588C166.572 155.697 166.316 155.806 166.049 155.899C165.994 155.921 165.945 155.937 165.891 155.953C164.266 156.548 162.488 156.869 160.634 156.869H65.2391C64.9065 156.869 64.6557 156.739 64.4867 156.537C63.3035 156.275 62.1749 155.861 61.1225 155.31C60.1248 154.792 59.1978 154.154 58.3582 153.413C58.2328 153.309 58.1128 153.2 57.9929 153.08C57.8675 152.966 57.742 152.84 57.6166 152.715C57.0332 152.131 56.5098 151.493 56.0464 150.817C56.0027 150.752 55.9537 150.686 55.9155 150.621C55.5938 150.158 55.3103 149.667 55.0595 149.165C54.8523 148.756 54.6614 148.331 54.4924 147.9C53.8708 146.297 53.5273 144.553 53.5273 142.726V138.702C53.5273 138.359 53.5819 138.031 53.68 137.726C54.029 136.608 54.9777 135.801 56.1063 135.774C56.1281 135.769 56.1445 135.769 56.1663 135.769H72.7907V88.1855H174.941Z" fill="black"/>
<path d="M191.8 21.168V25.29C191.8 26.9475 190.59 28.2942 189.101 28.2942H92.4735C90.985 28.2942 89.7746 26.9475 89.7746 25.29V21.168C89.7746 15.1212 86.9993 10.3231 81.5523 8.05491C80.8872 7.77684 81.0507 6.69727 81.765 6.69727H176.348C176.451 6.70272 176.55 6.70272 176.653 6.69727H177.504C179.145 6.69727 180.726 6.97534 182.193 7.49332C182.264 7.52058 182.335 7.54239 182.405 7.56965C187.885 9.58704 191.8 14.9195 191.8 21.168Z" fill="#CCEEFF"/>
<path opacity="0.5" d="M182.193 7.49918C181.021 8.1262 179.952 8.94952 179.036 9.98002C176.942 12.3191 175.993 15.3997 175.993 18.513V28.3001H92.4735C90.985 28.3001 89.7746 26.9534 89.7746 25.2958V21.1738C89.7746 15.1271 86.9993 10.329 81.5523 8.06077C80.8872 7.7827 81.0507 6.70312 81.765 6.70312H176.348C176.451 6.70858 176.55 6.70858 176.653 6.70312H177.504C179.145 6.70313 180.726 6.97574 182.193 7.49918Z" fill="black"/>
<path d="M182.406 7.5755C178.84 7.47736 175.318 8.79139 172.892 11.5176C170.798 13.8567 169.849 16.9373 169.849 20.0506V134.726C169.849 140.025 166.463 144.605 161.545 146.765C159.626 147.599 157.472 148.079 155.204 148.079H57.5462C57.2136 148.079 56.9519 147.942 56.7828 147.735C56.3739 147.266 56.4393 146.437 57.1427 146.132C62.3661 143.837 65.2831 140.145 65.2831 134.726V20.0452C65.2831 12.6735 71.8424 6.69766 79.9338 6.69766H175.078C175.504 6.69766 175.929 6.6704 176.349 6.69766C176.452 6.70312 176.55 6.70312 176.654 6.69766H177.505C179.228 6.70312 180.88 7.00845 182.406 7.5755Z" fill="#FAFAFA"/>
<path opacity="0.35" d="M169.849 106.32V134.722C169.849 140.022 166.463 144.602 161.545 146.761C159.626 147.595 157.472 148.075 155.204 148.075H57.5462C57.2136 148.075 56.9519 147.939 56.7828 147.731C56.3739 147.262 56.4393 146.434 57.1427 146.128C62.3661 143.833 65.2831 140.142 65.2831 134.722V115.987C90.0371 123.114 115.691 127.138 138.122 121.445C150.073 118.414 160.324 112.809 169.849 106.32Z" fill="#CCEEFF"/>
<path d="M161.545 146.765C159.626 147.599 157.472 148.079 155.204 148.079H59.8577C58.8054 148.079 57.7695 147.959 56.7826 147.736C50.6486 146.378 45.9923 141.029 45.5942 134.513C45.5724 134.214 45.5615 133.908 45.5615 133.597V129.475C45.5615 127.818 46.7665 126.477 48.2659 126.477H144.883C146.382 126.477 147.587 127.818 147.587 129.475V133.597C147.587 135.015 147.751 136.438 148.105 137.801C148.71 140.178 149.888 142.387 151.725 144.11C152.859 145.173 154.321 146.209 155.798 146.732C155.853 146.76 155.913 146.776 155.962 146.792C157.652 147.343 159.74 147.207 161.545 146.765Z" fill="#CCEEFF"/>
<path d="M157.549 36.6643H75.3976C74.1599 36.6643 73.1621 35.6611 73.1621 34.4288C73.1621 33.1912 74.1653 32.1934 75.3976 32.1934H157.549C158.787 32.1934 159.784 33.1966 159.784 34.4288C159.784 35.6611 158.781 36.6643 157.549 36.6643Z" fill="#E6E6E6"/>
<path d="M157.548 45.4046H75.3966C74.1589 45.4046 73.1611 44.4013 73.1611 43.1691C73.1611 41.9314 74.1644 40.9336 75.3966 40.9336H157.548C158.786 40.9336 159.784 41.9368 159.784 43.1691C159.784 44.4068 158.78 45.4046 157.548 45.4046Z" fill="#E6E6E6"/>
<path d="M75.3966 49.6738H111.993C113.231 49.6738 114.229 50.6771 114.229 51.9093C114.229 53.147 113.225 54.1448 111.993 54.1448H75.3966C74.1644 54.1448 73.1611 53.147 73.1611 51.9093C73.1611 51.2932 73.4119 50.737 73.8154 50.3281C74.2244 49.9246 74.7805 49.6738 75.3966 49.6738Z" fill="#E6E6E6"/>
<path d="M159.778 51.7625C159.822 52.4441 159.566 53.0602 159.124 53.4964C158.721 53.8999 158.165 54.1507 157.548 54.1507H120.946C119.709 54.1507 118.711 53.1474 118.711 51.9152C118.711 50.6775 119.714 49.6797 120.946 49.6797H157.461C158.65 49.6743 159.702 50.5739 159.778 51.7625Z" fill="#E6E6E6"/>
<path d="M157.548 62.8968H75.3966C74.1589 62.8968 73.1611 61.8935 73.1611 60.6613C73.1611 59.4236 74.1644 58.4258 75.3966 58.4258H157.548C158.786 58.4258 159.784 59.429 159.784 60.6613C159.784 61.8935 158.78 62.8968 157.548 62.8968Z" fill="#E6E6E6"/>
<path d="M157.548 71.6409H75.3966C74.1589 71.6409 73.1611 70.6376 73.1611 69.4054C73.1611 68.1677 74.1644 67.1699 75.3966 67.1699H157.548C158.786 67.1699 159.784 68.1732 159.784 69.4054C159.784 70.6376 158.78 71.6409 157.548 71.6409Z" fill="#E6E6E6"/>
<path d="M75.397 75.9102H94.3659C95.6036 75.9102 96.6014 76.9134 96.6014 78.1456C96.6014 79.3833 95.5981 80.3811 94.3659 80.3811H75.5169C74.2247 80.3811 73.1015 79.3234 73.1615 78.0311C73.1887 77.4586 73.4341 76.9461 73.8103 76.5644C74.2247 76.161 74.7808 75.9102 75.397 75.9102Z" fill="#E6E6E6"/>
<path d="M159.778 78.2606C159.75 78.8331 159.505 79.3511 159.123 79.7273C158.72 80.1362 158.164 80.387 157.548 80.387H103.313C102.075 80.387 101.077 79.3838 101.077 78.1515C101.077 76.9138 102.08 75.916 103.313 75.916H157.428C158.715 75.9106 159.843 76.9684 159.778 78.2606Z" fill="#E6E6E6"/>
<path d="M157.548 89.1272H75.3966C74.1589 89.1272 73.1611 88.124 73.1611 86.8917C73.1611 85.654 74.1644 84.6562 75.3966 84.6562H157.548C158.786 84.6562 159.784 85.6595 159.784 86.8917C159.784 88.124 158.78 89.1272 157.548 89.1272Z" fill="#E6E6E6"/>
<path d="M75.3966 93.3965H132.374C133.612 93.3965 134.61 94.3997 134.61 95.632C134.61 96.8697 133.606 97.8674 132.374 97.8674H75.3966C74.1644 97.8674 73.1611 96.8697 73.1611 95.632C73.1611 95.0159 73.4119 94.4597 73.8154 94.0562C74.2244 93.6473 74.7805 93.3965 75.3966 93.3965Z" fill="#E6E6E6"/>
<path d="M159.778 95.7231C159.756 96.3011 159.511 96.83 159.124 97.2171C158.72 97.6206 158.164 97.8714 157.548 97.8714H141.327C140.09 97.8714 139.092 96.8681 139.092 95.6359C139.092 94.3982 140.095 93.4004 141.327 93.4004H157.428C158.704 93.395 159.833 94.4473 159.778 95.7231Z" fill="#E6E6E6"/>
<path d="M157.548 106.619H75.3966C74.1589 106.619 73.1611 105.616 73.1611 104.384C73.1611 103.146 74.1644 102.148 75.3966 102.148H157.548C158.786 102.148 159.784 103.152 159.784 104.384C159.784 105.616 158.78 106.619 157.548 106.619Z" fill="#E6E6E6"/>
<path d="M103.21 113.13C103.21 114.367 102.206 115.365 100.974 115.365H75.4896C74.2956 115.365 73.2432 114.471 73.1669 113.277C73.1233 112.595 73.3796 111.979 73.8158 111.543C74.2247 111.139 74.7808 110.889 75.3969 110.889H100.974C102.212 110.889 103.21 111.892 103.21 113.13Z" fill="#E6E6E6"/>
<path d="M150.924 26.9737H82.6275C79.7322 26.9737 77.3877 24.6291 77.3877 21.7339C77.3877 18.8387 79.7322 16.4941 82.6275 16.4941H150.924C153.82 16.4941 156.164 18.8387 156.164 21.7339C156.164 24.6291 153.82 26.9737 150.924 26.9737Z" fill="#FFB062"/>
<path d="M86.1478 22.0113H85.4758V23.7033H84.5098V19.5033H85.4758V21.2013H86.1718L87.2758 19.5033H88.3018L86.9278 21.5313L88.3438 23.7033H87.2398L86.1478 22.0113Z" fill="#FAFAFA"/>
<path d="M90.7053 20.4273C91.0053 20.4273 91.2773 20.4973 91.5213 20.6373C91.7693 20.7733 91.9633 20.9673 92.1033 21.2193C92.2433 21.4673 92.3133 21.7573 92.3133 22.0893C92.3133 22.4213 92.2433 22.7133 92.1033 22.9653C91.9633 23.2133 91.7693 23.4073 91.5213 23.5473C91.2773 23.6833 91.0053 23.7513 90.7053 23.7513C90.2933 23.7513 89.9693 23.6213 89.7333 23.3613V24.8673H88.7973V20.4753H89.6913V20.8473C89.9233 20.5673 90.2613 20.4273 90.7053 20.4273ZM90.5433 22.9833C90.7833 22.9833 90.9793 22.9033 91.1313 22.7433C91.2873 22.5793 91.3653 22.3613 91.3653 22.0893C91.3653 21.8173 91.2873 21.6013 91.1313 21.4413C90.9793 21.2773 90.7833 21.1953 90.5433 21.1953C90.3033 21.1953 90.1053 21.2773 89.9493 21.4413C89.7973 21.6013 89.7213 21.8173 89.7213 22.0893C89.7213 22.3613 89.7973 22.5793 89.9493 22.7433C90.1053 22.9033 90.3033 22.9833 90.5433 22.9833Z" fill="#FAFAFA"/>
<path d="M96.1073 22.1013C96.1073 22.1133 96.1013 22.1973 96.0893 22.3533H93.6473C93.6913 22.5533 93.7953 22.7113 93.9593 22.8273C94.1233 22.9433 94.3273 23.0013 94.5713 23.0013C94.7393 23.0013 94.8873 22.9773 95.0153 22.9293C95.1473 22.8773 95.2693 22.7973 95.3813 22.6893L95.8793 23.2293C95.5753 23.5773 95.1313 23.7513 94.5473 23.7513C94.1833 23.7513 93.8613 23.6813 93.5813 23.5413C93.3013 23.3973 93.0853 23.1993 92.9333 22.9473C92.7813 22.6953 92.7053 22.4093 92.7053 22.0893C92.7053 21.7733 92.7793 21.4893 92.9273 21.2373C93.0793 20.9813 93.2853 20.7833 93.5453 20.6433C93.8093 20.4993 94.1033 20.4273 94.4273 20.4273C94.7433 20.4273 95.0293 20.4953 95.2853 20.6313C95.5413 20.7673 95.7413 20.9633 95.8853 21.2193C96.0333 21.4713 96.1073 21.7653 96.1073 22.1013ZM94.4333 21.1353C94.2213 21.1353 94.0433 21.1953 93.8993 21.3153C93.7553 21.4353 93.6673 21.5993 93.6353 21.8073H95.2253C95.1933 21.6033 95.1053 21.4413 94.9613 21.3213C94.8173 21.1973 94.6413 21.1353 94.4333 21.1353Z" fill="#FAFAFA"/>
<path d="M100.413 22.9353V24.3993H99.5435V23.7033H97.2755V24.3993H96.4055V22.9353H96.5375C96.7375 22.9313 96.8755 22.8133 96.9515 22.5813C97.0275 22.3493 97.0755 22.0193 97.0955 21.5913L97.1375 20.4753H99.9515V22.9353H100.413ZM97.9415 21.6573C97.9295 21.9853 97.9035 22.2533 97.8635 22.4613C97.8275 22.6693 97.7575 22.8273 97.6535 22.9353H99.0155V21.2433H97.9595L97.9415 21.6573Z" fill="#FAFAFA"/>
<path d="M101.003 20.4753H101.932V22.3953L103.504 20.4753H104.362V23.7033H103.433V21.7833L101.866 23.7033H101.003V20.4753Z" fill="#FAFAFA"/>
<path d="M107.974 21.2433H106.882V23.7033H105.952V21.2433H104.86V20.4753H107.974V21.2433Z" fill="#FAFAFA"/>
<path d="M108.473 20.4753H109.403V21.7353H110.807V20.4753H111.743V23.7033H110.807V22.4973H109.403V23.7033H108.473V20.4753Z" fill="#FAFAFA"/>
<path d="M114.337 21.5073C114.757 21.5113 115.075 21.6053 115.291 21.7893C115.507 21.9733 115.615 22.2373 115.615 22.5813C115.615 22.9413 115.493 23.2193 115.249 23.4153C115.005 23.6113 114.659 23.7093 114.211 23.7093L112.639 23.7033V20.4753H113.569V21.5073H114.337ZM115.963 20.4753H116.893V23.7033H115.963V20.4753ZM114.127 23.0433C114.307 23.0473 114.445 23.0093 114.541 22.9293C114.637 22.8493 114.685 22.7293 114.685 22.5693C114.685 22.4133 114.637 22.2993 114.541 22.2273C114.449 22.1553 114.311 22.1173 114.127 22.1133L113.569 22.1073V23.0433H114.127Z" fill="#FAFAFA"/>
<path d="M117.795 20.4753H118.725V22.3953L120.297 20.4753H121.155V23.7033H120.225V21.7833L118.659 23.7033H117.795V20.4753ZM119.415 20.1273C118.711 20.1273 118.357 19.8173 118.353 19.1973H118.965C118.969 19.3373 119.007 19.4473 119.079 19.5273C119.155 19.6033 119.265 19.6413 119.409 19.6413C119.553 19.6413 119.663 19.6033 119.739 19.5273C119.819 19.4473 119.859 19.3373 119.859 19.1973H120.483C120.479 19.8173 120.123 20.1273 119.415 20.1273Z" fill="#FAFAFA"/>
<path d="M125.656 20.4273C125.956 20.4273 126.228 20.4973 126.472 20.6373C126.72 20.7733 126.914 20.9673 127.054 21.2193C127.194 21.4673 127.264 21.7573 127.264 22.0893C127.264 22.4213 127.194 22.7133 127.054 22.9653C126.914 23.2133 126.72 23.4073 126.472 23.5473C126.228 23.6833 125.956 23.7513 125.656 23.7513C125.244 23.7513 124.92 23.6213 124.684 23.3613V24.8673H123.748V20.4753H124.642V20.8473C124.874 20.5673 125.212 20.4273 125.656 20.4273ZM125.494 22.9833C125.734 22.9833 125.93 22.9033 126.082 22.7433C126.238 22.5793 126.316 22.3613 126.316 22.0893C126.316 21.8173 126.238 21.6013 126.082 21.4413C125.93 21.2773 125.734 21.1953 125.494 21.1953C125.254 21.1953 125.056 21.2773 124.9 21.4413C124.748 21.6013 124.672 21.8173 124.672 22.0893C124.672 22.3613 124.748 22.5793 124.9 22.7433C125.056 22.9033 125.254 22.9833 125.494 22.9833Z" fill="#FAFAFA"/>
<path d="M131.058 22.1013C131.058 22.1133 131.052 22.1973 131.04 22.3533H128.598C128.642 22.5533 128.746 22.7113 128.91 22.8273C129.074 22.9433 129.278 23.0013 129.522 23.0013C129.69 23.0013 129.838 22.9773 129.966 22.9293C130.098 22.8773 130.22 22.7973 130.332 22.6893L130.83 23.2293C130.526 23.5773 130.082 23.7513 129.498 23.7513C129.134 23.7513 128.812 23.6813 128.532 23.5413C128.252 23.3973 128.036 23.1993 127.884 22.9473C127.732 22.6953 127.656 22.4093 127.656 22.0893C127.656 21.7733 127.73 21.4893 127.878 21.2373C128.03 20.9813 128.236 20.7833 128.496 20.6433C128.76 20.4993 129.054 20.4273 129.378 20.4273C129.694 20.4273 129.98 20.4953 130.236 20.6313C130.492 20.7673 130.692 20.9633 130.836 21.2193C130.984 21.4713 131.058 21.7653 131.058 22.1013ZM129.384 21.1353C129.172 21.1353 128.994 21.1953 128.85 21.3153C128.706 21.4353 128.618 21.5993 128.586 21.8073H130.176C130.144 21.6033 130.056 21.4413 129.912 21.3213C129.768 21.1973 129.592 21.1353 129.384 21.1353Z" fill="#FAFAFA"/>
<path d="M131.776 20.4753H132.706V22.3953L134.278 20.4753H135.136V23.7033H134.206V21.7833L132.64 23.7033H131.776V20.4753ZM133.396 20.1273C132.692 20.1273 132.338 19.8173 132.334 19.1973H132.946C132.95 19.3373 132.988 19.4473 133.06 19.5273C133.136 19.6033 133.246 19.6413 133.39 19.6413C133.534 19.6413 133.644 19.6033 133.72 19.5273C133.8 19.4473 133.84 19.3373 133.84 19.1973H134.464C134.46 19.8173 134.104 20.1273 133.396 20.1273Z" fill="#FAFAFA"/>
<path d="M138.748 21.2433H137.656V23.7033H136.726V21.2433H135.634V20.4753H138.748V21.2433Z" fill="#FAFAFA"/>
<path d="M139.247 20.4753H140.177V22.3953L141.749 20.4753H142.607V23.7033H141.677V21.7833L140.111 23.7033H139.247V20.4753Z" fill="#FAFAFA"/>
<path d="M143.506 20.4753H144.436V21.7353H145.84V20.4753H146.776V23.7033H145.84V22.4973H144.436V23.7033H143.506V20.4753Z" fill="#FAFAFA"/>
<path d="M150.258 21.2433H148.602V23.7033H147.672V20.4753H150.258V21.2433Z" fill="#FAFAFA"/>
<path d="M155.253 119.896H111.209C108.706 119.896 106.678 117.868 106.678 115.365C106.678 112.862 108.706 110.834 111.209 110.834H155.253C157.756 110.834 159.784 112.862 159.784 115.365C159.784 117.868 157.756 119.896 155.253 119.896Z" fill="#FFB062"/>
<path d="M121.508 117.34C121.08 117.34 120.692 117.248 120.344 117.064C120 116.876 119.728 116.618 119.528 116.29C119.332 115.958 119.234 115.584 119.234 115.168C119.234 114.752 119.332 114.38 119.528 114.052C119.728 113.72 120 113.462 120.344 113.278C120.692 113.09 121.082 112.996 121.514 112.996C121.878 112.996 122.206 113.06 122.498 113.188C122.794 113.316 123.042 113.5 123.242 113.74L122.618 114.316C122.334 113.988 121.982 113.824 121.562 113.824C121.302 113.824 121.07 113.882 120.866 113.998C120.662 114.11 120.502 114.268 120.386 114.472C120.274 114.676 120.218 114.908 120.218 115.168C120.218 115.428 120.274 115.66 120.386 115.864C120.502 116.068 120.662 116.228 120.866 116.344C121.07 116.456 121.302 116.512 121.562 116.512C121.982 116.512 122.334 116.346 122.618 116.014L123.242 116.59C123.042 116.834 122.794 117.02 122.498 117.148C122.202 117.276 121.872 117.34 121.508 117.34Z" fill="#FAFAFA"/>
<path d="M125.226 116.044H124.74V117.268H123.804V114.04H124.74V115.294H125.244L126.12 114.04H127.116L125.988 115.588L127.194 117.268H126.09L125.226 116.044Z" fill="#FAFAFA"/>
<path d="M128.849 113.992C129.349 113.992 129.733 114.112 130.001 114.352C130.269 114.588 130.403 114.946 130.403 115.426V117.268H129.527V116.866C129.351 117.166 129.023 117.316 128.543 117.316C128.295 117.316 128.079 117.274 127.895 117.19C127.715 117.106 127.577 116.99 127.481 116.842C127.385 116.694 127.337 116.526 127.337 116.338C127.337 116.038 127.449 115.802 127.673 115.63C127.901 115.458 128.251 115.372 128.723 115.372H129.467C129.467 115.168 129.405 115.012 129.281 114.904C129.157 114.792 128.971 114.736 128.723 114.736C128.551 114.736 128.381 114.764 128.213 114.82C128.049 114.872 127.909 114.944 127.793 115.036L127.457 114.382C127.633 114.258 127.843 114.162 128.087 114.094C128.335 114.026 128.589 113.992 128.849 113.992ZM128.777 116.686C128.937 116.686 129.079 116.65 129.203 116.578C129.327 116.502 129.415 116.392 129.467 116.248V115.918H128.825C128.441 115.918 128.249 116.044 128.249 116.296C128.249 116.416 128.295 116.512 128.387 116.584C128.483 116.652 128.613 116.686 128.777 116.686Z" fill="#FAFAFA"/>
<path d="M134.12 114.04V117.268H133.184V116.068C132.912 116.204 132.612 116.272 132.284 116.272C131.848 116.272 131.518 116.174 131.294 115.978C131.074 115.778 130.964 115.47 130.964 115.054V114.04H131.9V114.994C131.9 115.19 131.95 115.332 132.05 115.42C132.154 115.508 132.302 115.552 132.494 115.552C132.738 115.552 132.968 115.5 133.184 115.396V114.04H134.12Z" fill="#FAFAFA"/>
<path d="M136.273 113.992C136.773 113.992 137.157 114.112 137.425 114.352C137.693 114.588 137.827 114.946 137.827 115.426V117.268H136.951V116.866C136.775 117.166 136.447 117.316 135.967 117.316C135.719 117.316 135.503 117.274 135.319 117.19C135.139 117.106 135.001 116.99 134.905 116.842C134.809 116.694 134.761 116.526 134.761 116.338C134.761 116.038 134.873 115.802 135.097 115.63C135.325 115.458 135.675 115.372 136.147 115.372H136.891C136.891 115.168 136.829 115.012 136.705 114.904C136.581 114.792 136.395 114.736 136.147 114.736C135.975 114.736 135.805 114.764 135.637 114.82C135.473 114.872 135.333 114.944 135.217 115.036L134.881 114.382C135.057 114.258 135.267 114.162 135.511 114.094C135.759 114.026 136.013 113.992 136.273 113.992ZM136.201 116.686C136.361 116.686 136.503 116.65 136.627 116.578C136.751 116.502 136.839 116.392 136.891 116.248V115.918H136.249C135.865 115.918 135.673 116.044 135.673 116.296C135.673 116.416 135.719 116.512 135.811 116.584C135.907 116.652 136.037 116.686 136.201 116.686Z" fill="#FAFAFA"/>
<path d="M141.352 114.808H140.26V117.268H139.33V114.808H138.238V114.04H141.352V114.808Z" fill="#FAFAFA"/>
<path d="M143.597 115.072C144.017 115.076 144.339 115.172 144.563 115.36C144.787 115.544 144.899 115.806 144.899 116.146C144.899 116.502 144.773 116.78 144.521 116.98C144.273 117.176 143.923 117.274 143.471 117.274L141.851 117.268V114.04H142.781V115.072H143.597ZM143.387 116.608C143.567 116.612 143.705 116.574 143.801 116.494C143.897 116.414 143.945 116.294 143.945 116.134C143.945 115.978 143.897 115.864 143.801 115.792C143.709 115.72 143.571 115.682 143.387 115.678L142.781 115.672V116.608H143.387Z" fill="#FAFAFA"/>
<path d="M165.247 125.805L151.632 118.586C151.354 118.439 150.973 118.733 151.049 119.039L154.724 134.005C154.8 134.327 155.28 134.3 155.427 133.967L157.903 128.438L161.218 132.691C161.469 133.013 161.932 133.073 162.254 132.822C162.575 132.571 162.635 132.108 162.384 131.786L159.069 127.533L165.034 126.481C165.394 126.416 165.536 125.958 165.247 125.805Z" fill="#0F6B99"/>
<path opacity="0.5" d="M161.545 146.765C159.625 147.599 157.472 148.079 155.203 148.079H59.8572C58.8049 148.079 57.769 147.959 56.7821 147.736C50.6481 146.378 45.9918 141.029 45.5938 134.514C52.0658 136.787 58.8976 138.685 66.1929 140.064C91.5412 144.835 119.932 142.785 148.104 137.801C148.71 140.179 149.887 142.387 151.725 144.11C152.859 145.173 154.32 146.209 155.798 146.732C155.852 146.76 155.912 146.776 155.961 146.792C157.652 147.343 159.74 147.207 161.545 146.765Z" fill="black"/>
<path d="M67.0761 71.9277C66.7598 73.2527 66.449 74.5722 66.1328 75.8971C66.0946 76.0552 66.0565 76.2133 66.0183 76.3714C65.5494 78.3452 65.0859 80.319 64.6116 82.2928C64.4316 83.067 64.2517 83.8303 64.0663 84.5991C63.8155 85.6514 63.5647 86.7092 63.3139 87.7615C62.9486 89.31 62.5778 90.8585 62.2125 92.407C61.9399 93.5629 61.6564 94.7242 61.3838 95.8802C61.0293 97.3687 60.8167 98.9608 59.808 100.171C59.3664 100.706 58.8102 101.147 58.205 101.485C57.687 101.774 56.8692 102.232 56.2694 102.03C55.855 101.889 56.2203 101.529 56.3239 101.289C56.4548 100.995 57.2454 99.8659 56.602 98.1156L56.0349 96.3109C55.9913 96.1691 55.8059 96.1092 55.6914 96.2182C55.1571 96.7035 53.9358 97.9084 53.7667 98.0557C52.48 99.157 50.4353 100.209 48.6524 99.8768C48.5706 99.8659 48.4779 99.8332 48.467 99.7514C48.4288 99.4897 49.323 99.2716 49.5084 99.1898C50.528 98.7154 51.2804 97.8103 51.7112 96.7907C52.3219 95.324 52.5672 93.6665 52.938 92.1289C53.2488 90.8094 53.565 89.4954 53.8758 88.1759C54.2629 86.5511 54.65 84.9263 55.0317 83.3015L55.6478 80.6952L56.3348 77.8218C56.7819 75.9353 57.229 74.0487 57.6816 72.1731C60.0752 72.0695 62.4742 71.9877 64.8624 71.955C65.0205 71.955 65.1732 71.9495 65.3313 71.9495C65.9093 71.955 66.4981 71.9495 67.0761 71.9277Z" fill="#FFB062"/>
<path d="M82.2718 98.0942C82.1737 98.7867 81.9283 99.4519 81.5794 100.052C81.285 100.564 80.8215 101.382 80.2108 101.518C79.7801 101.616 79.9055 101.115 79.8728 100.859C79.8292 100.548 79.9164 99.1574 78.4661 98.0015L77.0484 96.7529C76.9285 96.6548 76.7486 96.7039 76.7049 96.8511C76.4923 97.5435 76.0834 99.212 76.0125 99.4137C75.4781 101.033 74.2786 102.985 72.5829 103.634C72.5066 103.661 72.4084 103.683 72.3539 103.623C72.1903 103.416 72.8446 102.767 72.9591 102.603C73.5862 101.671 73.7552 100.504 73.5916 99.4028C73.3572 97.8325 72.7083 96.2895 72.2231 94.7846C71.8087 93.4978 71.3943 92.2111 70.9799 90.9189C70.4619 89.3322 69.9549 87.7401 69.4369 86.1535C69.2733 85.6355 69.1097 85.1284 68.9407 84.6104C68.5318 83.3346 68.1174 82.0587 67.7085 80.7883L66.1273 75.892L65.8928 75.1505L64.8623 71.9608C65.0204 71.9608 65.1731 71.9554 65.3312 71.9554C65.9146 71.9499 66.5035 71.9445 67.0814 71.9227C69.4914 71.8682 71.885 71.7318 74.2732 71.541C74.5894 72.5279 74.9165 73.5202 75.2328 74.518C75.8544 76.4482 76.4814 78.3838 77.103 80.3085C77.1466 80.4502 77.1956 80.5975 77.2393 80.7392C77.7681 82.3749 78.297 84.0161 78.8259 85.6627C79.3166 87.1731 79.8073 88.6943 80.2981 90.2101C80.6579 91.3442 81.0287 92.4728 81.394 93.6069C81.8574 95.0627 82.5063 96.5403 82.2718 98.0942Z" fill="#FFB062"/>
<path opacity="0.5" d="M77.2335 80.7451C77.0754 80.8051 76.9391 80.9032 76.8355 81.0232L73.2042 85.2161C72.9425 85.5159 72.539 85.6413 72.1519 85.5541C72.141 85.5487 72.1192 85.5487 72.1028 85.5432L69.3712 84.7417L68.9404 84.6163C68.5315 83.3404 68.1171 82.0646 67.7082 80.7941L66.127 75.8979C66.0888 76.056 66.0507 76.2141 66.0125 76.3723C65.5436 78.346 65.0801 80.3198 64.6058 82.2936C64.4258 83.0678 64.2459 83.8311 64.0605 84.5999L60.86 85.5377C60.8054 85.5487 60.7455 85.565 60.6909 85.5705C60.342 85.6141 59.993 85.4832 59.7586 85.2161L56.1327 81.0232C56.0455 80.925 55.9419 80.8432 55.8219 80.7887C55.7674 80.756 55.7074 80.7287 55.6475 80.7069L56.3345 77.8335C56.7816 75.947 57.2287 74.0604 57.6812 72.1848C60.0748 72.0812 62.4739 71.9994 64.862 71.9667C65.0201 71.9667 65.1728 71.9613 65.3309 71.9613C65.9143 71.9558 66.5032 71.9504 67.0812 71.9285C69.4911 71.874 71.8847 71.7377 74.2729 71.5469C74.5891 72.5338 74.9163 73.5261 75.2325 74.5239C75.8541 76.454 76.4811 78.3896 77.1027 80.3143C77.1408 80.4616 77.1899 80.6033 77.2335 80.7451Z" fill="black"/>
<path d="M88.0847 65.9205L84.448 70.1079C84.3171 70.266 84.2299 70.4514 84.1972 70.6586L83.412 76.1437C83.3521 76.5581 83.0631 76.8907 82.6651 77.0107L78.4122 78.2538L77.3435 78.57C77.1418 78.6355 76.9673 78.7445 76.8364 78.8972L73.2051 83.0901C72.9434 83.39 72.5399 83.5099 72.1528 83.4227C72.1419 83.4172 72.1201 83.4172 72.1037 83.4118L69.3721 82.6103L66.7822 81.8524C66.5914 81.787 66.3787 81.787 66.1879 81.8524L60.8663 83.4118C60.8118 83.4227 60.7518 83.439 60.6973 83.4445C60.3484 83.4881 59.9994 83.3572 59.7649 83.0901L56.1391 78.8972C56.0519 78.7936 55.9428 78.7172 55.8283 78.6573C55.7629 78.6191 55.7029 78.5918 55.632 78.57L52.5405 77.6649L50.3105 77.0107C50.1251 76.9561 49.9561 76.8471 49.8361 76.7108C49.6835 76.5636 49.5908 76.3618 49.5581 76.1437L48.871 71.3783L48.7674 70.6586C48.7402 70.4514 48.6584 70.266 48.5221 70.1079L46.0631 67.2727L44.8908 65.9205C44.6182 65.6042 44.5582 65.1626 44.7272 64.7809L47.0336 59.7429C47.1154 59.5575 47.1481 59.3503 47.1154 59.154L46.3248 53.6634C46.2703 53.2545 46.4556 52.8401 46.8046 52.6166L51.4718 49.6178C51.6354 49.5087 51.7772 49.3506 51.8644 49.1707L54.1653 44.1272C54.3398 43.7455 54.7106 43.5002 55.1304 43.5002H60.6755C60.8772 43.5002 61.079 43.4456 61.248 43.3366L65.9098 40.3378C66.2588 40.1088 66.7113 40.1088 67.0548 40.3378L67.3056 40.4959L69.7374 42.0607L71.7221 43.3366C71.8966 43.4456 72.0928 43.5002 72.2946 43.5002H77.8397C78.2595 43.5002 78.6357 43.7455 78.8047 44.1272L79.0174 44.5906L81.1111 49.1707C81.1929 49.3506 81.3292 49.5087 81.5037 49.6178L84.3717 51.4661L86.1655 52.6166C86.4218 52.7856 86.5962 53.0582 86.6453 53.3527C86.6562 53.4508 86.6562 53.5599 86.6453 53.6634L85.8547 59.154C85.822 59.3503 85.8547 59.5575 85.942 59.7429L86.618 61.2314L87.0542 62.1856L88.2429 64.7809C88.4173 65.1626 88.3519 65.6042 88.0847 65.9205Z" fill="#FFC662"/>
<path opacity="0.3" d="M88.0848 65.9204L84.448 70.1079C84.3172 70.266 84.2299 70.4514 84.1972 70.6586L83.4121 76.1437C83.3521 76.5581 83.0631 76.8907 82.6651 77.0106L78.4122 78.2538L77.3436 78.57C77.1418 78.6355 76.9673 78.7445 76.8365 78.8972L73.2052 83.0901C72.9435 83.39 72.54 83.5099 72.1529 83.4227C72.142 83.4172 72.1201 83.4172 72.1038 83.4118L69.3721 82.6103L66.7822 81.8524C66.5914 81.7869 66.3788 81.7869 66.1879 81.8524L60.8664 83.4118C60.8119 83.4227 60.7519 83.439 60.6974 83.4445C60.3484 83.4881 59.9995 83.3572 59.765 83.0901L56.1392 78.8972C56.0519 78.7936 55.9429 78.7172 55.8284 78.6573C55.7629 78.6191 55.703 78.5918 55.6321 78.57L52.5406 77.6649L50.3105 77.0106C50.1251 76.9561 49.9561 76.8471 49.8362 76.7108C49.6835 76.5635 49.5908 76.3618 49.5581 76.1437L48.8711 71.3783C55.125 72.0544 61.4334 72.3161 67.5838 71.1275C74.661 69.7589 81.242 66.4875 87.0543 62.1855L88.2429 64.7809C88.4174 65.1626 88.352 65.6042 88.0848 65.9204Z" fill="black"/>
<path d="M67.3051 40.4957L64.7752 45.7355L64.5734 46.1498L63.6901 47.9873L53.9521 68.1667L53.0634 70.0096L52.8726 70.4131L49.8356 76.7106C49.6884 76.5634 49.5902 76.3616 49.5629 76.1435L48.7723 70.653C48.7396 70.4458 48.6578 70.2604 48.5215 70.1077L46.0625 67.2725L57.2127 43.5054H60.6749C60.8821 43.5054 61.0784 43.4509 61.2474 43.3364L65.9147 40.3376C66.2637 40.114 66.7108 40.114 67.0597 40.3376L67.3051 40.4957Z" fill="url(#paint4_linear_1104_3990)"/>
<path d="M72.8121 43.5L71.4054 46.4116L71.2363 46.766L70.4948 48.2927L58.4123 73.3028L57.6762 74.8295L57.5072 75.1785L55.8224 78.6625C55.7624 78.6244 55.697 78.5917 55.6316 78.5753L52.54 77.6648L54.83 72.9212L55.01 72.5504L55.7951 70.9256L66.9998 47.7201L67.785 46.0899L67.9649 45.7191L69.7369 42.0605L71.7216 43.3364C71.8961 43.4509 72.0869 43.5054 72.2941 43.5054H72.8121V43.5Z" fill="url(#paint5_linear_1104_3990)"/>
<path d="M84.371 51.4653L81.8138 56.7651L81.5684 57.283V57.2885L80.3962 59.7094L73.537 73.9456L72.3648 76.3719L72.114 76.8899L69.355 82.6095L66.7651 81.8516C66.5743 81.7916 66.3617 81.7916 66.1654 81.8516L60.8438 83.411C60.7893 83.4219 60.7293 83.4382 60.6748 83.4437L63.4228 77.6151L63.5918 77.2607L64.3334 75.6849L75.838 51.2854L76.5795 49.7151L76.7485 49.3552L78.9949 44.5898L81.0941 49.1699C81.1759 49.3498 81.3122 49.5079 81.4866 49.617L84.371 51.4653Z" fill="url(#paint6_linear_1104_3990)"/>
<path d="M85.8546 59.149C85.8219 59.3508 85.8546 59.5525 85.9419 59.7379L86.618 61.2264L78.4121 78.2488L77.3434 78.565C77.1417 78.625 76.9727 78.7395 76.8418 78.8867L73.2105 83.0796C72.9488 83.3795 72.5453 83.5049 72.1582 83.4177L76.4929 74.4158L76.8963 73.5761L82.2124 62.5513L82.6159 61.7171L86.6507 53.3477C86.6616 53.4458 86.6616 53.5549 86.6507 53.6584L85.8546 59.149Z" fill="url(#paint7_linear_1104_3990)"/>
<path d="M82.2289 61.7704C82.2289 62.0594 82.2234 62.3429 82.2016 62.6319C81.76 70.925 74.8899 77.5169 66.4878 77.5169C60.5883 77.5169 55.4466 74.2728 52.7531 69.4692C51.4718 67.1901 50.7412 64.5675 50.7412 61.7704C50.7412 53.0793 57.7912 46.0293 66.4878 46.0293C75.1789 46.0347 82.2289 53.0793 82.2289 61.7704Z" fill="#FFC662"/>
<path opacity="0.3" d="M82.2014 62.6309C81.7597 70.924 74.8897 77.5159 66.4875 77.5159C60.588 77.5159 55.4464 74.2717 52.7529 69.4682C57.4693 69.7735 62.1856 69.7026 66.8147 68.8084C72.2834 67.7507 77.4523 65.5588 82.2014 62.6309Z" fill="black"/>
<path d="M81.8145 56.7655C80.8603 53.8321 79.0883 51.2695 76.7655 49.3557C75.1952 48.0525 73.385 47.0493 71.4004 46.4114C70.299 46.057 69.1485 45.8225 67.9599 45.7135C67.4746 45.6698 66.9785 45.6426 66.4768 45.6426C65.8989 45.6426 65.3264 45.6753 64.7648 45.7298C56.6625 46.5858 50.3486 53.4395 50.3486 61.7708C50.3486 64.9495 51.2701 67.9102 52.8622 70.4074C53.4238 71.307 54.0835 72.1522 54.8196 72.9155C55.6266 73.7606 56.5262 74.5185 57.5022 75.1673C59.2633 76.356 61.2753 77.2011 63.4399 77.6046C64.4213 77.7954 65.4354 77.899 66.4768 77.899C68.4615 77.899 70.3644 77.5391 72.1201 76.8849C73.7067 76.296 75.1789 75.4563 76.482 74.4149C80.2169 71.4652 82.6051 66.896 82.6051 61.7708V61.7163C82.6051 59.9879 82.327 58.3194 81.8145 56.7655ZM73.5486 73.946C71.4712 75.151 69.0558 75.8435 66.4878 75.8435C65.768 75.8435 65.0483 75.7889 64.3613 75.6799C62.1749 75.3527 60.1575 74.5185 58.4182 73.2972C57.4477 72.6211 56.5644 71.8141 55.801 70.9199C55.0813 70.0803 54.4597 69.1588 53.9581 68.161C52.9767 66.2472 52.4205 64.0717 52.4205 61.7708C52.4205 54.9553 57.2623 49.2739 63.6961 47.9817C64.5958 47.7963 65.5336 47.7036 66.4878 47.7036C66.6622 47.7036 66.8367 47.709 67.0057 47.7145C68.2216 47.7581 69.3884 47.9489 70.5007 48.287C72.5181 48.8868 74.3392 49.9173 75.8659 51.2804C78.2595 53.4232 79.917 56.3784 80.4077 59.7043C80.5059 60.375 80.555 61.0674 80.555 61.7708C80.555 66.9724 77.7361 71.5142 73.5486 73.946Z" fill="#FFB062"/>
<defs>
<linearGradient id="paint0_linear_1104_3990" x1="164.64" y1="82.4255" x2="141.291" y2="210.717" gradientUnits="userSpaceOnUse">
<stop stop-color="white"/>
<stop offset="1" stop-color="white" stop-opacity="0"/>
</linearGradient>
<linearGradient id="paint1_linear_1104_3990" x1="199.708" y1="88.8073" x2="176.359" y2="217.099" gradientUnits="userSpaceOnUse">
<stop stop-color="white"/>
<stop offset="1" stop-color="white" stop-opacity="0"/>
</linearGradient>
<linearGradient id="paint2_linear_1104_3990" x1="86.3921" y1="67.3607" x2="61.5956" y2="199.434" gradientUnits="userSpaceOnUse">
<stop stop-color="white"/>
<stop offset="1" stop-color="white" stop-opacity="0"/>
</linearGradient>
<linearGradient id="paint3_linear_1104_3990" x1="120.439" y1="73.7529" x2="95.6427" y2="205.826" gradientUnits="userSpaceOnUse">
<stop stop-color="white"/>
<stop offset="1" stop-color="white" stop-opacity="0"/>
</linearGradient>
<linearGradient id="paint4_linear_1104_3990" x1="62.32" y1="38.3821" x2="44.3118" y2="87.9046" gradientUnits="userSpaceOnUse">
<stop stop-color="white"/>
<stop offset="1" stop-color="white" stop-opacity="0"/>
</linearGradient>
<linearGradient id="paint5_linear_1104_3990" x1="69.7638" y1="41.0889" x2="51.7555" y2="90.6114" gradientUnits="userSpaceOnUse">
<stop stop-color="white"/>
<stop offset="1" stop-color="white" stop-opacity="0"/>
</linearGradient>
<linearGradient id="paint6_linear_1104_3990" x1="80.6786" y1="45.0574" x2="62.6704" y2="94.58" gradientUnits="userSpaceOnUse">
<stop stop-color="white"/>
<stop offset="1" stop-color="white" stop-opacity="0"/>
</linearGradient>
<linearGradient id="paint7_linear_1104_3990" x1="88.2947" y1="47.828" x2="70.2865" y2="97.3506" gradientUnits="userSpaceOnUse">
<stop stop-color="white"/>
<stop offset="1" stop-color="white" stop-opacity="0"/>
</linearGradient>
</defs>
</svg>
