<svg width="291" height="155" viewBox="0 0 291 155" fill="none" xmlns="http://www.w3.org/2000/svg">
<path d="M259.174 52.9502C247.79 43.2405 234.068 -15.3163 187.057 15.182C162.769 30.9391 121.814 1.65446 87.9144 11.7696C56.7835 21.0588 53.7824 51.6637 56.7951 61.6363C62.8795 81.7818 43.9439 84.7796 26.3784 93.4343C-1.17524 107.011 19.0861 154.725 45.1169 154.953C71.1465 155.182 228.84 154.498 228.84 154.498C228.84 154.498 266.657 154.594 282.38 133.724C299.302 111.265 288.576 78.0303 259.174 52.9502Z" fill="#19B57C"/>
<path d="M211.204 125.809H276.012V16.9254H211.204V125.809Z" fill="#AEFFC0"/>
<path d="M209.176 16.9254V125.809H273.979V16.9254H209.176Z" fill="#3D8652"/>
<path d="M269.721 60.9316H213.59V23.0054H269.721V60.9316Z" fill="#F3F9FF"/>
<path d="M268.753 116.771H238.626V96.5219H268.753V116.771Z" fill="#F3F9FF"/>
<path d="M215.902 42.363C215.902 42.363 225.487 41.1692 231.344 46.5647C237.199 51.9591 248.111 47.0428 252.504 46.5647C260.141 45.7333 266.127 48.2321 267.904 50.9785V59.2188H215.902V42.363Z" fill="#FB7369"/>
<path d="M223.731 41.9688H223.33V29.102H223.731V41.9688Z" fill="#A6C7F9"/>
<path d="M239.493 47.4922H239.092V34.625H239.493V47.4922Z" fill="#A6C7F9"/>
<path d="M255.755 44.5801H255.353V31.7133H255.755V44.5801Z" fill="#A6C7F9"/>
<path d="M228.217 31.0762H225.138C224.954 31.0762 224.804 30.9253 224.804 30.7412C224.804 30.5574 224.954 30.4068 225.138 30.4068H228.217C228.401 30.4068 228.552 30.5574 228.552 30.7412C228.552 30.9253 228.401 31.0762 228.217 31.0762Z" fill="#A6C7F9"/>
<path d="M228.217 32.2812H225.138C224.954 32.2812 224.804 32.1306 224.804 31.9465C224.804 31.7625 224.954 31.6121 225.138 31.6121H228.217C228.401 31.6121 228.552 31.7625 228.552 31.9465C228.552 32.1306 228.401 32.2812 228.217 32.2812Z" fill="#A6C7F9"/>
<path d="M243.745 37.6348H240.665C240.482 37.6348 240.331 37.4843 240.331 37.3003C240.331 37.1162 240.482 36.9655 240.665 36.9655H243.745C243.927 36.9655 244.078 37.1162 244.078 37.3003C244.078 37.4843 243.927 37.6348 243.745 37.6348Z" fill="#A6C7F9"/>
<path d="M243.745 38.8145H240.665C240.482 38.8145 240.331 38.6638 240.331 38.4797C240.331 38.2957 240.482 38.145 240.665 38.145H243.745C243.927 38.145 244.078 38.2957 244.078 38.4797C244.078 38.6638 243.927 38.8145 243.745 38.8145Z" fill="#A6C7F9"/>
<path d="M260.274 32.7832H257.197C257.013 32.7832 256.861 32.6325 256.861 32.4486C256.861 32.2646 257.013 32.1139 257.197 32.1139H260.274C260.458 32.1139 260.609 32.2646 260.609 32.4486C260.609 32.6325 260.458 32.7832 260.274 32.7832Z" fill="#A6C7F9"/>
<path d="M260.274 33.9629H257.197C257.013 33.9629 256.861 33.8125 256.861 33.6283C256.861 33.444 257.013 33.2936 257.197 33.2936H260.274C260.458 33.2936 260.609 33.444 260.609 33.6283C260.609 33.8125 260.458 33.9629 260.274 33.9629Z" fill="#A6C7F9"/>
<path d="M258.637 70.6331C258.637 67.5727 261.117 65.0915 264.178 65.0915C267.239 65.0915 269.722 67.5727 269.722 70.6331C269.722 73.6945 267.239 76.1758 264.178 76.1758C261.117 76.1758 258.637 73.6945 258.637 70.6331Z" fill="#F3F9FF"/>
<path d="M269.251 70.6344C269.251 73.4366 266.978 75.707 264.179 75.707C262.856 75.707 261.651 75.2023 260.748 74.3732L264.179 70.6344V65.5618C266.978 65.5618 269.251 67.8337 269.251 70.6344Z" fill="#FB7369"/>
<path d="M262.246 69.7402H260.424C260.339 69.7402 260.272 69.6721 260.272 69.5887C260.272 69.5042 260.339 69.4357 260.424 69.4357H262.246C262.329 69.4357 262.398 69.5042 262.398 69.5887C262.398 69.6721 262.329 69.7402 262.246 69.7402Z" fill="#A6C7F9"/>
<path d="M244.872 70.6331C244.872 67.5728 247.354 65.0917 250.415 65.0917C253.476 65.0917 255.958 67.5728 255.958 70.6331C255.958 73.6944 253.476 76.1758 250.415 76.1758C247.354 76.1758 244.872 73.6944 244.872 70.6331Z" fill="#F3F9FF"/>
<path d="M250.415 70.6347L253.533 74.6372C252.674 75.3077 251.592 75.707 250.415 75.707C247.615 75.707 245.343 73.4366 245.343 70.6347C245.343 67.8336 247.615 65.5621 250.415 65.5621C253.062 65.5621 255.234 67.5871 255.468 70.1715L250.415 70.6347Z" fill="#E57970"/>
<path d="M254.323 71.8867H253.057C252.97 71.8867 252.902 71.8173 252.902 71.734C252.902 71.6494 252.97 71.5811 253.057 71.5811H254.323C254.408 71.5811 254.475 71.6494 254.475 71.734C254.475 71.8173 254.408 71.8867 254.323 71.8867Z" fill="#A6C7F9"/>
<path d="M258.637 85.897C258.637 82.8367 261.117 80.3554 264.178 80.3554C267.239 80.3554 269.722 82.8367 269.722 85.897C269.722 88.9582 267.239 91.4395 264.178 91.4395C261.117 91.4395 258.637 88.9582 258.637 85.897Z" fill="#F3F9FF"/>
<path d="M269.251 85.8981C269.251 88.7 266.978 90.9707 264.179 90.9707C262.856 90.9707 261.651 90.4657 260.748 89.6366L264.179 85.8981V80.8255C266.978 80.8255 269.251 83.0973 269.251 85.8981Z" fill="#FB7369"/>
<path d="M262.246 85.0059H260.424C260.339 85.0059 260.272 84.9366 260.272 84.8532C260.272 84.7687 260.339 84.7003 260.424 84.7003H262.246C262.329 84.7003 262.398 84.7687 262.398 84.8532C262.398 84.9366 262.329 85.0059 262.246 85.0059Z" fill="#A6C7F9"/>
<path d="M244.872 85.897C244.872 82.8368 247.354 80.3554 250.415 80.3554C253.476 80.3554 255.958 82.8368 255.958 85.897C255.958 88.9583 253.476 91.4395 250.415 91.4395C247.354 91.4395 244.872 88.9583 244.872 85.897Z" fill="#F3F9FF"/>
<path d="M255.468 85.4352C255.234 82.8508 253.062 80.8258 250.415 80.8258C247.615 80.8258 245.343 83.0973 245.343 85.8981C245.343 88.7002 247.615 90.9707 250.415 90.9707C251.592 90.9707 252.674 90.5725 253.533 89.9008L250.415 85.8981L255.468 85.4352Z" fill="#FB7369"/>
<path d="M254.323 87.1523H253.057C252.97 87.1523 252.902 87.0829 252.902 86.9997C252.902 86.915 252.97 86.8467 253.057 86.8467H254.323C254.408 86.8467 254.475 86.915 254.475 86.9997C254.475 87.0829 254.408 87.1523 254.323 87.1523Z" fill="#A6C7F9"/>
<path d="M267.454 115.355H239.803V99.016H240.146V115.012H267.454V115.355Z" fill="#A6C7F9"/>
<path d="M248.446 109.448C245.062 106.753 241.463 109.448 241.463 109.448V114.055H266.768V102.147C259.891 102.321 251.832 112.143 248.446 109.448Z" fill="#A6C7F9"/>
<path d="M241.751 100.264H253.542C253.702 100.264 253.832 100.134 253.832 99.9744C253.832 99.8147 253.702 99.6849 253.542 99.6849H241.751C241.591 99.6849 241.461 99.8147 241.461 99.9744C241.461 100.134 241.591 100.264 241.751 100.264Z" fill="#A6C7F9"/>
<path d="M241.751 101.678H253.542C253.702 101.678 253.832 101.547 253.832 101.389C253.832 101.228 253.702 101.098 253.542 101.098H241.751C241.591 101.098 241.461 101.228 241.461 101.389C241.461 101.547 241.591 101.678 241.751 101.678Z" fill="#A6C7F9"/>
<path d="M241.7 103.016H249.507C249.636 103.016 249.743 102.909 249.743 102.78V102.674C249.743 102.543 249.636 102.437 249.507 102.437H241.7C241.568 102.437 241.461 102.543 241.461 102.674V102.78C241.461 102.909 241.568 103.016 241.7 103.016Z" fill="#A6C7F9"/>
<path d="M198.45 133.727H109.779V0.00146484H198.45V133.727Z" fill="#3D8652"/>
<path d="M189.739 87.0508H118.35V7.47713H189.739V87.0508Z" fill="#F3F9FF"/>
<path d="M119.867 112.474C119.867 105.382 125.614 99.6348 132.706 99.6348C139.796 99.6348 145.545 105.382 145.545 112.474C145.545 119.565 139.796 125.312 132.706 125.312C125.614 125.312 119.867 119.565 119.867 112.474Z" fill="#F3F9FF"/>
<path d="M143.557 112.474C143.557 106.48 138.699 101.62 132.704 101.62C126.711 101.62 121.852 106.48 121.852 112.474C121.852 118.467 126.711 123.326 132.704 123.326C135.181 123.326 137.462 122.499 139.287 121.102L132.704 112.474L142.846 116.344C143.305 115.141 143.557 113.838 143.557 112.474Z" fill="#FFA161"/>
<path d="M163.611 112.474C163.611 105.382 169.359 99.6349 176.451 99.6349C183.542 99.6349 189.29 105.382 189.29 112.474C189.29 119.565 183.542 125.312 176.451 125.312C169.359 125.312 163.611 119.565 163.611 112.474Z" fill="#F3F9FF"/>
<path d="M176.449 101.621C170.455 101.621 165.596 106.481 165.596 112.475C165.596 115.442 166.785 118.129 168.717 120.088L176.449 112.475L186.592 116.346C187.05 115.143 187.303 113.839 187.303 112.475C187.303 106.481 182.445 101.621 176.449 101.621Z" fill="#FFA161"/>
<path d="M174.864 106.965H170.243C170.063 106.965 169.914 107.113 169.914 107.295C169.914 107.477 170.063 107.625 170.243 107.625H174.864C175.044 107.625 175.193 107.477 175.193 107.295C175.193 107.113 175.044 106.965 174.864 106.965Z" fill="white"/>
<path d="M174.864 108.009H170.243C170.063 108.009 169.914 108.158 169.914 108.34C169.914 108.521 170.063 108.67 170.243 108.67H174.864C175.044 108.67 175.193 108.521 175.193 108.34C175.193 108.158 175.044 108.009 174.864 108.009Z" fill="white"/>
<path d="M172.153 109.055H170.244C170.063 109.055 169.913 109.203 169.913 109.385C169.913 109.567 170.063 109.715 170.244 109.715H172.153C172.334 109.715 172.482 109.567 172.482 109.385C172.482 109.203 172.334 109.055 172.153 109.055Z" fill="white"/>
<path d="M131.031 106.965H126.411C126.231 106.965 126.08 107.113 126.08 107.295C126.08 107.477 126.231 107.625 126.411 107.625H131.031C131.213 107.625 131.361 107.477 131.361 107.295C131.361 107.113 131.213 106.965 131.031 106.965Z" fill="white"/>
<path d="M131.031 108.009H126.411C126.231 108.009 126.08 108.158 126.08 108.34C126.08 108.521 126.231 108.67 126.411 108.67H131.031C131.213 108.67 131.361 108.521 131.361 108.34C131.361 108.158 131.213 108.009 131.031 108.009Z" fill="white"/>
<path d="M128.318 109.055H126.409C126.228 109.055 126.079 109.203 126.079 109.385C126.079 109.567 126.228 109.715 126.409 109.715H128.318C128.5 109.715 128.648 109.567 128.648 109.385C128.648 109.203 128.5 109.055 128.318 109.055Z" fill="white"/>
<path d="M124.706 82.8438H132.239V35.9158H124.706V82.8438Z" fill="#A6C7F9"/>
<path d="M137.046 82.8438H144.58V22.8351H137.046V82.8438Z" fill="#A6C7F9"/>
<path d="M150.514 82.8438H158.048V47.264H150.514V82.8438Z" fill="#A6C7F9"/>
<path d="M163.618 82.8438H171.152V30.8467H163.618V82.8438Z" fill="#A6C7F9"/>
<path d="M176.791 54.2288V82.8438H184.323V54.2288H176.791Z" fill="#A6C7F9"/>
<path d="M170.793 24.0822H164.414C164.052 24.0822 163.753 24.3794 163.753 24.7424C163.753 25.1052 164.052 25.4023 164.414 25.4023H170.793C171.156 25.4023 171.454 25.1052 171.454 24.7424C171.454 24.3794 171.156 24.0822 170.793 24.0822Z" fill="#A6C7F9"/>
<path d="M165.867 26.4847H164.413C164.053 26.4847 163.755 26.7817 163.755 27.1447C163.755 27.5077 164.053 27.8047 164.413 27.8047H165.867C166.232 27.8047 166.527 27.5077 166.527 27.1447C166.527 26.7817 166.232 26.4847 165.867 26.4847Z" fill="#A6C7F9"/>
<path d="M144.506 13.8616H138.126C137.763 13.8616 137.465 14.1585 137.465 14.5216C137.465 14.8846 137.763 15.1816 138.126 15.1816H144.506C144.869 15.1816 145.165 14.8846 145.165 14.5216C145.165 14.1585 144.869 13.8616 144.506 13.8616Z" fill="#A6C7F9"/>
<path d="M139.578 16.266H138.124C137.762 16.266 137.464 16.563 137.464 16.9261C137.464 17.2889 137.762 17.5859 138.124 17.5859H139.578C139.94 17.5859 140.237 17.2889 140.237 16.9261C140.237 16.563 139.94 16.266 139.578 16.266Z" fill="#A6C7F9"/>
<path d="M157.471 40.2602H151.091C150.729 40.2602 150.432 40.5567 150.432 40.9202C150.432 41.2825 150.729 41.5801 151.091 41.5801H157.471C157.834 41.5801 158.131 41.2825 158.131 40.9202C158.131 40.5567 157.834 40.2602 157.471 40.2602Z" fill="#A6C7F9"/>
<path d="M152.542 42.6625H151.089C150.728 42.6625 150.431 42.96 150.431 43.3224C150.431 43.6859 150.728 43.9824 151.089 43.9824H152.542C152.906 43.9824 153.203 43.6859 153.203 43.3224C153.203 42.96 152.906 42.6625 152.542 42.6625Z" fill="#A6C7F9"/>
<path d="M183.749 47.2661H177.368C177.007 47.2661 176.708 47.5637 176.708 47.9262C176.708 48.2897 177.007 48.5859 177.368 48.5859H183.749C184.111 48.5859 184.408 48.2897 184.408 47.9262C184.408 47.5637 184.111 47.2661 183.749 47.2661Z" fill="#A6C7F9"/>
<path d="M178.82 49.6665H177.368C177.005 49.6665 176.708 49.9639 176.708 50.3263C176.708 50.69 177.005 50.9863 177.368 50.9863H178.82C179.183 50.9863 179.48 50.69 179.48 50.3263C179.48 49.9639 179.183 49.6665 178.82 49.6665Z" fill="#A6C7F9"/>
<path d="M33.0098 50.6871V87.1699H97.8163V50.6871H33.0098Z" fill="#AEFFC0"/>
<path d="M35.1162 50.6893V87.1719H99.923V50.6893H35.1162Z" fill="#3D8652"/>
<path d="M52.8404 56.3882C46.3681 56.3882 41.124 61.6344 41.124 68.1069C41.124 74.578 46.3681 79.8242 52.8404 79.8242C59.3128 79.8242 64.5584 74.578 64.5584 68.1069C64.5584 61.6344 59.3128 56.3882 52.8404 56.3882Z" fill="#F3F9FF"/>
<path d="M92.6382 61.5602H73.2263C72.5233 61.5602 71.9482 62.1356 71.9482 62.8396C71.9482 63.5437 72.5233 64.1191 73.2263 64.1191H92.6382C93.3411 64.1191 93.9179 63.5437 93.9179 62.8396C93.9179 62.1356 93.3411 61.5602 92.6382 61.5602Z" fill="#F3F9FF"/>
<path d="M92.6382 66.8251H73.2263C72.5233 66.8251 71.9482 67.4005 71.9482 68.1044C71.9482 68.8074 72.5233 69.3828 73.2263 69.3828H92.6382C93.3411 69.3828 93.9179 68.8074 93.9179 68.1044C93.9179 67.4005 93.3411 66.8251 92.6382 66.8251Z" fill="#F3F9FF"/>
<path d="M92.6382 72.0928H73.2263C72.5233 72.0928 71.9482 72.6683 71.9482 73.371C71.9482 74.0749 72.5233 74.6504 73.2263 74.6504H92.6382C93.3411 74.6504 93.9179 74.0749 93.9179 73.371C93.9179 72.6683 93.3411 72.0928 92.6382 72.0928Z" fill="#F3F9FF"/>
<path d="M42.1123 67.9375H52.8402V57.209C46.915 57.209 42.1123 62.0117 42.1123 67.9375Z" fill="#0C7CB0"/>
<path d="M63.5687 68.2809H52.8413H42.1123C42.1123 74.2057 46.9167 79.0098 52.8413 79.0098C58.7659 79.0098 63.5687 74.2057 63.5687 68.2809Z" fill="#0C7CB0"/>
<path d="M50.9881 62.4222H45.1656C44.8354 62.4222 44.5625 62.6937 44.5625 63.0253C44.5625 63.3555 44.8354 63.627 45.1656 63.627H50.9881C51.3197 63.627 51.5912 63.3555 51.5912 63.0253C51.5912 62.6937 51.3197 62.4222 50.9881 62.4222Z" fill="white"/>
<path d="M46.4918 64.6128H45.1658C44.8346 64.6128 44.5625 64.8834 44.5625 65.2146C44.5625 65.5457 44.8346 65.8164 45.1658 65.8164H46.4918C46.8229 65.8164 47.0936 65.5457 47.0936 65.2146C47.0936 64.8834 46.8229 64.6128 46.4918 64.6128Z" fill="white"/>
<path d="M59.6332 70.9033H53.8101C53.4786 70.9033 53.208 71.1742 53.208 71.5054C53.208 71.8365 53.4786 72.1074 53.8101 72.1074H59.6332C59.9647 72.1074 60.2353 71.8365 60.2353 71.5054C60.2353 71.1742 59.9647 70.9033 59.6332 70.9033Z" fill="white"/>
<path d="M55.1353 73.0946H53.8082C53.4768 73.0946 53.2051 73.3655 53.2051 73.6968C53.2051 74.0279 53.4768 74.2988 53.8082 74.2988H55.1353C55.4667 74.2988 55.7369 74.0279 55.7369 73.6968C55.7369 73.3655 55.4667 73.0946 55.1353 73.0946Z" fill="white"/>
<path d="M28.4453 93.7039V131.016H93.2507V93.7039H28.4453Z" fill="#AEFFC0"/>
<path d="M30.5527 93.7038V131.016H95.3585V93.7038H30.5527Z" fill="#3D8652"/>
<path d="M36.5576 111.21C36.5576 104.739 41.804 99.4928 48.2761 99.4928C54.7466 99.4928 59.993 104.739 59.993 111.21C59.993 117.683 54.7466 122.928 48.2761 122.928C41.804 122.928 36.5576 117.683 36.5576 111.21Z" fill="#F3F9FF"/>
<path d="M68.6612 107.221H88.0726C88.776 107.221 89.352 106.645 89.352 105.943C89.352 105.238 88.776 104.663 88.0726 104.663H68.6612C67.9578 104.663 67.3818 105.238 67.3818 105.943C67.3818 106.645 67.9578 107.221 68.6612 107.221Z" fill="#F3F9FF"/>
<path d="M88.0726 109.931H68.6612C67.9578 109.931 67.3818 110.506 67.3818 111.209C67.3818 111.913 67.9578 112.488 68.6612 112.488H88.0726C88.776 112.488 89.352 111.913 89.352 111.209C89.352 110.506 88.776 109.931 88.0726 109.931Z" fill="#F3F9FF"/>
<path d="M88.0726 115.197H68.6612C67.9578 115.197 67.3818 115.772 67.3818 116.476C67.3818 117.18 67.9578 117.756 68.6612 117.756H88.0726C88.776 117.756 89.352 117.18 89.352 116.476C89.352 115.772 88.776 115.197 88.0726 115.197Z" fill="#F3F9FF"/>
<path d="M48.2755 111.4L37.5479 111.264C37.5479 111.309 37.5479 111.355 37.5479 111.4C37.5479 117.325 42.3506 122.129 48.2755 122.129C50.3938 122.129 52.3683 121.514 54.0315 120.453L48.2755 111.4Z" fill="#0C7CB0"/>
<path d="M48.6719 114.775H42.8492C42.5178 114.775 42.2461 115.046 42.2461 115.377V115.378C42.2461 115.709 42.5178 115.98 42.8492 115.98H48.6719C49.0032 115.98 49.2735 115.709 49.2735 115.378V115.377C49.2735 115.046 49.0032 114.775 48.6719 114.775Z" fill="white"/>
<path d="M44.1749 116.969H42.8491C42.5169 116.969 42.2461 117.239 42.2461 117.571C42.2461 117.903 42.5169 118.174 42.8491 118.174H44.1749C44.5056 118.174 44.7765 117.903 44.7765 117.571C44.7765 117.239 44.5056 116.969 44.1749 116.969Z" fill="white"/>
<path d="M28.4453 10.8996V44.7109H93.2507V10.8996H28.4453Z" fill="#AEFFC0"/>
<path d="M30.5527 10.8979V44.709H95.3585V10.8979H30.5527Z" fill="#3D8652"/>
<path d="M36.5576 28.3007C36.5576 21.8301 41.804 16.5838 48.2761 16.5838C54.7466 16.5838 59.993 21.8301 59.993 28.3007C59.993 34.7728 54.7466 40.0176 48.2761 40.0176C41.804 40.0176 36.5576 34.7728 36.5576 28.3007Z" fill="#F3F9FF"/>
<path d="M48.277 17.5736C42.3527 17.5736 37.5479 22.3769 37.5479 28.3012C37.5479 32.3602 39.8035 35.8927 43.1287 37.7141C44.8473 34.5311 48.277 28.3012 48.277 28.3012L53.3571 37.752C56.7202 35.9411 59.0046 32.3889 59.0046 28.3012C59.0046 22.3769 54.2013 17.5736 48.277 17.5736Z" fill="#0C7CB0"/>
<path d="M88.0729 21.7538H68.6615C67.9581 21.7538 67.3838 22.3297 67.3838 23.0331C67.3838 23.7365 67.9581 24.3125 68.6615 24.3125H88.0729C88.7763 24.3125 89.3523 23.7365 89.3523 23.0331C89.3523 22.3297 88.7763 21.7538 88.0729 21.7538Z" fill="#F3F9FF"/>
<path d="M88.0729 27.0213H68.6615C67.9581 27.0213 67.3838 27.5973 67.3838 28.3007C67.3838 29.0041 67.9581 29.5801 68.6615 29.5801H88.0729C88.7763 29.5801 89.3523 29.0041 89.3523 28.3007C89.3523 27.5973 88.7763 27.0213 88.0729 27.0213Z" fill="#F3F9FF"/>
<path d="M88.0729 32.2906H68.6615C67.9581 32.2906 67.3838 32.8649 67.3838 33.57C67.3838 34.2734 67.9581 34.8477 68.6615 34.8477H88.0729C88.7763 34.8477 89.3523 34.2734 89.3523 33.57C89.3523 32.8649 88.7763 32.2906 88.0729 32.2906Z" fill="#F3F9FF"/>
<path d="M48.6705 23.1762H42.8492C42.5178 23.1762 42.2461 23.4479 42.2461 23.7793C42.2461 24.1106 42.5178 24.3809 42.8492 24.3809H48.6705C49.0032 24.3809 49.2735 24.1106 49.2735 23.7793C49.2735 23.4479 49.0032 23.1762 48.6705 23.1762Z" fill="white"/>
<path d="M44.1749 25.3696H42.8491C42.5169 25.3696 42.2461 25.6405 42.2461 25.9726C42.2461 26.3034 42.5169 26.5742 42.8491 26.5742H44.1749C44.5056 26.5742 44.7765 26.3034 44.7765 25.9726C44.7765 25.6405 44.5056 25.3696 44.1749 25.3696Z" fill="white"/>
<path d="M110.391 69.2884C110.391 69.2884 117.95 77.0923 118.312 80.0343C118.675 82.9776 114.716 87.5801 114.716 87.5801L110.391 69.2884Z" fill="#F2564B"/>
<path d="M107.158 150.245C107.158 150.245 106.9 154.394 106.097 154.454C105.992 154.461 102.026 154.461 102.026 154.461L96.9668 154.432C96.9668 154.432 96.9993 153.213 98.4785 152.955C99.9577 152.698 102.435 151.658 103.33 149.702C104.272 147.646 107.158 150.245 107.158 150.245Z" fill="#163560"/>
<path d="M118.429 150.245C118.429 150.245 118.172 154.394 117.37 154.454C117.263 154.461 113.298 154.461 113.298 154.461L108.224 154.444C108.224 154.444 108.271 153.213 109.75 152.955C111.229 152.697 113.706 151.658 114.601 149.702C115.544 147.646 118.429 150.245 118.429 150.245Z" fill="#163560"/>
<path d="M101.554 105.757C101.554 105.757 102.877 114.222 107.814 129.247C112.752 144.274 113.425 150.781 113.425 150.781C113.425 150.781 114.759 150.975 116.17 150.975C117.063 150.975 118.721 150.632 118.721 150.632C118.721 150.632 118.766 134.211 116.49 126.655C114.216 119.099 115.999 99.4144 115.999 99.4144L101.554 105.757Z" fill="#163560"/>
<path d="M98.9756 99.8774C98.9756 99.8774 98.7885 112.633 100.996 128.296C103.202 143.957 102.454 150.605 102.454 150.605C102.454 150.605 104.271 150.93 104.91 150.951C105.592 150.974 107.74 150.781 107.74 150.781C107.74 150.781 110.898 135.113 109.994 127.274C109.087 119.435 114.319 100.375 114.319 100.375L98.9756 99.8774Z" fill="#1C468A"/>
<path d="M109.209 70.0294L106.716 71.875L103.112 71.1166C103.161 70.7889 103.4 69.4261 103.617 68.1931C103.629 68.1202 103.642 68.0472 103.655 67.9766C103.841 66.9276 104.001 66.0255 104.001 66.0255L107.366 64.3478L108.62 63.7227C108.617 63.7445 108.524 64.8875 108.511 65.0541C108.274 68.0172 109.209 70.0294 109.209 70.0294Z" fill="#FC9490"/>
<path d="M103.365 69.0982C103.444 69.0646 108.267 67.6416 108.79 67.8152C109.313 67.9877 109.623 69.0021 109.623 69.0021L101.735 70.7852C101.735 70.7852 102.357 69.5219 103.365 69.0982Z" fill="#F2564B"/>
<path d="M116.352 101.45C115.535 105.18 101.931 105.622 98.4238 102.236C98.0237 101.851 98.005 100.056 98.1545 97.635C98.4499 92.9075 99.3941 85.7936 99.4315 82.1602C99.4502 80.405 99.6896 78.6102 100.013 76.9801C100.695 73.5064 101.737 70.7798 101.737 70.7798C101.737 70.7798 108.382 68.6319 109.625 68.9978C115.616 70.7577 117.169 97.7218 116.352 101.45Z" fill="#FB7369"/>
<path d="M98.1523 97.6367C98.4478 92.9092 99.3924 85.7953 99.4286 82.162C99.4468 80.4066 99.6879 78.612 100.011 76.9818L104.008 76.2766C104.008 76.2766 107.915 92.2388 98.1523 97.6367Z" fill="#F2564B"/>
<path d="M100.318 91.0443C100.318 91.0443 100.591 91.6963 100.019 92.1326C99.4468 92.5702 99.0744 93.2789 99.2063 93.7965C99.3381 94.3141 100.593 95.1582 101.027 95.0226C101.462 94.8861 102.348 94.204 102.253 93.9308C102.157 93.6588 102.848 91.5352 101.788 90.7178C100.728 89.9003 100.318 91.0443 100.318 91.0443Z" fill="#FC9490"/>
<path d="M104.788 69.8245C104.788 69.8245 100.891 70.5539 97.7837 75.131C94.6784 79.7091 92.6353 83.1121 93.2059 84.7619C93.7784 86.4119 98.9952 92.1328 99.8935 92.1328C100.792 92.1328 102.243 91.4797 102.325 90.0081C102.325 90.0081 98.6532 84.5049 99.3768 83.6806C99.6864 83.3285 104.144 79.7091 104.781 81.344C105.834 84.0487 104.788 69.8245 104.788 69.8245Z" fill="#FB7369"/>
<path d="M108.258 65.1047C107.52 66.5195 104.765 67.7423 103.617 68.1914C103.63 68.1185 103.643 68.0457 103.655 67.975C103.841 66.9259 104.001 66.024 104.001 66.024L107.367 64.3463C108.11 64.3347 108.563 64.5235 108.258 65.1047Z" fill="#FCA56B"/>
<path d="M102.917 66.0991C102.917 66.0991 107.898 67.6528 108.819 64.5359C109.737 61.419 111.001 59.5202 107.859 58.3958C104.718 57.2716 103.745 58.2776 103.186 59.2445C102.626 60.2102 101.644 65.6151 102.917 66.0991Z" fill="#FC9490"/>
<path d="M103.381 58.9443C103.381 58.9443 103.698 62.5717 104.449 62.4143C105.198 62.2568 105.878 62.1399 105.769 63.2341C105.659 64.327 104.618 65.5891 106.931 65.7825C109.242 65.9769 112.566 60.0141 111.931 58.8851C110.098 55.6282 100.731 54.9704 103.381 58.9443Z" fill="#163560"/>
<path d="M13.6914 143.236L15.208 149.623L17.4798 149.61L17.5629 143.236H13.6914Z" fill="#FC9490"/>
<path d="M32.7998 143.508L37.115 149.623L38.797 147.464L36.1998 142.668L32.7998 143.508Z" fill="#FC9490"/>
<path d="M21.5806 59.2995C20.7975 58.8537 19.8574 58.8053 19.1985 58.8445C19.3698 58.6693 19.7018 58.6053 19.7018 58.6053C19.2939 58.5438 18.384 58.9491 18.384 58.9491C12.7137 56.7644 11.8233 65.1123 11.9423 67.0525C12.0613 68.9914 10.0374 69.6256 7.08652 71.1526C1.45807 74.0695 0.963867 77.9734 0.963867 77.9734C1.00832 77.9996 1.05278 78.0297 1.10246 78.0637C1.38094 77.5891 1.9562 76.7013 2.44125 76.5667C2.42295 76.6098 1.8686 77.7904 1.66072 78.4663C3.32115 79.7293 6.42758 82.5292 8.59268 84.5125C8.58352 84.1246 8.59921 83.5747 8.74041 83.2841L9.00713 84.8947C10.1668 85.9598 10.9656 86.709 10.9656 86.709C10.8218 85.1413 18.0545 76.87 21.8277 74.3924C22.7455 73.0405 23.0724 70.6519 23.0959 70.4636C22.9377 72.3568 22.6148 73.4197 22.3245 74.0172C25.5199 71.0781 23.6594 60.4801 21.5806 59.2995Z" fill="#163560"/>
<path d="M21.604 74.5155C21.6219 74.5232 19.7827 75.4794 18.3978 75.1008C17.095 74.7453 16.244 73.0574 16.262 73.0523C16.8139 72.9432 16.9718 72.1859 16.9602 68.9284L17.2105 68.9784L21.4025 69.8089C21.4025 69.8089 21.3075 71.127 21.3049 72.3708C21.3011 73.4143 21.3652 74.4039 21.604 74.5155Z" fill="#FC9490"/>
<path d="M16.8633 60.6699C16.8633 60.6699 18.9314 58.4672 21.5267 60.5557C21.5267 60.5557 20.0154 60.2953 16.8633 60.6699Z" fill="#E37970"/>
<path d="M21.4023 69.8074C21.4023 69.8074 21.3074 71.1267 21.3049 72.3691C18.9585 72.3038 17.7187 70.1625 17.2109 68.9765L21.4023 69.8074Z" fill="#FF8585"/>
<path d="M16.7771 68.5234C16.7771 68.5234 15.5478 66.5811 15.2519 64.919C15.0407 63.7327 15.6456 59.3383 20.0635 59.9719C20.0635 59.9719 21.3462 60.097 22.5507 60.9118C23.5102 61.5597 24.8946 62.9571 23.3459 66.7936L22.9444 68.0893L16.7771 68.5234Z" fill="#163560"/>
<path d="M38.1124 145.788L35.89 145.856L33.4849 145.93C33.4849 145.93 27.9282 139.743 24.8126 129.828C24.7393 129.597 24.6631 129.363 24.5814 129.128C22.8769 124.154 19.3404 117.912 17.4766 112.262C17.1803 111.361 16.9131 110.515 16.6749 109.712C16.5987 109.455 16.5226 109.203 16.452 108.955C15.0798 104.183 14.6824 101.052 14.3154 97.7041L27.7703 97.8118C27.7703 97.8118 29.9429 120.667 38.1124 145.788Z" fill="#FB7369"/>
<path d="M25.886 90.0817C25.8516 96.4834 26.8245 99.231 26.8245 99.231C26.8245 99.231 21.065 102.158 14.2175 100.003C14.1369 99.9779 8.54785 98.7019 8.54785 98.7019C8.66286 98.4437 9.68205 94.1285 9.79309 93.891C11.2393 90.7857 12.3364 89.4252 12.5083 88.4711C12.8269 86.6893 12.8335 84.8448 12.6748 83.1068C12.2571 78.5034 11.0145 74.6817 11.0145 74.6817C12.8797 74.2574 14.6749 73.5317 16.6168 72.8033C17.0636 73.3598 18.3802 73.9216 19.5646 73.8952C20.9288 73.8648 21.3545 73.2885 21.3056 72.6394C22.7583 73.4484 23.9137 74.2164 23.9137 74.2164C25.1497 76.3619 27.6534 78.4465 27.8358 81.7372C27.8807 82.5464 25.8873 89.9023 25.886 90.0817Z" fill="#E7F1FD"/>
<path d="M14.314 90.7943C13.7262 91.6268 12.5981 96.6865 9.79297 97.3223C11.2394 93.7167 12.3361 92.135 12.5078 91.027C12.8262 88.9568 12.8337 86.8159 12.6745 84.796C13.6134 83.149 14.314 82.0209 14.314 82.0209C14.388 81.7552 15.8068 77.3683 16.2618 81.2889C16.7155 85.2108 14.9721 89.8634 14.314 90.7943Z" fill="#F2564B"/>
<path d="M22.1863 70.9861C22.1863 70.9861 16.6356 71.0771 16.6317 67.6201C16.6278 64.163 15.9091 61.8458 19.4519 61.6418C22.996 61.4364 23.6861 62.7555 23.9681 63.9096C24.2501 65.0624 23.6289 70.873 22.1863 70.9861Z" fill="#FC9490"/>
<path d="M23.8028 61.9879C22.9456 60.9493 22.2984 61.1751 21.9357 61.4869C20.7353 59.6941 16.9436 62.2867 16.9436 62.2867C16.573 64.7684 14.7842 66.1893 14.7842 66.1893C14.7842 66.1893 15.7954 66.8143 18.1283 66.2141C19.9642 65.7418 21.295 63.1296 21.7804 62.0388C22.1105 62.3311 22.806 63.0096 23.0147 63.6724C23.2914 64.5545 23.4166 66.3668 23.9438 66.3055C23.9438 66.3055 25.0894 63.5485 23.8028 61.9879Z" fill="#163560"/>
<path d="M15.1303 149.267C15.1303 149.267 15.3133 150.533 14.8411 151.886C14.8411 151.886 14.4687 153.58 16.1378 153.612C17.8057 153.643 18.2161 153.487 18.0267 152.447C17.8373 151.408 17.4787 149.611 17.4787 149.611L15.1303 149.267Z" fill="#FC9490"/>
<path d="M18.1848 154.442C18.1848 154.442 18.1836 154.443 18.1798 154.445H14.7265C14.724 154.443 14.7227 154.442 14.7227 154.442C14.5333 153.556 14.8414 151.886 14.8414 151.886C16.7316 153.694 17.9134 151.841 17.9134 151.841C18.2202 152.614 18.1848 154.442 18.1848 154.442Z" fill="#C45446"/>
<path d="M42.817 152.694C42.817 152.694 39.7411 149.201 38.7955 147.463L36.5098 148.636L41.6212 153.438L42.8184 153.28L42.817 152.694Z" fill="#FC9490"/>
<path d="M44.7036 154.436H40.4354C40.0591 154.098 39.7014 153.414 39.2611 152.52C39.0102 152.008 38.4473 151.725 37.8687 151.57V154.436H36.9866L36.1686 151.388C35.6242 150.367 36.0332 149.431 36.4151 148.624C36.8612 148.623 38.1552 148.945 40.4268 151.556C41.1736 152.414 41.9973 152.72 42.8182 152.694C42.8281 152.701 42.8395 152.708 42.8509 152.713C44.1449 153.305 44.5668 154.035 44.7036 154.436Z" fill="#C45446"/>
<path d="M44.496 76.7241C44.496 76.7241 40.8533 78.762 39.5529 79.3491C39.089 79.5574 38.2511 79.9476 37.3947 80.3483C36.8766 80.5891 36.3541 80.8346 35.9002 81.0487C35.1351 81.4077 34.2259 81.2109 33.6749 80.5683C31.7022 78.2653 26.5964 73.2714 21.3236 72.6462L21.3065 72.6381C21.3065 72.6381 21.3065 72.6405 21.3079 72.6439C21.3065 72.6439 21.3036 72.6439 21.3008 72.6428L21.3308 72.6994C21.6262 73.437 24.5181 80.6586 24.6066 82.1824C24.7008 83.787 24.9849 108.437 24.9849 108.437C24.9849 108.437 24.7951 109.57 26.9676 109.098C29.1401 108.625 29.7067 108.154 29.7067 108.154C29.7067 108.154 27.6284 92.9479 28.1951 87.6601C28.3065 86.6214 28.2065 85.4555 27.9739 84.2514C31.1855 86.1966 34.9724 87.0615 34.9724 87.0615C34.9724 87.0615 36.3841 86.4456 38.5794 85.0861C39.4987 84.5142 40.5678 83.6031 41.6198 82.6384C42.8902 81.4748 45.0755 78.6613 45.0755 78.6613L44.496 76.7241Z" fill="#E37970"/>
<path d="M35.8883 145.856L33.4835 145.93C33.4835 145.93 27.9267 139.743 24.8117 129.828C24.7377 129.597 24.6623 129.363 24.5814 129.128C22.8758 124.154 19.3386 117.912 17.4753 112.262C17.1792 111.361 16.9118 110.515 16.6733 109.712C16.5979 109.455 16.5225 109.203 16.4512 108.955L18.4323 107.451C18.4323 107.451 24.3812 117.084 26.2239 126.15C27.8239 134.025 34.2308 143.499 35.8883 145.856Z" fill="#F2564B"/>
<path d="M18.642 126.994C18.6751 131.402 18.4522 141.538 17.878 145.734H15.7477C14.5699 145.734 13.9828 145.718 13.9828 145.718C12.5427 138.421 11.5189 132.385 10.7715 127.183C10.1603 122.914 9.61658 119.255 9.19638 116.105C8.77617 112.934 8.4833 110.28 8.37761 108.036C8.36233 107.683 8.35088 107.339 8.34324 107.005C8.33687 106.671 8.3356 106.344 8.33814 106.028L19.9637 104.895C19.8173 112.62 18.6229 124.432 18.642 126.994Z" fill="#FB7369"/>
<path d="M15.747 145.736C14.5694 145.736 13.9818 145.72 13.9818 145.72C12.5422 138.423 11.5168 132.387 10.7708 127.185C10.1596 122.916 9.61444 119.257 9.19529 116.107C8.77614 112.936 8.48299 110.282 8.37695 108.038L12.6445 110.548C12.6445 110.548 9.92007 111.508 10.9592 118.78C11.9996 126.052 14.3012 144.707 15.747 145.736Z" fill="#F2564B"/>
<path d="M16.2967 107.966C16.2967 107.966 15.4785 110.924 12.6451 110.547C9.81162 110.168 5.78223 108.468 5.78223 108.468C5.78223 108.468 6.99348 104.643 8.49828 99.6167C10.3209 93.5321 12.5774 85.6876 13.6406 80.7407C13.9393 79.3533 14.1435 78.1957 14.2201 77.3661L16.6183 72.8032C16.6183 72.8032 20.0746 80.6718 20.2635 82.6552C20.4524 84.6386 16.2967 107.966 16.2967 107.966Z" fill="#E37970"/>
<path d="M26.4134 84.8703C25.0515 85.0486 24.5281 85.7734 24.3599 86.7517C24.2685 87.2786 23.9969 87.8008 23.7663 88.1689C22.407 88.2419 19.173 88.4179 16.4557 88.5893L16.2305 92.1543C18.4629 91.8765 21.2067 91.3102 24.3638 90.2287C24.6063 90.1871 24.9097 90.0366 25.2899 89.7263C27.2468 88.1239 28.357 85.44 28.3597 85.0555C28.3636 84.6712 27.778 84.6908 26.4134 84.8703Z" fill="#FC9490"/>
<path d="M16.1711 86.8074C16.0435 90.0181 15.2895 96.2508 8.55306 99.5878C8.5343 99.5959 8.5168 99.6052 8.49805 99.6133C10.3213 93.5288 12.5771 85.6843 13.6401 80.7367C14.878 82.5862 16.2398 85.0397 16.1711 86.8074Z" fill="#C45446"/>
<path d="M16.6181 72.8028C16.6181 72.8028 10.8561 73.2108 9.47104 76.297C8.08468 79.382 7.64524 89.6446 9.40682 92.6666C9.40682 92.6666 11.8345 93.3578 16.127 92.5555C16.1799 92.545 16.2328 92.5357 16.2857 92.5252C16.2857 92.5252 17.6557 89.1722 16.4267 88.511C16.4267 88.511 12.8078 88.6997 13.1856 87.5037C13.5621 86.3077 16.6181 72.8028 16.6181 72.8028Z" fill="#E37970"/>
<path d="M48.4022 74.303C45.3031 73.9047 44.5195 76.7241 44.5195 76.7241L45.0992 78.6612C46.0546 78.7931 46.8905 78.5443 47.6609 77.4419C48.4313 76.3386 48.6425 76.7624 49.1333 75.9414C49.7974 74.8288 48.7576 74.4141 48.4022 74.303Z" fill="#FC9490"/>
<path d="M39.5537 79.3509C39.0898 79.5591 38.2519 79.9494 37.3955 80.3501C37.8537 81.164 38.4261 82.6426 38.5802 85.0879C39.4995 84.5159 40.6928 83.5643 41.7105 82.565C43.3435 80.9614 45.0763 78.663 45.0763 78.663L44.4968 76.7259C44.4968 76.7259 40.8541 78.7638 39.5537 79.3509Z" fill="#FC9490"/>
<path d="M204.012 101.81C204.012 101.81 201.807 102.376 200.405 101.955C199.005 101.532 196.593 102.226 196.203 102.736C195.815 103.248 195.957 103.451 196.651 103.627C197.345 103.804 199.8 104.851 201.414 104.245C203.029 103.638 205.132 103.616 205.132 103.616L204.012 101.81Z" fill="#FC9490"/>
<path d="M223.065 82.6604C223.065 82.6604 220.589 100.262 216.487 101.838C214.464 102.616 205.52 104.38 202.878 104.557C202.878 104.557 202.228 104.031 202.386 101.891C202.386 101.891 211.756 98.4512 213.086 96.5814C215.066 93.7967 211.857 85.2077 214.343 82.5934C216.827 79.9788 221.014 78.8547 223.065 82.6604Z" fill="#1C468A"/>
<path d="M222.747 150.481V146.643H228.79C228.952 146.643 229.086 146.51 229.086 146.347V145.732C229.086 145.568 228.952 145.435 228.79 145.435H222.747V123.59C222.747 122.976 222.245 122.475 221.633 122.475H220.437C219.825 122.475 219.324 122.976 219.324 123.59V145.435H213.28C213.118 145.435 212.985 145.568 212.985 145.732V146.347C212.985 146.51 213.118 146.643 213.28 146.643H219.324V150.481C214.952 150.811 211.449 152.385 210.467 154.418H231.604C230.622 152.385 227.119 150.811 222.747 150.481Z" fill="#3A4ACE"/>
<path d="M222.23 119.744C221.509 120.97 220.672 122.118 219.812 123.206C217.151 126.566 214.251 129.336 213.746 131.955C213.647 132.477 213.487 133.04 213.279 133.631C213.069 134.231 212.807 134.862 212.508 135.514C211.379 137.968 209.689 140.717 208.002 143.216C205.087 147.535 202.347 151.141 202.347 151.141L197.318 150.926C197.519 150.423 199.713 144.457 202.646 137.168C203.836 134.209 205.105 131.061 206.325 128.026C206.487 127.621 206.65 127.217 206.812 126.818C207.185 125.888 207.553 124.973 207.913 124.083C210.669 117.239 212.861 111.789 212.861 111.789C212.861 111.789 223.869 107.618 225.013 110.32C225.954 112.548 225.186 114.731 222.23 119.744Z" fill="#163560"/>
<path d="M202.188 150.227C202.188 150.227 201.932 154.375 201.128 154.435C201.021 154.443 197.058 154.443 197.058 154.443L191.996 154.413C191.996 154.413 192.03 153.194 193.51 152.936C194.988 152.679 197.463 151.639 198.359 149.685C199.301 147.627 202.188 150.227 202.188 150.227Z" fill="#163560"/>
<path d="M213.828 138.375C213.828 138.375 217.326 140.622 216.985 141.352C216.941 141.449 215.008 144.91 215.008 144.91L212.516 149.314C212.516 149.314 211.468 148.691 211.965 147.274C212.459 145.857 212.76 143.188 211.488 141.453C210.154 139.627 213.828 138.375 213.828 138.375Z" fill="#163560"/>
<path d="M209.098 109.81C209.098 109.81 195.279 118.418 193.739 124.202C192.195 129.986 212.118 142.326 212.118 142.326C212.118 142.326 214.304 140.397 214.689 138.983C214.689 138.983 205.685 128.195 203.731 125.776C202.53 124.29 221.471 120.634 223.783 117.035C226.098 113.436 225.268 110.408 225.268 110.408L209.098 109.81Z" fill="#1C468A"/>
<path d="M235.178 120.86H206.895C206.331 120.86 205.868 121.323 205.868 121.888V127.544C205.868 128.109 206.331 128.572 206.895 128.572H235.178C235.742 128.572 236.205 128.109 236.205 127.544V121.888C236.205 121.323 235.742 120.86 235.178 120.86Z" fill="#FB7369"/>
<path d="M215.488 79.6422C214.13 80.4828 213.384 81.5505 213.384 81.5505C216.692 82.406 222.18 79.339 222.18 79.339C222.18 79.339 220.051 77.9068 219.259 74.7609C219.221 74.6023 219.183 74.4401 219.153 74.2734C219.048 73.743 218.985 73.1701 218.972 72.5504L217.451 73.9132L214.925 76.178C214.925 76.178 214.98 77.1182 215.297 78.7357C215.352 79.0172 215.415 79.3204 215.488 79.6422Z" fill="#FC9490"/>
<path d="M225.67 95.2601C225.198 101.638 225.995 111.332 225.457 113.012C224.992 114.462 219.528 113.604 217.416 113.12C216.637 112.94 215.69 112.685 214.712 112.382C211.986 111.538 209.013 110.333 208.696 109.438C208.683 109.402 208.673 109.368 208.665 109.335C208.637 109.204 208.642 109.082 208.67 108.96C208.777 108.504 209.188 108.009 209.234 106.88C209.29 105.618 209.282 104.134 209.328 102.536C209.33 102.357 209.333 102.161 209.353 101.981V101.915C209.356 101.882 209.356 101.848 209.356 101.813C209.401 100.033 209.495 98.1604 209.602 96.3033C209.67 95.1362 209.752 93.9819 209.843 92.875C210.079 90.0173 210.402 87.477 210.826 85.871C211.519 83.2533 213.047 81.5454 214.438 80.2938L215.444 79.4311C216.568 79.6766 217.894 79.5134 219.094 78.9447C220.394 78.3278 220.844 77.8853 221.07 78.0521C224.07 80.3677 226.231 87.4631 225.67 95.2601Z" fill="#3A4ACE"/>
<path d="M214.729 112.396C212.002 111.552 209.032 110.347 208.712 109.452C208.699 109.416 208.689 109.383 208.682 109.349C208.684 109.224 208.687 109.099 208.689 108.974C208.794 108.518 209.205 108.023 209.252 106.894C209.305 105.632 209.297 104.148 209.345 102.55C209.347 102.37 209.35 102.175 209.37 101.995V101.929C209.372 101.896 209.372 101.862 209.372 101.827L219.674 97.1567C219.674 97.1567 220.267 105.457 214.729 112.396Z" fill="#1C468A"/>
<path d="M214.924 76.1804C214.924 76.1804 214.981 77.1208 215.298 78.7383C217.768 77.9405 218.886 75.7092 219.261 74.7634C219.366 74.497 219.413 74.3314 219.413 74.3314C219.413 74.3314 219.318 74.3104 219.154 74.2757C218.807 74.2018 218.152 74.0627 217.451 73.9157L214.924 76.1804Z" fill="#FF8585"/>
<path d="M213.924 76.1542C213.924 76.1542 219.347 76.7657 219.678 73.3822C220.007 69.9981 220.929 67.7981 217.478 67.2642C214.029 66.7304 213.23 67.9555 212.846 69.059C212.46 70.1612 212.523 75.9075 213.924 76.1542Z" fill="#FC9490"/>
<path d="M219.653 73.6172C219.653 73.6172 219.31 69.1259 214.373 68.6605C210.989 68.342 212.875 65.4299 213.236 64.967C213.236 64.967 215.827 65.3213 218.482 65.76C224.058 66.6818 220.201 72.9179 219.653 73.6172Z" fill="#5B2506"/>
<path d="M193.397 106.221L192.923 106.375L188.884 93.942L189.358 93.7879L193.397 106.221Z" fill="#4A75CB"/>
<path d="M206.621 105.262L192.905 105.555L192.922 106.375L206.638 106.082L206.621 105.262Z" fill="#4A75CB"/>
<path d="M205.146 104.519C205.146 104.519 203.019 105.324 201.578 105.059C200.137 104.795 197.819 105.749 197.488 106.3C197.159 106.852 197.323 107.037 198.032 107.136C198.74 107.235 201.295 108.005 202.833 107.224C204.37 106.444 206.459 106.19 206.459 106.19L205.146 104.519Z" fill="#FC9490"/>
<path d="M221.973 83.3825C221.973 83.3825 221.453 101.15 217.551 103.168C215.623 104.165 206.932 106.903 204.321 107.371C204.321 107.371 203.62 106.919 203.54 104.776C203.54 104.776 212.473 100.324 213.591 98.3178C215.252 95.3327 211.113 87.1503 213.297 84.2776C215.478 81.4051 219.515 79.8256 221.973 83.3825Z" fill="#3A4ACE"/>
<path d="M282.001 154.984H3.88619C3.73688 154.984 3.61523 154.863 3.61523 154.713C3.61523 154.564 3.73688 154.442 3.88619 154.442H282.001C282.148 154.442 282.272 154.564 282.272 154.713C282.272 154.863 282.148 154.984 282.001 154.984Z" fill="#202F4E"/>
</svg>
