<svg width="333" height="199" viewBox="0 0 333 199" fill="none" xmlns="http://www.w3.org/2000/svg">
<path fill-rule="evenodd" clip-rule="evenodd" d="M294.998 31.1756C292.367 31.1756 290.233 29.0427 290.233 26.4106C290.233 23.7794 292.367 21.645 294.998 21.645C297.631 21.645 299.764 23.7794 299.764 26.4106C299.764 29.0427 297.631 31.1756 294.998 31.1756ZM64.9233 145.429H40.3714C26.6684 145.429 15.457 156.641 15.457 170.343C15.457 184.046 26.6682 195.258 40.3714 195.258H139.93H152.457H282.481C304.67 195.258 322.824 177.103 322.824 154.914C322.824 132.725 304.67 114.571 282.481 114.571C273.099 114.571 265.423 106.895 265.423 97.5124C265.423 88.1308 273.099 80.4548 282.481 80.4548H303.011C312.764 80.4548 320.746 72.4735 320.746 62.7196C320.746 52.9656 312.764 44.9844 303.011 44.9844H277.051C273.253 44.9844 270.146 41.8777 270.146 38.0805V38.08C270.146 34.2828 273.253 31.1756 277.051 31.1756H281.627C284.247 31.1756 286.391 29.0313 286.391 26.4106C286.391 23.7898 284.247 21.645 281.627 21.645H264.475C264.475 21.645 257.923 21.645 251.598 21.645C245.273 21.645 244.569 29.1165 228.595 29.1165C203.9 29.1165 207.262 29.1165 182.567 29.1165C179.147 29.1165 176.349 31.9151 176.349 35.3344C176.349 38.7536 179.147 41.5522 182.567 41.5522H188.539C193.493 41.5522 197.548 45.607 197.548 50.5618C197.548 55.5165 193.493 59.5713 188.539 59.5713H179.552C155.285 59.5713 151.858 65.9129 147.607 78.5265C143.357 91.14 121.284 92.1569 121.284 92.1569H61.5506C54.083 92.1569 47.9732 98.2667 47.9732 105.734V105.734C47.9732 113.201 54.083 119.311 61.5506 119.311H64.9233C72.1055 119.311 77.9821 125.187 77.9821 132.37C77.9821 139.552 72.1055 145.429 64.9233 145.429Z" fill="#8295CA"/>
<path fill-rule="evenodd" clip-rule="evenodd" d="M190.055 72.5723C182.451 71.3364 171.712 68.2847 161.265 60.8375C146.462 50.2855 177.604 53.8781 202.962 62.3963L193.163 71.1081L190.055 72.5723Z" fill="#18292F"/>
<path fill-rule="evenodd" clip-rule="evenodd" d="M164.421 52.3873C169.433 57.1737 182.538 66.7177 195.248 76.8828L209.182 82.3428L211.923 73.8137C202.182 58.1069 189.172 42.0147 177.815 33.8036C157.891 19.3975 146.833 35.5903 164.421 52.3873Z" fill="#296F51"/>
<path fill-rule="evenodd" clip-rule="evenodd" d="M209.318 81.9212C193.315 56.2801 163.04 35.5031 162.93 35.4263C162.713 35.2768 162.429 35.3407 162.295 35.5685C162.161 35.7969 162.227 36.103 162.443 36.252C162.552 36.3278 192.342 56.7745 208.274 81.9871L209.183 82.3428L209.318 81.9212Z" fill="#18292F"/>
<path fill-rule="evenodd" clip-rule="evenodd" d="M196.064 19.7321C198.467 26.5736 201.984 42.6326 206.188 59.2533C204.061 65.9709 199.677 71.6885 193.951 75.5312C184.056 59.7779 175.439 41.7004 172.448 27.5315C166.593 -0.201859 186.919 -6.31421 196.064 19.7321Z" fill="#9CCF54"/>
<path fill-rule="evenodd" clip-rule="evenodd" d="M200.007 70.207C186.161 43.6758 180.172 11.6955 180.146 11.5627C180.089 11.264 180.268 10.9713 180.545 10.9089C180.822 10.847 181.094 11.0382 181.151 11.3364C181.177 11.4686 187.098 43.0789 200.726 69.3551C200.49 69.6434 200.252 69.9277 200.007 70.207Z" fill="#559B46"/>
<path fill-rule="evenodd" clip-rule="evenodd" d="M194.742 19.9597C194.774 26.8894 197.002 42.9489 198.507 59.1535L204.248 72.9736L212.291 69.0274C216.836 51.1124 219.388 30.5766 217.416 16.702C213.956 -7.63993 194.625 -4.36037 194.742 19.9597Z" fill="#296F51"/>
<path fill-rule="evenodd" clip-rule="evenodd" d="M204.645 72.7785C211.994 43.4605 205.937 7.24515 205.915 7.1124C205.873 6.85335 205.629 6.69286 205.371 6.75428C205.114 6.8157 204.94 7.07574 204.983 7.33578C205.004 7.46655 210.963 43.1039 203.873 72.0736L204.247 72.9736L204.645 72.7785Z" fill="#18292F"/>
<path fill-rule="evenodd" clip-rule="evenodd" d="M135.592 177.64C141.712 181.048 156.889 187.031 171.91 193.73H187.521L187.927 186.59C174.294 173.599 157.34 161.067 144.036 155.881C120.696 146.784 113.943 165.586 135.592 177.64Z" fill="#296F51"/>
<path fill-rule="evenodd" clip-rule="evenodd" d="M185.787 193.73C163.396 173.464 129.898 161.344 129.773 161.298C129.522 161.205 129.257 161.342 129.183 161.6C129.11 161.859 129.253 162.145 129.505 162.237C129.628 162.282 162.194 174.065 184.386 193.73H185.787Z" fill="#18292F"/>
<path fill-rule="evenodd" clip-rule="evenodd" d="M142.388 193.73C145.239 189.872 157.872 188.273 176.145 193.73H142.388Z" fill="#18292F"/>
<path fill-rule="evenodd" clip-rule="evenodd" d="M180.002 193.73C175.15 189.653 170.168 184.388 166.829 178.061C158.216 161.74 155.539 156.597 151.341 155.219C147.716 154.03 179.067 140.525 208.713 172.225C207.677 179.493 203.691 187.293 193.63 193.73H180.002Z" fill="#499270"/>
<path fill-rule="evenodd" clip-rule="evenodd" d="M155.485 152.649C172.534 158.89 189.559 171.924 203.485 184.824C203.241 185.15 202.988 185.475 202.725 185.799C188.457 172.568 170.929 159.209 153.522 153.301C154.088 153.079 154.745 152.859 155.485 152.649Z" fill="#296F51"/>
<path fill-rule="evenodd" clip-rule="evenodd" d="M179.458 120.26C184.468 125.282 193.453 136.548 203.735 149.105C203.736 149.108 214.195 165.875 205.636 181.48C186.911 169.599 168.428 154.625 157.931 140.947C137.214 113.954 156.053 96.7979 179.458 120.26Z" fill="#9CCF54"/>
<path fill-rule="evenodd" clip-rule="evenodd" d="M208.747 171.997C180.537 150.48 158.084 119.793 157.988 119.663C157.772 119.37 157.814 118.96 158.082 118.749C158.35 118.537 158.743 118.604 158.959 118.897C159.054 119.025 181.145 149.215 208.901 170.559C208.861 171.036 208.812 171.515 208.747 171.997Z" fill="#559B46"/>
<path fill-rule="evenodd" clip-rule="evenodd" d="M194.994 192.819C191.433 188.571 186.767 183.823 181.193 179.955C167.656 170.562 154.205 175.833 152.92 180.916C152.396 182.99 152.862 187.882 155.248 193.73H193.624C194.093 193.429 194.55 193.126 194.994 192.819Z" fill="#9CCF54"/>
<path fill-rule="evenodd" clip-rule="evenodd" d="M183.38 193.73H180.271C179.264 193.129 178.233 192.537 177.18 191.959C176.738 192.314 176.019 192.914 175.137 193.73H173.676C174.704 192.726 175.592 191.95 176.213 191.434C172.586 189.493 168.702 187.713 164.592 186.219C163.516 186.832 161.265 188.297 159.647 190.6C159.528 190.771 159.289 190.736 159.114 190.524C158.939 190.311 158.894 190 159.014 189.829C160.356 187.918 162.118 186.564 163.34 185.775C160.71 184.867 157.993 184.076 155.192 183.438C154.77 183.343 154.388 182.829 154.337 182.291C154.288 181.752 154.589 181.392 155.011 181.488C160.762 182.797 166.173 184.737 171.186 187.038C168.222 180.966 165.439 177.27 165.43 177.259C165.263 177.034 165.233 176.726 165.364 176.569C165.495 176.411 165.737 176.465 165.904 176.688C165.913 176.701 169.015 180.819 172.186 187.503C176.193 189.4 179.934 191.523 183.38 193.73ZM185.041 193.73C183.838 190.719 181.669 185.552 179.898 182.754C179.748 182.515 179.504 182.427 179.356 182.558C179.207 182.689 179.21 182.989 179.36 183.229C181.03 185.868 183.089 190.743 184.287 193.73H185.041Z" fill="#559B46"/>
<path fill-rule="evenodd" clip-rule="evenodd" d="M16.15 198.131H21.7152C22.9257 198.131 23.9158 197.141 23.9158 195.931V195.93C23.9158 194.719 22.9257 193.73 21.7152 193.73H16.15C14.9397 193.73 13.9492 194.719 13.9492 195.93V195.931C13.9492 197.141 14.9397 198.131 16.15 198.131Z" fill="#131314"/>
<path fill-rule="evenodd" clip-rule="evenodd" d="M304.007 88.6934C311.458 84.6287 321.5 77.5321 329.633 65.9752C341.156 49.5991 310.111 64.717 286.876 82.8371L300.243 88.3075L304.007 88.6934Z" fill="#18292F"/>
<path fill-rule="evenodd" clip-rule="evenodd" d="M325.692 52.4714C322.571 59.4372 313.174 74.623 304.439 90.2773L292.498 101.642L286.154 94.0829C289.557 74.0107 296.133 52.1866 304.302 39.0882C318.631 16.1074 336.645 28.024 325.692 52.4714Z" fill="#296F51"/>
<path fill-rule="evenodd" clip-rule="evenodd" d="M292.187 101.268C297.843 68.4596 320.08 34.6753 320.161 34.5515C320.319 34.3093 320.636 34.2553 320.867 34.4326C321.099 34.6089 321.159 34.9492 321 35.1914C320.921 35.3143 299.04 68.5587 293.278 100.901L292.5 101.642L292.187 101.268Z" fill="#18292F"/>
<path fill-rule="evenodd" clip-rule="evenodd" d="M279.836 32.3259C280.23 40.3027 283.322 58.1454 285.946 76.846C290.91 82.8127 297.761 86.8204 305.199 88.3594C308.739 68.1753 310.008 46.1535 307.167 30.458C301.603 -0.263649 278.329 1.95592 279.836 32.3259Z" fill="#9CCF54"/>
<path fill-rule="evenodd" clip-rule="evenodd" d="M296.809 85.4463C299.895 52.6264 292.703 17.5171 292.674 17.3705C292.607 17.0425 292.304 16.8186 291.995 16.8707C291.685 16.9222 291.489 17.2303 291.555 17.5582C291.584 17.7038 298.69 52.4074 295.721 84.8757C296.081 85.0718 296.442 85.263 296.809 85.4463Z" fill="#559B46"/>
<path fill-rule="evenodd" clip-rule="evenodd" d="M324.745 198.131H34.125C32.915 198.131 31.9248 197.141 31.9248 195.931V195.93C31.9248 194.719 32.915 193.73 34.125 193.73H324.745C325.955 193.73 326.944 194.719 326.944 195.93V195.931C326.944 197.141 325.955 198.131 324.745 198.131Z" fill="#131314"/>
<path fill-rule="evenodd" clip-rule="evenodd" d="M232.144 26.4089H267.224C268.955 26.4089 270.371 27.826 270.371 29.5572V46.8273C270.371 48.5585 268.955 49.9756 267.224 49.9756H232.144C230.413 49.9756 228.996 48.5585 228.996 46.8273V29.5572C228.996 27.826 230.413 26.4089 232.144 26.4089Z" fill="#B72170"/>
<path fill-rule="evenodd" clip-rule="evenodd" d="M226.477 31.7659H272.89C275.181 31.7659 277.055 33.6402 277.055 35.9311V58.7806C277.055 61.071 275.181 62.9453 272.89 62.9453H226.477C224.187 62.9453 222.312 61.071 222.312 58.7806V35.9311C222.312 33.6402 224.187 31.7659 226.477 31.7659Z" fill="#131314"/>
<path fill-rule="evenodd" clip-rule="evenodd" d="M196.431 159.579H215.314C216.558 159.579 217.299 160.597 216.962 161.839L208.927 191.473C208.589 192.716 207.296 193.733 206.052 193.733H202.244C202.08 193.733 201.934 193.716 201.801 193.684C201.63 193.717 201.454 193.733 201.273 193.733H196.431C194.85 193.733 193.556 192.44 193.556 190.859V162.454C193.556 160.872 194.85 159.579 196.431 159.579Z" fill="#131314"/>
<path fill-rule="evenodd" clip-rule="evenodd" d="M299.302 151.736H294.459L280.418 159.579C279.332 160.185 278.433 160.597 278.77 161.839L286.806 191.473C287.143 192.716 288.436 193.733 289.681 193.733H293.489C293.652 193.733 293.798 193.716 293.931 193.684C294.102 193.717 294.278 193.733 294.459 193.733H299.302C300.882 193.733 302.176 192.44 302.176 190.859V154.611C302.176 153.029 300.881 151.736 299.302 151.736Z" fill="#131314"/>
<path fill-rule="evenodd" clip-rule="evenodd" d="M190.293 159.579H209.178C210.42 159.579 211.161 160.597 210.825 161.839L202.789 191.473C202.452 192.716 201.158 193.733 199.915 193.733H196.106C195.943 193.733 195.797 193.716 195.664 193.684C195.493 193.717 195.317 193.733 195.136 193.733H190.293C188.713 193.733 187.42 192.44 187.42 190.859V162.454C187.42 160.872 188.713 159.579 190.293 159.579Z" fill="#161B31"/>
<path fill-rule="evenodd" clip-rule="evenodd" d="M293.165 159.579H274.282C273.037 159.579 272.296 160.597 272.633 161.839L280.67 191.473C281.006 192.716 282.3 193.733 283.544 193.733H287.353C287.515 193.733 287.661 193.716 287.794 193.684C287.965 193.717 288.141 193.733 288.322 193.733H293.165C294.746 193.733 296.039 192.44 296.039 190.859V162.454C296.039 160.872 294.746 159.579 293.165 159.579Z" fill="#161B31"/>
<path fill-rule="evenodd" clip-rule="evenodd" d="M224.19 26.4089H259.269C261.001 26.4089 262.417 27.826 262.417 29.5572V46.8273C262.417 48.5585 261.001 49.9756 259.269 49.9756H224.19C222.458 49.9756 221.042 48.5585 221.042 46.8273V29.5572C221.042 27.826 222.458 26.4089 224.19 26.4089Z" fill="#EA2A93"/>
<path fill-rule="evenodd" clip-rule="evenodd" d="M218.523 31.7659H264.935C267.226 31.7659 269.101 33.6402 269.101 35.9311V58.7806C269.101 61.071 267.226 62.9453 264.935 62.9453H218.523C216.232 62.9453 214.357 61.071 214.357 58.7806V35.9311C214.357 33.6402 216.232 31.7659 218.523 31.7659Z" fill="#161B31"/>
<path fill-rule="evenodd" clip-rule="evenodd" d="M250.821 37.4816C292.097 37.4816 325.557 70.9415 325.557 112.217C325.557 153.493 292.097 186.953 250.821 186.953C249.324 186.953 247.838 186.905 246.363 186.817H241.728V186.401C204.742 181.915 176.086 150.414 176.086 112.217C176.086 74.0195 204.742 42.5196 241.728 38.033V37.4816H250.821Z" fill="#224A87"/>
<path fill-rule="evenodd" clip-rule="evenodd" d="M241.728 186.953C282.892 186.953 316.464 153.38 316.464 112.217C316.464 71.0535 282.892 37.4812 241.728 37.4812C200.566 37.4812 166.993 71.0535 166.993 112.217C166.993 153.38 200.566 186.953 241.728 186.953Z" fill="#3771C0"/>
<path fill-rule="evenodd" clip-rule="evenodd" d="M241.73 177.193C277.518 177.193 306.708 148.005 306.708 112.216C306.708 76.4279 277.518 47.2383 241.73 47.2383C205.942 47.2383 176.753 76.4279 176.753 112.216C176.753 148.005 205.942 177.193 241.73 177.193Z" fill="#C8C0D2"/>
<path fill-rule="evenodd" clip-rule="evenodd" d="M241.729 171.719C274.502 171.719 301.232 144.988 301.232 112.216C301.232 79.4427 274.502 52.7123 241.729 52.7123C208.956 52.7123 182.226 79.4427 182.226 112.216C182.226 144.988 208.956 171.719 241.729 171.719Z" fill="white"/>
<path fill-rule="evenodd" clip-rule="evenodd" d="M215.394 66.6019C216.226 66.1214 217.296 66.4087 217.777 67.2404L219.297 69.8725C219.777 70.7047 219.491 71.7746 218.658 72.2551C217.827 72.735 216.754 72.4482 216.275 71.6166L214.756 68.9844C214.275 68.1532 214.563 67.0824 215.394 66.6019ZM264.8 152.175C265.631 151.695 266.703 151.982 267.183 152.814L268.703 155.446C269.183 156.278 268.895 157.348 268.063 157.828C267.233 158.308 266.161 158.022 265.681 157.19L264.161 154.558C263.68 153.726 263.968 152.655 264.8 152.175ZM196.116 85.8795C196.596 85.0484 197.667 84.7616 198.498 85.2415L201.13 86.7612C201.962 87.2417 202.249 88.3131 201.769 89.1452C201.289 89.9764 200.218 90.2632 199.386 89.7837L196.754 88.2635C195.922 87.7831 195.636 86.7122 196.116 85.8795ZM281.689 135.285C282.17 134.454 283.241 134.167 284.072 134.647L286.704 136.167C287.536 136.647 287.822 137.718 287.342 138.55C286.863 139.382 285.791 139.669 284.96 139.189L282.327 137.669C281.496 137.189 281.209 136.118 281.689 135.285ZM189.06 112.215C189.06 111.253 189.842 110.471 190.804 110.471H193.843C194.805 110.471 195.587 111.254 195.587 112.216C195.587 113.177 194.804 113.96 193.843 113.96H190.804C189.841 113.96 189.06 113.176 189.06 112.215ZM287.871 112.215C287.871 111.253 288.655 110.471 289.615 110.471H292.655C293.616 110.471 294.399 111.254 294.399 112.216C294.399 113.177 293.615 113.96 292.655 113.96H289.615C288.654 113.96 287.871 113.176 287.871 112.215ZM196.116 138.55C195.636 137.718 195.923 136.647 196.754 136.167L199.387 134.647C200.219 134.167 201.289 134.454 201.769 135.286C202.249 136.118 201.962 137.19 201.13 137.669L198.499 139.189C197.667 139.669 196.596 139.382 196.116 138.55ZM281.689 89.1442C281.209 88.3126 281.497 87.2412 282.327 86.7612L284.96 85.2415C285.792 84.7611 286.862 85.0484 287.342 85.8805C287.822 86.7122 287.536 87.7836 286.704 88.2635L284.072 89.7837C283.24 90.2637 282.17 89.9754 281.689 89.1442ZM215.393 157.828C214.563 157.348 214.275 156.277 214.756 155.446L216.275 152.814C216.755 151.981 217.827 151.695 218.658 152.176C219.491 152.655 219.777 153.727 219.298 154.558L217.778 157.19C217.296 158.022 216.225 158.308 215.393 157.828ZM264.8 72.2546C263.968 71.7746 263.681 70.7037 264.161 69.872L265.681 67.2399C266.162 66.4077 267.232 66.1219 268.064 66.6019C268.895 67.0819 269.183 68.1532 268.703 68.9839L267.183 71.6166C266.702 72.4487 265.631 72.735 264.8 72.2546ZM241.729 164.885C240.767 164.885 239.985 164.102 239.985 163.14V160.102C239.985 159.139 240.768 158.357 241.729 158.357C242.691 158.357 243.474 159.14 243.474 160.102V163.14C243.474 164.103 242.691 164.885 241.729 164.885ZM241.729 66.0734C240.767 66.0734 239.985 65.2898 239.985 64.3288V61.2895C239.985 60.3276 240.768 59.5454 241.729 59.5454C242.691 59.5454 243.474 60.3286 243.474 61.2895V64.3288C243.474 65.2907 242.691 66.0734 241.729 66.0734Z" fill="#131314"/>
<path fill-rule="evenodd" clip-rule="evenodd" d="M241.729 114.275C242.862 114.275 243.79 113.349 243.79 112.215V77.1783C243.79 76.0455 242.862 75.1183 241.729 75.1183C240.596 75.1183 239.669 76.0455 239.669 77.1783V112.215C239.669 113.349 240.596 114.275 241.729 114.275Z" fill="#131314"/>
<path fill-rule="evenodd" clip-rule="evenodd" d="M240.272 110.76H240.271C239.471 111.561 239.471 112.872 240.272 113.673L258.433 131.835C259.234 132.636 260.546 132.636 261.346 131.835H261.347C262.148 131.033 262.148 129.723 261.347 128.921L243.185 110.76C242.385 109.958 241.072 109.958 240.272 110.76Z" fill="#EA2A93"/>
<path fill-rule="evenodd" clip-rule="evenodd" d="M97.6742 191.162C98.115 191.162 98.5534 191.149 98.9888 191.124H121.141V167.695V165.28C121.141 157.002 116.797 149.689 110.275 145.509H110.276L110.26 145.499C110.02 145.346 109.777 145.198 109.531 145.053C101.78 140.17 101.777 135.585 109.525 130.702C109.773 130.556 110.019 130.407 110.26 130.252L110.276 130.243H110.275C116.797 126.063 121.141 118.75 121.141 110.471V108.057V84.6275H98.9888C98.5534 84.6027 98.115 84.5894 97.6742 84.5894C97.2328 84.5894 96.7945 84.6027 96.3591 84.6275H74.207V108.057V110.471C74.207 118.75 78.5511 126.063 85.0725 130.243H85.072L85.0879 130.253C85.3291 130.407 85.5743 130.556 85.8215 130.702C93.5709 135.585 93.5684 140.17 85.8165 145.053C85.5708 145.198 85.3276 145.346 85.0884 145.499L85.072 145.509H85.0725C78.5511 149.689 74.207 157.002 74.207 165.28V167.695V191.124H96.3591C96.7945 191.149 97.2328 191.162 97.6742 191.162Z" fill="white"/>
<path fill-rule="evenodd" clip-rule="evenodd" d="M88.0869 181.579H94.5316C98.68 181.579 98.8504 177.828 101.749 177.828C104.647 177.828 111.239 177.828 114.763 177.828C118.286 177.828 118.959 181.124 118.959 181.124V185.646H98.9281L98.8672 185.649C98.47 185.672 98.0722 185.684 97.674 185.684C97.2762 185.684 96.8785 185.672 96.4812 185.649L96.4203 185.646H88.0869V181.579Z" fill="#F7BC0A"/>
<path fill-rule="evenodd" clip-rule="evenodd" d="M79.5345 116.113C77.5145 112.827 76.3896 109.003 76.3896 105.015C76.3896 86.0559 89.2295 106.33 102.289 107.361C104.884 107.566 107.108 107.282 109.007 106.698C109.498 108.059 109.824 109.068 109.824 109.35C109.824 110.486 98.6858 118.897 96.7536 119.351C94.8213 119.806 84.9336 120.374 80.8417 117.192C80.4201 116.864 79.9818 116.501 79.5345 116.113Z" fill="#F7BC0A"/>
<path fill-rule="evenodd" clip-rule="evenodd" d="M97.6783 170.894C99.7939 170.894 101.524 172.624 101.524 174.739V174.947C101.524 177.062 99.7939 178.793 97.6783 178.793C95.5633 178.793 93.8326 177.062 93.8326 174.947V174.739C93.8326 172.624 95.5633 170.894 97.6783 170.894ZM97.6783 167.598C99.7939 167.598 101.524 165.867 101.524 163.752V160.873C101.524 158.758 99.7939 157.028 97.6783 157.028C95.5633 157.028 93.8326 158.758 93.8326 160.873V163.752C93.8326 165.867 95.5633 167.598 97.6783 167.598ZM101.532 138.313C101.304 135.096 103.579 131.869 108.363 128.855L108.39 128.837L108.418 128.82C108.642 128.689 108.864 128.553 109.084 128.413L109.106 128.399L109.12 128.39C115.217 124.471 118.959 117.746 118.959 110.469C118.959 91.5107 106.119 111.785 93.0599 112.816C80.1031 113.839 76.3896 102.7 76.3896 102.7V110.469C76.3896 117.755 80.1408 124.487 86.2343 128.393L86.2496 128.403C86.475 128.545 86.7009 128.686 86.9307 128.82L86.958 128.837L86.9852 128.854C91.7696 131.869 94.0451 135.096 93.8168 138.313H93.8326V151.307C93.8326 153.422 95.5633 155.152 97.6783 155.152C99.7939 155.152 101.524 153.422 101.524 151.307V138.313H101.532Z" fill="#EF7D15"/>
<path fill-rule="evenodd" clip-rule="evenodd" d="M118.959 188.941V181.123C118.959 183.283 117.354 184.874 114.967 184.874C112.58 184.874 104.965 184.874 100.817 184.874C96.6684 184.874 96.498 181.123 93.5993 181.123C90.7011 181.123 84.1093 181.123 80.5856 181.123C77.0623 181.123 76.3896 184.419 76.3896 184.419V188.941H96.4202L96.4811 188.944C96.8784 188.967 97.2761 188.979 97.6744 188.979C98.0721 188.979 98.4699 188.967 98.8671 188.944L98.928 188.941H118.959Z" fill="#EF7D15"/>
<path fill-rule="evenodd" clip-rule="evenodd" d="M74.89 82.0155H120.459C122.076 82.0155 123.399 83.3385 123.399 84.9557C123.399 86.5725 122.076 87.8955 120.459 87.8955H74.89C73.2727 87.8955 71.9502 86.5725 71.9502 84.9557C71.9502 83.3385 73.2727 82.0155 74.89 82.0155Z" fill="#1F233E"/>
<path fill-rule="evenodd" clip-rule="evenodd" d="M74.89 193.733H120.459C122.076 193.733 123.399 192.411 123.399 190.793C123.399 189.176 122.076 187.854 120.459 187.854H74.89C73.2727 187.854 71.9502 189.176 71.9502 190.793C71.9502 192.411 73.2727 193.733 74.89 193.733Z" fill="#1F233E"/>
<path fill-rule="evenodd" clip-rule="evenodd" d="M107.287 82.0155H120.459C122.075 82.0155 123.398 83.3385 123.398 84.9557C123.398 86.5725 122.075 87.8955 120.459 87.8955H107.287C105.671 87.8955 104.348 86.5725 104.348 84.9557C104.348 83.3385 105.671 82.0155 107.287 82.0155Z" fill="#131314"/>
<path fill-rule="evenodd" clip-rule="evenodd" d="M107.287 193.733H120.459C122.075 193.733 123.398 192.411 123.398 190.793C123.398 189.176 122.075 187.854 120.459 187.854H107.287C105.671 187.854 104.348 189.176 104.348 190.793C104.348 192.411 105.671 193.733 107.287 193.733Z" fill="#131314"/>
<path fill-rule="evenodd" clip-rule="evenodd" d="M21.2352 98.1686C21.7093 98.3697 22.1688 98.6001 22.6109 98.8552C23.062 99.1162 23.495 99.4035 23.9067 99.7136C24.3196 100.025 24.7143 100.362 25.0883 100.723C25.1023 100.736 25.1201 100.744 25.1398 100.747C25.1594 100.749 25.1795 100.745 25.1959 100.735C26.2912 100.103 27.3883 99.4733 28.4815 98.8378C28.612 98.7675 28.7516 98.7249 28.8929 98.7085C29.0388 98.6922 29.1856 98.7036 29.3251 98.7412C29.4687 98.7799 29.6063 98.8467 29.727 98.9389C29.8435 99.0275 29.9449 99.1405 30.0217 99.2742C30.8156 100.56 31.5695 101.952 32.3283 103.267C32.4056 103.401 32.4527 103.546 32.471 103.693C32.4908 103.844 32.4799 103.996 32.4413 104.139C32.4031 104.283 32.3363 104.421 32.2436 104.542C32.1545 104.658 32.042 104.759 31.9083 104.836C30.8607 105.483 29.7245 106.097 28.6528 106.716C28.6361 106.725 28.6229 106.741 28.6158 106.758C28.6081 106.776 28.606 106.797 28.6106 106.816L28.6857 107.12L28.681 107.121C28.7137 107.269 28.7443 107.418 28.7723 107.571C28.8199 107.831 28.8594 108.088 28.89 108.339C28.9199 108.589 28.9436 108.845 28.9594 109.11C28.9755 109.376 28.9836 109.636 28.9836 109.89C28.9836 110.143 28.9755 110.403 28.9594 110.668C28.9436 110.933 28.9199 111.191 28.89 111.44C28.8594 111.692 28.8197 111.948 28.7719 112.208C28.7243 112.467 28.67 112.719 28.6098 112.964C28.6048 112.984 28.6071 113.005 28.6158 113.023C28.6249 113.042 28.639 113.058 28.6558 113.067C29.8524 113.706 31.0672 114.457 32.2496 115.14L32.2075 115.193L32.2436 115.238C32.3363 115.359 32.4031 115.497 32.4413 115.64C32.4799 115.784 32.4908 115.936 32.471 116.087C32.4527 116.234 32.4056 116.379 32.3279 116.512L29.8497 120.805L29.8038 120.777C29.779 120.8 29.7537 120.821 29.727 120.841C29.6063 120.933 29.4687 121 29.3251 121.038C29.1821 121.078 29.0303 121.088 28.8789 121.068C28.7363 121.05 28.5959 121.005 28.4657 120.932C27.3816 120.357 26.2651 119.662 25.1945 119.043C25.1787 119.035 25.1595 119.032 25.1402 119.034C25.1201 119.036 25.1009 119.045 25.0868 119.059C24.7132 119.419 24.3187 119.756 23.9061 120.067C23.4946 120.377 23.062 120.664 22.6113 120.924C22.1661 121.181 21.7031 121.413 21.2261 121.615C20.7525 121.817 20.2649 121.99 19.767 122.133C19.7473 122.139 19.7309 122.15 19.7196 122.165C19.7073 122.182 19.7001 122.201 19.7013 122.22V125.979C19.7013 126.133 19.6701 126.281 19.6136 126.417C19.5548 126.558 19.4693 126.685 19.3632 126.789C19.2578 126.895 19.1312 126.98 18.9918 127.038C18.8561 127.095 18.7079 127.126 18.5543 127.126H13.9411C13.7879 127.126 13.6395 127.095 13.5037 127.038C13.3644 126.98 13.2378 126.895 13.1312 126.789C13.0261 126.685 12.9408 126.558 12.882 126.417C12.8257 126.281 12.7944 126.133 12.7944 125.979V122.22C12.7944 122.197 12.7876 122.178 12.7762 122.163C12.7643 122.149 12.7462 122.137 12.7251 122.132L12.7102 122.127C12.2094 121.982 11.7257 121.81 11.261 121.612C10.7869 121.409 10.327 121.181 9.88451 120.924C9.43366 120.664 9.00104 120.377 8.58928 120.067C8.17637 119.756 7.7815 119.418 7.40767 119.057C7.39217 119.042 7.37285 119.034 7.35388 119.032C7.33412 119.03 7.31322 119.035 7.29563 119.047L4.03999 120.926C3.9061 121.003 3.76236 121.05 3.61723 121.069C3.4661 121.088 3.31384 121.077 3.17069 121.038C3.0267 121 2.88954 120.933 2.76843 120.841C2.655 120.754 2.55579 120.645 2.47897 120.515C1.62354 119.139 0.815755 117.633 0 116.221L0.0437372 116.195C0.0356138 116.159 0.0292245 116.123 0.0243703 116.086C0.00520116 115.936 0.0158502 115.783 0.0541885 115.64C0.0924774 115.496 0.159446 115.359 0.25232 115.238C0.340934 115.121 0.453721 115.021 0.587013 114.944L3.84305 113.064C3.85989 113.054 3.87267 113.039 3.8798 113.022C3.88773 113.003 3.88966 112.982 3.8852 112.963L3.80045 112.618L3.8057 112.617C3.77628 112.484 3.74899 112.347 3.72367 112.209C3.67607 111.949 3.6364 111.692 3.60564 111.44C3.57547 111.192 3.55185 110.933 3.53599 110.668C3.52009 110.403 3.51197 110.143 3.51197 109.89C3.51197 109.636 3.52009 109.376 3.53599 109.111C3.55185 108.846 3.57547 108.589 3.60564 108.337C3.636 108.089 3.67548 107.832 3.72367 107.569C3.77128 107.311 3.82542 107.06 3.8858 106.817C3.89045 106.796 3.88773 106.775 3.87941 106.756C3.87108 106.738 3.85637 106.722 3.8378 106.714L0.586072 104.836C0.451392 104.758 0.339349 104.657 0.251527 104.541C0.15905 104.419 0.0922792 104.282 0.0541885 104.139C0.0158502 103.997 0.00520116 103.845 0.0243703 103.694C0.042747 103.551 0.0880193 103.41 0.161774 103.278C0.936664 101.842 1.82553 100.396 2.64535 98.975L2.69161 99.0033C2.71657 98.98 2.74208 98.9587 2.76843 98.9389C2.88954 98.8467 3.0267 98.7799 3.17069 98.7412C3.31364 98.7031 3.46556 98.6922 3.61668 98.711C3.7637 98.7293 3.90769 98.7759 4.03984 98.8517L4.28072 98.9904L4.27953 98.9929L7.29969 100.735C7.31787 100.746 7.33838 100.749 7.35755 100.747C7.37691 100.744 7.39549 100.735 7.40941 100.722L7.41694 100.714C7.7869 100.357 8.18083 100.022 8.59646 99.7091C9.00917 99.398 9.43966 99.1132 9.88471 98.8552C10.3301 98.5986 10.7925 98.3668 11.2695 98.1647C11.7435 97.9626 12.2307 97.7897 12.7284 97.6471C12.7479 97.6411 12.7645 97.6297 12.7758 97.6144C12.7884 97.598 12.7957 97.5787 12.7944 97.5599V93.8003C12.7944 93.6468 12.8257 93.4987 12.882 93.363C12.9408 93.2218 13.0261 93.095 13.1328 92.99C13.2382 92.885 13.3644 92.7998 13.5037 92.7408C13.6395 92.6849 13.7879 92.6537 13.9411 92.6537H18.5543C18.7079 92.6537 18.8561 92.6849 18.9918 92.7408C19.1312 92.7998 19.2578 92.885 19.3644 92.99C19.5724 93.198 19.7013 93.4848 19.7013 93.8003V97.5599C19.7013 97.5817 19.7088 97.6015 19.7198 97.6168C19.7318 97.6322 19.7497 97.6431 19.7706 97.6481L19.7852 97.653C20.2862 97.7976 20.7703 97.97 21.2352 98.1686ZM19.6138 98.3103C20.0739 98.443 20.5265 98.605 20.9692 98.7932C21.4181 98.9844 21.8527 99.2019 22.2704 99.4436C22.6953 99.6888 23.1047 99.9607 23.4967 100.256C23.8908 100.553 24.2653 100.873 24.617 101.212C24.742 101.332 24.8972 101.403 25.057 101.422C25.2203 101.442 25.3896 101.409 25.5367 101.324C26.6163 100.7 27.7521 100.083 28.8101 99.4332C28.861 99.4069 28.9149 99.3906 28.9689 99.3847C29.0299 99.3777 29.091 99.3827 29.1492 99.398C29.209 99.4144 29.2659 99.4416 29.3147 99.4788C29.3617 99.5144 29.4027 99.5605 29.4338 99.6145C30.2212 100.806 31.0113 102.345 31.7404 103.608C31.7716 103.662 31.7904 103.72 31.7978 103.778C31.8058 103.838 31.8008 103.902 31.784 103.964C31.7681 104.023 31.7409 104.08 31.7037 104.129C31.6676 104.176 31.622 104.217 31.568 104.248C30.5962 104.891 29.3447 105.534 28.3148 106.128C28.1638 106.215 28.0533 106.345 27.9903 106.492C27.9682 106.544 27.9521 106.597 27.9417 106.653L27.8748 106.675L27.9498 106.979C28.009 107.217 28.0607 107.456 28.1042 107.693C28.1466 107.925 28.1833 108.166 28.2139 108.419C28.2441 108.665 28.2666 108.909 28.2811 109.15C28.295 109.386 28.3024 109.632 28.3024 109.89C28.3024 110.147 28.295 110.393 28.2811 110.629C28.2666 110.87 28.2441 111.115 28.2139 111.361C28.1833 111.613 28.1466 111.855 28.104 112.086C28.0607 112.324 28.0086 112.562 27.9496 112.802C27.9059 112.978 27.9276 113.156 27.9986 113.309C28.069 113.462 28.1901 113.59 28.3465 113.67L31.2272 115.333L31.2267 115.335L31.568 115.531C31.622 115.563 31.6676 115.604 31.7037 115.651C31.7404 115.699 31.7681 115.756 31.784 115.816C31.8008 115.878 31.8058 115.941 31.7978 116.002C31.7904 116.06 31.7716 116.118 31.7404 116.172L29.6076 119.867L29.6065 119.866L29.4338 120.165C29.4027 120.219 29.3617 120.265 29.3147 120.301C29.2659 120.338 29.209 120.366 29.1492 120.382C29.0881 120.397 29.025 120.402 28.9643 120.395C28.907 120.388 28.8494 120.369 28.7956 120.338C27.7637 119.689 26.5995 119.07 25.5349 118.456C25.3828 118.37 25.2164 118.339 25.0589 118.358C24.8954 118.378 24.7403 118.45 24.6184 118.566L24.617 118.568C24.2647 118.908 23.8902 119.226 23.4963 119.524C23.1045 119.819 22.6949 120.09 22.2708 120.336C21.8503 120.579 21.4125 120.798 20.9599 120.99C20.516 121.179 20.0554 121.343 19.5809 121.478C19.4137 121.526 19.275 121.626 19.1773 121.755C19.0782 121.886 19.0217 122.049 19.0217 122.22L19.0202 125.979C19.0202 126.043 19.0078 126.102 18.9854 126.156C18.9621 126.212 18.9265 126.264 18.8826 126.308C18.84 126.352 18.788 126.386 18.7309 126.41C18.6773 126.433 18.6175 126.445 18.5543 126.445H13.9411C13.8781 126.445 13.8183 126.433 13.7647 126.41C13.7076 126.386 13.6555 126.352 13.6122 126.308C13.5689 126.264 13.5335 126.212 13.5103 126.156C13.4878 126.102 13.4756 126.043 13.4756 125.979V122.22C13.4756 122.041 13.4129 121.876 13.3083 121.743C13.202 121.608 13.0525 121.51 12.8818 121.469C12.4221 121.337 11.9693 121.175 11.527 120.986C11.0777 120.795 10.6432 120.578 10.225 120.336C9.8007 120.09 9.39111 119.819 8.99931 119.524C8.60513 119.226 8.23076 118.907 7.87878 118.567C7.74821 118.442 7.58391 118.372 7.4154 118.356C7.24417 118.341 7.06827 118.382 6.92047 118.48L3.70198 120.338C3.64898 120.369 3.59073 120.388 3.53213 120.395C3.47135 120.403 3.4081 120.397 3.34638 120.382C3.2864 120.366 3.22968 120.338 3.18094 120.301C3.13409 120.265 3.09327 120.219 3.06192 120.165C2.29708 118.832 1.5208 117.505 0.755375 116.171C0.724417 116.118 0.705247 116.06 0.697718 116.001C0.690189 115.94 0.694994 115.878 0.711439 115.816C0.727686 115.755 0.754979 115.698 0.791534 115.65C0.826752 115.603 0.872024 115.562 0.924875 115.531L4.18086 113.652C4.33199 113.565 4.4423 113.436 4.50535 113.288C4.52259 113.247 4.53591 113.206 4.54617 113.164L4.63111 113.147L4.54557 112.802C4.48697 112.563 4.43511 112.324 4.39157 112.087C4.34903 111.856 4.31207 111.613 4.28131 111.361C4.25169 111.115 4.22886 110.87 4.21454 110.629C4.20043 110.393 4.19305 110.147 4.19305 109.89C4.19305 109.633 4.20043 109.386 4.21454 109.151C4.22886 108.91 4.25169 108.666 4.28131 108.42C4.31242 108.164 4.34942 107.921 4.39157 107.692C4.43511 107.455 4.48678 107.217 4.54557 106.979C4.58951 106.801 4.56821 106.622 4.49683 106.469C4.42526 106.318 4.30469 106.189 4.1505 106.11L0.926213 104.248C0.873015 104.218 0.828139 104.177 0.791534 104.13C0.754979 104.082 0.727686 104.025 0.711439 103.964C0.694994 103.903 0.690189 103.839 0.697718 103.779C0.705247 103.72 0.724417 103.662 0.755375 103.609C1.5425 102.438 2.33096 100.874 3.06192 99.6145C3.09327 99.5605 3.13409 99.5144 3.18094 99.4788C3.22968 99.4416 3.2864 99.4144 3.34638 99.398C3.4077 99.3822 3.47116 99.3767 3.53154 99.3847C3.5884 99.3916 3.64645 99.4109 3.70178 99.4426L6.95975 101.323C7.11281 101.413 7.28498 101.443 7.44789 101.42C7.6118 101.398 7.76718 101.323 7.88829 101.203C8.24195 100.863 8.61504 100.544 9.00337 100.252C9.39072 99.9602 9.79857 99.6903 10.2252 99.4436C10.6459 99.2009 11.0837 98.982 11.5357 98.7893C11.9797 98.6011 12.4403 98.4371 12.9147 98.3014C13.0818 98.2533 13.2206 98.1538 13.3185 98.0245C13.4176 97.8937 13.4739 97.7308 13.474 97.5599L13.4756 93.8003C13.4756 93.7374 13.4878 93.6775 13.5103 93.624C13.5335 93.568 13.5687 93.5165 13.613 93.4719C13.6555 93.4284 13.7076 93.3932 13.7647 93.3694C13.8183 93.3471 13.8781 93.3347 13.9411 93.3347H18.5543C18.6175 93.3347 18.6773 93.3471 18.7309 93.3694C18.788 93.3932 18.84 93.4284 18.8834 93.4714C18.9676 93.5571 19.0202 93.673 19.0202 93.8003V97.5599C19.0202 97.7397 19.0825 97.9051 19.186 98.0369C19.2938 98.1716 19.4431 98.2707 19.6138 98.3103ZM18.8008 103.721C19.615 104.059 20.3494 104.555 20.9659 105.172C21.5826 105.788 22.079 106.523 22.4159 107.337C22.7411 108.122 22.9205 108.984 22.9205 109.89C22.9205 110.796 22.7411 111.658 22.4159 112.443C22.0784 113.257 21.5826 113.991 20.9659 114.608C20.3494 115.225 19.6148 115.721 18.8006 116.058C18.0158 116.383 17.1536 116.563 16.2475 116.563C15.3428 116.563 14.481 116.383 13.6962 116.058C12.8808 115.721 12.1462 115.225 11.5295 114.608C10.9131 113.991 10.4166 113.257 10.0797 112.443C9.75468 111.658 9.57513 110.796 9.57513 109.89C9.57513 108.984 9.75468 108.122 10.0797 107.337C10.4166 106.523 10.9127 105.788 11.5295 105.172C12.1462 104.555 12.8808 104.059 13.6946 103.721C14.4796 103.396 15.3418 103.217 16.2475 103.217C17.1536 103.217 18.0158 103.396 18.8008 103.721ZM21.4479 104.69C20.7713 104.014 19.9613 103.467 19.0589 103.094C18.1911 102.734 17.2417 102.535 16.2475 102.535C15.254 102.535 14.3041 102.734 13.4369 103.094C12.5347 103.467 11.724 104.014 11.0479 104.69C10.3713 105.367 9.82487 106.177 9.45144 107.079C9.09218 107.946 8.89386 108.896 8.89386 109.89C8.89386 110.883 9.09218 111.833 9.45144 112.701C9.82527 113.603 10.3713 114.413 11.0479 115.09C11.724 115.766 12.5341 116.312 13.4358 116.685C14.303 117.046 15.2532 117.244 16.2475 117.244C17.2417 117.244 18.1915 117.045 19.0587 116.686C19.9607 116.312 20.7716 115.766 21.4479 115.09C22.1243 114.413 22.6703 113.603 23.0439 112.701C23.4034 111.833 23.6018 110.884 23.6018 109.89C23.6018 108.896 23.4034 107.946 23.0439 107.079C22.6703 106.177 22.1243 105.367 21.4479 104.69Z" fill="#C4CDEC"/>
<path fill-rule="evenodd" clip-rule="evenodd" d="M43.993 125.911C44.4254 126.036 44.8356 126.212 45.216 126.432C45.6068 126.658 45.9674 126.93 46.2893 127.241C46.3527 127.302 46.4464 127.31 46.5182 127.269L47.9685 126.431L47.9764 126.427C48.0596 126.381 48.1543 126.374 48.2409 126.396C48.3301 126.421 48.4103 126.478 48.4594 126.563L48.4658 126.573L49.4862 128.341C49.5352 128.426 49.5451 128.524 49.5209 128.614C49.4971 128.703 49.4391 128.783 49.3539 128.832L49.344 128.838L47.9056 129.668C47.8303 129.712 47.7956 129.8 47.8154 129.88L47.815 129.88C47.868 130.094 47.9086 130.314 47.9363 130.54C47.9626 130.759 47.9769 130.984 47.9769 131.212C47.9769 131.44 47.9626 131.665 47.9363 131.885C47.9086 132.11 47.868 132.33 47.815 132.544C47.7932 132.633 47.8367 132.723 47.916 132.761L49.3539 133.591V133.592C49.4391 133.641 49.4971 133.721 49.5209 133.811C49.5451 133.9 49.5352 133.998 49.4862 134.083L48.4599 135.861H48.4594C48.4103 135.946 48.3301 136.004 48.2409 136.027C48.1518 136.052 48.0537 136.042 47.9685 135.993L47.9581 135.987L46.5172 135.155C46.4424 135.112 46.3498 135.126 46.2893 135.183C45.9674 135.494 45.6068 135.766 45.2165 135.992C44.8331 136.213 44.4205 136.391 43.9851 136.515C43.9004 136.539 43.8454 136.616 43.8454 136.7V138.372C43.8454 138.471 43.8053 138.561 43.7399 138.626C43.6745 138.691 43.5849 138.731 43.4863 138.731H41.4337C41.3351 138.731 41.2454 138.691 41.18 138.626C41.1152 138.561 41.0745 138.471 41.0745 138.372V136.7C41.0745 136.609 41.0116 136.533 40.9269 136.513C40.4945 136.388 40.0844 136.212 39.704 135.992C39.3132 135.766 38.9531 135.494 38.6306 135.183C38.5647 135.12 38.4656 135.113 38.3923 135.161L36.9519 135.993C36.8667 136.042 36.7687 136.052 36.679 136.027C36.5898 136.004 36.5101 135.946 36.4606 135.861L36.4546 135.851L35.4337 134.083L35.4342 134.082C35.3852 133.998 35.3753 133.9 35.3991 133.811C35.4229 133.721 35.4808 133.641 35.5655 133.592L37.0143 132.756C37.0901 132.712 37.1248 132.625 37.1045 132.544H37.105C37.052 132.33 37.0114 132.11 36.9841 131.885C36.9574 131.665 36.9435 131.44 36.9435 131.212C36.9435 130.984 36.9574 130.759 36.9841 130.54C37.0114 130.314 37.052 130.094 37.105 129.88C37.1268 129.791 37.0827 129.702 37.0039 129.662L35.5655 128.832C35.4808 128.783 35.4229 128.703 35.3991 128.614C35.3753 128.525 35.3852 128.426 35.4342 128.341L35.4397 128.331L36.4606 126.563C36.5101 126.478 36.5898 126.421 36.679 126.396C36.7687 126.373 36.8667 126.382 36.9514 126.431V126.431L38.4022 127.269C38.479 127.314 38.5751 127.298 38.6346 127.237C38.956 126.928 39.3151 126.657 39.704 126.432C40.0869 126.211 40.5 126.034 40.9349 125.909C41.0196 125.885 41.0745 125.808 41.0745 125.724V124.051C41.0745 123.953 41.1152 123.863 41.18 123.798C41.2454 123.733 41.3351 123.693 41.4337 123.693H43.4863C43.5849 123.693 43.6745 123.733 43.7399 123.798C43.8053 123.863 43.8454 123.953 43.8454 124.051V125.724C43.8454 125.815 43.9083 125.891 43.993 125.911ZM44.6671 129.005C44.102 128.44 43.3218 128.091 42.46 128.091C41.5981 128.091 40.818 128.44 40.2528 129.005C39.6881 129.57 39.3389 130.351 39.3389 131.212C39.3389 132.074 39.6881 132.854 40.2528 133.419C40.818 133.984 41.5981 134.333 42.46 134.333C43.3218 134.333 44.102 133.984 44.6671 133.419C45.2318 132.854 45.581 132.074 45.581 131.212C45.581 130.351 45.2318 129.57 44.6671 129.005Z" fill="#C4CDEC"/>
<path fill-rule="evenodd" clip-rule="evenodd" d="M41.612 92.0815C41.612 91.7858 41.8512 91.546 42.1469 91.546C42.4426 91.546 42.6824 91.7858 42.6824 92.0815V93.3401H43.941C44.2367 93.3401 44.4764 93.5803 44.4764 93.8756C44.4764 94.1713 44.2367 94.411 43.941 94.411H42.6824V95.6701C42.6824 95.9653 42.4426 96.2051 42.1469 96.2051C41.8512 96.2051 41.612 95.9653 41.612 95.6701V94.411H40.3528C40.0571 94.411 39.8174 94.1713 39.8174 93.8756C39.8174 93.5803 40.0571 93.3401 40.3528 93.3401H41.612V92.0815Z" fill="#C4CDEC"/>
<path fill-rule="evenodd" clip-rule="evenodd" d="M115.687 66.5995C115.687 66.3038 115.926 66.0646 116.222 66.0646C116.518 66.0646 116.758 66.3038 116.758 66.5995V67.8587H118.016C118.312 67.8587 118.552 68.0979 118.552 68.3941C118.552 68.6898 118.312 68.9296 118.016 68.9296H116.758V70.1882C116.758 70.4839 116.518 70.7236 116.222 70.7236C115.926 70.7236 115.687 70.4839 115.687 70.1882V68.9296H114.428C114.132 68.9296 113.893 68.6898 113.893 68.3941C113.893 68.0979 114.132 67.8587 114.428 67.8587H115.687V66.5995Z" fill="#C4CDEC"/>
<path fill-rule="evenodd" clip-rule="evenodd" d="M3.39286 171.166C3.39286 170.871 3.6326 170.631 3.92806 170.631C4.22367 170.631 4.46361 170.871 4.46361 171.166V172.425H5.72223C6.01809 172.425 6.25764 172.665 6.25764 172.96C6.25764 173.256 6.01809 173.496 5.72223 173.496H4.46361V174.754C4.46361 175.05 4.22367 175.29 3.92806 175.29C3.6326 175.29 3.39286 175.05 3.39286 174.754V173.496H2.13403C1.83817 173.496 1.59863 173.256 1.59863 172.96C1.59863 172.665 1.83817 172.425 2.13403 172.425H3.39286V171.166Z" fill="#C4CDEC"/>
<path fill-rule="evenodd" clip-rule="evenodd" d="M156.905 9.42553C157.338 9.55085 157.748 9.72669 158.129 9.94661C158.519 10.1725 158.879 10.4449 159.202 10.756C159.264 10.8164 159.358 10.8248 159.43 10.7832L160.881 9.94611L160.889 9.94117C160.972 9.8961 161.066 9.88817 161.153 9.91145C161.242 9.93473 161.322 9.99267 161.371 10.0779L161.377 10.0878L162.398 11.8556C162.447 11.9403 162.457 12.0389 162.433 12.1285C162.409 12.2177 162.351 12.2974 162.266 12.347L162.257 12.3524L160.818 13.1831C160.742 13.2267 160.708 13.3143 160.728 13.3946L160.727 13.3951C160.78 13.6091 160.821 13.829 160.848 14.0544C160.875 14.2738 160.889 14.4982 160.889 14.7265C160.889 14.9549 160.875 15.1793 160.848 15.3992C160.821 15.6246 160.78 15.8445 160.727 16.0585C160.705 16.1476 160.749 16.2373 160.829 16.2759L162.266 17.1061V17.1071C162.351 17.1561 162.409 17.2359 162.433 17.325C162.457 17.4147 162.447 17.5127 162.398 17.5979L161.371 19.3757C161.322 19.4609 161.242 19.5183 161.153 19.5421C161.064 19.5664 160.966 19.5565 160.881 19.5079L160.87 19.5015L159.43 18.6698C159.354 18.6267 159.262 18.6406 159.202 18.6976C158.88 19.0091 158.519 19.281 158.129 19.5069C157.745 19.7278 157.333 19.9052 156.897 20.0305C156.812 20.0538 156.758 20.1305 156.758 20.2148V21.888C156.758 21.986 156.717 22.0757 156.652 22.1406C156.587 22.206 156.497 22.2461 156.398 22.2461H154.346C154.247 22.2461 154.158 22.206 154.093 22.1406C154.027 22.0757 153.987 21.986 153.987 21.888V20.2148C153.987 20.1241 153.924 20.0473 153.839 20.028C153.407 19.9027 152.996 19.7268 152.616 19.5069C152.226 19.281 151.865 19.0091 151.543 18.6976C151.477 18.6347 151.378 18.6272 151.304 18.6758L149.864 19.5079C149.779 19.5565 149.681 19.5664 149.591 19.5421C149.502 19.5183 149.422 19.4614 149.373 19.3757L149.367 19.3663L148.346 17.5974C148.297 17.5122 148.287 17.4142 148.311 17.325C148.335 17.2359 148.392 17.1561 148.478 17.1071L149.926 16.2705C150.002 16.2269 150.037 16.1392 150.017 16.0589H150.018C149.965 15.8445 149.923 15.6246 149.896 15.3992C149.869 15.1798 149.856 14.9549 149.856 14.7265C149.856 14.4982 149.869 14.2738 149.896 14.0544C149.923 13.829 149.965 13.6091 150.018 13.3951C150.039 13.3059 149.995 13.2163 149.916 13.1776L148.478 12.347C148.392 12.2979 148.335 12.2177 148.311 12.1285C148.287 12.0394 148.297 11.9408 148.346 11.8561L148.352 11.8452L149.373 10.0779C149.422 9.99267 149.502 9.93473 149.591 9.91145C149.681 9.88718 149.779 9.89657 149.864 9.94611L151.314 10.7832C151.391 10.8283 151.487 10.8129 151.547 10.7515C151.868 10.4424 152.227 10.1715 152.616 9.94661C152.999 9.7257 153.412 9.54837 153.847 9.42354C153.932 9.39977 153.987 9.32299 153.987 9.23879V7.56607C153.987 7.4675 154.027 7.37785 154.093 7.31296C154.158 7.24807 154.247 7.20744 154.346 7.20744H156.398C156.497 7.20744 156.587 7.24807 156.652 7.31296C156.717 7.37785 156.758 7.4675 156.758 7.56607V9.23879C156.758 9.32993 156.82 9.40571 156.905 9.42553ZM157.579 12.5203C157.015 11.9547 156.234 11.6055 155.372 11.6055C154.51 11.6055 153.73 11.9547 153.165 12.5203C152.6 13.0845 152.251 13.8651 152.251 14.7265C152.251 15.5884 152.6 16.369 153.165 16.9337C153.73 17.4989 154.51 17.8481 155.372 17.8481C156.234 17.8481 157.015 17.4989 157.579 16.9337C158.144 16.369 158.494 15.5884 158.494 14.7265C158.494 13.8651 158.144 13.0845 157.579 12.5203Z" fill="#C4CDEC"/>
<path fill-rule="evenodd" clip-rule="evenodd" d="M12.9399 139.459C12.9399 139.164 13.1797 138.924 13.4751 138.924C13.7709 138.924 14.0105 139.164 14.0105 139.459V140.718H15.2695C15.565 140.718 15.8049 140.958 15.8049 141.253C15.8049 141.55 15.565 141.789 15.2695 141.789H14.0105V143.048C14.0105 143.344 13.7709 143.583 13.4751 143.583C13.1797 143.583 12.9399 143.344 12.9399 143.048V141.789H11.6811C11.3854 141.789 11.1455 141.55 11.1455 141.253C11.1455 140.958 11.3854 140.718 11.6811 140.718H12.9399V139.459Z" fill="#C4CDEC"/>
<path fill-rule="evenodd" clip-rule="evenodd" d="M58.2843 172.808C58.2843 172.512 58.5241 172.273 58.8198 172.273C59.115 172.273 59.3547 172.512 59.3547 172.808V174.067H60.6138C60.9095 174.067 61.1493 174.306 61.1493 174.602C61.1493 174.898 60.9095 175.137 60.6138 175.137H59.3547V176.396C59.3547 176.692 59.115 176.932 58.8198 176.932C58.5241 176.932 58.2843 176.692 58.2843 176.396V175.137H57.0257C56.73 175.137 56.4902 174.898 56.4902 174.602C56.4902 174.306 56.73 174.067 57.0257 174.067H58.2843V172.808Z" fill="#C4CDEC"/>
<path fill-rule="evenodd" clip-rule="evenodd" d="M132.389 109.16C132.389 108.864 132.629 108.625 132.924 108.625C133.219 108.625 133.46 108.864 133.46 109.16V110.419H134.718C135.014 110.419 135.254 110.658 135.254 110.954C135.254 111.25 135.014 111.49 134.718 111.49H133.46V112.748C133.46 113.044 133.219 113.283 132.924 113.283C132.629 113.283 132.389 113.044 132.389 112.748V111.49H131.13C130.834 111.49 130.595 111.25 130.595 110.954C130.595 110.658 130.834 110.419 131.13 110.419H132.389V109.16Z" fill="#C4CDEC"/>
<path fill-rule="evenodd" clip-rule="evenodd" d="M229.224 2.32316C229.224 2.02794 229.465 1.7877 229.76 1.7877C230.055 1.7877 230.295 2.02794 230.295 2.32316V3.58179H231.554C231.85 3.58179 232.089 3.82153 232.089 4.11724C232.089 4.41295 231.85 4.65318 231.554 4.65318H230.295V5.91181C230.295 6.20703 230.055 6.44727 229.76 6.44727C229.465 6.44727 229.224 6.20703 229.224 5.91181V4.65318H227.966C227.67 4.65318 227.43 4.41295 227.43 4.11724C227.43 3.82153 227.67 3.58179 227.966 3.58179H229.224V2.32316Z" fill="#C4CDEC"/>
<path fill-rule="evenodd" clip-rule="evenodd" d="M142.39 25.0551C142.39 24.7599 142.63 24.5197 142.925 24.5197C143.221 24.5197 143.461 24.7599 143.461 25.0551V26.3137H144.719C145.015 26.3137 145.255 26.5535 145.255 26.8492C145.255 27.1449 145.015 27.3846 144.719 27.3846H143.461V28.6438C143.461 28.939 143.221 29.1787 142.925 29.1787C142.63 29.1787 142.39 28.939 142.39 28.6438V27.3846H141.131C140.835 27.3846 140.596 27.1449 140.596 26.8492C140.596 26.5535 140.835 26.3137 141.131 26.3137H142.39V25.0551Z" fill="#C4CDEC"/>
<path fill-rule="evenodd" clip-rule="evenodd" d="M126.024 138.259C126.024 137.963 126.263 137.723 126.559 137.723C126.855 137.723 127.094 137.963 127.094 138.259V139.517H128.353C128.649 139.517 128.889 139.757 128.889 140.053C128.889 140.349 128.649 140.588 128.353 140.588H127.094V141.847C127.094 142.143 126.855 142.382 126.559 142.382C126.263 142.382 126.024 142.143 126.024 141.847V140.588H124.765C124.469 140.588 124.229 140.349 124.229 140.053C124.229 139.757 124.469 139.517 124.765 139.517H126.024V138.259Z" fill="#C4CDEC"/>
<path fill-rule="evenodd" clip-rule="evenodd" d="M311.512 164.17C311.512 163.875 311.752 163.635 312.047 163.635C312.343 163.635 312.582 163.875 312.582 164.17V165.429H313.841C314.137 165.429 314.377 165.669 314.377 165.965C314.377 166.26 314.137 166.5 313.841 166.5H312.582V167.759C312.582 168.054 312.343 168.294 312.047 168.294C311.752 168.294 311.512 168.054 311.512 167.759V166.5H310.253C309.957 166.5 309.718 166.26 309.718 165.965C309.718 165.669 309.957 165.429 310.253 165.429H311.512V164.17Z" fill="#C4CDEC"/>
<path fill-rule="evenodd" clip-rule="evenodd" d="M329.698 132.802C329.698 132.506 329.938 132.266 330.233 132.266C330.529 132.266 330.768 132.506 330.768 132.802V134.061H332.027C332.323 134.061 332.562 134.301 332.562 134.596C332.562 134.891 332.323 135.132 332.027 135.132H330.768V136.391C330.768 136.686 330.529 136.926 330.233 136.926C329.938 136.926 329.698 136.686 329.698 136.391V135.132H328.439C328.143 135.132 327.903 134.891 327.903 134.596C327.903 134.301 328.143 134.061 328.439 134.061H329.698V132.802Z" fill="#C4CDEC"/>
<path fill-rule="evenodd" clip-rule="evenodd" d="M313.331 13.2343C313.331 12.9381 313.57 12.6984 313.867 12.6984C314.162 12.6984 314.402 12.9381 314.402 13.2343V14.4929H315.66C315.956 14.4929 316.196 14.7322 316.196 15.0279C316.196 15.3236 315.956 15.5633 315.66 15.5633H314.402V16.8225C314.402 17.1182 314.162 17.3574 313.867 17.3574C313.57 17.3574 313.331 17.1182 313.331 16.8225V15.5633H312.072C311.777 15.5633 311.537 15.3236 311.537 15.0279C311.537 14.7322 311.777 14.4929 312.072 14.4929H313.331V13.2343Z" fill="white"/>
<path fill-rule="evenodd" clip-rule="evenodd" d="M320.43 181.901C320.43 181.606 320.67 181.366 320.966 181.366C321.261 181.366 321.501 181.606 321.501 181.901V183.16H322.76C323.056 183.16 323.296 183.4 323.296 183.695C323.296 183.991 323.056 184.231 322.76 184.231H321.501V185.49C321.501 185.785 321.261 186.025 320.966 186.025C320.67 186.025 320.43 185.785 320.43 185.49V184.231H319.172C318.876 184.231 318.637 183.991 318.637 183.695C318.637 183.4 318.876 183.16 319.172 183.16H320.43V181.901Z" fill="white"/>
<path fill-rule="evenodd" clip-rule="evenodd" d="M264.964 5.95987C264.964 5.66466 265.205 5.42493 265.5 5.42493C265.796 5.42493 266.036 5.66466 266.036 5.95987V7.21902H267.295C267.59 7.21902 267.829 7.45824 267.829 7.75445C267.829 8.05016 267.59 8.2899 267.295 8.2899H266.036V9.54853C266.036 9.84424 265.796 10.084 265.5 10.084C265.205 10.084 264.964 9.84424 264.964 9.54853V8.2899H263.706C263.41 8.2899 263.17 8.05016 263.17 7.75445C263.17 7.45824 263.41 7.21902 263.706 7.21902H264.964V5.95987Z" fill="white"/>
<path fill-rule="evenodd" clip-rule="evenodd" d="M139.488 140.531C139.488 140.235 139.727 139.995 140.023 139.995C140.319 139.995 140.558 140.235 140.558 140.531V141.789H141.817C142.113 141.789 142.352 142.029 142.352 142.325C142.352 142.62 142.113 142.86 141.817 142.86H140.558V144.119C140.558 144.415 140.319 144.654 140.023 144.654C139.727 144.654 139.488 144.415 139.488 144.119V142.86H138.229C137.933 142.86 137.693 142.62 137.693 142.325C137.693 142.029 137.933 141.789 138.229 141.789H139.488V140.531Z" fill="white"/>
<path fill-rule="evenodd" clip-rule="evenodd" d="M35.379 162.191C35.379 161.896 35.6188 161.656 35.9145 161.656C36.2102 161.656 36.4499 161.896 36.4499 162.191V163.449H37.7086C38.0043 163.449 38.244 163.69 38.244 163.985C38.244 164.281 38.0043 164.521 37.7086 164.521H36.4499V165.78C36.4499 166.075 36.2102 166.315 35.9145 166.315C35.6188 166.315 35.379 166.075 35.379 165.78V164.521H34.1204C33.8247 164.521 33.585 164.281 33.585 163.985C33.585 163.69 33.8247 163.449 34.1204 163.449H35.379V162.191Z" fill="white"/>
<path fill-rule="evenodd" clip-rule="evenodd" d="M164.855 84.3472C165.815 84.8262 166.323 86.007 165.989 86.9843C165.655 87.9626 164.606 88.3673 163.646 87.8888C162.685 87.4103 162.177 86.2294 162.511 85.2512C162.845 84.2739 163.894 83.8687 164.855 84.3472Z" fill="#EA4F50"/>
<path fill-rule="evenodd" clip-rule="evenodd" d="M170.473 105.428C170.473 105.428 172.425 106.424 170.466 106.562C168.508 106.699 148.099 98.5825 146.569 97.0772C145.04 95.5714 139.384 83.3982 139.751 80.5481C142.411 80.3034 143.314 79.5178 143.606 80.3371C144.273 82.204 148.539 90.796 149.923 92.9298C151.179 94.8675 158.303 96.6829 164.979 95.5293V102.424H171.127C170.82 103.503 170.564 104.539 170.473 105.428Z" fill="#131314"/>
<path fill-rule="evenodd" clip-rule="evenodd" d="M172.591 89.1762L172.382 90.8489C172.382 90.8489 172.091 94.4227 172.058 94.81C172.027 95.1969 172.176 95.341 172.566 95.6917C173.026 96.7289 171.143 100.884 170.039 100.963C168.933 101.043 163.939 100.2 163.611 99.8683C163.381 99.6365 166.275 96.1196 166.18 95.495C166.408 95.4514 166.614 95.3915 166.792 95.2499C167.945 94.3285 168.046 91.5488 167.356 90.5071C166.841 89.7284 172.591 89.1762 172.591 89.1762Z" fill="#EA4F50"/>
<path fill-rule="evenodd" clip-rule="evenodd" d="M162.198 101.37C163.159 100.871 163.643 101.384 164.548 102.535C165.452 103.687 166.401 103.66 166.93 103.94C167.458 104.219 166.628 114.136 162.919 115.361C161.547 115.815 160.77 115.164 160.356 113.941C159.611 111.747 159.7 102.669 162.198 101.37Z" fill="#F9F8F7"/>
<path fill-rule="evenodd" clip-rule="evenodd" d="M156.65 134.637L155.84 135.625C155.84 135.625 156.371 144.262 157.586 155.406C158.802 166.55 161.132 186.772 161.081 188.749C161.031 190.724 164.088 189.58 164.467 189.023C164.847 188.466 163.512 149.124 163.816 145.528C163.922 144.273 165.82 144.744 166.559 147.244C167.939 151.908 168.554 161.752 168.982 167.358C169.64 175.97 170.842 189.127 170.755 189.823C170.668 190.521 173.439 191.216 173.997 190.102C173.997 190.102 174.111 189.938 174.073 189.343C174.035 188.747 174.63 134.623 173.921 133.154C173.212 131.684 158.319 130.976 156.65 134.637Z" fill="#131314"/>
<path fill-rule="evenodd" clip-rule="evenodd" d="M174.947 134.219C174.012 135.996 170.064 136.923 166.973 137.195H166.971C166.23 137.26 165.538 137.288 164.95 137.28C164.557 137.275 164.203 137.224 163.885 137.133C160.568 136.838 158.135 135.854 156.682 135.084C155.787 134.928 155.318 134.566 155.105 134.092L155.105 134.092V134.091C154.76 133.319 155.091 132.253 155.367 131.3C155.863 129.587 157.924 126.353 158.28 118.068C158.635 109.784 158.249 95.556 166.286 95.2821C166.286 95.2821 166.184 95.4763 166.021 95.8339L166.35 95.88C166.35 95.88 165.358 98.3145 166.755 99.2769C168.153 100.239 169.902 99.2343 170.714 98.3437C170.831 98.2149 170.958 98.1674 171.092 98.1793C171.664 97.518 172.287 96.8548 172.97 96.1871C174.622 96.6403 177.14 98.2783 177.14 98.2783C178.415 99.0689 179.973 100.422 180.071 101.948C180.208 104.115 177.225 111.337 175.38 115.865C172.296 123.446 176.525 131.222 174.947 134.219Z" fill="white"/>
<path fill-rule="evenodd" clip-rule="evenodd" d="M162.051 189.263C162.051 189.263 161.385 188.81 160.665 188.995C159.945 189.179 155.786 191.144 155.119 191.412C154.453 191.681 153.751 192.705 154.277 193.292C154.804 193.88 158.314 193.813 160.173 193.444C162.033 193.074 163.472 193.326 164.157 193.376C164.841 193.427 165.643 191.944 164.982 189.8C164.32 187.657 164.526 189.649 162.051 189.263Z" fill="#224A87"/>
<path fill-rule="evenodd" clip-rule="evenodd" d="M154.166 192.423C154.053 192.731 154.06 193.05 154.278 193.293C154.569 193.618 155.769 193.742 157.099 193.727C160.159 193.691 161.151 193.729 164.553 193.729C165.112 193.729 165.065 192.833 165.195 191.868C164.686 192.573 163.805 192.633 162.12 192.501C160.379 192.364 158.78 192.82 156.585 193.026C155.05 193.169 154.412 192.712 154.166 192.423Z" fill="white"/>
<path fill-rule="evenodd" clip-rule="evenodd" d="M171.05 189.834C171.05 189.834 172.259 188.44 173.736 189.548C173.736 189.548 174.542 189.85 174.844 190.555C175.146 191.261 175.718 191.579 175.818 192.352C175.919 193.125 175.683 193.729 174.626 193.729C173.568 193.729 173.668 193.729 172.913 193.729C172.158 193.729 171.033 193.847 170.646 192.906C170.261 191.966 170.646 191.11 170.513 190.623C170.378 190.135 171.05 189.834 171.05 189.834Z" fill="#224A87"/>
<path fill-rule="evenodd" clip-rule="evenodd" d="M175.832 192.498C175.885 193.199 175.616 193.729 174.626 193.729C173.568 193.729 173.668 193.729 172.913 193.729C172.158 193.729 171.033 193.847 170.646 192.906C170.559 192.692 170.511 192.483 170.488 192.281C170.492 192.287 170.932 192.888 172.385 192.979C173.846 193.07 175.582 193.09 175.832 192.498Z" fill="white"/>
<path fill-rule="evenodd" clip-rule="evenodd" d="M165.402 95.3765C165.402 95.3765 166.188 94.9242 166.791 95.2501C166.791 95.2501 165.153 97.8303 166.693 99.2326C168.234 100.635 171.863 97.9343 172.565 95.692C172.565 95.692 173.329 95.8019 173.718 96.4449C173.718 96.4449 172.318 99.9468 168.729 100.779C165.14 101.612 163.971 98.0403 165.402 95.3765Z" fill="#C4CDEC"/>
<path fill-rule="evenodd" clip-rule="evenodd" d="M173.719 96.4447C173.719 96.4447 169.249 103.818 167.621 116.451C165.992 129.085 165.847 137.623 174.837 141.25C174.837 141.25 175.255 141.408 175.635 140.516C177.437 136.292 173.706 119.947 178.672 108.704C181.577 102.128 180.308 98.5538 173.719 96.4447Z" fill="#131314"/>
<path fill-rule="evenodd" clip-rule="evenodd" d="M165.403 95.3752C165.403 95.3752 163.239 99.2794 162.603 107.39C161.967 115.501 159.866 129.331 159.241 132.19C158.615 135.049 156.465 138.01 155.397 138.291C155.397 138.291 153.954 138.635 153.859 136.413C153.764 134.191 157.797 124.004 157.751 116.312C157.704 108.62 158.868 95.9215 165.403 95.3752Z" fill="#131314"/>
<path fill-rule="evenodd" clip-rule="evenodd" d="M168.04 113.648C168.04 113.648 173.153 97.9352 175.426 97.0545C175.426 97.0545 174.367 96.1317 174.139 96.0831C173.913 96.0331 170.777 99.2205 168.04 113.648Z" fill="#1E283A"/>
<path fill-rule="evenodd" clip-rule="evenodd" d="M165.41 95.3718C165.41 95.3718 163.312 101.016 162.45 109.359C162.355 110.282 162.229 111.215 162.154 112.142C162.141 112.305 162.099 112.457 162.091 112.62C162.091 112.62 162.129 104.94 163.06 100.711C163.99 96.4814 163.782 95.7988 163.782 95.7988C163.782 95.7988 164.309 95.2163 165.41 95.3718Z" fill="#1E283A"/>
<path fill-rule="evenodd" clip-rule="evenodd" d="M165.284 77.2582C165.284 77.2582 164.057 78.2424 163.88 79.1217C163.701 80.0019 164.201 83.9967 164.099 84.5777C163.998 85.1597 164.976 85.1617 165.215 84.3533C165.455 83.5444 168.521 79.1672 165.284 77.2582Z" fill="#131314"/>
<path fill-rule="evenodd" clip-rule="evenodd" d="M177.651 86.4884C178.683 86.6696 179.374 87.6534 179.193 88.6856C179.012 89.7184 178.03 90.4089 176.996 90.2281C175.964 90.0478 175.273 89.0641 175.453 88.0313C175.635 86.999 176.618 86.3081 177.651 86.4884Z" fill="#EA4F50"/>
<path fill-rule="evenodd" clip-rule="evenodd" d="M172.474 75.837C175.996 76.4536 178.374 79.8402 177.758 83.3625L176.739 89.1831C176.123 92.7058 172.736 95.0834 169.213 94.4672C165.691 93.851 163.313 90.4645 163.929 86.9417L164.948 81.1211C165.564 77.5983 168.95 75.2208 172.474 75.837Z" fill="#F4A072"/>
<path fill-rule="evenodd" clip-rule="evenodd" d="M177.845 81.9206C177.869 82.3941 177.841 82.8766 177.755 83.3625L176.738 89.1831C176.12 92.7058 172.734 95.0834 169.212 94.4672C176.294 94.3147 176.428 84.9995 174.454 83.8751C172.478 82.7507 167.219 82.0489 165.96 82.0637C164.908 82.0766 164.657 82.833 164.604 83.0806L164.946 81.1211C165.073 80.3984 165.316 79.7243 165.653 79.114C166.969 79.1512 170.324 79.9482 173.412 80.4891C175.185 80.7992 176.65 81.341 177.845 81.9206Z" fill="#EF7E65"/>
<path fill-rule="evenodd" clip-rule="evenodd" d="M171.184 90.7044C171.032 91.5723 170.205 92.1533 169.337 92.0012C168.468 91.8496 167.888 91.0225 168.04 90.1541L168.043 90.1546C168.069 90.0055 168.212 89.9045 168.362 89.9308L170.957 90.385C171.106 90.4107 171.207 90.5544 171.181 90.7035L171.184 90.7044Z" fill="white"/>
<path fill-rule="evenodd" clip-rule="evenodd" d="M172.043 129.002C172.005 128.762 171.78 128.598 171.54 128.637C171.3 128.674 171.137 128.9 171.174 129.14C171.177 129.153 171.907 133.845 174.035 135.358C174.232 135.499 174.507 135.453 174.649 135.255C174.789 135.057 174.742 134.782 174.545 134.641C172.721 133.344 172.045 129.014 172.043 129.002Z" fill="#1E283A"/>
<path fill-rule="evenodd" clip-rule="evenodd" d="M156.696 126.19C156.73 125.974 156.932 125.827 157.147 125.862C157.362 125.896 157.509 126.097 157.475 126.313C157.473 126.325 156.817 130.535 154.909 131.892C154.731 132.018 154.485 131.976 154.358 131.799C154.232 131.622 154.273 131.375 154.451 131.249C156.087 130.085 156.694 126.2 156.696 126.19Z" fill="#1E283A"/>
<path fill-rule="evenodd" clip-rule="evenodd" d="M140.641 79.7381C140.641 79.7381 140.587 79.3235 140.113 78.4944C139.638 77.6652 139.821 77.155 139.663 76.413C139.506 75.6705 139.815 74.2068 139.852 73.4708C139.888 72.7352 141.957 71.7693 142.412 71.3017C142.868 70.8346 143.262 71.5841 142.894 72.0972C142.894 72.0972 143.063 72.5846 142.472 73.023C141.881 73.4608 142.382 74.1271 142.749 74.3133C143.115 74.4996 143.253 74.1929 143.751 73.8581C144.248 73.5243 144.357 73.3093 144.598 73.5029C144.839 73.6971 145.048 74.1588 144.371 74.7101C143.693 75.2619 143.56 76.3224 143.249 77.104C142.936 77.8856 142.842 78.5335 142.873 79.0853C143.04 79.5583 140.927 80.7159 140.641 79.7381Z" fill="#F4A072"/>
<path fill-rule="evenodd" clip-rule="evenodd" d="M178.303 76.1084C178.247 76.0871 178.192 76.0682 178.136 76.0524C178.122 75.4748 177.765 74.9349 177.192 74.715C176.764 74.551 176.307 74.6001 175.936 74.8111C175.643 74.1984 175.124 73.6917 174.439 73.4291C173.936 73.236 173.412 73.2003 172.919 73.2979C172.735 72.6307 172.248 72.0571 171.552 71.7896C171.144 71.6331 170.72 71.6029 170.32 71.6796C169.987 71.429 169.615 71.22 169.207 71.063C166.854 70.1605 164.213 71.3364 163.31 73.6897C162.509 75.7765 163.344 78.0897 165.185 79.216C165.26 80.0522 165.798 80.8135 166.634 81.1349C167.315 81.3965 168.044 81.3078 168.624 80.9586C168.852 81.2142 169.143 81.4207 169.486 81.5525C170.139 81.8026 170.838 81.7254 171.401 81.4009C171.746 81.9255 172.255 82.3515 172.886 82.5937C174.114 83.0647 175.455 82.7091 176.295 81.8002L176.356 81.7977C175.433 82.8354 176.311 84.5205 176.311 84.5205C175.595 86.6965 176.923 88.125 176.923 88.125C177.065 86.3071 178.012 86.5944 178.012 86.5944C181.389 81.555 179.105 79.487 179.105 79.487C179.118 79.4553 179.131 79.4241 179.144 79.3929C179.291 79.219 179.413 79.0179 179.499 78.7925C179.91 77.7211 179.375 76.5195 178.303 76.1084Z" fill="#16151D"/>
<path fill-rule="evenodd" clip-rule="evenodd" d="M163.101 74.4079C162.712 76.2877 163.553 78.218 165.185 79.216C165.26 80.0522 165.798 80.8135 166.634 81.1349C167.315 81.3965 168.045 81.3078 168.624 80.9586C168.852 81.2142 169.143 81.4207 169.486 81.5525C170.14 81.8026 170.838 81.7254 171.401 81.4009C171.747 81.9255 172.255 82.3515 172.886 82.5937C174.114 83.0647 175.455 82.7091 176.296 81.8002L176.357 81.7977C175.433 82.8354 176.311 84.5205 176.311 84.5205C175.595 86.6965 176.923 88.125 176.923 88.125C177.065 86.3071 178.012 86.5944 178.012 86.5944C181.389 81.555 179.105 79.487 179.105 79.487C179.119 79.4553 179.131 79.4241 179.144 79.3929C179.291 79.219 179.413 79.0179 179.499 78.7925C179.693 78.2853 179.676 77.7484 179.489 77.2803C179.487 77.2838 179.486 77.2872 179.486 77.2887C179.549 79.4731 174.231 82.6606 172.152 79.6232C172.152 79.6232 169.873 80.8917 168.954 79.6296C167.34 81.1349 165.573 79.2661 165.939 78.0926C165.939 78.0926 162.798 77.8846 163.101 74.4079Z" fill="#131314"/>
<path fill-rule="evenodd" clip-rule="evenodd" d="M178.474 99.4016C178.474 99.4016 177.975 98.2975 179.843 100.473C181.176 102.027 183.295 113.05 184.03 117.921C184.766 122.802 184.229 122.688 181.03 126.767C178.689 129.752 175.78 133.012 174.637 133.518C174.637 133.518 174.414 133.604 174.355 133.295C174.296 132.986 174.347 131.889 173.98 131.57C173.612 131.252 173.877 130.989 174.304 130.722C174.731 130.455 179.145 123.147 180.055 121.267C180.965 119.389 175.237 108.12 174.942 106.691C174.649 105.261 175.189 100.957 178.474 99.4016Z" fill="#131314"/>
<path fill-rule="evenodd" clip-rule="evenodd" d="M142.807 80.3851C142.711 79.5697 142.991 78.9521 143.242 78.5915C143.493 78.2314 144.044 77.7157 144.365 76.7627C144.686 75.8092 144.246 75.888 143.843 76.3135C143.44 76.7394 142.802 77.1941 142.802 77.1941C142.802 77.1941 142.294 75.3421 142.154 74.56C142.013 73.7779 141.493 73.4802 141.26 73.8754C141.029 74.2702 141.173 74.3703 140.989 74.3277C140.804 74.2851 140.614 74.2816 140.492 74.5808C140.369 74.8805 140.369 74.8805 140.369 74.8805C140.369 74.8805 140.021 74.7026 139.836 74.9384C139.652 75.1732 139.647 75.6408 139.647 75.6408C139.647 75.6408 139.156 75.5774 139.108 75.8003C139.06 76.0232 139.244 77.5429 139.564 78.3428C139.884 79.1433 140.519 80.2914 140.547 80.8665C140.574 81.4421 142.807 80.3851 142.807 80.3851Z" fill="#F4A072"/>
<path fill-rule="evenodd" clip-rule="evenodd" d="M142.808 80.3851C142.733 79.758 142.882 79.2473 143.07 78.8812C142.119 79.5266 141.002 79.3023 140.24 78.4379C139.975 78.1373 139.626 77.7128 139.271 77.2709C139.348 77.6583 139.447 78.0491 139.565 78.3428C139.885 79.1433 140.52 80.2914 140.547 80.8665C140.575 81.4421 142.808 80.3851 142.808 80.3851Z" fill="#ED6055"/>
<path fill-rule="evenodd" clip-rule="evenodd" d="M140.192 72.8973C140.807 72.29 142.068 71.654 142.412 71.3014C142.868 70.8343 143.262 71.5837 142.894 72.0969C142.894 72.0969 143.062 72.5843 142.471 73.0226C142.05 73.3347 142.184 73.7631 142.428 74.0509C142.16 74.2322 141.564 74.3556 141.346 74.1034C141.154 73.881 140.503 73.2906 140.192 72.8973Z" fill="#F4A072"/>
<path fill-rule="evenodd" clip-rule="evenodd" d="M140.572 72.5726C140.738 72.4463 140.92 72.3205 141.103 72.1991C141.686 71.9906 142.778 71.7162 143.039 71.6513C143.039 71.7974 142.995 71.9559 142.894 72.0966C142.894 72.0966 143.062 72.5845 142.471 73.0224C142.442 73.0442 142.415 73.066 142.392 73.0892H142.391L142.389 73.0917C142.359 73.1195 142.334 73.1487 142.311 73.1774C142.174 73.3414 141.893 73.7252 141.775 74.2458C141.6 74.2498 141.439 74.2107 141.346 74.1037C141.185 73.9164 140.7 73.4701 140.364 73.0991C140.413 72.9154 140.479 72.7252 140.572 72.5726Z" fill="#F4A072"/>
<path fill-rule="evenodd" clip-rule="evenodd" d="M135.442 48.5371H181.433C184.004 48.5371 186.108 50.6402 186.108 53.2115V73.4179C186.108 75.9881 184.004 78.0918 181.433 78.0918H135.442C132.871 78.0918 130.768 75.9881 130.768 73.4179V53.2115C130.768 50.6402 132.871 48.5371 135.442 48.5371Z" fill="#F7BC0A"/>
<path fill-rule="evenodd" clip-rule="evenodd" d="M181.433 50.6893H135.441C134.748 50.6893 134.117 50.9731 133.66 51.4308C133.203 51.888 132.919 52.5186 132.919 53.212V73.4184C132.919 74.1114 133.203 74.7429 133.66 75.1996C134.116 75.6568 134.748 75.9406 135.441 75.9406H181.433C182.126 75.9406 182.757 75.6563 183.214 75.1991C183.671 74.7424 183.956 74.1114 183.956 73.4184V53.212C183.956 52.5176 183.671 51.887 183.215 51.4308L183.214 51.4293C182.757 50.9727 182.126 50.6893 181.433 50.6893ZM135.441 50.1197H181.433C182.282 50.1197 183.055 50.4674 183.616 51.0276L183.617 51.0291C184.178 51.5898 184.525 52.363 184.525 53.212V73.4184C184.525 74.2684 184.177 75.0421 183.617 75.6023C183.057 76.163 182.284 76.5107 181.433 76.5107H135.441C134.591 76.5107 133.818 76.163 133.258 75.6023L133.257 75.6013C132.697 75.0411 132.349 74.2684 132.349 73.4184V53.212C132.349 52.3615 132.697 51.5878 133.257 51.0276C133.817 50.4674 134.59 50.1197 135.441 50.1197Z" fill="white"/>
<path d="M142.932 68.4304H140.568V59.3162L137.745 60.1916V58.269L142.679 56.5018H142.932V68.4304Z" fill="white"/>
<path d="M147.162 62.5724L147.849 56.5181H154.525V58.4899H149.788L149.494 61.0507C150.056 60.7507 150.653 60.6007 151.285 60.6007C152.42 60.6007 153.309 60.9525 153.953 61.6561C154.596 62.3597 154.918 63.3442 154.918 64.6096C154.918 65.3787 154.754 66.0686 154.427 66.6795C154.105 67.285 153.642 67.7568 153.036 68.0949C152.431 68.4276 151.716 68.594 150.893 68.594C150.173 68.594 149.505 68.4495 148.888 68.1604C148.272 67.8659 147.784 67.454 147.424 66.925C147.069 66.3959 146.881 65.7932 146.859 65.1169H149.199C149.248 65.6132 149.42 66.0005 149.715 66.2786C150.015 66.5514 150.405 66.6877 150.885 66.6877C151.419 66.6877 151.831 66.4968 152.12 66.115C152.409 65.7278 152.554 65.1823 152.554 64.4787C152.554 63.8024 152.387 63.2842 152.055 62.9242C151.722 62.5642 151.25 62.3843 150.639 62.3843C150.077 62.3843 149.622 62.5315 149.273 62.8261L149.044 63.0388L147.162 62.5724Z" fill="white"/>
<path d="M156.653 67.2686C156.653 66.8923 156.778 66.5868 157.029 66.3523C157.285 66.1177 157.604 66.0005 157.986 66.0005C158.373 66.0005 158.692 66.1177 158.943 66.3523C159.2 66.5868 159.328 66.8923 159.328 67.2686C159.328 67.6395 159.202 67.9422 158.952 68.1767C158.701 68.4058 158.379 68.5204 157.986 68.5204C157.599 68.5204 157.28 68.4058 157.029 68.1767C156.778 67.9422 156.653 67.6395 156.653 67.2686Z" fill="white"/>
<path d="M169.326 63.5051C169.326 65.1523 168.985 66.4123 168.303 67.285C167.621 68.1577 166.623 68.594 165.309 68.594C164.01 68.594 163.018 68.1658 162.33 67.3095C161.643 66.4532 161.291 65.226 161.275 63.6278V61.4352C161.275 59.7716 161.619 58.509 162.306 57.6472C162.999 56.7854 163.994 56.3545 165.292 56.3545C166.59 56.3545 167.583 56.7827 168.27 57.639C168.958 58.4899 169.309 59.7144 169.326 61.3125V63.5051ZM166.961 61.0998C166.961 60.1125 166.825 59.3953 166.552 58.948C166.285 58.4953 165.865 58.269 165.292 58.269C164.736 58.269 164.324 58.4844 164.057 58.9153C163.795 59.3407 163.656 60.0089 163.64 60.9198V63.816C163.64 64.7869 163.77 65.5096 164.032 65.9841C164.3 66.4532 164.725 66.6877 165.309 66.6877C165.887 66.6877 166.304 66.4614 166.56 66.0087C166.817 65.5559 166.95 64.8632 166.961 63.9306V61.0998Z" fill="white"/>
<path d="M178.947 63.5051C178.947 65.1523 178.606 66.4123 177.924 67.285C177.243 68.1577 176.244 68.594 174.93 68.594C173.632 68.594 172.639 68.1658 171.952 67.3095C171.265 66.4532 170.913 65.226 170.897 63.6278V61.4352C170.897 59.7716 171.24 58.509 171.927 57.6472C172.62 56.7854 173.615 56.3545 174.914 56.3545C176.212 56.3545 177.204 56.7827 177.892 57.639C178.579 58.4899 178.931 59.7144 178.947 61.3125V63.5051ZM176.583 61.0998C176.583 60.1125 176.446 59.3953 176.174 58.948C175.906 58.4953 175.486 58.269 174.914 58.269C174.357 58.269 173.945 58.4844 173.678 58.9153C173.416 59.3407 173.277 60.0089 173.261 60.9198V63.816C173.261 64.7869 173.392 65.5096 173.654 65.9841C173.921 66.4532 174.346 66.6877 174.93 66.6877C175.508 66.6877 175.925 66.4614 176.182 66.0087C176.438 65.5559 176.572 64.8632 176.583 63.9306V61.0998Z" fill="white"/>
<path fill-rule="evenodd" clip-rule="evenodd" d="M143.056 78.9073C143.116 78.7864 143.086 78.8156 143.242 78.5908C143.399 78.3659 143.761 77.4921 144.286 76.921C144.92 76.2305 143.928 76.2236 143.843 76.3127C143.583 76.5872 142.965 77.078 142.744 77.2474C141.562 77.4921 139.153 77.3668 139.533 78.3233C139.692 78.7225 140.834 80.9238 143.056 78.9073Z" fill="#F4A072"/>
<path fill-rule="evenodd" clip-rule="evenodd" d="M143.055 78.9072L143.068 78.8815L143.046 78.896L143.055 78.9072Z" fill="#ED6055"/>
</svg>
