<svg width="205" height="211" viewBox="0 0 205 211" fill="none" xmlns="http://www.w3.org/2000/svg">
<path d="M74.8768 93.7598L84.7089 88.0831L74.8768 82.4071L65.044 88.0831L55.2119 93.7598L65.044 99.4366L74.8768 105.113L84.7089 99.4366L74.8768 93.7598Z" fill="#D9EFFB"/>
<path d="M74.877 79.6201V37.9908L84.7091 32.3148V73.9434L74.877 79.6201Z" fill="#263C7A"/>
<path d="M74.8767 37.9908L65.0439 32.3148V73.9434L74.8767 79.6201V37.9908Z" fill="#4067B1"/>
<path d="M84.7088 32.3142L74.8767 26.6368L65.0439 32.3142L74.8767 37.9902L84.7088 32.3142Z" fill="#D9EFFB"/>
<path d="M84.7091 81.5124L74.877 75.8357V79.6195L84.7091 85.2969V81.5124Z" fill="#8CD147"/>
<path d="M65.0439 85.2969V55.0204L74.8767 49.3436V79.6195L65.0439 85.2969Z" fill="#C23222"/>
<path d="M65.044 55.0204L55.2119 49.3436V79.6195L65.044 85.2969V55.0204Z" fill="#DC4220"/>
<path d="M74.8768 49.3428L65.044 43.6668L55.2119 49.3428L65.044 55.0195L74.8768 49.3428Z" fill="#EF4B26"/>
<path d="M65.0439 85.2969V55.0204L74.8767 49.3436V79.6195L65.0439 85.2969Z" fill="#4067B1"/>
<path d="M65.044 55.0204L55.2119 49.3436V79.6195L65.044 85.2969V55.0204Z" fill="#5F92D3"/>
<path d="M74.8768 49.3428L65.044 43.6668L55.2119 49.3428L65.044 55.0195L74.8768 49.3428Z" fill="#D9EFFB"/>
<path d="M74.877 90.9727V73.9425L84.7091 68.2664V85.2966L74.877 90.9727Z" fill="#263C7A"/>
<path d="M74.8767 73.9425L65.0439 68.2664V85.2966L74.8767 90.9727V73.9425Z" fill="#4067B1"/>
<path d="M84.7088 68.2673L74.8767 62.5899L65.0439 68.2673L74.8767 73.9434L84.7088 68.2673Z" fill="#D9EFFB"/>
<path d="M200.566 113.939L200.273 112.798L203.589 111.949L203.881 113.091L200.566 113.939Z" fill="#5F92D3"/>
<path d="M198.875 115.589L198.582 114.447L201.897 113.598L202.189 114.739L198.875 115.589Z" fill="#5F92D3"/>
<path d="M197.184 117.238L196.892 116.097L200.206 115.248L200.499 116.389L197.184 117.238Z" fill="#5F92D3"/>
<path d="M195.492 118.888L195.2 117.747L198.515 116.897L198.808 118.038L195.492 118.888Z" fill="#5F92D3"/>
<path d="M116.175 196.956L41.9194 154.084C39.8185 152.871 40.0817 150.753 42.5078 149.353L93.0705 120.169C95.4959 118.769 99.1653 118.617 101.266 119.829L175.521 162.702C177.622 163.914 177.359 166.033 174.933 167.433L124.371 196.616C121.945 198.017 118.275 198.168 116.175 196.956Z" fill="#D9EFFB"/>
<path d="M178.269 78.3689L102.787 34.8259C101.816 34.2651 100.922 34.1783 100.204 34.4778L100.206 34.4698L100.083 34.527L100.053 34.5411L97.5957 35.6976L100.263 37.0257L100.258 37.1725L100.281 99.1688C100.282 102.271 102.201 105.893 104.57 107.259L178.038 149.641L178.456 153.099L181.138 151.819C182.022 151.299 182.582 150.126 182.581 148.455L182.557 86.4589C182.556 83.3563 180.636 79.7341 178.269 78.3689Z" fill="#263C7A"/>
<path d="M178.269 78.3685L102.787 34.8254C101.816 34.2647 100.922 34.1778 100.204 34.4774L100.206 34.4693L100.083 34.5265L100.053 34.5406L97.5957 35.6971L100.263 37.0253L100.258 37.172L100.273 78.0319L134.624 105.173L181.266 81.6999C180.492 80.2634 179.436 79.041 178.269 78.3685Z" fill="#4067B1"/>
<path d="M179.53 79.3447L172.133 82.4567L177.718 86.7588L182.382 84.7737C181.976 82.7353 180.901 80.6869 179.53 79.3447Z" fill="#2E4B8D"/>
<path d="M175.812 152.772L100.33 109.229C97.9626 107.863 96.0428 104.241 96.0414 101.139L96.0186 39.1423C96.0172 36.0404 97.935 34.6321 100.303 35.9973L175.784 79.5404C178.152 80.9062 180.072 84.5284 180.073 87.6303L180.096 149.627C180.097 152.729 178.179 154.137 175.812 152.772Z" fill="#D9EFFB"/>
<path d="M173.3 148.16L102.804 107.514C100.638 106.264 98.8813 102.949 98.8799 100.11L98.8584 43.3787C98.8577 40.5393 100.613 39.2509 102.78 40.501L173.275 81.1481C175.442 82.3975 177.199 85.7121 177.2 88.5515L177.221 145.282C177.222 148.122 175.466 149.41 173.3 148.16Z" fill="white"/>
<path d="M173.3 148.16L102.804 107.514C100.638 106.264 98.8813 102.949 98.8799 100.11L98.8584 43.3787C98.8577 40.5393 100.613 39.2509 102.78 40.501L173.275 81.1481C175.442 82.3975 177.199 85.7121 177.2 88.5515L177.221 145.282C177.222 148.122 175.466 149.41 173.3 148.16Z" fill="white"/>
<path d="M176.938 154.696L166.789 153.356L101.266 115.527C99.1654 114.314 95.496 114.466 93.0706 115.866L46.6417 142.662L40.5039 141.852V145.334L40.5106 145.335C40.4696 146.14 40.928 146.914 41.9196 147.486L116.175 190.358C118.276 191.571 121.945 191.419 124.371 190.019L174.933 160.835C176.298 160.048 176.978 159.033 176.938 158.08V154.696Z" fill="#263C7A"/>
<path d="M127.707 130.791L123.052 128.104H71.873L46.6417 142.661L40.5039 141.85V145.333L40.5106 145.334C40.4696 146.138 40.928 146.913 41.9196 147.484L116.175 190.356C117.285 190.997 118.834 191.254 120.405 191.149L127.707 130.791Z" fill="#4067B1"/>
<path d="M43.2282 142.211L40.5039 141.852V145.335L40.5106 145.336C40.4696 146.14 40.928 146.915 41.9196 147.486L43.2282 148.242V142.211Z" fill="#5F92D3"/>
<path d="M116.923 190.706C118.914 191.461 121.761 191.296 123.887 190.273V182.506H116.923V190.706Z" fill="#2E4B8D"/>
<path d="M116.175 186.879L41.9194 144.007C39.8185 142.795 40.0817 140.677 42.5078 139.276L93.0705 110.094C95.4959 108.692 99.1653 108.541 101.266 109.754L175.521 152.625C177.622 153.838 177.359 155.957 174.933 157.357L124.371 186.54C121.945 187.94 118.275 188.092 116.175 186.879Z" fill="#D9EFFB"/>
<path d="M174.934 156.085L124.372 185.267C121.946 186.668 118.277 186.82 116.176 185.607L41.9205 142.736C41.2312 142.338 40.8018 141.843 40.6146 141.307C40.2861 142.301 40.7048 143.305 41.9205 144.007L116.176 186.879C118.277 188.092 121.946 187.94 124.372 186.54L174.934 157.357C176.564 156.416 177.213 155.151 176.829 154.054C176.589 154.777 175.957 155.495 174.934 156.085Z" fill="white"/>
<path d="M73.5024 129.816L70.142 127.876C69.8721 127.72 69.9064 127.448 70.2181 127.268L74.183 124.979C74.4946 124.799 74.9658 124.779 75.2358 124.935L78.5955 126.875C78.8648 127.031 78.8318 127.303 78.5201 127.483L74.5545 129.772C74.2429 129.952 73.7716 129.971 73.5024 129.816Z" fill="#263C7A"/>
<path d="M78.6913 132.81L75.3309 130.871C75.0617 130.714 75.096 130.442 75.407 130.262L79.3726 127.973C79.6842 127.793 80.1554 127.773 80.4254 127.929L83.7851 129.869C84.0544 130.025 84.0214 130.297 83.7097 130.477L79.7435 132.766C79.4318 132.947 78.9613 132.965 78.6913 132.81Z" fill="#263C7A"/>
<path d="M83.8791 135.806L80.5187 133.867C80.2494 133.71 80.2831 133.438 80.5947 133.259L84.5603 130.969C84.872 130.79 85.3425 130.769 85.6131 130.926L88.9728 132.866C89.2421 133.021 89.2091 133.292 88.8975 133.473L84.9312 135.762C84.6195 135.943 84.1483 135.961 83.8791 135.806Z" fill="#263C7A"/>
<path d="M91.0547 133.332L87.695 131.391C87.4251 131.236 87.4587 130.964 87.7704 130.784L91.0992 128.862C91.4108 128.683 91.882 128.663 92.152 128.819L95.5117 130.759C95.781 130.914 95.7473 131.185 95.4363 131.366L92.1069 133.288C91.7952 133.467 91.3247 133.487 91.0547 133.332Z" fill="#263C7A"/>
<path d="M96.2442 136.327L92.8845 134.387C92.6145 134.232 92.6482 133.96 92.9599 133.78L96.2886 131.858C96.6003 131.679 97.0715 131.659 97.3414 131.814L100.701 133.755C100.97 133.909 100.937 134.182 100.626 134.362L97.2963 136.284C96.9846 136.463 96.5134 136.484 96.2442 136.327Z" fill="#263C7A"/>
<path d="M101.432 139.324L98.0722 137.385C97.8016 137.229 97.836 136.957 98.1476 136.777L101.476 134.855C101.788 134.675 102.259 134.656 102.529 134.811L105.889 136.751C106.158 136.907 106.125 137.179 105.814 137.359L102.484 139.28C102.172 139.461 101.701 139.48 101.432 139.324Z" fill="#263C7A"/>
<path d="M106.62 142.32L103.261 140.38C102.99 140.224 103.025 139.952 103.336 139.772L106.664 137.85C106.976 137.67 107.447 137.651 107.717 137.806L111.077 139.746C111.347 139.902 111.312 140.174 111.001 140.354L107.672 142.275C107.361 142.456 106.89 142.475 106.62 142.32Z" fill="#263C7A"/>
<path d="M111.81 145.314L108.45 143.374C108.18 143.218 108.214 142.946 108.525 142.766L111.854 140.845C112.166 140.665 112.637 140.645 112.907 140.801L116.267 142.741C116.536 142.896 116.502 143.168 116.191 143.348L112.862 145.27C112.55 145.45 112.079 145.469 111.81 145.314Z" fill="#263C7A"/>
<path d="M116.998 148.31L113.638 146.37C113.368 146.215 113.402 145.942 113.714 145.763L117.043 143.841C117.354 143.661 117.825 143.641 118.095 143.797L121.455 145.737C121.724 145.892 121.691 146.164 121.38 146.344L118.05 148.267C117.739 148.446 117.267 148.465 116.998 148.31Z" fill="#263C7A"/>
<path d="M122.186 151.305L118.826 149.365C118.556 149.21 118.59 148.938 118.902 148.757L122.23 146.836C122.542 146.656 123.012 146.636 123.283 146.792L126.643 148.732C126.912 148.887 126.878 149.16 126.567 149.339L123.238 151.262C122.926 151.441 122.455 151.461 122.186 151.305Z" fill="#263C7A"/>
<path d="M127.375 154.301L124.015 152.361C123.745 152.206 123.78 151.934 124.09 151.754L127.419 149.832C127.731 149.652 128.202 149.632 128.472 149.788L131.832 151.728C132.102 151.884 132.068 152.156 131.756 152.335L128.427 154.258C128.116 154.437 127.645 154.457 127.375 154.301Z" fill="#263C7A"/>
<path d="M132.564 157.297L129.204 155.357C128.934 155.201 128.968 154.93 129.279 154.749L132.608 152.828C132.92 152.648 133.391 152.628 133.661 152.784L137.02 154.724C137.29 154.88 137.257 155.151 136.945 155.332L133.616 157.254C133.304 157.433 132.833 157.453 132.564 157.297Z" fill="#263C7A"/>
<path d="M137.752 160.292L134.392 158.352C134.122 158.195 134.156 157.923 134.468 157.744L137.796 155.822C138.108 155.643 138.579 155.623 138.849 155.779L142.209 157.719C142.478 157.874 142.445 158.146 142.134 158.326L138.804 160.248C138.492 160.428 138.021 160.447 137.752 160.292Z" fill="#263C7A"/>
<path d="M98.7002 131.914L95.3405 129.974C95.0706 129.817 95.1042 129.546 95.4159 129.366L98.7453 127.444C99.0563 127.264 99.5276 127.245 99.7975 127.399L103.157 129.34C103.427 129.496 103.393 129.768 103.082 129.948L99.753 131.869C99.4414 132.05 98.9702 132.069 98.7002 131.914Z" fill="#4067B1"/>
<path d="M93.4336 128.873L90.0739 126.933C89.804 126.777 89.8376 126.504 90.1493 126.325L93.4781 124.403C93.7897 124.223 94.261 124.204 94.5309 124.36L97.8906 126.299C98.1599 126.455 98.1269 126.727 97.8152 126.907L94.4858 128.829C94.1748 129.009 93.7029 129.028 93.4336 128.873Z" fill="#4067B1"/>
<path d="M88.159 125.828L80.9233 121.65C80.654 121.495 80.687 121.223 80.9987 121.043L84.3281 119.121C84.6391 118.941 85.111 118.922 85.3802 119.077L92.616 123.255C92.8859 123.411 92.8523 123.683 92.5406 123.863L89.2112 125.785C88.9008 125.965 88.4289 125.984 88.159 125.828Z" fill="#263C7A"/>
<path d="M91.8466 122.126L85.974 118.734C85.7048 118.579 85.7378 118.307 86.0494 118.127L89.3789 116.205C89.6899 116.025 90.1617 116.006 90.431 116.161L96.3036 119.551C96.5729 119.708 96.5392 119.98 96.2275 120.16L92.8988 122.081C92.5871 122.262 92.1159 122.281 91.8466 122.126Z" fill="#263C7A"/>
<path d="M103.888 134.91L100.528 132.97C100.259 132.814 100.293 132.542 100.604 132.362L103.933 130.44C104.244 130.261 104.716 130.24 104.985 130.397L108.345 132.336C108.616 132.492 108.581 132.764 108.27 132.944L104.941 134.866C104.63 135.046 104.159 135.065 103.888 134.91Z" fill="#4067B1"/>
<path d="M109.077 137.906L105.717 135.966C105.448 135.811 105.481 135.538 105.793 135.358L109.122 133.436C109.434 133.257 109.905 133.236 110.174 133.393L113.534 135.333C113.804 135.488 113.77 135.76 113.458 135.94L110.13 137.862C109.818 138.042 109.347 138.061 109.077 137.906Z" fill="#263C7A"/>
<path d="M114.265 140.901L110.906 138.961C110.636 138.806 110.669 138.534 110.981 138.353L114.311 136.431C114.622 136.252 115.093 136.232 115.363 136.388L118.722 138.328C118.992 138.483 118.959 138.756 118.647 138.935L115.318 140.857C115.007 141.037 114.535 141.057 114.265 140.901Z" fill="#263C7A"/>
<path d="M119.454 143.896L116.094 141.956C115.825 141.8 115.858 141.529 116.17 141.348L119.499 139.427C119.811 139.247 120.281 139.227 120.551 139.383L123.911 141.323C124.181 141.479 124.147 141.751 123.836 141.93L120.507 143.853C120.195 144.032 119.724 144.052 119.454 143.896Z" fill="#263C7A"/>
<path d="M124.642 146.892L121.282 144.952C121.013 144.796 121.047 144.525 121.358 144.344L124.687 142.422C124.999 142.243 125.47 142.223 125.739 142.379L129.099 144.319C129.37 144.475 129.335 144.746 129.024 144.926L125.695 146.848C125.383 147.028 124.913 147.048 124.642 146.892Z" fill="#263C7A"/>
<path d="M129.831 149.887L126.471 147.947C126.202 147.791 126.235 147.519 126.547 147.34L129.876 145.417C130.188 145.238 130.659 145.218 130.928 145.374L134.288 147.314C134.558 147.469 134.524 147.741 134.212 147.922L130.884 149.843C130.572 150.023 130.101 150.043 129.831 149.887Z" fill="#263C7A"/>
<path d="M135.019 152.884L131.66 150.944C131.39 150.789 131.423 150.516 131.735 150.337L135.064 148.415C135.376 148.235 135.847 148.215 136.117 148.371L139.476 150.311C139.746 150.466 139.713 150.738 139.401 150.919L136.072 152.841C135.76 153.02 135.289 153.04 135.019 152.884Z" fill="#263C7A"/>
<path d="M140.208 155.878L136.848 153.938C136.578 153.783 136.612 153.511 136.924 153.331L140.253 151.408C140.565 151.229 141.035 151.21 141.305 151.365L144.665 153.305C144.935 153.46 144.901 153.733 144.59 153.913L141.261 155.834C140.949 156.014 140.478 156.034 140.208 155.878Z" fill="#263C7A"/>
<path d="M145.396 158.874L142.036 156.934C141.767 156.778 141.801 156.506 142.112 156.326L145.441 154.404C145.753 154.224 146.224 154.205 146.493 154.36L149.853 156.3C150.124 156.456 150.089 156.728 149.778 156.907L146.449 158.83C146.137 159.01 145.667 159.029 145.396 158.874Z" fill="#263C7A"/>
<path d="M154.62 164.2L147.29 159.967C147.02 159.812 147.053 159.541 147.365 159.36L150.694 157.438C151.006 157.259 151.477 157.239 151.747 157.395L159.078 161.627C159.347 161.783 159.314 162.055 159.002 162.235L155.673 164.156C155.362 164.337 154.89 164.356 154.62 164.2Z" fill="#263C7A"/>
<path d="M164.722 158.368L158.535 154.796C158.265 154.64 158.299 154.368 158.61 154.188L161.94 152.267C162.251 152.086 162.722 152.067 162.992 152.223L169.179 155.795C169.449 155.951 169.415 156.223 169.103 156.403L165.775 158.325C165.463 158.505 164.992 158.524 164.722 158.368Z" fill="#263C7A"/>
<path d="M112.974 134.324L109.615 132.384C109.345 132.228 109.378 131.956 109.69 131.776L113.019 129.854C113.331 129.674 113.802 129.655 114.072 129.811L117.431 131.75C117.702 131.906 117.668 132.178 117.356 132.358L114.027 134.28C113.716 134.46 113.245 134.479 112.974 134.324Z" fill="#263C7A"/>
<path d="M107.657 131.253L104.298 129.313C104.028 129.158 104.061 128.886 104.373 128.706L107.702 126.783C108.013 126.604 108.485 126.585 108.755 126.74L112.114 128.68C112.384 128.835 112.351 129.108 112.039 129.288L108.709 131.209C108.398 131.389 107.927 131.409 107.657 131.253Z" fill="#263C7A"/>
<path d="M102.339 128.183L98.9796 126.244C98.7103 126.087 98.744 125.815 99.0557 125.635L102.384 123.714C102.696 123.533 103.167 123.514 103.437 123.669L106.797 125.609C107.066 125.766 107.033 126.038 106.721 126.217L103.392 128.139C103.08 128.32 102.609 128.338 102.339 128.183Z" fill="#4067B1"/>
<path d="M97.0225 125.112L93.6628 123.172C93.3928 123.017 93.4265 122.744 93.7382 122.565L97.0669 120.642C97.3786 120.463 97.8498 120.443 98.1198 120.599L101.479 122.539C101.749 122.694 101.716 122.967 101.404 123.146L98.0746 125.069C97.7637 125.248 97.2918 125.267 97.0225 125.112Z" fill="#263C7A"/>
<path d="M118.163 137.319L114.803 135.379C114.534 135.223 114.567 134.951 114.879 134.772L118.208 132.849C118.52 132.669 118.991 132.65 119.26 132.806L122.62 134.745C122.89 134.901 122.856 135.173 122.544 135.353L119.216 137.275C118.904 137.455 118.433 137.474 118.163 137.319Z" fill="#263C7A"/>
<path d="M123.352 140.316L119.993 138.376C119.723 138.22 119.756 137.948 120.068 137.769L123.397 135.846C123.709 135.666 124.18 135.647 124.45 135.803L127.809 137.742C128.079 137.898 128.046 138.171 127.734 138.35L124.405 140.272C124.093 140.452 123.622 140.471 123.352 140.316Z" fill="#263C7A"/>
<path d="M128.54 143.31L125.181 141.37C124.911 141.215 124.945 140.943 125.257 140.762L128.586 138.841C128.897 138.661 129.368 138.641 129.638 138.797L132.997 140.737C133.268 140.892 133.234 141.165 132.923 141.344L129.593 143.266C129.282 143.446 128.811 143.466 128.54 143.31Z" fill="#263C7A"/>
<path d="M133.728 146.305L130.368 144.367C130.099 144.211 130.133 143.939 130.444 143.758L133.773 141.837C134.085 141.657 134.556 141.637 134.825 141.793L138.185 143.733C138.456 143.889 138.421 144.161 138.11 144.34L134.781 146.262C134.469 146.443 133.999 146.462 133.728 146.305Z" fill="#263C7A"/>
<path d="M138.918 149.301L135.558 147.362C135.289 147.206 135.322 146.934 135.633 146.753L138.963 144.832C139.274 144.652 139.745 144.632 140.015 144.788L143.374 146.728C143.644 146.884 143.611 147.156 143.299 147.335L139.97 149.257C139.659 149.438 139.187 149.457 138.918 149.301Z" fill="#263C7A"/>
<path d="M144.106 152.296L140.747 150.356C140.477 150.202 140.511 149.929 140.822 149.749L144.151 147.827C144.463 147.648 144.934 147.627 145.204 147.784L148.563 149.724C148.833 149.879 148.8 150.151 148.488 150.331L145.159 152.253C144.847 152.432 144.376 152.452 144.106 152.296Z" fill="#263C7A"/>
<path d="M149.294 155.293L145.935 153.353C145.665 153.198 145.699 152.926 146.01 152.746L149.34 150.824C149.651 150.645 150.122 150.624 150.392 150.781L153.751 152.721C154.022 152.876 153.987 153.148 153.676 153.328L150.347 155.25C150.036 155.429 149.565 155.449 149.294 155.293Z" fill="#263C7A"/>
<path d="M154.482 158.287L151.122 156.347C150.853 156.192 150.887 155.92 151.198 155.74L154.527 153.818C154.839 153.638 155.31 153.619 155.579 153.774L158.939 155.714C159.21 155.869 159.175 156.142 158.864 156.322L155.535 158.244C155.223 158.423 154.753 158.443 154.482 158.287Z" fill="#263C7A"/>
<path d="M159.671 161.283L156.312 159.344C156.042 159.188 156.076 158.916 156.387 158.736L159.717 156.814C160.028 156.634 160.499 156.615 160.769 156.77L164.128 158.71C164.398 158.866 164.365 159.138 164.053 159.318L160.724 161.239C160.413 161.42 159.941 161.439 159.671 161.283Z" fill="#263C7A"/>
<path d="M110.243 126.915L106.883 124.975C106.614 124.819 106.647 124.546 106.959 124.367L110.288 122.445C110.599 122.265 111.071 122.246 111.341 122.402L114.7 124.341C114.97 124.497 114.936 124.769 114.624 124.949L111.295 126.87C110.984 127.051 110.513 127.07 110.243 126.915Z" fill="#263C7A"/>
<path d="M105.08 123.933L101.72 121.993C101.451 121.838 101.484 121.565 101.796 121.385L105.125 119.463C105.436 119.284 105.907 119.264 106.177 119.42L109.537 121.36C109.806 121.515 109.773 121.788 109.461 121.967L106.132 123.889C105.821 124.069 105.349 124.089 105.08 123.933Z" fill="#263C7A"/>
<path d="M99.917 120.953L96.5573 119.014C96.2874 118.858 96.321 118.586 96.6327 118.406L99.9615 116.485C100.273 116.304 100.744 116.285 101.014 116.44L104.374 118.38C104.644 118.536 104.61 118.808 104.299 118.987L100.969 120.91C100.658 121.09 100.187 121.109 99.917 120.953Z" fill="#263C7A"/>
<path d="M94.7549 117.972L91.3952 116.032C91.1253 115.876 91.1589 115.605 91.4706 115.424L94.7994 113.502C95.111 113.323 95.5822 113.303 95.8522 113.459L99.2119 115.399C99.4812 115.555 99.4482 115.826 99.1365 116.007L95.8071 117.928C95.4954 118.108 95.0242 118.128 94.7549 117.972Z" fill="#263C7A"/>
<path d="M100.064 114.907L96.7035 112.967C96.4336 112.811 96.4679 112.539 96.7796 112.36L97.8795 111.723C98.1912 111.544 98.6624 111.524 98.9323 111.68L102.292 113.62C102.561 113.775 102.528 114.048 102.217 114.228L101.116 114.862C100.804 115.043 100.333 115.062 100.064 114.907Z" fill="#263C7A"/>
<path d="M106.8 118.796L103.44 116.856C103.171 116.701 103.205 116.429 103.516 116.249L104.616 115.613C104.928 115.434 105.399 115.414 105.669 115.57L109.029 117.51C109.299 117.665 109.265 117.937 108.954 118.117L107.853 118.752C107.541 118.932 107.071 118.952 106.8 118.796Z" fill="#263C7A"/>
<path d="M111.941 121.765L108.582 119.825C108.312 119.669 108.345 119.398 108.657 119.217L109.758 118.582C110.069 118.402 110.541 118.383 110.81 118.538L114.17 120.478C114.44 120.634 114.406 120.906 114.094 121.086L112.994 121.722C112.683 121.901 112.211 121.921 111.941 121.765Z" fill="#263C7A"/>
<path d="M117.084 124.733L113.724 122.793C113.454 122.637 113.488 122.365 113.8 122.185L114.9 121.55C115.212 121.37 115.683 121.35 115.952 121.506L119.312 123.446C119.582 123.602 119.548 123.874 119.237 124.054L118.136 124.689C117.825 124.869 117.353 124.888 117.084 124.733Z" fill="#263C7A"/>
<path d="M122.224 127.702L118.865 125.762C118.595 125.606 118.629 125.334 118.941 125.155L120.041 124.518C120.352 124.339 120.823 124.319 121.093 124.475L124.453 126.415C124.722 126.57 124.689 126.842 124.378 127.023L123.277 127.657C122.966 127.838 122.494 127.857 122.224 127.702Z" fill="#263C7A"/>
<path d="M150.927 144.273L147.567 142.333C147.297 142.177 147.331 141.905 147.642 141.726L148.743 141.09C149.055 140.911 149.525 140.891 149.795 141.047L153.156 142.987C153.425 143.142 153.391 143.415 153.08 143.594L151.98 144.229C151.668 144.409 151.197 144.428 150.927 144.273Z" fill="#263C7A"/>
<path d="M156.068 147.241L152.709 145.302C152.438 145.146 152.473 144.874 152.784 144.694L153.885 144.059C154.196 143.879 154.667 143.859 154.937 144.015L158.296 145.955C158.567 146.11 158.532 146.383 158.221 146.562L157.12 147.198C156.809 147.378 156.338 147.397 156.068 147.241Z" fill="#263C7A"/>
<path d="M161.209 150.209L157.849 148.269C157.579 148.114 157.613 147.842 157.925 147.662L159.025 147.027C159.336 146.846 159.808 146.827 160.078 146.983L163.437 148.922C163.707 149.078 163.674 149.35 163.362 149.53L162.261 150.165C161.95 150.345 161.479 150.365 161.209 150.209Z" fill="#263C7A"/>
<path d="M166.35 153.178L162.991 151.238C162.721 151.082 162.754 150.81 163.066 150.63L164.167 149.995C164.478 149.815 164.95 149.796 165.219 149.951L168.579 151.891C168.848 152.047 168.815 152.319 168.503 152.499L167.403 153.135C167.092 153.314 166.62 153.334 166.35 153.178Z" fill="#263C7A"/>
<path d="M115.431 129.91L112.07 127.97C111.801 127.814 111.835 127.542 112.146 127.362L115.475 125.44C115.787 125.26 116.258 125.241 116.528 125.396L119.888 127.336C120.157 127.492 120.123 127.764 119.812 127.944L116.483 129.866C116.171 130.046 115.7 130.065 115.431 129.91Z" fill="#263C7A"/>
<path d="M120.621 132.906L117.26 130.966C116.99 130.81 117.025 130.538 117.336 130.358L120.665 128.437C120.977 128.256 121.447 128.237 121.718 128.392L125.078 130.332C125.347 130.488 125.313 130.76 125.001 130.94L121.673 132.862C121.361 133.042 120.89 133.061 120.621 132.906Z" fill="#263C7A"/>
<path d="M125.808 135.901L122.449 133.962C122.179 133.806 122.213 133.534 122.525 133.354L125.853 131.433C126.164 131.252 126.636 131.233 126.906 131.388L130.265 133.328C130.535 133.484 130.501 133.756 130.189 133.935L126.86 135.858C126.549 136.038 126.078 136.057 125.808 135.901Z" fill="#263C7A"/>
<path d="M130.997 138.897L127.637 136.957C127.368 136.801 127.401 136.529 127.713 136.349L131.042 134.427C131.353 134.247 131.825 134.228 132.094 134.384L135.454 136.323C135.724 136.479 135.69 136.751 135.378 136.931L132.049 138.853C131.738 139.033 131.267 139.052 130.997 138.897Z" fill="#263C7A"/>
<path d="M136.186 141.892L132.826 139.952C132.556 139.797 132.59 139.525 132.901 139.345L136.23 137.422C136.542 137.243 137.013 137.223 137.283 137.379L140.643 139.319C140.912 139.475 140.878 139.747 140.567 139.927L137.238 141.848C136.926 142.028 136.455 142.048 136.186 141.892Z" fill="#263C7A"/>
<path d="M141.374 144.888L138.015 142.948C137.744 142.793 137.778 142.521 138.09 142.341L141.419 140.418C141.73 140.239 142.201 140.219 142.472 140.375L145.831 142.315C146.101 142.471 146.067 142.743 145.756 142.923L142.426 144.845C142.115 145.024 141.644 145.044 141.374 144.888Z" fill="#263C7A"/>
<path d="M146.562 147.883L143.203 145.943C142.932 145.787 142.967 145.516 143.278 145.336L146.607 143.414C146.918 143.234 147.389 143.215 147.66 143.37L151.019 145.31C151.289 145.465 151.255 145.738 150.944 145.917L147.614 147.84C147.303 148.019 146.832 148.039 146.562 147.883Z" fill="#263C7A"/>
<path d="M151.751 150.88L148.391 148.941C148.121 148.784 148.155 148.512 148.467 148.333L151.795 146.411C152.107 146.23 152.578 146.212 152.848 146.367L156.208 148.306C156.478 148.463 156.444 148.735 156.133 148.914L152.803 150.836C152.491 151.017 152.021 151.036 151.751 150.88Z" fill="#263C7A"/>
<path d="M156.94 153.875L153.58 151.935C153.31 151.778 153.344 151.506 153.655 151.327L156.984 149.405C157.296 149.224 157.767 149.206 158.037 149.361L161.396 151.3C161.666 151.457 161.632 151.729 161.321 151.909L157.992 153.83C157.68 154.011 157.209 154.03 156.94 153.875Z" fill="#263C7A"/>
<path d="M85.7675 130.279L75.8727 124.566C75.6028 124.41 75.6365 124.138 75.9481 123.959L79.2776 122.037C79.5892 121.856 80.0598 121.837 80.3297 121.993L90.2244 127.706C90.4944 127.862 90.4607 128.133 90.149 128.313L86.8203 130.235C86.5086 130.415 86.0374 130.434 85.7675 130.279Z" fill="#263C7A"/>
<path d="M149.51 167.081L139.614 161.367C139.345 161.211 139.379 160.94 139.69 160.76L143.019 158.838C143.331 158.658 143.802 158.639 144.072 158.794L153.967 164.507C154.236 164.663 154.202 164.935 153.891 165.115L150.562 167.036C150.25 167.217 149.78 167.236 149.51 167.081Z" fill="#263C7A"/>
<path d="M128.76 161.717L125.401 159.777C125.131 159.622 125.165 159.349 125.477 159.17L129.442 156.88C129.753 156.7 130.224 156.681 130.495 156.836L133.855 158.776C134.124 158.932 134.09 159.204 133.779 159.383L129.813 161.674C129.501 161.853 129.03 161.873 128.76 161.717Z" fill="#263C7A"/>
<path d="M91.081 139.964L85.7071 136.86C85.4379 136.705 85.4715 136.433 85.7832 136.253L89.7481 133.963C90.0598 133.784 90.531 133.765 90.8009 133.92L96.174 137.022C96.4446 137.178 96.4103 137.45 96.0987 137.63L92.1331 139.919C91.8214 140.1 91.3502 140.119 91.081 139.964Z" fill="#263C7A"/>
<path d="M123.761 158.832L118.388 155.729C118.118 155.574 118.153 155.302 118.464 155.122L122.429 152.832C122.741 152.652 123.212 152.632 123.482 152.788L128.855 155.891C129.124 156.046 129.091 156.318 128.78 156.498L124.814 158.788C124.502 158.968 124.031 158.987 123.761 158.832Z" fill="#263C7A"/>
<path d="M98.5669 144.286L93.1938 141.184C92.9239 141.029 92.9582 140.756 93.2692 140.577L97.2348 138.287C97.5464 138.107 98.0177 138.087 98.2876 138.243L103.661 141.345C103.931 141.501 103.897 141.773 103.585 141.954L99.6191 144.243C99.3081 144.423 98.8369 144.442 98.5669 144.286Z" fill="#263C7A"/>
<path d="M98.3242 138.264L121.685 151.752C121.975 151.919 121.975 152.191 121.685 152.359L117.642 154.693C117.352 154.86 116.882 154.86 116.592 154.693L93.2305 141.205L98.3242 138.264Z" fill="#263C7A"/>
<path d="M143.261 167.15L147.003 169.311C147.224 169.439 147.197 169.661 146.941 169.809L145.319 170.745C145.064 170.893 144.678 170.909 144.457 170.781L140.714 168.621C140.493 168.492 140.52 168.269 140.776 168.123L142.398 167.186C142.653 167.038 143.04 167.023 143.261 167.15Z" fill="#263C7A"/>
<path d="M138.03 164.129L141.773 166.29C141.994 166.417 141.966 166.64 141.71 166.788L140.089 167.724C139.833 167.872 139.447 167.888 139.225 167.761L135.483 165.6C135.262 165.472 135.29 165.249 135.546 165.101L137.167 164.165C137.423 164.017 137.809 164.002 138.03 164.129Z" fill="#263C7A"/>
<path d="M132.841 161.133L136.584 163.294C136.805 163.421 136.777 163.644 136.522 163.792L134.9 164.729C134.645 164.876 134.258 164.892 134.037 164.764L130.295 162.603C130.073 162.476 130.102 162.253 130.357 162.105L131.979 161.17C132.234 161.021 132.621 161.005 132.841 161.133Z" fill="#263C7A"/>
<path d="M140.895 162.475L144.637 164.636C144.859 164.763 144.831 164.986 144.576 165.133L142.953 166.07C142.699 166.218 142.312 166.234 142.091 166.106L138.349 163.946C138.127 163.817 138.155 163.595 138.41 163.447L140.033 162.511C140.288 162.363 140.675 162.348 140.895 162.475Z" fill="#263C7A"/>
<path d="M146.464 88.712L143.251 86.8568C142.953 86.6845 142.706 86.2207 142.699 85.8201C142.693 85.4196 142.93 85.2351 143.228 85.4068L146.441 87.2627C146.739 87.4344 146.987 87.8982 146.993 88.2987C146.999 88.6985 146.763 88.8843 146.464 88.712Z" fill="#D9EFFB"/>
<path d="M154.119 93.1309L149.381 90.3952C149.083 90.2228 148.836 89.7584 148.829 89.3585C148.823 88.958 149.059 88.7735 149.358 88.9452L154.095 91.6809C154.394 91.8532 154.641 92.317 154.647 92.7175C154.653 93.1181 154.418 93.3032 154.119 93.1309Z" fill="#D9EFFB"/>
<path d="M144.873 105.848L141.66 103.993C141.361 103.82 141.114 103.356 141.108 102.956C141.101 102.555 141.338 102.371 141.635 102.543L144.85 104.398C145.147 104.569 145.394 105.034 145.401 105.434C145.407 105.834 145.171 106.02 144.873 105.848Z" fill="#D9EFFB"/>
<path d="M151.697 109.787L146.958 107.051C146.659 106.879 146.413 106.415 146.406 106.015C146.4 105.614 146.637 105.43 146.934 105.602L151.673 108.337C151.971 108.509 152.218 108.973 152.224 109.374C152.231 109.774 151.994 109.959 151.697 109.787Z" fill="#D9EFFB"/>
<path d="M137.654 86.6339L135.646 85.4747C135.349 85.3024 135.101 84.8386 135.095 84.438C135.088 84.0375 135.324 83.8531 135.623 84.0254L137.63 85.1846C137.929 85.3556 138.175 85.82 138.182 86.2206C138.188 86.6204 137.952 86.8062 137.654 86.6339Z" fill="#D9EFFB"/>
<path d="M144.509 93.6009L138.376 90.0594C138.077 89.8871 137.83 89.4233 137.824 89.0234C137.818 88.6229 138.054 88.4378 138.352 88.6094L144.486 92.1509C144.783 92.3232 145.03 92.7877 145.037 93.1875C145.044 93.5881 144.807 93.7725 144.509 93.6009Z" fill="#D9EFFB"/>
<path d="M140.481 97.2931L138.473 96.1339C138.176 95.9616 137.929 95.4978 137.922 95.0972C137.915 94.6967 138.152 94.5123 138.45 94.6846L140.457 95.8438C140.756 96.0147 141.002 96.4792 141.009 96.8797C141.015 97.2796 140.779 97.4654 140.481 97.2931Z" fill="#D9EFFB"/>
<path d="M154.064 117.174L148.703 114.078C148.405 113.906 148.158 113.442 148.152 113.041C148.145 112.641 148.382 112.456 148.679 112.628L154.041 115.724C154.339 115.896 154.586 116.36 154.592 116.761C154.599 117.161 154.363 117.346 154.064 117.174Z" fill="#D9EFFB"/>
<path d="M139.861 102.954L138.573 102.211C138.274 102.038 138.027 101.574 138.021 101.174C138.015 100.774 138.251 100.588 138.548 100.76L139.837 101.505C140.136 101.677 140.383 102.141 140.389 102.541C140.396 102.942 140.159 103.126 139.861 102.954Z" fill="#D9EFFB"/>
<path d="M140.272 109.209L138.672 108.285C138.373 108.113 138.127 107.649 138.12 107.249C138.114 106.848 138.35 106.664 138.648 106.836L140.248 107.76C140.546 107.932 140.793 108.396 140.799 108.796C140.806 109.196 140.57 109.381 140.272 109.209Z" fill="#D9EFFB"/>
<path d="M146.496 112.804L142.278 110.368C141.98 110.196 141.732 109.732 141.726 109.332C141.719 108.931 141.956 108.746 142.254 108.918L146.473 111.354C146.77 111.525 147.018 111.99 147.024 112.39C147.031 112.79 146.794 112.976 146.496 112.804Z" fill="#D9EFFB"/>
<path d="M141.754 113.074L138.72 111.323C138.422 111.151 138.176 110.687 138.169 110.287C138.162 109.886 138.399 109.701 138.697 109.873L141.73 111.625C142.028 111.797 142.275 112.26 142.281 112.661C142.288 113.061 142.053 113.247 141.754 113.074Z" fill="#D9EFFB"/>
<path d="M158.669 119.844L156.721 118.719C156.423 118.547 156.176 118.083 156.169 117.683C156.162 117.282 156.399 117.097 156.697 117.27L158.646 118.394C158.943 118.566 159.191 119.031 159.197 119.431C159.204 119.831 158.967 120.016 158.669 119.844Z" fill="#D9EFFB"/>
<path d="M147.948 101.604L142.587 98.5092C142.288 98.3369 142.042 97.8724 142.035 97.4719C142.029 97.072 142.266 96.8869 142.563 97.0592L147.925 100.155C148.224 100.327 148.47 100.791 148.477 101.192C148.483 101.592 148.246 101.777 147.948 101.604Z" fill="#D9EFFB"/>
<path d="M147.769 98.4911L138.424 93.0957C138.127 92.9241 137.879 92.4596 137.873 92.0591C137.867 91.6592 138.103 91.4741 138.402 91.6465L147.746 97.0418C148.044 97.2141 148.291 97.6779 148.298 98.0784C148.304 98.479 148.067 98.6634 147.769 98.4911Z" fill="#D9EFFB"/>
<path d="M143.885 102.269L138.523 99.1731C138.226 99.0008 137.979 98.537 137.972 98.1364C137.965 97.7359 138.202 97.5508 138.5 97.7231L143.861 100.818C144.159 100.991 144.407 101.455 144.413 101.855C144.419 102.255 144.184 102.441 143.885 102.269Z" fill="#D9EFFB"/>
<path d="M152.014 103.952L150.067 102.828C149.768 102.656 149.521 102.191 149.515 101.791C149.509 101.391 149.744 101.206 150.043 101.377L151.991 102.502C152.289 102.674 152.536 103.138 152.543 103.539C152.549 103.939 152.312 104.124 152.014 103.952Z" fill="#D9EFFB"/>
<path d="M168.571 101.477L157.035 94.8161C156.737 94.6437 156.49 94.1799 156.484 93.7794C156.477 93.3789 156.714 93.1944 157.011 93.3668L168.548 100.026C168.845 100.199 169.092 100.663 169.099 101.064C169.106 101.463 168.869 101.649 168.571 101.477Z" fill="#D9EFFB"/>
<path d="M145.067 108.969L138.622 105.247C138.323 105.075 138.077 104.611 138.07 104.211C138.064 103.811 138.3 103.626 138.598 103.798L145.043 107.518C145.341 107.691 145.588 108.155 145.594 108.555C145.601 108.956 145.365 109.141 145.067 108.969Z" fill="#D9EFFB"/>
<path d="M140.335 85.1723L135.597 82.4366C135.299 82.2642 135.052 81.7997 135.045 81.3999C135.039 80.9994 135.275 80.8142 135.574 80.9866L140.312 83.7223C140.61 83.8946 140.856 84.3584 140.863 84.7589C140.87 85.1588 140.634 85.3439 140.335 85.1723Z" fill="#D9EFFB"/>
<path d="M141.577 115.981L136.09 112.812C135.792 112.64 135.545 112.176 135.538 111.776C135.531 111.375 135.768 111.19 136.066 111.362L141.554 114.53C141.852 114.703 142.099 115.167 142.106 115.567C142.112 115.967 141.876 116.153 141.577 115.981Z" fill="#D9EFFB"/>
<path d="M1.265 120.753L29.5308 104.295C35.1308 101.062 40.411 100.551 44.4008 102.852C48.3893 105.156 50.5864 109.984 50.5864 116.451V118.521C50.3865 118.656 50.1772 118.788 49.9631 118.919V116.451C49.9631 110.216 47.877 105.579 44.0891 103.392C40.3006 101.206 35.2412 101.718 29.8425 104.835L1.57666 121.292C1.42924 121.38 1.23741 121.328 1.15124 121.178C1.06508 121.03 1.11623 120.838 1.265 120.753Z" fill="#D9EFFB"/>
<path d="M89.4127 101.147V37.4486C89.4127 24.699 98.3966 9.13836 109.439 2.76358C114.847 -0.358521 119.948 -0.853271 123.801 1.37151C127.655 3.59561 129.777 8.25991 129.777 14.5048V18.9463C129.57 19.1543 129.362 19.3623 129.154 19.5696V14.5048C129.154 8.49215 127.142 4.01902 123.49 1.91069C119.837 -0.196274 114.958 0.297134 109.751 3.30278C98.8806 9.57928 90.036 24.8969 90.036 37.4486V101.147C90.036 111.716 83.8181 124.224 75.3848 131.751C75.3848 131.472 75.3848 131.194 75.3848 130.915C83.4848 123.472 89.4127 111.385 89.4127 101.147Z" fill="#D9EFFB"/>
<path d="M129.777 20.8953C130.801 19.9232 135.573 15.7126 142.537 14.6484C150.424 13.4421 153.684 22.6663 153.684 22.6663C153.684 22.6663 154.597 27.4572 154.564 30.2932C154.531 33.1278 154.328 43.4258 154.328 43.4258L129.325 29.0229V29.0189C129.225 28.9677 129.153 28.8654 129.153 28.7449V21.4338C129.361 21.2265 129.569 21.1033 129.777 20.8953Z" fill="#263C7A"/>
<path d="M147.5 15.034L123.801 1.37167L123.894 1.71162C120.242 -0.647797 114.722 -0.902267 107.337 4.5126C92.6705 15.2683 90.9088 30.242 90.1609 33.047C89.4131 35.8534 89.7207 53.6301 89.7207 53.6301C89.7207 53.6301 89.6722 96.5054 89.6231 101.492C89.5746 106.478 88.1226 112.073 85.3209 118.114C82.5193 124.155 75.3232 131.486 75.3232 131.486V140.213C76.4723 149.648 80.481 151.848 86.4451 152.386C91.2589 152.82 96.3883 149.344 100.486 145.556C100.335 145.714 100.237 145.814 100.237 145.814V154.541C101.386 163.976 105.395 166.176 111.36 166.714C117.324 167.252 123.774 161.788 128.145 157.164C132.516 152.54 136.201 145.478 138.248 139.108C140.296 132.737 139.618 124.507 139.618 124.507C139.618 124.507 139.667 77.6382 139.716 68.3985C139.764 59.1587 140.058 60.7716 143.089 51.4827C146.12 42.1932 154.154 35.6912 154.154 35.6912L173.434 29.9498L147.5 15.034Z" fill="#D9EFFB"/>
<path d="M106.244 165.929C105.919 165.487 101.696 162.656 100.621 157.668C100.022 154.894 100.083 150.678 100.083 150.678C100.083 150.678 100.1 148.332 100.156 146.2L100.299 146.079C100.299 145.8 100.299 145.521 100.299 145.243L100.182 145.346C100.198 144.864 100.216 144.412 100.237 144.029C100.36 141.813 98.7219 137.087 98.7219 137.087C98.7219 137.087 96.3996 130.756 89.4822 130.511C83.3397 130.294 76.8747 134.712 75.4994 135.707V132.849C75.4086 132.911 75.3096 132.97 75.2147 133.031C75.2228 132.647 75.2322 132.256 75.2423 131.872L75.3843 131.751C75.3843 131.472 75.3843 131.193 75.3843 130.914L75.2678 131.017C75.2833 130.536 75.3015 130.084 75.323 129.7C75.4449 127.484 73.8078 122.759 73.8078 122.759C73.8078 122.759 71.4847 116.428 64.5674 116.183C58.4255 115.966 51.9605 120.384 50.5853 121.379V118.521C50.3853 118.656 50.176 118.788 49.9619 118.919V123.924C49.9619 129.988 51.9821 134.546 55.6508 136.809L55.6656 136.826L55.7941 136.9L55.8944 136.964L55.9638 136.996L81.3289 151.601L81.2973 151.567L106.244 165.929Z" fill="#263C7A"/>
<path d="M69.3148 117.182C69.3148 117.182 69.125 117.084 68.7898 116.947C68.6868 116.898 68.5878 116.84 68.4828 116.794L44.4 102.854C44.4 102.854 39.9754 100.528 34.6238 102.487C29.2715 104.446 1.22852 121.269 1.22852 121.269L26.2813 135.702L26.2861 135.7L26.3534 135.718L51.1962 150.031C51.1962 150.031 65.2517 141.323 74.9747 135.705L75.5988 135.346C79.5737 133.06 82.7315 131.353 83.7217 131.091C89.7162 129.502 93.8884 131.438 94.9742 132.034L69.3148 117.182Z" fill="#D9EFFB"/>
<path d="M94.9736 132.033L95.2638 132.2C95.2638 132.2 95.1574 132.134 94.9736 132.033Z" fill="#D9EFFB"/>
<path d="M154.692 35.2244C155.715 34.2516 160.488 30.0411 167.452 28.9775C175.339 27.7712 178.599 36.9948 178.599 36.9948C178.599 36.9948 179.511 41.7856 179.479 44.6216C179.446 47.4569 179.243 57.7549 179.243 57.7549L154.24 43.3514V43.348C154.14 43.2962 154.068 43.1945 154.068 43.0734V35.7629C154.276 35.5549 154.484 35.4317 154.692 35.2244Z" fill="#263C7A"/>
<path d="M111.117 167.062C113.873 167.062 116.925 166.142 120.083 164.319C131.046 157.99 139.964 142.542 139.964 129.884V66.1854C139.964 53.6338 148.808 38.3161 159.679 32.0383C164.886 29.034 169.766 28.5385 173.417 30.6468C177.07 32.7565 179.081 37.2283 179.081 43.2416V57.4815C179.081 57.6538 179.221 57.7932 179.393 57.7932C179.565 57.7932 179.705 57.6538 179.705 57.4815V43.2416C179.705 36.996 177.583 32.3324 173.729 30.1076C169.876 27.8828 164.775 28.3776 159.367 31.4991C148.324 37.8745 139.34 53.4358 139.34 66.1854V129.884C139.34 142.344 130.562 157.549 119.772 163.779C114.604 166.762 109.76 167.254 106.135 165.16C102.509 163.068 100.513 158.629 100.513 152.661V145.187C100.513 138.721 98.3168 133.892 94.3277 131.589C90.3385 129.287 85.0583 129.799 79.4583 133.032L51.1932 149.49C51.0437 149.575 50.9926 149.766 51.0794 149.915C51.1649 150.065 51.3581 150.114 51.5048 150.029L79.77 133.571C85.1687 130.455 90.2281 129.942 94.016 132.129C97.8038 134.316 99.8899 138.954 99.8899 145.187V152.661C99.8899 158.861 101.998 163.491 105.823 165.701C107.4 166.611 109.186 167.062 111.117 167.062Z" fill="#4067B1"/>
<path d="M113.069 81.7969L108.89 79.3843C108.503 79.1609 108.181 78.5577 108.172 78.0367C108.164 77.5163 108.472 77.276 108.859 77.4995L113.038 79.9121C113.425 80.1363 113.746 80.7394 113.755 81.2598C113.763 81.7808 113.456 82.0211 113.069 81.7969Z" fill="#5F92D3"/>
<path d="M121.941 86.9205L115.779 83.3629C115.391 83.1394 115.07 82.5355 115.062 82.0152C115.053 81.4942 115.361 81.2539 115.748 81.478L121.91 85.035C122.297 85.2591 122.618 85.8623 122.627 86.3826C122.635 86.903 122.328 87.144 121.941 86.9205Z" fill="#5F92D3"/>
<path d="M112.595 65.8725L104.618 61.2675C104.231 61.0433 103.91 60.4402 103.902 59.9198C103.893 59.3995 104.2 59.1585 104.588 59.3826L112.564 63.987C112.951 64.2105 113.273 64.8143 113.281 65.3347C113.289 65.8557 112.982 66.096 112.595 65.8725Z" fill="#5F92D3"/>
<path d="M107.358 70.6743L104.747 69.1671C104.359 68.9436 104.038 68.3398 104.029 67.8194C104.021 67.2984 104.328 67.0581 104.717 67.2822L107.327 68.7888C107.714 69.0129 108.035 69.6167 108.044 70.1371C108.052 70.6574 107.745 70.8978 107.358 70.6743Z" fill="#5F92D3"/>
<path d="M106.551 78.0353L104.875 77.068C104.488 76.8438 104.166 76.24 104.158 75.7197C104.15 75.1993 104.457 74.9583 104.844 75.1825L106.52 76.1498C106.908 76.374 107.229 76.9771 107.237 77.4981C107.246 78.0185 106.938 78.2595 106.551 78.0353Z" fill="#5F92D3"/>
<path d="M117.068 76.2807L110.096 72.2559C109.708 72.0318 109.387 71.4279 109.378 70.9076C109.37 70.3866 109.678 70.1462 110.065 70.3704L117.037 74.3952C117.425 74.6194 117.745 75.2232 117.754 75.7435C117.763 76.2639 117.455 76.5042 117.068 76.2807Z" fill="#5F92D3"/>
<path d="M116.835 72.2338L104.684 65.2182C104.296 64.9941 103.975 64.3909 103.966 63.8706C103.958 63.3495 104.266 63.1092 104.653 63.3334L116.804 70.349C117.191 70.5732 117.513 71.1763 117.521 71.6967C117.53 72.217 117.222 72.4573 116.835 72.2338Z" fill="#5F92D3"/>
<path d="M111.783 77.1426L104.811 73.1178C104.424 72.8937 104.103 72.2899 104.094 71.7702C104.086 71.2492 104.393 71.0088 104.781 71.2323L111.753 75.2585C112.14 75.482 112.462 76.0851 112.47 76.6054C112.479 77.1265 112.171 77.3668 111.783 77.1426Z" fill="#5F92D3"/>
<path d="M122.355 79.3331L119.822 77.8703C119.435 77.6468 119.113 77.0437 119.105 76.5226C119.096 76.0023 119.404 75.762 119.791 75.9861L122.324 77.4476C122.712 77.6717 123.033 78.2755 123.041 78.7959C123.05 79.3169 122.742 79.5572 122.355 79.3331Z" fill="#5F92D3"/>
<path d="M115.138 59.5162L110.959 57.1036C110.572 56.8794 110.25 56.2756 110.242 55.7559C110.234 55.2349 110.541 54.9946 110.928 55.2181L115.107 57.6307C115.494 57.8548 115.816 58.458 115.825 58.9783C115.833 59.4987 115.525 59.7397 115.138 59.5162Z" fill="#5F92D3"/>
<path d="M125.091 65.2622L118.93 61.7046C118.543 61.4811 118.221 60.8772 118.212 60.3569C118.205 59.8359 118.512 59.5956 118.899 59.8197L125.061 63.3767C125.448 63.6002 125.77 64.204 125.778 64.7243C125.786 65.2453 125.479 65.4857 125.091 65.2622Z" fill="#5F92D3"/>
<path d="M113.069 81.7969L108.89 79.3843C108.503 79.1609 108.181 78.5577 108.172 78.0367C108.164 77.5163 108.472 77.276 108.859 77.4995L113.038 79.9121C113.425 80.1363 113.746 80.7394 113.755 81.2598C113.763 81.7808 113.456 82.0211 113.069 81.7969Z" fill="#5F92D3"/>
<path d="M121.941 86.9205L115.779 83.3629C115.391 83.1394 115.07 82.5355 115.062 82.0152C115.053 81.4942 115.361 81.2539 115.748 81.478L121.91 85.035C122.297 85.2591 122.618 85.8623 122.627 86.3826C122.635 86.903 122.328 87.144 121.941 86.9205Z" fill="#5F92D3"/>
<path d="M103.681 56.8126L101.07 55.306C100.683 55.0819 100.361 54.478 100.353 53.9577C100.345 53.4367 100.652 53.1964 101.04 53.4205L103.65 54.9277C104.038 55.1512 104.359 55.755 104.367 56.2754C104.375 56.7964 104.069 57.0367 103.681 56.8126Z" fill="#5F92D3"/>
<path d="M112.595 65.8725L104.618 61.2675C104.231 61.0433 103.91 60.4402 103.902 59.9198C103.893 59.3995 104.2 59.1585 104.588 59.3826L112.564 63.987C112.951 64.2105 113.273 64.8143 113.281 65.3347C113.289 65.8557 112.982 66.096 112.595 65.8725Z" fill="#5F92D3"/>
<path d="M107.358 70.6743L104.747 69.1671C104.359 68.9436 104.038 68.3398 104.029 67.8194C104.021 67.2984 104.328 67.0581 104.717 67.2822L107.327 68.7888C107.714 69.0129 108.035 69.6167 108.044 70.1371C108.052 70.6574 107.745 70.8978 107.358 70.6743Z" fill="#5F92D3"/>
<path d="M125.022 96.5249L118.05 92.4994C117.662 92.2759 117.341 91.6721 117.332 91.1517C117.324 90.6307 117.631 90.3904 118.019 90.6139L124.991 94.6394C125.378 94.8635 125.7 95.4667 125.708 95.987C125.717 96.508 125.409 96.7484 125.022 96.5249Z" fill="#5F92D3"/>
<path d="M106.551 78.0353L104.875 77.068C104.488 76.8438 104.166 76.24 104.158 75.7197C104.15 75.1993 104.457 74.9583 104.844 75.1825L106.52 76.1498C106.908 76.374 107.229 76.9771 107.237 77.4981C107.246 78.0185 106.938 78.2595 106.551 78.0353Z" fill="#5F92D3"/>
<path d="M107.084 86.1691L105.003 84.9675C104.615 84.7434 104.294 84.1409 104.286 83.6199C104.278 83.0995 104.585 82.8592 104.973 83.0827L107.053 84.2843C107.441 84.5078 107.762 85.1109 107.771 85.6319C107.779 86.1523 107.472 86.3933 107.084 86.1691Z" fill="#5F92D3"/>
<path d="M115.179 90.8429L109.693 87.6757C109.305 87.4516 108.984 86.8478 108.976 86.3274C108.967 85.8071 109.274 85.5668 109.662 85.7902L115.148 88.9574C115.536 89.1816 115.856 89.7854 115.865 90.3058C115.874 90.8261 115.566 91.0671 115.179 90.8429Z" fill="#5F92D3"/>
<path d="M109.012 91.1958L105.068 88.9185C104.68 88.6943 104.359 88.0912 104.351 87.5708C104.342 87.0498 104.65 86.8095 105.037 87.0336L108.982 89.3109C109.369 89.5351 109.69 90.1382 109.699 90.6586C109.708 91.1789 109.4 91.4192 109.012 91.1958Z" fill="#5F92D3"/>
<path d="M117.068 76.2807L110.096 72.2559C109.708 72.0318 109.387 71.4279 109.378 70.9076C109.37 70.3866 109.678 70.1462 110.065 70.3704L117.037 74.3952C117.425 74.6194 117.745 75.2232 117.754 75.7435C117.763 76.2639 117.455 76.5042 117.068 76.2807Z" fill="#5F92D3"/>
<path d="M116.835 72.2338L104.684 65.2182C104.296 64.9941 103.975 64.3909 103.966 63.8706C103.958 63.3495 104.266 63.1092 104.653 63.3334L116.804 70.349C117.191 70.5732 117.513 71.1763 117.521 71.6967C117.53 72.217 117.222 72.4573 116.835 72.2338Z" fill="#5F92D3"/>
<path d="M111.783 77.1426L104.811 73.1178C104.424 72.8937 104.103 72.2899 104.094 71.7702C104.086 71.2492 104.393 71.0088 104.781 71.2323L111.753 75.2585C112.14 75.482 112.462 76.0851 112.47 76.6054C112.479 77.1265 112.171 77.3668 111.783 77.1426Z" fill="#5F92D3"/>
<path d="M122.355 79.3331L119.822 77.8703C119.435 77.6468 119.113 77.0437 119.105 76.5226C119.096 76.0023 119.404 75.762 119.791 75.9861L122.324 77.4476C122.712 77.6717 123.033 78.2755 123.041 78.7959C123.05 79.3169 122.742 79.5572 122.355 79.3331Z" fill="#5F92D3"/>
<path d="M113.32 85.8569L104.939 81.0176C104.552 80.7941 104.231 80.1909 104.222 79.6699C104.214 79.1496 104.521 78.9086 104.909 79.1327L113.29 83.9714C113.677 84.1955 113.999 84.7987 114.007 85.3197C114.015 85.8401 113.708 86.0804 113.32 85.8569Z" fill="#5F92D3"/>
<path d="M107.167 54.9132L101.006 51.3563C100.618 51.1328 100.297 50.529 100.289 50.0086C100.28 49.4876 100.587 49.2473 100.975 49.4708L107.137 53.0284C107.525 53.2519 107.845 53.8557 107.854 54.3761C107.862 54.8964 107.555 55.1374 107.167 54.9132Z" fill="#5F92D3"/>
<path d="M108.783 94.9757L101.646 90.8554C101.259 90.6312 100.937 90.028 100.929 89.507C100.921 88.9867 101.228 88.747 101.615 88.9705L108.752 93.0902C109.139 93.3144 109.46 93.9175 109.469 94.4386C109.477 94.9589 109.17 95.1999 108.783 94.9757Z" fill="#5F92D3"/>
<path d="M112.085 119.282L107.906 116.87C107.518 116.646 107.197 116.042 107.189 115.522C107.181 115.002 107.488 114.761 107.876 114.984L112.054 117.397C112.442 117.621 112.763 118.225 112.771 118.745C112.78 119.266 112.472 119.506 112.085 119.282Z" fill="#5F92D3"/>
<path d="M120.958 124.405L114.796 120.847C114.408 120.624 114.088 120.02 114.079 119.499C114.071 118.979 114.378 118.738 114.765 118.962L120.927 122.519C121.315 122.743 121.635 123.347 121.644 123.867C121.653 124.388 121.345 124.628 120.958 124.405Z" fill="#5F92D3"/>
<path d="M111.612 103.357L103.636 98.7519C103.248 98.5278 102.927 97.924 102.919 97.4036C102.91 96.8833 103.218 96.6429 103.606 96.8664L111.581 101.471C111.969 101.695 112.29 102.298 112.298 102.819C112.307 103.339 111.999 103.58 111.612 103.357Z" fill="#5F92D3"/>
<path d="M106.375 108.159L103.765 106.652C103.376 106.429 103.056 105.826 103.047 105.304C103.038 104.784 103.347 104.543 103.734 104.767L106.344 106.275C106.732 106.498 107.052 107.101 107.061 107.622C107.07 108.143 106.762 108.383 106.375 108.159Z" fill="#5F92D3"/>
<path d="M105.568 115.519L103.893 114.551C103.505 114.328 103.183 113.724 103.176 113.204C103.167 112.683 103.474 112.442 103.862 112.666L105.537 113.633C105.926 113.857 106.246 114.461 106.255 114.981C106.264 115.502 105.955 115.743 105.568 115.519Z" fill="#5F92D3"/>
<path d="M116.084 113.765L109.113 109.739C108.726 109.516 108.404 108.912 108.396 108.391C108.388 107.871 108.695 107.63 109.082 107.854L116.054 111.88C116.443 112.103 116.763 112.706 116.772 113.227C116.781 113.748 116.473 113.989 116.084 113.765Z" fill="#5F92D3"/>
<path d="M115.852 109.717L103.701 102.701C103.313 102.477 102.991 101.874 102.983 101.353C102.975 100.833 103.282 100.592 103.67 100.816L115.822 107.832C116.209 108.055 116.53 108.659 116.539 109.179C116.547 109.7 116.24 109.941 115.852 109.717Z" fill="#5F92D3"/>
<path d="M110.801 114.628L103.828 110.603C103.441 110.378 103.12 109.775 103.112 109.254C103.103 108.734 103.41 108.494 103.798 108.718L110.771 112.743C111.158 112.967 111.48 113.571 111.488 114.091C111.496 114.611 111.189 114.852 110.801 114.628Z" fill="#5F92D3"/>
<path d="M121.372 116.818L118.839 115.355C118.451 115.131 118.13 114.527 118.122 114.007C118.114 113.487 118.421 113.246 118.809 113.469L121.342 114.932C121.73 115.156 122.051 115.759 122.059 116.28C122.068 116.801 121.76 117.042 121.372 116.818Z" fill="#5F92D3"/>
<path d="M142.632 206.532L150.371 202.064L158.11 206.532L150.371 211L142.632 206.532Z" fill="#D9EFFB"/>
<path d="M159.06 196.921L166.798 192.453L174.537 196.921L166.798 201.39L159.06 196.921Z" fill="#D9EFFB"/>
<path d="M175.437 187.538L183.176 183.071L190.915 187.538L183.176 192.007L175.437 187.538Z" fill="#D9EFFB"/>
<path d="M166.798 196.921V173.091L159.06 168.623V192.453L166.798 196.921Z" fill="#C23222"/>
<path d="M166.799 173.091L174.538 168.623V192.453L166.799 196.921V173.091Z" fill="#F4AA3B"/>
<path d="M166.798 196.921V173.091L159.06 168.623V192.453L166.798 196.921Z" fill="#F4AA3B"/>
<path d="M150.371 206.531V193.127L142.632 188.658V202.063L150.371 206.531Z" fill="#F4AA3B"/>
<path d="M150.372 193.127L158.111 188.658V202.063L150.372 206.531V193.127Z" fill="#F4AA3B"/>
<path d="M142.632 188.659L150.371 184.192L158.11 188.659L150.371 193.128L142.632 188.659Z" fill="#FF9900"/>
<path d="M183.176 187.537V154.771L175.437 150.303V183.069L183.176 187.537Z" fill="#F4AA3B"/>
<path d="M183.177 154.771L190.916 150.303V183.069L183.177 187.537V154.771Z" fill="#F4AA3B"/>
<path d="M175.437 150.303L183.176 145.835L190.915 150.303L183.176 154.771L175.437 150.303Z" fill="#FF9900"/>
<path d="M159.06 168.623L166.798 164.155L174.537 168.623L166.798 173.091L159.06 168.623Z" fill="#FF9900"/>
<path d="M32.5291 161.826C32.5291 161.826 30.1407 160.621 28.6739 162.415C27.2065 164.209 25.1096 168.444 25.0443 171.305C24.9797 174.167 27.3088 173.974 28.6935 173.296C30.0781 172.619 34.1238 166.751 34.3682 165.602C34.6132 164.452 34.0794 162.898 33.6903 162.593C33.3012 162.289 32.5291 161.826 32.5291 161.826Z" fill="#5F92D3"/>
<path d="M33.0512 161.251L33.1616 163.726C33.1851 164.253 32.9206 164.754 32.4628 165.014C32.0455 165.251 31.439 165.432 30.6191 165.3C28.8204 165.012 28.6595 164.497 28.5309 162.023C28.4024 159.548 33.0512 161.251 33.0512 161.251Z" fill="#D9EFFB"/>
<path d="M23.785 157.068C23.785 157.068 21.396 155.863 19.9292 157.657C18.4624 159.451 16.3648 163.686 16.3002 166.547C16.2349 169.409 18.564 169.216 19.9494 168.539C21.334 167.861 25.3784 161.993 25.6241 160.843C25.8684 159.693 25.3346 158.14 24.9455 157.835C24.5564 157.531 23.785 157.068 23.785 157.068Z" fill="#5F92D3"/>
<path d="M24.3071 156.491L24.4175 158.966C24.441 159.493 24.1758 159.994 23.7181 160.254C23.3007 160.491 22.6949 160.672 21.875 160.541C20.0756 160.251 19.9147 159.737 19.7868 157.263C19.6576 154.788 24.3071 156.491 24.3071 156.491Z" fill="#D9EFFB"/>
<path d="M45.6234 111.052C44.9166 99.5474 33.1646 112.745 33.1646 112.745L25.1211 120.629L17.8786 128.585C16.4637 130.139 15.806 132.237 16.0793 134.321L19.0088 156.63C19.1536 157.732 20.0967 158.545 21.2081 158.536C21.5217 158.533 21.8812 158.504 22.2932 158.441C24.907 158.034 24.7138 155.549 24.7138 155.549L24.178 134.682L39.3893 125.513C39.3893 125.513 46.3302 122.557 45.6234 111.052Z" fill="#263C7A"/>
<path d="M54.3682 115.436C53.6607 103.932 41.9088 117.129 41.9088 117.129L33.8659 125.013L26.6228 132.969C25.2078 134.523 24.5501 136.621 24.8234 138.704L27.7537 161.015C27.8977 162.117 28.8408 162.929 29.9522 162.92C30.2659 162.918 30.6254 162.889 31.038 162.825C33.6512 162.418 33.458 159.933 33.458 159.933L32.9228 139.067L48.1335 129.897C48.1335 129.897 55.075 126.941 54.3682 115.436Z" fill="#263C7A"/>
<path d="M47.4149 78.5067C56.3248 82.2003 56.1458 87.4671 56.1458 87.4671C56.1458 87.4671 54.401 106.775 54.996 119.67C55.2451 125.061 26.356 125.472 30.6648 111.091C35.7445 94.134 33.8408 80.4064 36.2184 78.3364C38.5966 76.2658 45.1107 77.5515 47.4149 78.5067Z" fill="#5F92D3"/>
<path d="M50.2808 83.1768C49.815 84.9863 47.4455 85.9395 44.9871 85.306C42.5294 84.6733 40.9145 82.6935 41.381 80.8847C41.8469 79.0753 44.217 78.1221 46.6747 78.7556C49.1324 79.3883 50.7473 81.3688 50.2808 83.1768Z" fill="#FAB6A9"/>
<path d="M45.1495 78.9849C43.4949 78.9849 42.1122 79.7543 41.7932 80.9909C41.6027 81.7313 41.8248 82.5398 42.4178 83.2668C43.0425 84.0322 43.9923 84.6098 45.0936 84.8938C47.3177 85.4667 49.4624 84.6488 49.869 83.0702C50.0595 82.3298 49.8374 81.522 49.2443 80.7943C48.6203 80.0289 47.6705 79.4514 46.5685 79.1673C46.0865 79.0434 45.6073 78.9849 45.1495 78.9849ZM46.4918 85.9258C45.9687 85.9258 45.4268 85.8591 44.8809 85.7184C43.6046 85.3899 42.4959 84.7107 41.7575 83.8053C40.9887 82.8623 40.7087 81.7879 40.9685 80.7782C41.4923 78.7439 44.0994 77.6507 46.7812 78.3433C48.0575 78.6712 49.1662 79.3511 49.9047 80.2558C50.6734 81.1989 50.9535 82.2739 50.6936 83.283C50.2769 84.9033 48.5368 85.9258 46.4918 85.9258Z" fill="white"/>
<path d="M43.843 78.1039C43.843 78.1039 43.9197 78.4613 43.7662 81.2852C43.7171 82.1724 46.8257 83.0011 47.6288 82.198C48.4319 81.3949 48.1108 80.5589 48.3033 77.5384C48.4965 74.518 43.843 78.1039 43.843 78.1039Z" fill="#FAB6A9"/>
<path d="M48.3034 77.5397C48.3034 77.5397 47.538 80.34 43.7656 81.415L43.8228 78.8692L48.3034 77.5397Z" fill="#EB8B8A"/>
<path d="M50.6933 70.4236C51.6411 74.0902 49.4371 77.8323 45.7698 78.7801C42.1031 79.7279 38.3617 77.524 37.4132 73.8567C36.4654 70.1893 38.6694 66.4486 42.3367 65.5001C46.0041 64.5523 49.7455 66.7569 50.6933 70.4236Z" fill="#FAB6A9"/>
<path d="M45.6282 72.3924C45.6282 72.3924 41.8524 74.01 39.2379 74.0282C36.6227 74.047 37.1996 71.8573 37.1996 71.8573L44.9604 70.7358L45.6282 72.3924Z" fill="#EB8B8A"/>
<path d="M38.459 72.8178C38.459 72.8178 41.748 71.421 44.6338 72.0039C45.3124 72.1406 45.9404 72.5034 46.378 73.0399C46.5207 73.2149 46.7004 73.3758 46.9057 73.4216C47.4173 73.5374 48.2548 71.4149 49.249 71.3664C50.2439 71.318 50.9076 72.0221 50.0918 73.3273C49.2759 74.6332 49.5519 76.0947 49.9275 76.3033C50.3025 76.5134 54.2829 73.4653 50.7717 66.5103C47.2612 59.5559 38.3439 63.302 36.9572 64.7116C36.9572 64.7116 35.4957 65.9845 34.3076 64.8523C34.3076 64.8523 32.9748 74.8291 38.459 72.8178Z" fill="#542511"/>
<path d="M51.1483 101.574V106.791C51.1483 107.389 50.8966 107.959 50.4543 108.362L39.7363 118.133L40.9547 119.995L55.1085 109.729C55.7695 109.252 56.1957 108.514 56.2811 107.702L57.237 98.6029L51.1483 101.574Z" fill="#FAB6A9"/>
<path d="M55.3918 84.8587C55.3918 84.8587 58.6432 89.7485 59.8549 102.62C59.8549 102.62 54.3 104.417 51.1483 103.397C47.9959 102.377 55.3918 84.8587 55.3918 84.8587Z" fill="#5F92D3"/>
<path d="M50.5545 91.0408C50.5545 91.0408 49.2809 97.8531 49.2095 101.055C49.1893 101.935 49.7265 102.729 50.5545 103.028V91.0408Z" fill="#4067B1"/>
<path d="M47.7736 124.916L45.4047 124.603L30.1127 115.775C29.6233 115.492 28.7663 115.528 28.2009 115.854L17.3651 122.108L15.9326 121.918V123.344H15.934C15.9245 123.532 16.0323 123.713 16.2631 123.846L33.5922 133.851C34.0829 134.135 34.9392 134.1 35.5053 133.772L47.3057 126.962C47.6241 126.778 47.783 126.541 47.7736 126.319V124.916Z" fill="#5F92D3"/>
<path d="M36.2835 119.339L35.1977 118.711H23.2532L17.3651 122.109L15.9326 121.92V123.345H15.934C15.9245 123.533 16.0323 123.714 16.2631 123.848L33.5922 133.853C33.852 134.002 34.2128 134.062 34.5797 134.038L36.2835 119.339Z" fill="#4067B1"/>
<path d="M16.5681 122.003L15.9326 121.919V123.345H15.934C15.9245 123.533 16.0323 123.714 16.2631 123.847L16.5681 124.023V122.003Z" fill="#5F92D3"/>
<path d="M33.7676 133.934C34.2327 134.109 34.8965 134.072 35.3926 133.833V131.407H33.7676V133.934Z" fill="white"/>
<path d="M33.5926 132.428L16.2635 122.423C15.7735 122.14 15.8347 121.646 16.4008 121.318L28.2013 114.508C28.7667 114.181 29.6236 114.146 30.113 114.429L47.4434 124.434C47.9335 124.717 47.8715 125.212 47.3061 125.538L35.5057 132.349C34.9395 132.676 34.0833 132.711 33.5926 132.428Z" fill="white"/>
<path d="M33.2995 130.91L18.8906 122.591C18.4827 122.356 18.5338 121.945 19.0051 121.673L25.328 118.117C25.7985 117.846 26.5107 117.816 26.918 118.052L41.3276 126.37C41.7355 126.606 41.6843 127.017 41.2138 127.289L34.8902 130.845C34.4196 131.116 33.7074 131.146 33.2995 130.91Z" fill="#D9EFFB"/>
<path d="M28.8708 114.179L28.6911 115.375C28.539 116.393 28.5652 117.431 28.7692 118.441L28.9833 119.494C29.1031 120.088 29.5736 120.55 30.17 120.658C30.6359 120.743 31.0761 120.415 31.1286 119.945L31.4147 117.389C31.4147 117.389 32.069 118.246 32.3847 118.246C32.7004 118.246 32.0313 115.686 31.3178 114.237C30.6029 112.788 28.8708 114.179 28.8708 114.179Z" fill="#FAB6A9"/>
<path d="M34.7453 95.1749L32.8868 98.855C32.4465 99.7254 32.188 100.676 32.1254 101.649L31.3183 114.237L28.8714 114.179L27.7607 100.042C27.727 99.6056 27.7479 99.1667 27.824 98.7352L29.0929 91.5668L34.7453 95.1749Z" fill="#FAB6A9"/>
<path d="M33.0057 133.39L31.553 131.493L16.2724 122.645C15.7823 122.362 15.3865 121.602 15.3872 120.949L15.4 108.438L14.5215 107.291L15.3474 106.813L15.3481 106.814C15.5063 106.712 15.7163 106.715 15.9472 106.848L33.2648 116.875C33.7549 117.159 34.1514 117.919 34.1507 118.572L34.1359 132.197C34.1352 132.564 34.0093 132.82 33.8121 132.923L33.0057 133.39Z" fill="#263C7A"/>
<path d="M22.4391 126.214L21.3533 125.585L15.3939 115.234L15.4 108.437L14.5215 107.289L15.3474 106.812L15.3481 106.812C15.5063 106.711 15.7163 106.713 15.9472 106.847L33.2648 116.873C33.5233 117.023 33.7556 117.306 33.9178 117.637L22.4391 126.214Z" fill="#4067B1"/>
<path d="M14.9112 107.798L14.5215 107.289L15.3474 106.812L15.3481 106.812C15.5063 106.711 15.7163 106.713 15.9472 106.847L16.2528 107.024L14.9112 107.798Z" fill="#5F92D3"/>
<path d="M33.4224 116.984C33.8068 117.299 34.105 117.893 34.1454 118.443L32.4531 119.42L31.6426 118.012L33.4224 116.984Z" fill="#2E4B8D"/>
<path d="M32.4397 117.352L15.1221 107.326C14.6321 107.042 14.2349 107.342 14.2336 107.995L14.2188 121.62C14.2181 122.274 14.6146 123.033 15.1046 123.317L32.4215 133.344C32.9123 133.626 33.3101 133.327 33.3101 132.673L33.3249 119.049C33.3256 118.396 32.9291 117.636 32.4397 117.352Z" fill="#5F92D3"/>
<path d="M40.9554 119.995L40.678 120.57C40.3583 121.231 39.8561 121.789 39.2301 122.175L37.5102 123.235C36.975 123.565 36.2971 123.592 35.7539 123.276L35.6953 123.24C35.1487 122.898 35.0996 122.113 35.5493 121.649L37.3473 119.802C37.3473 119.802 36.3369 120.576 36.0541 120.264C35.8461 120.036 37.0336 118.922 37.9443 118.885C38.8558 118.848 39.737 118.133 39.737 118.133L40.9554 119.995Z" fill="#FAB6A9"/>
<path d="M36.3962 78.3083C36.3962 78.3083 29.8067 85.4781 27.1484 92.0562C27.1484 92.0562 29.4022 96.1153 34.918 97.7087C40.4338 99.3014 36.3962 78.3083 36.3962 78.3083Z" fill="#5F92D3"/>
<path d="M33.6765 97.2832L34.7448 86.9657L32.2285 96.6316C32.6768 96.8658 33.1622 97.0833 33.6765 97.2832Z" fill="#4067B1"/>
<path d="M41.3319 76.8615L39.5615 76.3755C39.5615 76.3755 40.4063 77.705 41.6402 78.0435C42.8748 78.3828 43.0673 77.3381 43.0673 77.3381L41.3319 76.8615Z" fill="white"/>
<path d="M50.7897 74.0265C50.7897 74.5718 50.3481 75.0127 49.8036 75.0127C49.259 75.0127 48.8174 74.5718 48.8174 74.0265C48.8174 73.4819 49.259 73.041 49.8036 73.041C50.3481 73.041 50.7897 73.4819 50.7897 74.0265Z" fill="white"/>
<path d="M196.837 72.3682L198.619 75.9932L202.243 74.212L200.461 70.5871L196.837 72.3682ZM198.005 77.7959L195.035 71.7543L201.075 68.7844L204.045 74.8259L198.005 77.7959Z" fill="#FF9900"/>
<path d="M64.1325 202.961C61.0999 204.712 56.1832 204.712 53.1506 202.961C50.1187 201.21 50.118 198.371 53.1506 196.621C56.1832 194.87 61.0999 194.87 64.1325 196.621C67.1644 198.372 67.165 201.211 64.1325 202.961ZM70.586 192.894C63.9891 189.086 53.2933 189.086 46.6964 192.894C40.0995 196.704 40.1001 202.878 46.6971 206.688C53.294 210.496 63.9898 210.496 70.5867 206.688C77.1829 202.878 77.1823 196.704 70.586 192.894Z" fill="#D9EFFB"/>
<path d="M44.2048 190.637L50.2302 190.731C50.6765 190.15 51.3099 189.607 52.1332 189.131C55.4472 187.218 60.6574 187.07 64.2675 188.685L67.848 185.318L73.3619 185.403C73.0892 185.225 72.8092 185.049 72.5143 184.879C64.8525 180.455 52.4301 180.455 44.7682 184.878C43.3586 185.692 42.2116 186.599 41.3203 187.564L44.2048 190.637Z" fill="#E18C28"/>
<path d="M73.3615 176.651V185.402L67.8477 185.317V176.567L73.3615 176.651Z" fill="#F4AA3B"/>
<path d="M64.2676 179.933V188.684L67.8481 185.316V176.566L64.2676 179.933Z" fill="#E18C28"/>
<path d="M50.2296 181.981V190.731L58.1567 184.272L64.2669 188.685V179.934L58.6406 177.205C58.6406 177.205 50.8953 179.576 50.4928 179.677C50.0896 179.777 50.2296 181.981 50.2296 181.981Z" fill="#E18C28"/>
<path d="M44.2051 181.887V190.637L50.2305 190.731V181.981L44.2051 181.887Z" fill="#E18C28"/>
<path d="M41.3203 178.815V187.566L44.2048 190.639V181.888L41.3203 178.815Z" fill="#F4AA3B"/>
<path d="M44.2048 181.886L50.2302 181.98C50.6765 181.4 51.3099 180.856 52.1332 180.38C55.4472 178.467 60.6574 178.319 64.2675 179.933L67.848 176.567L73.3619 176.652C73.0892 176.474 72.8092 176.298 72.5143 176.128C64.8525 171.704 52.4301 171.704 44.7682 176.127C43.3586 176.941 42.2116 177.849 41.3203 178.813L44.2048 181.886Z" fill="#FF9900"/>
<path d="M66.083 181.011V189.055L71.2993 187.805C71.2993 187.805 70.993 183.099 70.8819 182.973C70.7709 182.847 66.083 181.011 66.083 181.011Z" fill="#5F92D3"/>
<path d="M62.1357 189.054V197.805L62.6992 198.405L66.3766 196.285C66.3766 196.285 65.8058 189.606 65.7385 189.471C65.6718 189.337 62.1357 189.054 62.1357 189.054Z" fill="#263C7A"/>
<path d="M69.2362 186.796L66.0824 189.762C68.7091 191.84 68.3988 194.771 65.1488 196.647C64.2589 197.16 63.2316 197.547 62.1357 197.806L65.3952 201.279L62.5073 203.994C66.174 203.571 69.6717 202.54 72.5151 200.899C79.1013 197.096 80.0195 191.264 75.2818 186.891L69.2362 186.796Z" fill="#4067B1"/>
<path d="M62.5068 195.244V203.994L69.6571 201.233L78.2567 193.029L78.225 183.736L69.1266 190.948L62.5068 195.244Z" fill="#4067B1"/>
<path d="M69.2362 178.045L66.0824 181.011C68.7091 183.089 68.3988 186.02 65.1488 187.895C64.2589 188.409 63.2316 188.796 62.1357 189.055L65.3952 192.528L62.5073 195.243C66.174 194.82 69.6717 193.789 72.5151 192.148C79.1013 188.345 80.0195 182.513 75.2818 178.139L69.2362 178.045Z" fill="#D9EFFB"/>
<path d="M62.4822 201.233L59.6099 198.172C56.9428 198.335 54.1775 197.827 52.1324 196.647C50.0221 195.428 49.1524 193.764 49.5219 192.178L42.68 192.072L40.05 189.269C37.7491 193.218 39.3189 197.753 44.7675 200.899C48.7714 203.211 54.0752 204.311 59.3197 204.207L62.4822 201.233Z" fill="#4067B1"/>
<path d="M59.321 195.456V204.206L39.0273 192.96V184.205L41.9906 185.403L59.321 195.456Z" fill="#4067B1"/>
<path d="M62.4828 192.482V201.232L59.3203 204.206V195.456L62.4828 192.482Z" fill="#263C7A"/>
<path d="M62.4822 192.482L59.6099 189.421C56.9428 189.583 54.1775 189.076 52.1324 187.896C50.0221 186.677 49.1524 185.013 49.5219 183.427L42.68 183.32L40.05 180.518C37.7491 184.467 39.3189 189.002 44.7675 192.147C48.7714 194.46 54.0752 195.561 59.3197 195.456L62.4822 192.482Z" fill="#5F92D3"/>
<path d="M16.981 43.9576C15.3102 43.9576 13.9518 45.3167 13.9518 46.9868C13.9518 48.6576 15.3102 50.016 16.981 50.016C18.6511 50.016 20.0102 48.6576 20.0102 46.9868C20.0102 45.3167 18.6511 43.9576 16.981 43.9576ZM16.981 51.3623C14.5684 51.3623 12.6055 49.3994 12.6055 46.9868C12.6055 44.5742 14.5684 42.6113 16.981 42.6113C19.3936 42.6113 21.3565 44.5742 21.3565 46.9868C21.3565 49.3994 19.3936 51.3623 16.981 51.3623Z" fill="#5F92D3"/>
<path d="M6.3519 188.033C6.3519 189.787 4.92951 191.209 3.17594 191.209C1.42103 191.209 0 189.787 0 188.033C0 186.279 1.42103 184.857 3.17594 184.857C4.92951 184.857 6.3519 186.279 6.3519 188.033Z" fill="#D9EFFB"/>
<path d="M168.723 6.29462C168.723 8.38477 167.028 10.0791 164.938 10.0791C162.848 10.0791 161.153 8.38477 161.153 6.29462C161.153 4.20447 162.848 2.50947 164.938 2.50947C167.028 2.50947 168.723 4.20447 168.723 6.29462Z" fill="#D9EFFB"/>
<path d="M148.257 45.4439L130.257 35.0531C129.901 34.8471 129.579 34.8397 129.327 34.9777L129.328 34.9663L127.582 35.9753C127.582 35.9753 128.355 36.2567 128.809 36.4236V49.5313C128.809 50.5976 129.458 51.8369 130.257 52.298L147.462 62.2311V63.7686L149.225 62.7528L149.215 62.7494C149.514 62.5677 149.705 62.1691 149.705 61.5956V48.2119C149.705 47.145 149.056 45.9064 148.257 45.4439Z" fill="#F4AA3B"/>
<path d="M146.479 63.7146L128.479 53.3231C127.68 52.8613 127.031 51.622 127.031 50.5557V37.1727C127.031 36.1065 127.68 35.6157 128.479 36.0768L146.479 46.469C147.278 46.9308 147.927 48.1694 147.927 49.2364V62.62C147.927 63.6863 147.278 64.177 146.479 63.7146Z" fill="#FF9900"/>
<path d="M134.533 48.711C134.533 49.4852 133.988 49.7995 133.318 49.4125C132.647 49.0254 132.104 48.083 132.104 47.3088C132.104 46.5347 132.647 46.221 133.318 46.6081C133.988 46.9952 134.533 47.9369 134.533 48.711Z" fill="white"/>
<path d="M138.211 50.8355C138.211 51.6103 137.668 51.9233 136.997 51.5362C136.326 51.1492 135.782 50.2074 135.782 49.4326C135.782 48.6585 136.326 48.3448 136.997 48.7319C137.668 49.1189 138.211 50.0607 138.211 50.8355Z" fill="white"/>
<path d="M141.891 52.9606C141.891 53.7347 141.347 54.0484 140.676 53.6613C140.006 53.2736 139.462 52.3325 139.462 51.5577C139.462 50.7829 140.006 50.4692 140.676 50.857C141.347 51.244 141.891 52.1858 141.891 52.9606Z" fill="white"/>
<path d="M60.7382 25.0002L43.08 14.806C42.7306 14.604 42.4149 14.5966 42.1672 14.7326L42.1686 14.7218L40.4561 15.7114C40.4561 15.7114 41.214 15.9874 41.6596 16.1509V29.0096C41.6596 30.0563 42.2951 31.2714 43.08 31.7251L59.9574 41.4683V42.9775L61.6881 41.9813L61.6786 41.9779C61.9708 41.7988 62.1586 41.4077 62.1586 40.845V27.7151C62.1586 26.669 61.5225 25.4539 60.7382 25.0002Z" fill="#5F92D3"/>
<path d="M58.9943 42.9252L41.3361 32.7309C40.5512 32.2779 39.915 31.0621 39.915 30.0154V16.8861C39.915 15.8401 40.5512 15.3594 41.3361 15.8125L58.9943 26.0074C59.7785 26.4598 60.4147 27.6755 60.4147 28.7216V41.8515C60.4147 42.8976 59.7785 43.3782 58.9943 42.9252Z" fill="#D9EFFB"/>
<path d="M47.2746 28.206C47.2746 28.966 46.7408 29.2737 46.0824 28.894C45.4248 28.5144 44.8916 27.5901 44.8916 26.8301C44.8916 26.0708 45.4248 25.7625 46.0824 26.1421C46.7408 26.5225 47.2746 27.446 47.2746 28.206Z" fill="white"/>
<path d="M50.883 30.2893C50.883 31.0493 50.3498 31.3569 49.6915 30.9766C49.0338 30.5969 48.5 29.6733 48.5 28.9134C48.5 28.154 49.0338 27.8457 49.6915 28.2254C50.3498 28.6057 50.883 29.5293 50.883 30.2893Z" fill="white"/>
<path d="M54.4917 32.373C54.4917 33.133 53.9585 33.4407 53.3009 33.061C52.6425 32.6807 52.1094 31.7571 52.1094 30.9971C52.1094 30.2371 52.6425 29.9295 53.3009 30.3098C53.9585 30.6895 54.4917 31.6137 54.4917 32.373Z" fill="white"/>
</svg>
