<svg width="162" height="95" viewBox="0 0 162 95" fill="none" xmlns="http://www.w3.org/2000/svg">
<path d="M66.5948 38.9848L99.3004 7.91355L89.6982 7.91358L62.2428 33.5165C59.3616 36.4956 55.9419 33.0713 58.8375 30.3632L69.2195 20.7415C71.8835 16.8406 67.5068 12.3687 63.701 15.2231L51.7306 26.5384C51.7306 26.5384 45.1857 33.1791 51.765 39.9816C58.6968 46.3096 66.5948 38.9848 66.5948 38.9848Z" fill="#313131"/>
<path d="M95.5507 17.919L62.8451 48.9903L72.4473 48.9902L99.9027 23.3874C102.784 20.4082 106.204 23.8325 103.308 26.5407L92.926 36.1623C90.262 40.0632 94.6387 44.5351 98.4445 41.6807L110.415 30.3654C110.415 30.3654 116.96 23.7248 110.38 16.9222C103.449 10.5942 95.5507 17.919 95.5507 17.919Z" fill="#313131"/>
<path d="M69.6681 9.73758C70.7048 7.7221 73.179 6.92859 75.1945 7.96522C77.2099 9.00184 78.0034 11.4761 76.9668 13.4915C75.9302 15.507 73.456 16.3005 71.4405 15.2639C69.425 14.2273 68.6315 11.753 69.6681 9.73758Z" fill="#313131"/>
<path d="M92.4764 47.1653C91.4398 49.1807 88.9655 49.9742 86.9501 48.9376C84.9346 47.901 84.1411 45.4268 85.1777 43.4113C86.2143 41.3958 88.6886 40.6023 90.704 41.6389C92.7195 42.6756 93.513 45.1498 92.4764 47.1653Z" fill="#313131"/>
<path d="M0 74.1557C0 70.5852 1.31261 67.4846 3.93782 64.8537C6.56303 62.2229 9.65789 60.9075 13.2224 60.9075C15.3177 60.9075 17.2445 61.342 19.0027 62.2111C20.5923 62.9863 22.0132 64.1138 23.2656 65.5937L20.5561 67.6373C19.5687 66.4628 18.4728 65.5702 17.2686 64.9594C16.0885 64.3487 14.7397 64.0433 13.2224 64.0433C10.5731 64.0433 8.29711 65.0534 6.39444 67.0735C4.49176 69.0701 3.54042 71.4309 3.54042 74.1557C3.54042 76.716 4.49176 78.9945 6.39444 80.9912C8.29711 82.9643 10.5731 83.9509 13.2224 83.9509C14.8842 83.9509 16.4377 83.5398 17.8827 82.7177C19.3519 81.872 20.508 80.6858 21.3509 79.159L24.2049 81.2026C22.9525 83.0348 21.375 84.4911 19.4723 85.5716C17.5937 86.6287 15.5104 87.1572 13.2224 87.1572C9.65789 87.1572 6.56303 85.877 3.93782 83.3166C1.31261 80.7563 0 77.7026 0 74.1557Z" fill="#313131"/>
<path d="M40.7386 86.6992V78.0315C40.7386 76.1758 40.2087 74.6959 39.149 73.5919C38.0893 72.4879 36.7164 71.9359 35.0305 71.9359C33.3687 71.9359 31.9959 72.4879 30.9121 73.5919C29.8283 74.6959 29.2864 76.1405 29.2864 77.9258C29.2864 79.7345 29.8283 81.2143 30.9121 82.3653C32.02 83.4928 33.441 84.0566 35.175 84.0566C36.7164 84.0566 38.2097 83.528 39.6548 82.471L38.3903 86.382C37.4751 86.7814 36.2829 86.981 34.8138 86.981C32.4535 86.981 30.4304 86.1706 28.7445 84.5498C26.9622 82.8351 26.0711 80.6506 26.0711 77.9962C26.0711 75.3889 26.9141 73.2396 28.6 71.5483C30.2859 69.857 32.4174 69.0114 34.9944 69.0114C36.7285 69.0114 38.294 69.4225 39.6909 70.2446C41.0878 71.0668 42.1716 72.2178 42.9423 73.6976C43.3517 74.4963 43.6167 75.3301 43.7371 76.1993C43.8575 77.0449 43.9177 78.1137 43.9177 79.4056V86.6992H40.7386Z" fill="#313131"/>
<path d="M47.7508 94.6269V79.3351C47.7508 77.9023 47.799 76.81 47.8953 76.0583C47.9917 75.3067 48.2686 74.508 48.7262 73.6624C49.4969 72.1825 50.5808 71.0198 51.9777 70.1742C53.3986 69.3285 54.9762 68.9057 56.7103 68.9057C59.2873 68.9057 61.4188 69.7631 63.1047 71.4778C64.8147 73.1691 65.6697 75.3301 65.6697 77.961C65.6697 80.4744 64.8147 82.6002 63.1047 84.3384C61.4188 86.0532 59.3355 86.9106 56.8548 86.9106C56.1322 86.9106 55.482 86.8518 54.9039 86.7344C54.3259 86.6404 53.784 86.4995 53.2782 86.3116L52.0138 82.4005C53.507 83.4576 55.0123 83.9861 56.5296 83.9861C58.2396 83.9861 59.6486 83.4341 60.7565 82.3301C61.8643 81.2261 62.4183 79.7814 62.4183 77.9962C62.4183 76.1405 61.8764 74.6607 60.7926 73.5567C59.7329 72.4292 58.348 71.8654 56.638 71.8654C54.9762 71.8654 53.6034 72.4292 52.5196 73.5567C51.4598 74.6607 50.93 76.1288 50.93 77.961V94.6269H47.7508Z" fill="#313131"/>
<path d="M68.5996 64.3957C68.5996 63.8554 68.7803 63.4091 69.1415 63.0568C69.5269 62.6809 69.9965 62.493 70.5505 62.493C71.1285 62.493 71.5981 62.6692 71.9594 63.0215C72.3207 63.3739 72.5013 63.8319 72.5013 64.3957C72.5013 64.936 72.3086 65.394 71.9233 65.7698C71.562 66.1222 71.1044 66.2984 70.5505 66.2984C70.0206 66.2984 69.563 66.1104 69.1777 65.7346C68.7923 65.3588 68.5996 64.9125 68.5996 64.3957ZM68.9609 86.6992V69.3285H72.14V86.6992H68.9609Z" fill="#313131"/>
<path d="M76.3293 64.7128H79.5085V69.3285H84.8914V72.253H79.5085V80.0046C79.5085 81.32 79.7855 82.3183 80.3394 82.9995C80.8933 83.6807 81.6039 84.0213 82.4709 84.0213C84.0123 84.0213 85.361 83.6103 86.5171 82.7881L87.2396 85.7831C86.6616 86.1354 85.9511 86.429 85.1081 86.6639C84.2893 86.8753 83.4343 86.981 82.5431 86.981C80.7368 86.981 79.2797 86.4525 78.1718 85.3955C76.9435 84.2445 76.3293 82.6237 76.3293 80.5331V64.7128Z" fill="#313131"/>
<path d="M103.643 86.6992V78.0315C103.643 76.1758 103.113 74.6959 102.053 73.5919C100.994 72.4879 99.6207 71.9359 97.9348 71.9359C96.273 71.9359 94.9002 72.4879 93.8164 73.5919C92.7326 74.6959 92.1907 76.1405 92.1907 77.9258C92.1907 79.7345 92.7326 81.2143 93.8164 82.3653C94.9243 83.4928 96.3453 84.0566 98.0793 84.0566C99.6208 84.0566 101.114 83.528 102.559 82.471L101.295 86.382C100.379 86.7814 99.1872 86.981 97.7181 86.981C95.3578 86.981 93.3347 86.1706 91.6488 84.5498C89.8665 82.8351 88.9754 80.6506 88.9754 77.9962C88.9754 75.3889 89.8184 73.2396 91.5043 71.5483C93.1902 69.857 95.3217 69.0114 97.8987 69.0114C99.6328 69.0114 101.198 69.4225 102.595 70.2446C103.992 71.0668 105.076 72.2178 105.847 73.6976C106.256 74.4963 106.521 75.3301 106.641 76.1993C106.762 77.0449 106.822 78.1137 106.822 79.4056V86.6992H103.643Z" fill="#313131"/>
<path d="M110.944 86.7344V61.3655H114.123V86.7344H110.944Z" fill="#313131"/>
<path d="M118.168 64.3957C118.168 63.8554 118.349 63.4091 118.71 63.0568C119.095 62.6809 119.565 62.493 120.119 62.493C120.697 62.493 121.167 62.6692 121.528 63.0215C121.889 63.3739 122.07 63.8319 122.07 64.3957C122.07 64.936 121.877 65.394 121.492 65.7698C121.13 66.1222 120.673 66.2984 120.119 66.2984C119.589 66.2984 119.131 66.1104 118.746 65.7346C118.361 65.3588 118.168 64.9125 118.168 64.3957ZM118.529 86.6992V69.3285H121.708V86.6992H118.529Z" fill="#313131"/>
<path d="M125.862 86.6992V77.2211C125.862 74.6607 126.56 72.6523 127.957 71.196C129.354 69.7396 131.184 69.0114 133.448 69.0114C135.736 69.0114 137.567 69.7279 138.94 71.1607C140.312 72.5936 140.999 74.6137 140.999 77.2211V86.6992H137.856V76.6573C137.856 75.2479 137.446 74.1204 136.627 73.2748C135.809 72.4292 134.749 72.0064 133.448 72.0064C132.148 72.0064 131.076 72.4409 130.233 73.31C129.414 74.1557 129.005 75.2714 129.005 76.6573V86.6992H125.862Z" fill="#313131"/>
<path d="M158.821 86.6992V78.0315C158.821 76.1758 158.291 74.6959 157.231 73.5919C156.172 72.4879 154.799 71.9359 153.113 71.9359C151.451 71.9359 150.078 72.4879 148.994 73.5919C147.911 74.6959 147.369 76.1405 147.369 77.9258C147.369 79.7345 147.911 81.2143 148.994 82.3653C150.102 83.4928 151.523 84.0566 153.257 84.0566C154.799 84.0566 156.292 83.528 157.737 82.471L156.473 86.382C155.557 86.7814 154.365 86.981 152.896 86.981C150.536 86.981 148.513 86.1706 146.827 84.5498C145.045 82.8351 144.153 80.6506 144.153 77.9962C144.153 75.3889 144.996 73.2396 146.682 71.5483C148.368 69.857 150.5 69.0114 153.077 69.0114C154.811 69.0114 156.376 69.4225 157.773 70.2446C159.17 71.0668 160.254 72.2178 161.025 73.6976C161.434 74.4963 161.699 75.3301 161.819 76.1993C161.94 77.0449 162 78.1137 162 79.4056V86.6992H158.821Z" fill="#313131"/>
<mask id="mask0_1176_965" style="mask-type:alpha" maskUnits="userSpaceOnUse" x="0" y="60" width="162" height="35">
<path d="M0 74.1557C0 70.5852 1.31261 67.4846 3.93782 64.8537C6.56303 62.2229 9.65789 60.9075 13.2224 60.9075C15.3177 60.9075 17.2445 61.342 19.0027 62.2111C20.5923 62.9863 22.0132 64.1138 23.2656 65.5937L20.5561 67.6373C19.5687 66.4628 18.4728 65.5702 17.2686 64.9594C16.0885 64.3487 14.7397 64.0433 13.2224 64.0433C10.5731 64.0433 8.29711 65.0534 6.39444 67.0735C4.49176 69.0701 3.54042 71.4309 3.54042 74.1557C3.54042 76.716 4.49176 78.9945 6.39444 80.9912C8.29711 82.9643 10.5731 83.9509 13.2224 83.9509C14.8842 83.9509 16.4377 83.5398 17.8827 82.7177C19.3519 81.872 20.508 80.6858 21.3509 79.159L24.2049 81.2026C22.9525 83.0348 21.375 84.4911 19.4723 85.5716C17.5937 86.6287 15.5104 87.1572 13.2224 87.1572C9.65789 87.1572 6.56303 85.877 3.93782 83.3166C1.31261 80.7563 0 77.7026 0 74.1557Z" fill="#0A0A0A"/>
<path d="M40.7386 86.6992V78.0315C40.7386 76.1758 40.2087 74.6959 39.149 73.5919C38.0893 72.4879 36.7164 71.9359 35.0305 71.9359C33.3687 71.9359 31.9959 72.4879 30.9121 73.5919C29.8283 74.6959 29.2864 76.1405 29.2864 77.9258C29.2864 79.7345 29.8283 81.2143 30.9121 82.3653C32.02 83.4928 33.441 84.0566 35.175 84.0566C36.7164 84.0566 38.2097 83.528 39.6548 82.471L38.3903 86.382C37.4751 86.7814 36.2829 86.981 34.8138 86.981C32.4535 86.981 30.4304 86.1706 28.7445 84.5498C26.9622 82.8351 26.0711 80.6506 26.0711 77.9962C26.0711 75.3889 26.9141 73.2396 28.6 71.5483C30.2859 69.857 32.4174 69.0114 34.9944 69.0114C36.7285 69.0114 38.294 69.4225 39.6909 70.2446C41.0878 71.0668 42.1716 72.2178 42.9423 73.6976C43.3517 74.4963 43.6167 75.3301 43.7371 76.1993C43.8575 77.0449 43.9177 78.1137 43.9177 79.4056V86.6992H40.7386Z" fill="#0A0A0A"/>
<path d="M47.7508 94.6269V79.3351C47.7508 77.9023 47.799 76.81 47.8953 76.0583C47.9917 75.3067 48.2686 74.508 48.7262 73.6624C49.4969 72.1825 50.5808 71.0198 51.9777 70.1742C53.3986 69.3285 54.9762 68.9057 56.7103 68.9057C59.2873 68.9057 61.4188 69.7631 63.1047 71.4778C64.8147 73.1691 65.6697 75.3301 65.6697 77.961C65.6697 80.4744 64.8147 82.6002 63.1047 84.3384C61.4188 86.0532 59.3355 86.9106 56.8548 86.9106C56.1322 86.9106 55.482 86.8518 54.9039 86.7344C54.3259 86.6404 53.784 86.4995 53.2782 86.3116L52.0138 82.4005C53.507 83.4576 55.0123 83.9861 56.5296 83.9861C58.2396 83.9861 59.6486 83.4341 60.7565 82.3301C61.8643 81.2261 62.4183 79.7814 62.4183 77.9962C62.4183 76.1405 61.8764 74.6607 60.7926 73.5567C59.7329 72.4292 58.348 71.8654 56.638 71.8654C54.9762 71.8654 53.6034 72.4292 52.5196 73.5567C51.4598 74.6607 50.93 76.1288 50.93 77.961V94.6269H47.7508Z" fill="#0A0A0A"/>
<path d="M68.5996 64.3957C68.5996 63.8554 68.7803 63.4091 69.1415 63.0568C69.5269 62.6809 69.9965 62.493 70.5505 62.493C71.1285 62.493 71.5981 62.6692 71.9594 63.0215C72.3207 63.3739 72.5013 63.8319 72.5013 64.3957C72.5013 64.936 72.3086 65.394 71.9233 65.7698C71.562 66.1222 71.1044 66.2984 70.5505 66.2984C70.0206 66.2984 69.563 66.1104 69.1777 65.7346C68.7923 65.3588 68.5996 64.9125 68.5996 64.3957ZM68.9609 86.6992V69.3285H72.14V86.6992H68.9609Z" fill="#0A0A0A"/>
<path d="M76.3293 64.7128H79.5085V69.3285H84.8914V72.253H79.5085V80.0046C79.5085 81.32 79.7855 82.3183 80.3394 82.9995C80.8933 83.6807 81.6039 84.0213 82.4709 84.0213C84.0123 84.0213 85.361 83.6103 86.5171 82.7881L87.2396 85.7831C86.6616 86.1354 85.9511 86.429 85.1081 86.6639C84.2893 86.8753 83.4343 86.981 82.5431 86.981C80.7368 86.981 79.2797 86.4525 78.1718 85.3955C76.9435 84.2445 76.3293 82.6237 76.3293 80.5331V64.7128Z" fill="#0A0A0A"/>
<path d="M103.643 86.6992V78.0315C103.643 76.1758 103.113 74.6959 102.053 73.5919C100.994 72.4879 99.6207 71.9359 97.9348 71.9359C96.273 71.9359 94.9002 72.4879 93.8164 73.5919C92.7326 74.6959 92.1907 76.1405 92.1907 77.9258C92.1907 79.7345 92.7326 81.2143 93.8164 82.3653C94.9243 83.4928 96.3453 84.0566 98.0793 84.0566C99.6208 84.0566 101.114 83.528 102.559 82.471L101.295 86.382C100.379 86.7814 99.1872 86.981 97.7181 86.981C95.3578 86.981 93.3347 86.1706 91.6488 84.5498C89.8665 82.8351 88.9754 80.6506 88.9754 77.9962C88.9754 75.3889 89.8184 73.2396 91.5043 71.5483C93.1902 69.857 95.3217 69.0114 97.8987 69.0114C99.6328 69.0114 101.198 69.4225 102.595 70.2446C103.992 71.0668 105.076 72.2178 105.847 73.6976C106.256 74.4963 106.521 75.3301 106.641 76.1993C106.762 77.0449 106.822 78.1137 106.822 79.4056V86.6992H103.643Z" fill="#0A0A0A"/>
<path d="M110.944 86.7344V61.3655H114.123V86.7344H110.944Z" fill="#0A0A0A"/>
<path d="M118.168 64.3957C118.168 63.8554 118.349 63.4091 118.71 63.0568C119.095 62.6809 119.565 62.493 120.119 62.493C120.697 62.493 121.167 62.6692 121.528 63.0215C121.889 63.3739 122.07 63.8319 122.07 64.3957C122.07 64.936 121.877 65.394 121.492 65.7698C121.13 66.1222 120.673 66.2984 120.119 66.2984C119.589 66.2984 119.131 66.1104 118.746 65.7346C118.361 65.3588 118.168 64.9125 118.168 64.3957ZM118.529 86.6992V69.3285H121.708V86.6992H118.529Z" fill="#0A0A0A"/>
<path d="M125.862 86.6992V77.2211C125.862 74.6607 126.56 72.6523 127.957 71.196C129.354 69.7396 131.184 69.0114 133.448 69.0114C135.736 69.0114 137.567 69.7279 138.94 71.1607C140.312 72.5936 140.999 74.6137 140.999 77.2211V86.6992H137.856V76.6573C137.856 75.2479 137.446 74.1204 136.627 73.2748C135.809 72.4292 134.749 72.0064 133.448 72.0064C132.148 72.0064 131.076 72.4409 130.233 73.31C129.414 74.1557 129.005 75.2714 129.005 76.6573V86.6992H125.862Z" fill="#0A0A0A"/>
<path d="M158.821 86.6992V78.0315C158.821 76.1758 158.291 74.6959 157.231 73.5919C156.172 72.4879 154.799 71.9359 153.113 71.9359C151.451 71.9359 150.078 72.4879 148.994 73.5919C147.911 74.6959 147.369 76.1405 147.369 77.9258C147.369 79.7345 147.911 81.2143 148.994 82.3653C150.102 83.4928 151.523 84.0566 153.257 84.0566C154.799 84.0566 156.292 83.528 157.737 82.471L156.473 86.382C155.557 86.7814 154.365 86.981 152.896 86.981C150.536 86.981 148.513 86.1706 146.827 84.5498C145.045 82.8351 144.153 80.6506 144.153 77.9962C144.153 75.3889 144.996 73.2396 146.682 71.5483C148.368 69.857 150.5 69.0114 153.077 69.0114C154.811 69.0114 156.376 69.4225 157.773 70.2446C159.17 71.0668 160.254 72.2178 161.025 73.6976C161.434 74.4963 161.699 75.3301 161.819 76.1993C161.94 77.0449 162 78.1137 162 79.4056V86.6992H158.821Z" fill="#0A0A0A"/>
</mask>
<g mask="url(#mask0_1176_965)">
<rect x="115.819" y="50.6416" width="68.1719" height="54.2444" fill="white"/>
</g>
<rect x="54.7334" y="93.7432" width="59.5265" height="0.799014" fill="#313131"/>
<rect y="93.7432" width="43.9457" height="0.799014" fill="#313131"/>
</svg>
