<svg width="110" height="65" viewBox="0 0 110 65" fill="none" xmlns="http://www.w3.org/2000/svg">
<path d="M45.2177 26.4715L67.4253 5.37379L60.9053 5.3738L42.2627 22.7585C40.3064 24.7814 37.9843 22.4562 39.9504 20.6173L46.9999 14.0841C48.8089 11.4353 45.837 8.39892 43.2528 10.3371L35.1248 18.0203C35.1248 18.0203 30.6807 22.5294 35.1482 27.1484C39.8549 31.4452 45.2177 26.4715 45.2177 26.4715Z" fill="#313131"/>
<path d="M64.8799 12.1676L42.6724 33.2654L49.1924 33.2654L67.835 15.8807C69.7913 13.8578 72.1134 16.1829 70.1472 18.0218L63.0977 24.555C61.2888 27.2038 64.2606 30.2402 66.8448 28.3021L74.9729 20.6189C74.9729 20.6189 79.4169 16.1098 74.9495 11.4908C70.2427 7.19396 64.8799 12.1676 64.8799 12.1676Z" fill="#313131"/>
<path d="M47.3049 6.61223C48.0088 5.2437 49.6888 4.7049 51.0574 5.40878C52.4259 6.11266 52.9647 7.79268 52.2608 9.16121C51.5569 10.5297 49.8769 11.0686 48.5084 10.3647C47.1399 9.66079 46.601 7.98076 47.3049 6.61223Z" fill="#313131"/>
<path d="M62.7918 32.026C62.0879 33.3945 60.4078 33.9333 59.0393 33.2294C57.6708 32.5255 57.132 30.8455 57.8359 29.477C58.5397 28.1084 60.2198 27.5696 61.5883 28.2735C62.9568 28.9774 63.4956 30.6574 62.7918 32.026Z" fill="#313131"/>
<path d="M0 50.3526C0 47.9282 0.891275 45.8229 2.67383 44.0365C4.45638 42.2501 6.55782 41.3569 8.97817 41.3569C10.4009 41.3569 11.7092 41.652 12.903 42.2421C13.9824 42.7685 14.9473 43.5341 15.7977 44.5389L13.9579 45.9266C13.2874 45.1291 12.5433 44.523 11.7256 44.1083C10.9243 43.6936 10.0084 43.4862 8.97817 43.4862C7.17926 43.4862 5.63384 44.1721 4.3419 45.5438C3.04996 46.8995 2.40399 48.5024 2.40399 50.3526C2.40399 52.0911 3.04996 53.6383 4.3419 54.994C5.63384 56.3338 7.17926 57.0037 8.97817 57.0037C10.1066 57.0037 11.1614 56.7246 12.1426 56.1663C13.1402 55.5921 13.9252 54.7867 14.4975 53.7499L16.4354 55.1376C15.5851 56.3816 14.5139 57.3705 13.2219 58.1042C11.9464 58.822 10.5318 59.1808 8.97817 59.1808C6.55782 59.1808 4.45638 58.3116 2.67383 56.573C0.891275 54.8345 0 52.761 0 50.3526Z" fill="#313131"/>
<path d="M27.662 58.8698V52.9843C27.662 51.7243 27.3022 50.7195 26.5826 49.9698C25.8631 49.2202 24.9309 48.8454 23.7862 48.8454C22.6578 48.8454 21.7256 49.2202 20.9897 49.9698C20.2538 50.7195 19.8858 51.7004 19.8858 52.9126C19.8858 54.1407 20.2538 55.1455 20.9897 55.9271C21.742 56.6927 22.7068 57.0755 23.8843 57.0755C24.9309 57.0755 25.9449 56.7166 26.9261 55.9988L26.0675 58.6545C25.4461 58.9256 24.6366 59.0612 23.639 59.0612C22.0363 59.0612 20.6626 58.5109 19.5179 57.4104C18.3077 56.2461 17.7026 54.7627 17.7026 52.9604C17.7026 51.19 18.275 49.7306 19.4197 48.5822C20.5645 47.4338 22.0118 46.8596 23.7616 46.8596C24.9391 46.8596 26.0021 47.1387 26.9506 47.697C27.8991 48.2552 28.635 49.0368 29.1583 50.0416C29.4364 50.5839 29.6163 51.1501 29.698 51.7402C29.7798 52.3144 29.8207 53.0402 29.8207 53.9174V58.8698H27.662Z" fill="#313131"/>
<path d="M32.4234 64.2529V53.8695C32.4234 52.8966 32.4561 52.1549 32.5215 51.6446C32.5869 51.1342 32.775 50.5919 33.0857 50.0177C33.609 49.0128 34.345 48.2233 35.2935 47.6491C36.2583 47.0749 37.3295 46.7878 38.507 46.7878C40.2568 46.7878 41.7041 47.37 42.8489 48.5343C44.01 49.6827 44.5905 51.1501 44.5905 52.9365C44.5905 54.6431 44.01 56.0866 42.8489 57.2669C41.7041 58.4312 40.2895 59.0134 38.6051 59.0134C38.1145 59.0134 37.6729 58.9735 37.2804 58.8937C36.888 58.8299 36.52 58.7342 36.1766 58.6066L35.318 55.951C36.3319 56.6687 37.354 57.0276 38.3843 57.0276C39.5454 57.0276 40.5021 56.6528 41.2544 55.9031C42.0067 55.1535 42.3828 54.1726 42.3828 52.9604C42.3828 51.7004 42.0148 50.6955 41.2789 49.9459C40.5594 49.1803 39.619 48.7975 38.4579 48.7975C37.3295 48.7975 36.3973 49.1803 35.6614 49.9459C34.9419 50.6955 34.5821 51.6924 34.5821 52.9365V64.2529H32.4234Z" fill="#313131"/>
<path d="M46.58 43.7255C46.58 43.3586 46.7026 43.0556 46.948 42.8163C47.2096 42.5611 47.5285 42.4335 47.9046 42.4335C48.2971 42.4335 48.616 42.5532 48.8613 42.7924C49.1066 43.0317 49.2293 43.3427 49.2293 43.7255C49.2293 44.0923 49.0985 44.4033 48.8368 44.6585C48.5915 44.8978 48.2808 45.0174 47.9046 45.0174C47.5449 45.0174 47.2341 44.8898 46.9725 44.6346C46.7108 44.3794 46.58 44.0764 46.58 43.7255ZM46.8253 58.8698V47.0749H48.984V58.8698H46.8253Z" fill="#313131"/>
<path d="M51.8286 43.9408H53.9872V47.0749H57.6423V49.0607H53.9872V54.3241C53.9872 55.2173 54.1753 55.8952 54.5514 56.3577C54.9276 56.8203 55.41 57.0515 55.9988 57.0515C57.0454 57.0515 57.9612 56.7724 58.7462 56.2142L59.2368 58.2478C58.8443 58.487 58.3619 58.6864 57.7895 58.8459C57.2335 58.9894 56.6529 59.0612 56.0478 59.0612C54.8213 59.0612 53.8319 58.7023 53.0796 57.9846C52.2456 57.2031 51.8286 56.1025 51.8286 54.683V43.9408Z" fill="#313131"/>
<path d="M70.3748 58.8698V52.9843C70.3748 51.7243 70.015 50.7195 69.2954 49.9698C68.5759 49.2202 67.6437 48.8454 66.499 48.8454C65.3706 48.8454 64.4384 49.2202 63.7025 49.9698C62.9666 50.7195 62.5986 51.7004 62.5986 52.9126C62.5986 54.1407 62.9666 55.1455 63.7025 55.9271C64.4548 56.6927 65.4196 57.0755 66.5971 57.0755C67.6437 57.0755 68.6576 56.7166 69.6389 55.9988L68.7803 58.6545C68.1589 58.9256 67.3493 59.0612 66.3518 59.0612C64.7491 59.0612 63.3754 58.5109 62.2306 57.4104C61.0205 56.2461 60.4154 54.7627 60.4154 52.9604C60.4154 51.19 60.9878 49.7306 62.1325 48.5822C63.2773 47.4338 64.7246 46.8596 66.4744 46.8596C67.6519 46.8596 68.7149 47.1387 69.6634 47.697C70.6119 48.2552 71.3478 49.0368 71.8711 50.0416C72.1492 50.5839 72.329 51.1501 72.4108 51.7402C72.4926 52.3144 72.5335 53.0402 72.5335 53.9174V58.8698H70.3748Z" fill="#313131"/>
<path d="M75.3324 58.8937V41.668H77.4911V58.8937H75.3324Z" fill="#313131"/>
<path d="M80.2376 43.7255C80.2376 43.3586 80.3602 43.0556 80.6055 42.8163C80.8672 42.5611 81.1861 42.4335 81.5622 42.4335C81.9547 42.4335 82.2736 42.5532 82.5189 42.7924C82.7642 43.0317 82.8869 43.3427 82.8869 43.7255C82.8869 44.0923 82.756 44.4033 82.4944 44.6585C82.2491 44.8978 81.9384 45.0174 81.5622 45.0174C81.2024 45.0174 80.8917 44.8898 80.6301 44.6346C80.3684 44.3794 80.2376 44.0764 80.2376 43.7255ZM80.4829 58.8698V47.0749H82.6416V58.8698H80.4829Z" fill="#313131"/>
<path d="M85.4616 58.8698V52.4341C85.4616 50.6955 85.9359 49.3318 86.8844 48.3429C87.8329 47.3541 89.0758 46.8596 90.613 46.8596C92.1666 46.8596 93.4095 47.3461 94.3417 48.319C95.2738 49.292 95.7399 50.6636 95.7399 52.4341V58.8698H93.6057V52.0513C93.6057 51.0943 93.3277 50.3287 92.7717 49.7545C92.2157 49.1803 91.4961 48.8932 90.613 48.8932C89.7299 48.8932 89.0022 49.1883 88.4298 49.7784C87.8738 50.3526 87.5958 51.1102 87.5958 52.0513V58.8698H85.4616Z" fill="#313131"/>
<path d="M107.841 58.8698V52.9843C107.841 51.7243 107.482 50.7195 106.762 49.9698C106.042 49.2202 105.11 48.8454 103.965 48.8454C102.837 48.8454 101.905 49.2202 101.169 49.9698C100.433 50.7195 100.065 51.7004 100.065 52.9126C100.065 54.1407 100.433 55.1455 101.169 55.9271C101.921 56.6927 102.886 57.0755 104.064 57.0755C105.11 57.0755 106.124 56.7166 107.105 55.9988L106.247 58.6545C105.625 58.9256 104.816 59.0612 103.818 59.0612C102.216 59.0612 100.842 58.5109 99.6972 57.4104C98.487 56.2461 97.8819 54.7627 97.8819 52.9604C97.8819 51.19 98.4543 49.7306 99.5991 48.5822C100.744 47.4338 102.191 46.8596 103.941 46.8596C105.118 46.8596 106.181 47.1387 107.13 47.697C108.078 48.2552 108.814 49.0368 109.338 50.0416C109.616 50.5839 109.796 51.1501 109.877 51.7402C109.959 52.3144 110 53.0402 110 53.9174V58.8698H107.841Z" fill="#313131"/>
<mask id="mask0_1178_1978" style="mask-type:alpha" maskUnits="userSpaceOnUse" x="0" y="41" width="110" height="24">
<path d="M0 50.3526C0 47.9282 0.891275 45.8229 2.67383 44.0365C4.45638 42.2501 6.55782 41.3569 8.97817 41.3569C10.4009 41.3569 11.7092 41.652 12.903 42.2421C13.9824 42.7685 14.9473 43.5341 15.7977 44.5389L13.9579 45.9266C13.2874 45.1291 12.5433 44.523 11.7256 44.1083C10.9243 43.6936 10.0084 43.4862 8.97817 43.4862C7.17926 43.4862 5.63384 44.1721 4.3419 45.5438C3.04996 46.8995 2.40399 48.5024 2.40399 50.3526C2.40399 52.0911 3.04996 53.6383 4.3419 54.994C5.63384 56.3338 7.17926 57.0037 8.97817 57.0037C10.1066 57.0037 11.1614 56.7246 12.1426 56.1663C13.1402 55.5921 13.9252 54.7867 14.4975 53.7499L16.4354 55.1376C15.5851 56.3816 14.5139 57.3705 13.2219 58.1042C11.9464 58.822 10.5318 59.1808 8.97817 59.1808C6.55782 59.1808 4.45638 58.3116 2.67383 56.573C0.891275 54.8345 0 52.761 0 50.3526Z" fill="#0A0A0A"/>
<path d="M27.662 58.8698V52.9843C27.662 51.7243 27.3022 50.7195 26.5826 49.9698C25.8631 49.2202 24.9309 48.8454 23.7862 48.8454C22.6578 48.8454 21.7256 49.2202 20.9897 49.9698C20.2538 50.7195 19.8858 51.7004 19.8858 52.9126C19.8858 54.1407 20.2538 55.1455 20.9897 55.9271C21.742 56.6927 22.7068 57.0755 23.8843 57.0755C24.9309 57.0755 25.9449 56.7166 26.9261 55.9988L26.0675 58.6545C25.4461 58.9256 24.6366 59.0612 23.639 59.0612C22.0363 59.0612 20.6626 58.5109 19.5179 57.4104C18.3077 56.2461 17.7026 54.7627 17.7026 52.9604C17.7026 51.19 18.275 49.7306 19.4197 48.5822C20.5645 47.4338 22.0118 46.8596 23.7616 46.8596C24.9391 46.8596 26.0021 47.1387 26.9506 47.697C27.8991 48.2552 28.635 49.0368 29.1583 50.0416C29.4364 50.5839 29.6163 51.1501 29.698 51.7402C29.7798 52.3144 29.8207 53.0402 29.8207 53.9174V58.8698H27.662Z" fill="#0A0A0A"/>
<path d="M32.4234 64.2529V53.8695C32.4234 52.8966 32.4561 52.1549 32.5215 51.6446C32.5869 51.1342 32.775 50.5919 33.0857 50.0177C33.609 49.0128 34.345 48.2233 35.2935 47.6491C36.2583 47.0749 37.3295 46.7878 38.507 46.7878C40.2568 46.7878 41.7041 47.37 42.8489 48.5343C44.01 49.6827 44.5905 51.1501 44.5905 52.9365C44.5905 54.6431 44.01 56.0866 42.8489 57.2669C41.7041 58.4312 40.2895 59.0134 38.6051 59.0134C38.1145 59.0134 37.6729 58.9735 37.2804 58.8937C36.888 58.8299 36.52 58.7342 36.1766 58.6066L35.318 55.951C36.3319 56.6687 37.354 57.0276 38.3843 57.0276C39.5454 57.0276 40.5021 56.6528 41.2544 55.9031C42.0067 55.1535 42.3828 54.1726 42.3828 52.9604C42.3828 51.7004 42.0148 50.6955 41.2789 49.9459C40.5594 49.1803 39.619 48.7975 38.4579 48.7975C37.3295 48.7975 36.3973 49.1803 35.6614 49.9459C34.9419 50.6955 34.5821 51.6924 34.5821 52.9365V64.2529H32.4234Z" fill="#0A0A0A"/>
<path d="M46.58 43.7255C46.58 43.3586 46.7026 43.0556 46.948 42.8163C47.2096 42.5611 47.5285 42.4335 47.9046 42.4335C48.2971 42.4335 48.616 42.5532 48.8613 42.7924C49.1066 43.0317 49.2293 43.3427 49.2293 43.7255C49.2293 44.0923 49.0985 44.4033 48.8368 44.6585C48.5915 44.8978 48.2808 45.0174 47.9046 45.0174C47.5449 45.0174 47.2341 44.8898 46.9725 44.6346C46.7108 44.3794 46.58 44.0764 46.58 43.7255ZM46.8253 58.8698V47.0749H48.984V58.8698H46.8253Z" fill="#0A0A0A"/>
<path d="M51.8286 43.9408H53.9872V47.0749H57.6423V49.0607H53.9872V54.3241C53.9872 55.2173 54.1753 55.8952 54.5514 56.3577C54.9276 56.8203 55.41 57.0515 55.9988 57.0515C57.0454 57.0515 57.9612 56.7724 58.7462 56.2142L59.2368 58.2478C58.8443 58.487 58.3619 58.6864 57.7895 58.8459C57.2335 58.9894 56.6529 59.0612 56.0478 59.0612C54.8213 59.0612 53.8319 58.7023 53.0796 57.9846C52.2456 57.2031 51.8286 56.1025 51.8286 54.683V43.9408Z" fill="#0A0A0A"/>
<path d="M70.3748 58.8698V52.9843C70.3748 51.7243 70.015 50.7195 69.2954 49.9698C68.5759 49.2202 67.6437 48.8454 66.499 48.8454C65.3706 48.8454 64.4384 49.2202 63.7025 49.9698C62.9666 50.7195 62.5986 51.7004 62.5986 52.9126C62.5986 54.1407 62.9666 55.1455 63.7025 55.9271C64.4548 56.6927 65.4196 57.0755 66.5971 57.0755C67.6437 57.0755 68.6576 56.7166 69.6389 55.9988L68.7803 58.6545C68.1589 58.9256 67.3493 59.0612 66.3518 59.0612C64.7491 59.0612 63.3754 58.5109 62.2306 57.4104C61.0205 56.2461 60.4154 54.7627 60.4154 52.9604C60.4154 51.19 60.9878 49.7306 62.1325 48.5822C63.2773 47.4338 64.7246 46.8596 66.4744 46.8596C67.6519 46.8596 68.7149 47.1387 69.6634 47.697C70.6119 48.2552 71.3478 49.0368 71.8711 50.0416C72.1492 50.5839 72.329 51.1501 72.4108 51.7402C72.4926 52.3144 72.5335 53.0402 72.5335 53.9174V58.8698H70.3748Z" fill="#0A0A0A"/>
<path d="M75.3324 58.8937V41.668H77.4911V58.8937H75.3324Z" fill="#0A0A0A"/>
<path d="M80.2376 43.7255C80.2376 43.3586 80.3602 43.0556 80.6055 42.8163C80.8672 42.5611 81.1861 42.4335 81.5622 42.4335C81.9547 42.4335 82.2736 42.5532 82.5189 42.7924C82.7642 43.0317 82.8869 43.3427 82.8869 43.7255C82.8869 44.0923 82.756 44.4033 82.4944 44.6585C82.2491 44.8978 81.9384 45.0174 81.5622 45.0174C81.2024 45.0174 80.8917 44.8898 80.6301 44.6346C80.3684 44.3794 80.2376 44.0764 80.2376 43.7255ZM80.4829 58.8698V47.0749H82.6416V58.8698H80.4829Z" fill="#0A0A0A"/>
<path d="M85.4616 58.8698V52.4341C85.4616 50.6955 85.9359 49.3318 86.8844 48.3429C87.8329 47.3541 89.0758 46.8596 90.613 46.8596C92.1666 46.8596 93.4095 47.3461 94.3417 48.319C95.2738 49.292 95.7399 50.6636 95.7399 52.4341V58.8698H93.6057V52.0513C93.6057 51.0943 93.3277 50.3287 92.7717 49.7545C92.2157 49.1803 91.4961 48.8932 90.613 48.8932C89.7299 48.8932 89.0022 49.1883 88.4298 49.7784C87.8738 50.3526 87.5958 51.1102 87.5958 52.0513V58.8698H85.4616Z" fill="#0A0A0A"/>
<path d="M107.841 58.8698V52.9843C107.841 51.7243 107.482 50.7195 106.762 49.9698C106.042 49.2202 105.11 48.8454 103.965 48.8454C102.837 48.8454 101.905 49.2202 101.169 49.9698C100.433 50.7195 100.065 51.7004 100.065 52.9126C100.065 54.1407 100.433 55.1455 101.169 55.9271C101.921 56.6927 102.886 57.0755 104.064 57.0755C105.11 57.0755 106.124 56.7166 107.105 55.9988L106.247 58.6545C105.625 58.9256 104.816 59.0612 103.818 59.0612C102.216 59.0612 100.842 58.5109 99.6972 57.4104C98.487 56.2461 97.8819 54.7627 97.8819 52.9604C97.8819 51.19 98.4543 49.7306 99.5991 48.5822C100.744 47.4338 102.191 46.8596 103.941 46.8596C105.118 46.8596 106.181 47.1387 107.13 47.697C108.078 48.2552 108.814 49.0368 109.338 50.0416C109.616 50.5839 109.796 51.1501 109.877 51.7402C109.959 52.3144 110 53.0402 110 53.9174V58.8698H107.841Z" fill="#0A0A0A"/>
</mask>
<g mask="url(#mask0_1178_1978)">
<rect x="78.6426" y="34.3862" width="46.2896" height="36.8326" fill="#F98600"/>
</g>
<rect x="37.165" y="63.6528" width="40.4192" height="0.54254" fill="#313131"/>
<rect y="63.6528" width="29.8397" height="0.54254" fill="#313131"/>
</svg>
